<?xml version="1.0" encoding="UTF-8" standalone="no"?>
<svg
   xmlns:dc="http://purl.org/dc/elements/1.1/"
   xmlns:cc="http://creativecommons.org/ns#"
   xmlns:rdf="http://www.w3.org/1999/02/22-rdf-syntax-ns#"
   xmlns:svg="http://www.w3.org/2000/svg"
   xmlns="http://www.w3.org/2000/svg"
   xmlns:sodipodi="http://sodipodi.sourceforge.net/DTD/sodipodi-0.dtd"
   xmlns:inkscape="http://www.inkscape.org/namespaces/inkscape"
   version="1.1"
   id="Layer_1"
   x="0px"
   y="0px"
   width="1000"
   height="1024"
   viewBox="0 0 1000 1024"
   enable-background="new 0 0 512 512"
   xml:space="preserve"
   inkscape:version="0.48.0 r9654"
   sodipodi:docname="alefhebrew-x5d0.svg"><title
   id="title3743">Sinai 357</title><metadata
   id="metadata72"><rdf:RDF><cc:Work
       rdf:about=""><dc:format>image/svg+xml</dc:format><dc:type
         rdf:resource="http://purl.org/dc/dcmitype/StillImage" /><dc:title>Sinai 357</dc:title><dc:date>2017</dc:date><dc:creator><cc:Agent><dc:title>Celeste Claire Horner</dc:title></cc:Agent></dc:creator><dc:publisher><cc:Agent><dc:title>beitdina.net</dc:title></cc:Agent></dc:publisher></cc:Work></rdf:RDF></metadata><defs
   id="defs70" /><sodipodi:namedview
   pagecolor="#ffffff"
   bordercolor="#666666"
   borderopacity="1"
   objecttolerance="10"
   gridtolerance="10"
   guidetolerance="10"
   inkscape:pageopacity="0"
   inkscape:pageshadow="2"
   inkscape:window-width="1152"
   inkscape:window-height="814"
   id="namedview68"
   showgrid="false"
   inkscape:zoom="0.18022936"
   inkscape:cx="-812.95905"
   inkscape:cy="500.95829"
   inkscape:window-x="-8"
   inkscape:window-y="-8"
   inkscape:window-maximized="1"
   inkscape:current-layer="Layer_1" />
   
	<g
   id="Grid"
   transform="matrix(1.9502951,0,0,1.9942504,1.456297,2.4527424)">
		<rect
   x="0"
   stroke-miterlimit="10"
   width="512"
   height="512"
   id="rect4"
   y="0"
   style="fill:none;stroke:#a9ccdb;stroke-miterlimit:10" />
		<line
   stroke-miterlimit="10"
   x1="0"
   y1="32"
   x2="512"
   y2="32"
   id="line6"
   style="fill:none;stroke:#a9ccdb;stroke-miterlimit:10" />
		<line
   stroke-miterlimit="10"
   x1="0"
   y1="64"
   x2="512"
   y2="64"
   id="line8"
   style="fill:none;stroke:#a9ccdb;stroke-miterlimit:10" />
		<line
   stroke-miterlimit="10"
   x1="0"
   y1="96"
   x2="512"
   y2="96"
   id="line10"
   style="fill:none;stroke:#a9ccdb;stroke-miterlimit:10" />
		<line
   stroke-miterlimit="10"
   x1="0"
   y1="128"
   x2="512"
   y2="128"
   id="line12"
   style="fill:none;stroke:#a9ccdb;stroke-miterlimit:10" />
		<line
   stroke-miterlimit="10"
   x1="0"
   y1="160"
   x2="512"
   y2="160"
   id="line14"
   style="fill:none;stroke:#a9ccdb;stroke-miterlimit:10" />
		<line
   stroke-miterlimit="10"
   x1="0"
   y1="192"
   x2="512"
   y2="192"
   id="line16"
   style="fill:none;stroke:#a9ccdb;stroke-miterlimit:10" />
		<line
   stroke-miterlimit="10"
   x1="0"
   y1="224"
   x2="512"
   y2="224"
   id="line18"
   style="fill:none;stroke:#a9ccdb;stroke-miterlimit:10" />
		<line
   stroke-miterlimit="10"
   x1="0"
   y1="256"
   x2="512"
   y2="256"
   id="line20"
   style="fill:none;stroke:#a9ccdb;stroke-miterlimit:10" />
		<line
   stroke-miterlimit="10"
   x1="0"
   y1="288"
   x2="512"
   y2="288"
   id="line22"
   style="fill:none;stroke:#a9ccdb;stroke-miterlimit:10" />
		<line
   stroke-miterlimit="10"
   x1="0"
   y1="320"
   x2="512"
   y2="320"
   id="line24"
   style="fill:none;stroke:#a9ccdb;stroke-miterlimit:10" />
		<line
   stroke-miterlimit="10"
   x1="0"
   y1="352"
   x2="512"
   y2="352"
   id="line26"
   style="fill:none;stroke:#a9ccdb;stroke-miterlimit:10" />
		<line
   stroke-miterlimit="10"
   x1="0"
   y1="384"
   x2="512"
   y2="384"
   id="line28"
   style="fill:none;stroke:#a9ccdb;stroke-miterlimit:10" />
		<line
   stroke-miterlimit="10"
   x1="0"
   y1="416"
   x2="512"
   y2="416"
   id="line30"
   style="fill:none;stroke:#a9ccdb;stroke-miterlimit:10" />
		<line
   stroke-miterlimit="10"
   x1="0"
   y1="448"
   x2="512"
   y2="448"
   id="line32"
   style="fill:none;stroke:#ff0000;stroke-miterlimit:10" />
		<line
   stroke-miterlimit="10"
   x1="0"
   y1="480"
   x2="512"
   y2="480"
   id="line34"
   style="fill:none;stroke:#a9ccdb;stroke-miterlimit:10" />
		<line
   stroke-miterlimit="10"
   x1="32"
   y1="0"
   x2="32"
   y2="512"
   id="line36"
   style="fill:none;stroke:#a9ccdb;stroke-miterlimit:10" />
		<line
   stroke-miterlimit="10"
   x1="64"
   y1="0"
   x2="64"
   y2="512"
   id="line38"
   style="fill:none;stroke:#a9ccdb;stroke-miterlimit:10" />
		<line
   stroke-miterlimit="10"
   x1="96"
   y1="0"
   x2="96"
   y2="512"
   id="line40"
   style="fill:none;stroke:#a9ccdb;stroke-miterlimit:10" />
		<line
   stroke-miterlimit="10"
   x1="128"
   y1="0"
   x2="128"
   y2="512"
   id="line42"
   style="fill:none;stroke:#a9ccdb;stroke-miterlimit:10" />
		<line
   stroke-miterlimit="10"
   x1="160"
   y1="0"
   x2="160"
   y2="512"
   id="line44"
   style="fill:none;stroke:#a9ccdb;stroke-miterlimit:10" />
		<line
   stroke-miterlimit="10"
   x1="192"
   y1="0"
   x2="192"
   y2="512"
   id="line46"
   style="fill:none;stroke:#a9ccdb;stroke-miterlimit:10" />
		<line
   stroke-miterlimit="10"
   x1="224"
   y1="0"
   x2="224"
   y2="512"
   id="line48"
   style="fill:none;stroke:#a9ccdb;stroke-miterlimit:10" />
		<line
   stroke-miterlimit="10"
   x1="256"
   y1="0"
   x2="256"
   y2="512"
   id="line50"
   style="fill:none;stroke:#a9ccdb;stroke-miterlimit:10" />
		<line
   stroke-miterlimit="10"
   x1="288"
   y1="0"
   x2="288"
   y2="512"
   id="line52"
   style="fill:none;stroke:#a9ccdb;stroke-miterlimit:10" />
		<line
   stroke-miterlimit="10"
   x1="320"
   y1="0"
   x2="320"
   y2="512"
   id="line54"
   style="fill:none;stroke:#a9ccdb;stroke-miterlimit:10" />
		<line
   stroke-miterlimit="10"
   x1="352"
   y1="0"
   x2="352"
   y2="512"
   id="line56"
   style="fill:none;stroke:#a9ccdb;stroke-miterlimit:10" />
		<line
   stroke-miterlimit="10"
   x1="384"
   y1="0"
   x2="384"
   y2="512"
   id="line58"
   style="fill:none;stroke:#a9ccdb;stroke-miterlimit:10" />
		<line
   stroke-miterlimit="10"
   x1="416"
   y1="0"
   x2="416"
   y2="512"
   id="line60"
   style="fill:none;stroke:#a9ccdb;stroke-miterlimit:10" />
		<line
   stroke-miterlimit="10"
   x1="448"
   y1="0"
   x2="448"
   y2="512"
   id="line62"
   style="fill:none;stroke:#a9ccdb;stroke-miterlimit:10" />
		<line
   stroke-miterlimit="10"
   x1="480"
   y1="0"
   x2="480"
   y2="512"
   id="line64"
   style="fill:none;stroke:#a9ccdb;stroke-miterlimit:10" />
	</g>
	

<path
   style="fill:#58211b;fill-opacity:1"
   d="m 615.38341,94.808354 c -14.01516,40.921766 7.75835,80.334376 -14.39383,116.043716 -23.47973,43.49522 -51.69233,93.36957 -79.75482,132.76885 -8.22555,11.54855 -16.67656,22.67382 -25.36979,33.23083 -9.18316,11.16496 -18.32017,22.61451 -27.34441,34.12324 -13.76543,17.55524 -24.49423,29.69971 -37.49841,46.73035 -8.09894,10.60661 -16.00439,20.95633 -23.65922,30.8559 -8.92197,11.53828 -17.50348,22.46505 -25.65409,32.47431 -5.33627,6.56934 -4.70135,7.29896 -9.73944,14.10972 -4.51534,6.18107 -11.86355,11.2794 -18.831,14.62815 -4.3823,1.87479 -20.9653,0.54045 -23.68303,0.51803 -13.39334,-0.23773 -18.42028,-7.49647 -27.01065,-16.70947 -22.6956,-31.67853 -73.46875,-124.03012 -75.57495,-166.84493 -3.0091,-61.16985 -2.8323,-87.09019 -23.4592,-119.74542 -14.6311,-32.80618 -26.4457,-35.31163 -43.6788,-44.36867 -39.0472,-21.70416 -70.149295,-19.91462 -96.314095,13.50184 -15.3062,28.26704 -13.426,57.08073 -13.9228,89.63589 -1.2436,81.48223 34.7592,169.02363 62.254795,225.72003 2.9237,6.09085 7.611,13.1855 13.5058,20.92078 4.738,6.21741 10.2561,12.84868 16.2655,19.70526 5.7935,6.61021 12.0436,13.42981 18.4916,20.28984 27.4387,29.19188 27.9442,61.88995 42.6122,79.52502 6.9337,4.14779 13.3503,15.47944 19.4495,22.15899 7.3377,8.07174 13.9731,15.73194 20.4183,23.30189 7.21008,8.4683 14.18207,16.82366 21.63265,25.51587 8.07172,10.59434 19.92442,21.69693 29.62479,24.53032 17.239,-0.77674 36.15984,-0.3572 55.65678,0.32924 18.68943,0.65802 38.13326,1.78633 46.92181,-7.86938 3.18271,-9.27183 21.43272,-18.74522 26.48502,-26.06643 9.38408,-12.29461 -1.26199,-32.54846 8.07936,-45.20703 21.04153,-28.51364 58.78356,-68.98973 76.16004,-94.46208 5.82349,-7.60223 13.50183,-17.07503 20.92316,-26.31893 7.53713,-9.38814 14.80917,-18.54018 19.60382,-25.2568 5.4677,-7.48927 12.45039,-14.29663 19.99808,-20.84837 12.54931,-10.89337 26.66055,-21.08009 37.96728,-32.51963 5.46477,-4.96217 25.37364,-0.73174 41.26646,3.79964 23.02022,3.41279 20.04553,13.42348 19.291,31.86531 -0.70341,17.38614 7.46476,64.10857 10.9844,83.7933 2.37165,13.26424 5.69286,26.33938 9.56739,39.02022 4.48663,14.68414 9.71522,28.83956 15.07053,42.14762 6.07426,15.09466 12.31155,29.09918 17.8141,41.5486 36.01841,82.15529 92.11845,119.21685 162.46242,85.99914 7.65645,-5.27035 16.74715,-11.21421 23.41219,-24.85681 7.57749,-15.70436 11.61079,-32.625 15.5442,-49.36242 2.43078,-15.58267 0.59565,-29.49691 -3.78543,-42.17411 -5.66867,-16.40301 -15.59969,-30.735 -26.06724,-43.93043 -9.15887,-11.89254 -17.55776,-24.31925 -26.09498,-36.53766 -5.77192,-8.26074 -11.60708,-16.42627 -17.78307,-24.26712 -6.22463,-7.92582 -12.35407,-17.30704 -18.82684,-26.45507 -6.41549,-9.06707 -13.16826,-17.90505 -20.68527,-24.86977 -20.6268,-19.23001 -2.72294,-64.32056 -19.143,-75.99246 -15.14266,-16.36539 -32.48206,-21.32725 -47.49845,-37.80858 -12.96859,-15.08867 -28.6561,-50.93949 -31.75594,-58.58443 -1.82732,-6.87985 -4.16336,-9.5909 -3.0726,-15.09632 0.87996,-4.44013 0.79769,-10.28047 1.68181,-15.48892 0.83436,-4.73306 0.96648,-9.37943 0.94318,-13.9696 -0.0165,-3.24893 -1.49797,-7.85683 -1.47633,-11.06024 0.0485,-5.93307 -0.94849,-8.58791 0.64072,-12.69489 19.62703,-47.91617 17.25851,1.31392 36.6184,-50.32592 6.3517,-16.94227 1.88996,-76.61531 0.51089,-87.37967 -0.86454,-6.74814 -16.624,-14.31198 -19.38833,-23.04128 -2.75306,-8.69373 -6.37507,-18.54345 -10.72018,-29.89466 -3.86262,-10.09075 -9.43907,-14.187736 -12.82311,-25.375346 -24.39393,-35.71281 -78.66935,-19.71274 -86.84891,6.59099 z"
   id="path3758"
   inkscape:connector-curvature="0"
   sodipodi:nodetypes="ccscssscccccscccscsssccsccsccscscscccsssccccscscsccccscsccssssccc" /></svg>