<?xml version="1.0" encoding="UTF-8" standalone="no"?>
<svg
   xmlns:dc="http://purl.org/dc/elements/1.1/"
   xmlns:cc="http://creativecommons.org/ns#"
   xmlns:rdf="http://www.w3.org/1999/02/22-rdf-syntax-ns#"
   xmlns:svg="http://www.w3.org/2000/svg"
   xmlns="http://www.w3.org/2000/svg"
   xmlns:sodipodi="http://sodipodi.sourceforge.net/DTD/sodipodi-0.dtd"
   xmlns:inkscape="http://www.inkscape.org/namespaces/inkscape"
   version="1.1"
   id="Layer_1"
   x="0px"
   y="0px"
   width="1000"
   height="1024"
   viewBox="0 0 1000 1024"
   enable-background="new 0 0 512 512"
   xml:space="preserve"
   inkscape:version="0.48.0 r9654"
   sodipodi:docname="alefhebrew-x5d0.svg"><title
   id="title3743">Sinai 357</title><metadata
   id="metadata72"><rdf:RDF><cc:Work
       rdf:about=""><dc:format>image/svg+xml</dc:format><dc:type
         rdf:resource="http://purl.org/dc/dcmitype/StillImage" /><dc:title>Sinai 357</dc:title><dc:date>2017</dc:date><dc:creator><cc:Agent><dc:title>Celeste Claire Horner</dc:title></cc:Agent></dc:creator><dc:publisher><cc:Agent><dc:title>beitdina.net</dc:title></cc:Agent></dc:publisher></cc:Work></rdf:RDF></metadata><defs
   id="defs70" /><sodipodi:namedview
   pagecolor="#ffffff"
   bordercolor="#666666"
   borderopacity="1"
   objecttolerance="10"
   gridtolerance="10"
   guidetolerance="10"
   inkscape:pageopacity="0"
   inkscape:pageshadow="2"
   inkscape:window-width="1152"
   inkscape:window-height="814"
   id="namedview68"
   showgrid="false"
   inkscape:zoom="0.50976561"
   inkscape:cx="-10.117882"
   inkscape:cy="352.39821"
   inkscape:window-x="-8"
   inkscape:window-y="-8"
   inkscape:window-maximized="1"
   inkscape:current-layer="Layer_1" />
   
	<g
   id="Grid"
   transform="matrix(1.9502951,0,0,1.9942504,1.456297,2.4527424)">
		<rect
   x="0"
   stroke-miterlimit="10"
   width="512"
   height="512"
   id="rect4"
   y="0"
   style="fill:none;stroke:#a9ccdb;stroke-miterlimit:10" />
		<line
   stroke-miterlimit="10"
   x1="0"
   y1="32"
   x2="512"
   y2="32"
   id="line6"
   style="fill:none;stroke:#a9ccdb;stroke-miterlimit:10" />
		<line
   stroke-miterlimit="10"
   x1="0"
   y1="64"
   x2="512"
   y2="64"
   id="line8"
   style="fill:none;stroke:#a9ccdb;stroke-miterlimit:10" />
		<line
   stroke-miterlimit="10"
   x1="0"
   y1="96"
   x2="512"
   y2="96"
   id="line10"
   style="fill:none;stroke:#a9ccdb;stroke-miterlimit:10" />
		<line
   stroke-miterlimit="10"
   x1="0"
   y1="128"
   x2="512"
   y2="128"
   id="line12"
   style="fill:none;stroke:#a9ccdb;stroke-miterlimit:10" />
		<line
   stroke-miterlimit="10"
   x1="0"
   y1="160"
   x2="512"
   y2="160"
   id="line14"
   style="fill:none;stroke:#a9ccdb;stroke-miterlimit:10" />
		<line
   stroke-miterlimit="10"
   x1="0"
   y1="192"
   x2="512"
   y2="192"
   id="line16"
   style="fill:none;stroke:#a9ccdb;stroke-miterlimit:10" />
		<line
   stroke-miterlimit="10"
   x1="0"
   y1="224"
   x2="512"
   y2="224"
   id="line18"
   style="fill:none;stroke:#a9ccdb;stroke-miterlimit:10" />
		<line
   stroke-miterlimit="10"
   x1="0"
   y1="256"
   x2="512"
   y2="256"
   id="line20"
   style="fill:none;stroke:#a9ccdb;stroke-miterlimit:10" />
		<line
   stroke-miterlimit="10"
   x1="0"
   y1="288"
   x2="512"
   y2="288"
   id="line22"
   style="fill:none;stroke:#a9ccdb;stroke-miterlimit:10" />
		<line
   stroke-miterlimit="10"
   x1="0"
   y1="320"
   x2="512"
   y2="320"
   id="line24"
   style="fill:none;stroke:#a9ccdb;stroke-miterlimit:10" />
		<line
   stroke-miterlimit="10"
   x1="0"
   y1="352"
   x2="512"
   y2="352"
   id="line26"
   style="fill:none;stroke:#a9ccdb;stroke-miterlimit:10" />
		<line
   stroke-miterlimit="10"
   x1="0"
   y1="384"
   x2="512"
   y2="384"
   id="line28"
   style="fill:none;stroke:#a9ccdb;stroke-miterlimit:10" />
		<line
   stroke-miterlimit="10"
   x1="0"
   y1="416"
   x2="512"
   y2="416"
   id="line30"
   style="fill:none;stroke:#a9ccdb;stroke-miterlimit:10" />
		<line
   stroke-miterlimit="10"
   x1="0"
   y1="448"
   x2="512"
   y2="448"
   id="line32"
   style="fill:none;stroke:#ff0000;stroke-miterlimit:10" />
		<line
   stroke-miterlimit="10"
   x1="0"
   y1="480"
   x2="512"
   y2="480"
   id="line34"
   style="fill:none;stroke:#a9ccdb;stroke-miterlimit:10" />
		<line
   stroke-miterlimit="10"
   x1="32"
   y1="0"
   x2="32"
   y2="512"
   id="line36"
   style="fill:none;stroke:#a9ccdb;stroke-miterlimit:10" />
		<line
   stroke-miterlimit="10"
   x1="64"
   y1="0"
   x2="64"
   y2="512"
   id="line38"
   style="fill:none;stroke:#a9ccdb;stroke-miterlimit:10" />
		<line
   stroke-miterlimit="10"
   x1="96"
   y1="0"
   x2="96"
   y2="512"
   id="line40"
   style="fill:none;stroke:#a9ccdb;stroke-miterlimit:10" />
		<line
   stroke-miterlimit="10"
   x1="128"
   y1="0"
   x2="128"
   y2="512"
   id="line42"
   style="fill:none;stroke:#a9ccdb;stroke-miterlimit:10" />
		<line
   stroke-miterlimit="10"
   x1="160"
   y1="0"
   x2="160"
   y2="512"
   id="line44"
   style="fill:none;stroke:#a9ccdb;stroke-miterlimit:10" />
		<line
   stroke-miterlimit="10"
   x1="192"
   y1="0"
   x2="192"
   y2="512"
   id="line46"
   style="fill:none;stroke:#a9ccdb;stroke-miterlimit:10" />
		<line
   stroke-miterlimit="10"
   x1="224"
   y1="0"
   x2="224"
   y2="512"
   id="line48"
   style="fill:none;stroke:#a9ccdb;stroke-miterlimit:10" />
		<line
   stroke-miterlimit="10"
   x1="256"
   y1="0"
   x2="256"
   y2="512"
   id="line50"
   style="fill:none;stroke:#a9ccdb;stroke-miterlimit:10" />
		<line
   stroke-miterlimit="10"
   x1="288"
   y1="0"
   x2="288"
   y2="512"
   id="line52"
   style="fill:none;stroke:#a9ccdb;stroke-miterlimit:10" />
		<line
   stroke-miterlimit="10"
   x1="320"
   y1="0"
   x2="320"
   y2="512"
   id="line54"
   style="fill:none;stroke:#a9ccdb;stroke-miterlimit:10" />
		<line
   stroke-miterlimit="10"
   x1="352"
   y1="0"
   x2="352"
   y2="512"
   id="line56"
   style="fill:none;stroke:#a9ccdb;stroke-miterlimit:10" />
		<line
   stroke-miterlimit="10"
   x1="384"
   y1="0"
   x2="384"
   y2="512"
   id="line58"
   style="fill:none;stroke:#a9ccdb;stroke-miterlimit:10" />
		<line
   stroke-miterlimit="10"
   x1="416"
   y1="0"
   x2="416"
   y2="512"
   id="line60"
   style="fill:none;stroke:#a9ccdb;stroke-miterlimit:10" />
		<line
   stroke-miterlimit="10"
   x1="448"
   y1="0"
   x2="448"
   y2="512"
   id="line62"
   style="fill:none;stroke:#a9ccdb;stroke-miterlimit:10" />
		<line
   stroke-miterlimit="10"
   x1="480"
   y1="0"
   x2="480"
   y2="512"
   id="line64"
   style="fill:none;stroke:#a9ccdb;stroke-miterlimit:10" />
	</g>
	
<path
   sodipodi:nodetypes="cssscssscsscccccccsccsccccccscccccccccccccccccsccscccsscssscccscccscscc"
   inkscape:connector-curvature="0"
   id="path3743"
   d="m 590.95561,318.68685 c -8.04101,11.09506 -22.19651,28.44135 -29.19823,39.76311 -6.90021,11.15762 -12.53999,15.31389 -19.32467,25.71663 -9.50519,14.57404 -20.34551,27.93231 -28.49831,38.74401 -8.00422,10.61467 -16.2717,20.80701 -24.75389,30.49483 -8.96023,10.24571 -17.87541,20.75259 -26.68058,31.31377 -13.43124,16.10986 -23.89959,27.25443 -36.58807,42.88288 -7.90233,9.73334 -15.61586,19.23093 -23.08485,28.31544 -8.70538,10.58829 -17.77212,22.69611 -25.72486,31.88127 -1.96039,2.13756 -5.82293,6.74523 -10.34815,12.10231 -3.56114,4.21577 -7.53269,8.89565 -11.31057,13.20103 -6.8185,7.77054 -13.00616,14.32116 -15.01156,14.72149 -13.06819,-0.21816 -17.97309,-6.87926 -26.35492,-15.33372 -22.14463,-29.07034 -92.11679,-144.33499 -94.17186,-183.62472 -3.07095,-44.27523 -6.48566,-77.48831 -22.09533,-108.94399 -13.57099,-24.4662 -41.09923,-51.03639 -68.7843,-41.6504 -20.99518,7.37327 -38.088784,30.75252 -48.172744,42.8992 -11.539565,20.04286 -13.067605,40.38522 -13.389585,62.3795 -0.968657,43.34455 4.914183,88.34933 18.050367,130.61953 10.392839,33.44253 26.104112,64.91396 41.110692,94.31194 7.08553,12.91159 11.22944,21.82531 20.19999,32.16276 12.96861,19.77493 26.54381,35.19374 40.59205,50.35456 3.84237,4.14667 7.56447,7.58048 11.07842,11.77241 16.983,19.37927 35.93482,46.39259 49.50389,66.2015 17.00877,24.93062 33.51838,45.10351 53.30632,64.68957 4.64402,4.2025 9.42124,8.5143 14.24423,12.81031 19.29443,17.82745 36.66375,31.46984 59.06813,44.62916 27.80455,9.89513 44.45917,8.09265 62.71992,-0.0781 5.7343,-3.5746 11.96979,-6.30424 17.97505,-9.19875 7.72731,-3.72452 15.07341,-7.72202 20.48002,-14.14396 3.08392,-3.80002 14.15814,-20.60064 8.86856,-35.21767 -7.90805,-22.15951 -15.84284,-41.34133 -8.28047,-63.24285 9.89272,-22.44576 22.1482,-46.0063 32.64405,-65.97309 11.24398,-21.20807 23.76416,-41.74799 34.29933,-60.82958 5.38892,-9.77862 10.98035,-18.71556 18.94944,-27.13966 13.1858,-13.92805 25.34342,-25.1 43.93211,-33.18215 8.8624,-3.75844 17.38292,-4.54035 29.57658,-1.28953 35.51166,4.85865 31.02884,23.92518 50.16458,42.66867 5.82371,5.13299 11.17459,10.42803 15.75621,16.08356 10.41903,13.8386 17.30507,29.63025 18.01934,47.06459 1.52825,22.0591 0.93352,46.22187 4.13012,66.96097 4.15318,17.96947 7.50421,41.15339 13.91657,61.2584 4.46301,14.33717 10.97815,25.0415 19.10546,33.99855 12.82358,12.9998 25.42406,21.32568 38.77128,30.27937 20.016,13.60686 48.46544,26.7044 68.93557,19.46657 10.86796,-5.26128 19.33423,-11.51094 26.62988,-18.32541 14.54199,-12.2888 24.98774,-28.14693 28.92749,-44.60508 2.62207,-10.95362 2.36231,-22.17302 -1.48968,-32.78285 -8.46013,-18.56321 -13.50697,-36.46642 -25.44002,-51.71946 -8.68923,-16.68478 -22.72872,-34.47261 -36.66542,-46.40471 -11.33685,-9.70619 -19.01413,-12.56588 -24.92579,-24.90065 -6.71837,-14.30823 -9.60818,-27.20573 -15.69698,-40.27268 -20.52765,-26.43634 -17.4258,-52.43354 -19.90893,-77.06701 -8.18259,-42.87982 -43.98549,-86.01044 -55.61948,-125.70381 -0.79926,-2.72695 -1.48444,-5.43767 -2.03877,-8.13097 -0.81609,-3.96519 -1.34854,-7.89264 -1.54376,-11.77851 -0.10884,-2.29532 -0.16282,-4.60194 -0.17899,-6.91692 -0.0226,-3.23444 0.0286,-6.48522 0.10709,-9.74436 0.0785,-3.25972 0.18431,-6.52779 0.27089,-9.79623 0.0612,-2.31185 0.11287,-4.62388 0.13841,-6.93328 -2.75623,-21.71494 0.93606,-43.28405 4.86947,-63.46458 3.15196,-16.35192 8.02324,-42.99402 9.40107,-63.96961 1.21856,-9.07145 0.10927,-15.23824 -2.57811,-20.3947 -3.49728,-6.7105 -9.66719,-11.70993 -16.85724,-19.17339 -6.67338,-6.90843 -13.5306,-13.5215 -20.49038,-19.77832 -6.5517,-5.86104 -13.45451,-11.30022 -21.69785,-16.3376 -29.7238,-18.00641 -44.33306,-6.58834 -52.74298,14.20351 -7.33347,18.13055 -9.95304,43.38882 -13.77002,62.47998 -2.3349,13.35011 -8.9096,24.15771 -16.60236,34.10436 -7.06573,9.1359 -9.18962,18.52633 -15.72287,27.51258 z"
   style="fill:#58211b;fill-opacity:1" />
 </svg>