<?xml version="1.0" encoding="UTF-8" standalone="no"?>
<svg
   xmlns:dc="http://purl.org/dc/elements/1.1/"
   xmlns:cc="http://creativecommons.org/ns#"
   xmlns:rdf="http://www.w3.org/1999/02/22-rdf-syntax-ns#"
   xmlns:svg="http://www.w3.org/2000/svg"
   xmlns="http://www.w3.org/2000/svg"
   xmlns:sodipodi="http://sodipodi.sourceforge.net/DTD/sodipodi-0.dtd"
   xmlns:inkscape="http://www.inkscape.org/namespaces/inkscape"
   version="1.1"
   id="Layer_1"
   x="0px"
   y="0px"
   width="1024"
   height="1024"
   viewBox="0 0 1024 1024"
   enable-background="new 0 0 512 512"
   xml:space="preserve"
   inkscape:version="0.48.0 r9654"
   sodipodi:docname="ayinhebrew-x5e2.svg"><title
   id="title3743">Sinai 357</title><metadata
   id="metadata72"><rdf:RDF><cc:Work
       rdf:about=""><dc:format>image/svg+xml</dc:format><dc:type
         rdf:resource="http://purl.org/dc/dcmitype/StillImage" /><dc:title>Sinai 357</dc:title><dc:date>2017</dc:date><dc:creator><cc:Agent><dc:title>Celeste Claire Horner</dc:title></cc:Agent></dc:creator><dc:publisher><cc:Agent><dc:title>beitdina.net</dc:title></cc:Agent></dc:publisher></cc:Work></rdf:RDF></metadata><defs
   id="defs70" /><sodipodi:namedview
   pagecolor="#ffffff"
   bordercolor="#666666"
   borderopacity="1"
   objecttolerance="10"
   gridtolerance="10"
   guidetolerance="10"
   inkscape:pageopacity="0"
   inkscape:pageshadow="2"
   inkscape:window-width="1152"
   inkscape:window-height="814"
   id="namedview68"
   showgrid="false"
   inkscape:zoom="0.62469928"
   inkscape:cx="325.10804"
   inkscape:cy="461.50802"
   inkscape:window-x="-8"
   inkscape:window-y="-8"
   inkscape:window-maximized="1"
   inkscape:current-layer="Layer_1"
   showguides="true"
   inkscape:guide-bbox="true" />
   
	<g
   id="Grid"
   transform="matrix(2.003984,0,0,1.9949797,0.501992,2.0729212)">
		<rect
   x="0"
   stroke-miterlimit="10"
   width="512"
   height="512"
   id="rect4"
   y="0"
   style="fill:none;stroke:#a9ccdb;stroke-miterlimit:10" />
		<line
   stroke-miterlimit="10"
   x1="0"
   y1="32"
   x2="512"
   y2="32"
   id="line6"
   style="fill:none;stroke:#a9ccdb;stroke-miterlimit:10" />
		<line
   stroke-miterlimit="10"
   x1="0"
   y1="64"
   x2="512"
   y2="64"
   id="line8"
   style="fill:none;stroke:#a9ccdb;stroke-miterlimit:10" />
		<line
   stroke-miterlimit="10"
   x1="0"
   y1="96"
   x2="512"
   y2="96"
   id="line10"
   style="fill:none;stroke:#a9ccdb;stroke-miterlimit:10" />
		<line
   stroke-miterlimit="10"
   x1="0"
   y1="128"
   x2="512"
   y2="128"
   id="line12"
   style="fill:none;stroke:#a9ccdb;stroke-miterlimit:10" />
		<line
   stroke-miterlimit="10"
   x1="0"
   y1="160"
   x2="512"
   y2="160"
   id="line14"
   style="fill:none;stroke:#a9ccdb;stroke-miterlimit:10" />
		<line
   stroke-miterlimit="10"
   x1="0"
   y1="192"
   x2="512"
   y2="192"
   id="line16"
   style="fill:none;stroke:#a9ccdb;stroke-miterlimit:10" />
		<line
   stroke-miterlimit="10"
   x1="0"
   y1="224"
   x2="512"
   y2="224"
   id="line18"
   style="fill:none;stroke:#a9ccdb;stroke-miterlimit:10" />
		<line
   stroke-miterlimit="10"
   x1="0"
   y1="256"
   x2="512"
   y2="256"
   id="line20"
   style="fill:none;stroke:#a9ccdb;stroke-miterlimit:10" />
		<line
   stroke-miterlimit="10"
   x1="0"
   y1="288"
   x2="512"
   y2="288"
   id="line22"
   style="fill:none;stroke:#a9ccdb;stroke-miterlimit:10" />
		<line
   stroke-miterlimit="10"
   x1="0"
   y1="320"
   x2="512"
   y2="320"
   id="line24"
   style="fill:none;stroke:#a9ccdb;stroke-miterlimit:10" />
		<line
   stroke-miterlimit="10"
   x1="0"
   y1="352"
   x2="512"
   y2="352"
   id="line26"
   style="fill:none;stroke:#a9ccdb;stroke-miterlimit:10" />
		<line
   stroke-miterlimit="10"
   x1="0"
   y1="384"
   x2="512"
   y2="384"
   id="line28"
   style="fill:none;stroke:#a9ccdb;stroke-miterlimit:10" />
		<line
   stroke-miterlimit="10"
   x1="0"
   y1="416"
   x2="512"
   y2="416"
   id="line30"
   style="fill:none;stroke:#a9ccdb;stroke-miterlimit:10" />
		<line
   stroke-miterlimit="10"
   x1="0"
   y1="448"
   x2="512"
   y2="448"
   id="line32"
   style="fill:none;stroke:#ff0000;stroke-miterlimit:10" />
		<line
   stroke-miterlimit="10"
   x1="0"
   y1="480"
   x2="512"
   y2="480"
   id="line34"
   style="fill:none;stroke:#a9ccdb;stroke-miterlimit:10" />
		<line
   stroke-miterlimit="10"
   x1="32"
   y1="0"
   x2="32"
   y2="512"
   id="line36"
   style="fill:none;stroke:#a9ccdb;stroke-miterlimit:10" />
		<line
   stroke-miterlimit="10"
   x1="64"
   y1="0"
   x2="64"
   y2="512"
   id="line38"
   style="fill:none;stroke:#a9ccdb;stroke-miterlimit:10" />
		<line
   stroke-miterlimit="10"
   x1="96"
   y1="0"
   x2="96"
   y2="512"
   id="line40"
   style="fill:none;stroke:#a9ccdb;stroke-miterlimit:10" />
		<line
   stroke-miterlimit="10"
   x1="128"
   y1="0"
   x2="128"
   y2="512"
   id="line42"
   style="fill:none;stroke:#a9ccdb;stroke-miterlimit:10" />
		<line
   stroke-miterlimit="10"
   x1="160"
   y1="0"
   x2="160"
   y2="512"
   id="line44"
   style="fill:none;stroke:#a9ccdb;stroke-miterlimit:10" />
		<line
   stroke-miterlimit="10"
   x1="192"
   y1="0"
   x2="192"
   y2="512"
   id="line46"
   style="fill:none;stroke:#a9ccdb;stroke-miterlimit:10" />
		<line
   stroke-miterlimit="10"
   x1="224"
   y1="0"
   x2="224"
   y2="512"
   id="line48"
   style="fill:none;stroke:#a9ccdb;stroke-miterlimit:10" />
		<line
   stroke-miterlimit="10"
   x1="256"
   y1="0"
   x2="256"
   y2="512"
   id="line50"
   style="fill:none;stroke:#a9ccdb;stroke-miterlimit:10" />
		<line
   stroke-miterlimit="10"
   x1="288"
   y1="0"
   x2="288"
   y2="512"
   id="line52"
   style="fill:none;stroke:#a9ccdb;stroke-miterlimit:10" />
		<line
   stroke-miterlimit="10"
   x1="320"
   y1="0"
   x2="320"
   y2="512"
   id="line54"
   style="fill:none;stroke:#a9ccdb;stroke-miterlimit:10" />
		<line
   stroke-miterlimit="10"
   x1="352"
   y1="0"
   x2="352"
   y2="512"
   id="line56"
   style="fill:none;stroke:#a9ccdb;stroke-miterlimit:10" />
		<line
   stroke-miterlimit="10"
   x1="384"
   y1="0"
   x2="384"
   y2="512"
   id="line58"
   style="fill:none;stroke:#a9ccdb;stroke-miterlimit:10" />
		<line
   stroke-miterlimit="10"
   x1="416"
   y1="0"
   x2="416"
   y2="512"
   id="line60"
   style="fill:none;stroke:#a9ccdb;stroke-miterlimit:10" />
		<line
   stroke-miterlimit="10"
   x1="448"
   y1="0"
   x2="448"
   y2="512"
   id="line62"
   style="fill:none;stroke:#a9ccdb;stroke-miterlimit:10" />
		<line
   stroke-miterlimit="10"
   x1="480"
   y1="0"
   x2="480"
   y2="512"
   id="line64"
   style="fill:none;stroke:#a9ccdb;stroke-miterlimit:10" />
	</g>
	

	<path
   style="fill:#000000;fill-opacity:1"
   d="m 227.55116,211.52614 c -14.1386,-15.41857 -23.43916,-14.87631 -34.08663,-15.90488 -17.53592,-5.89828 -31.05789,-7.10537 -47.16923,-11.15271 -9.59843,-1.9023 -23.31607,1.44851 -28.81187,9.46875 -4.65341,12.20018 -2.08269,27.75528 0.86325,39.04426 4.84388,18.1256 10.9209,36.036 13.57386,41.3443 3.53276,28.2494 38.7983,34.34756 55.1799,36.01431 2.38071,0.24223 4.26994,0.69865 5.48542,1.51313 1.51489,1.01511 1.98321,2.58639 1.05205,4.99234 -1.68013,15.46289 -24.54076,26.30367 -29.59707,48.34228 -5.55342,24.64676 19.20647,28.32174 18.14,33.59092 -2.95938,71.62518 -5.4038,156.95442 -3.17302,222.58941 0.49172,16.25439 14.82999,33.00383 4.99779,43.54712 -6.61948,3.51146 -11.43052,9.63244 -15.21366,17.00097 -3.33314,6.49217 -5.86832,13.95275 -8.13946,21.45023 -1.74813,6.23278 -3.18189,13.38765 -4.29625,21.16149 -0.92045,6.42112 -26.80415,10.21427 -40.74903,15.06816 -8.08774,5.41642 -25.973844,14.20235 -24.421804,24.71062 -1.020181,6.32809 -0.913803,12.31536 0.06519,18.27887 1.518319,8.57851 9.132944,17.27244 17.597314,25.99375 9.11995,9.3968 16.82519,19.82246 21.35555,25.57507 11.1017,23.84747 28.66519,42.92565 37.94271,64.44264 5.87854,14.80014 13.00846,25.91035 21.99478,35.78926 0.84652,0.93442 1.58626,1.85876 2.48175,2.31673 1.20563,0.69504 1.66551,1.20317 2.95577,1.91956 3.86939,2.14839 8.3795,4.46296 12.36149,6.68221 0.70135,0.39088 1.38632,0.77881 2.04851,1.16234 1.10157,0.63802 1.13965,0.86371 2.0858,1.47088 3.77638,1.91482 7.94143,3.83555 10.96196,6.23705 1.2549,0.69032 2.96386,1.21494 4.61603,1.45 2.01057,0.28605 4.73744,-0.85719 5.65924,-1.65199 3.31067,-3.01069 6.4626,-3.81095 9.6673,-6.20357 0.58084,-0.43365 1.16341,-0.91961 1.74897,-1.48052 0.44656,-0.40082 0.88687,-0.78249 1.32059,-1.1534 2.73156,-2.33607 5.20114,-4.24587 7.3169,-7.83099 0.31961,-0.92056 0.61106,-1.84497 0.87705,-2.77253 0.31702,-1.10551 0.59788,-2.21548 0.84711,-3.32876 2.47701,-11.0641 1.83153,-22.45387 2.53497,-33.01364 4.2548,-63.74488 7.41917,-126.3052 20.6171,-189.45393 1.70973,-10.55063 1.97183,-21.72509 1.73155,-32.69932 -0.24187,-11.04654 -0.99277,-21.89019 -1.28866,-31.6905 -0.33918,-11.44473 -0.47549,-22.55655 -0.4654,-33.95743 0.0779,-68.89843 4.96289,-141.6863 3.2011,-207.08203 -0.3697,-12.09315 1.86048,-12.00168 4.80226,-15.22402 5.92361,-6.57565 9.25172,-11.70495 11.82621,-15.74674 4.5302,-7.11216 5.12614,-19.24928 15.02494,-21.58208 45.79943,-3.12479 76.00356,-11.0082 117.76384,7.13638 7.28471,3.24649 15.92747,6.8001 23.53486,10.90557 7.87186,4.2482 14.63511,15.87879 17.63794,21.57999 3.1991,6.77564 7.97669,28.87993 8.8609,36.92711 2.37865,42.10559 0.64764,101.86883 1.09576,138.33506 0.72412,66.48372 -4.29599,125.38616 -2.98239,193.99789 -9.61379,33.86828 -39.50044,57.41309 -39.63258,90.42455 0.34811,14.65575 7.9222,28.37825 14.36781,36.15288 25.61053,30.89113 68.27856,32.97065 97.15765,-4.13668 54.25678,-103.34166 17.61279,-232.55503 46.01306,-330.55806 4.29198,-18.89644 -3.29751,-43.05395 -0.89181,-58.7329 -0.54089,-15.80325 0.20208,-41.09157 -1.39778,-58.80197 -2.55269,-19.58391 -10.99325,-38.30085 -24.0729,-48.39788 -5.71113,-3.65808 -3.85774,-16.5778 -3.9786,-28.5533 -0.12415,-12.30096 16.30315,-33.76439 12.18992,-45.8766 -11.43789,-33.68108 -47.43917,-62.8426 -62.95368,-70.54225 -12.16498,-4.72041 -18.56874,2.50649 -63.35273,-0.31065 -14.61104,-0.9191 -43.33422,-1.08551 -66.92571,-1.86555 -35.99562,3.45364 -73.07653,-11.24315 -100.4704,-22.57619 -9.55935,-3.78381 -13.92296,-3.72618 -20.37101,-0.0317 -8.80338,5.044 -11.73761,15.12256 -19.55262,19.56063 -3.44916,1.95874 -4.21584,3.00721 -7.49884,2.11405 -1.16353,-0.31655 -2.35484,-6.33233 -3.58247,-8.38564 -2.47358,-4.28336 -4.06637,-14.98551 -6.48055,-17.59235 z"
   id="path3841"
   inkscape:connector-curvature="0"
   sodipodi:nodetypes="ccccccsscccccscscccsccccsssccscscscssccsccccsccscccccscccccsscsccssscc" /></svg>