<?xml version="1.0" encoding="UTF-8" standalone="no"?>
<svg
   xmlns:dc="http://purl.org/dc/elements/1.1/"
   xmlns:cc="http://creativecommons.org/ns#"
   xmlns:rdf="http://www.w3.org/1999/02/22-rdf-syntax-ns#"
   xmlns:svg="http://www.w3.org/2000/svg"
   xmlns="http://www.w3.org/2000/svg"
   xmlns:sodipodi="http://sodipodi.sourceforge.net/DTD/sodipodi-0.dtd"
   xmlns:inkscape="http://www.inkscape.org/namespaces/inkscape"
   version="1.1"
   id="Layer_1"
   x="0px"
   y="0px"
   width="1000"
   height="1000"
   viewBox="0 0 1000 1000"
   enable-background="new 0 0 512 512"
   xml:space="preserve"
   inkscape:version="0.48.0 r9654"
   sodipodi:docname="bethebrew-x5d1.svg"><title
   id="title3743">Sinai 357</title><metadata
   id="metadata72"><rdf:RDF><cc:Work
       rdf:about=""><dc:format>image/svg+xml</dc:format><dc:type
         rdf:resource="http://purl.org/dc/dcmitype/StillImage" /><dc:title>Sinai 357</dc:title><dc:date>2017</dc:date><dc:creator><cc:Agent><dc:title>Celeste Claire Horner</dc:title></cc:Agent></dc:creator><dc:publisher><cc:Agent><dc:title>beitdina.net</dc:title></cc:Agent></dc:publisher></cc:Work></rdf:RDF></metadata><defs
   id="defs70" /><sodipodi:namedview
   pagecolor="#ffffff"
   bordercolor="#666666"
   borderopacity="1"
   objecttolerance="10"
   gridtolerance="10"
   guidetolerance="10"
   inkscape:pageopacity="0"
   inkscape:pageshadow="2"
   inkscape:window-width="1152"
   inkscape:window-height="814"
   id="namedview68"
   showgrid="false"
   inkscape:zoom="0.36045873"
   inkscape:cx="269.77544"
   inkscape:cy="558.63141"
   inkscape:window-x="-8"
   inkscape:window-y="-8"
   inkscape:window-maximized="1"
   inkscape:current-layer="Layer_1" />
   
	<g
   id="Grid"
   transform="matrix(1.949083,0,0,1.9463791,0.47454151,1.9751009)">
		<rect
   x="0"
   stroke-miterlimit="10"
   width="512"
   height="512"
   id="rect4"
   y="0"
   style="fill:none;stroke:#a9ccdb;stroke-miterlimit:10" />
		<line
   stroke-miterlimit="10"
   x1="0"
   y1="32"
   x2="512"
   y2="32"
   id="line6"
   style="fill:none;stroke:#a9ccdb;stroke-miterlimit:10" />
		<line
   stroke-miterlimit="10"
   x1="0"
   y1="64"
   x2="512"
   y2="64"
   id="line8"
   style="fill:none;stroke:#a9ccdb;stroke-miterlimit:10" />
		<line
   stroke-miterlimit="10"
   x1="0"
   y1="96"
   x2="512"
   y2="96"
   id="line10"
   style="fill:none;stroke:#a9ccdb;stroke-miterlimit:10" />
		<line
   stroke-miterlimit="10"
   x1="0"
   y1="128"
   x2="512"
   y2="128"
   id="line12"
   style="fill:none;stroke:#a9ccdb;stroke-miterlimit:10" />
		<line
   stroke-miterlimit="10"
   x1="0"
   y1="160"
   x2="512"
   y2="160"
   id="line14"
   style="fill:none;stroke:#a9ccdb;stroke-miterlimit:10" />
		<line
   stroke-miterlimit="10"
   x1="0"
   y1="192"
   x2="512"
   y2="192"
   id="line16"
   style="fill:none;stroke:#a9ccdb;stroke-miterlimit:10" />
		<line
   stroke-miterlimit="10"
   x1="0"
   y1="224"
   x2="512"
   y2="224"
   id="line18"
   style="fill:none;stroke:#a9ccdb;stroke-miterlimit:10" />
		<line
   stroke-miterlimit="10"
   x1="0"
   y1="256"
   x2="512"
   y2="256"
   id="line20"
   style="fill:none;stroke:#a9ccdb;stroke-miterlimit:10" />
		<line
   stroke-miterlimit="10"
   x1="0"
   y1="288"
   x2="512"
   y2="288"
   id="line22"
   style="fill:none;stroke:#a9ccdb;stroke-miterlimit:10" />
		<line
   stroke-miterlimit="10"
   x1="0"
   y1="320"
   x2="512"
   y2="320"
   id="line24"
   style="fill:none;stroke:#a9ccdb;stroke-miterlimit:10" />
		<line
   stroke-miterlimit="10"
   x1="0"
   y1="352"
   x2="512"
   y2="352"
   id="line26"
   style="fill:none;stroke:#a9ccdb;stroke-miterlimit:10" />
		<line
   stroke-miterlimit="10"
   x1="0"
   y1="384"
   x2="512"
   y2="384"
   id="line28"
   style="fill:none;stroke:#a9ccdb;stroke-miterlimit:10" />
		<line
   stroke-miterlimit="10"
   x1="0"
   y1="416"
   x2="512"
   y2="416"
   id="line30"
   style="fill:none;stroke:#a9ccdb;stroke-miterlimit:10" />
		<line
   stroke-miterlimit="10"
   x1="0"
   y1="448"
   x2="512"
   y2="448"
   id="line32"
   style="fill:none;stroke:#ff0000;stroke-miterlimit:10" />
		<line
   stroke-miterlimit="10"
   x1="0"
   y1="480"
   x2="512"
   y2="480"
   id="line34"
   style="fill:none;stroke:#a9ccdb;stroke-miterlimit:10" />
		<line
   stroke-miterlimit="10"
   x1="32"
   y1="0"
   x2="32"
   y2="512"
   id="line36"
   style="fill:none;stroke:#a9ccdb;stroke-miterlimit:10" />
		<line
   stroke-miterlimit="10"
   x1="64"
   y1="0"
   x2="64"
   y2="512"
   id="line38"
   style="fill:none;stroke:#a9ccdb;stroke-miterlimit:10" />
		<line
   stroke-miterlimit="10"
   x1="96"
   y1="0"
   x2="96"
   y2="512"
   id="line40"
   style="fill:none;stroke:#a9ccdb;stroke-miterlimit:10" />
		<line
   stroke-miterlimit="10"
   x1="128"
   y1="0"
   x2="128"
   y2="512"
   id="line42"
   style="fill:none;stroke:#a9ccdb;stroke-miterlimit:10" />
		<line
   stroke-miterlimit="10"
   x1="160"
   y1="0"
   x2="160"
   y2="512"
   id="line44"
   style="fill:none;stroke:#a9ccdb;stroke-miterlimit:10" />
		<line
   stroke-miterlimit="10"
   x1="192"
   y1="0"
   x2="192"
   y2="512"
   id="line46"
   style="fill:none;stroke:#a9ccdb;stroke-miterlimit:10" />
		<line
   stroke-miterlimit="10"
   x1="224"
   y1="0"
   x2="224"
   y2="512"
   id="line48"
   style="fill:none;stroke:#a9ccdb;stroke-miterlimit:10" />
		<line
   stroke-miterlimit="10"
   x1="256"
   y1="0"
   x2="256"
   y2="512"
   id="line50"
   style="fill:none;stroke:#a9ccdb;stroke-miterlimit:10" />
		<line
   stroke-miterlimit="10"
   x1="288"
   y1="0"
   x2="288"
   y2="512"
   id="line52"
   style="fill:none;stroke:#a9ccdb;stroke-miterlimit:10" />
		<line
   stroke-miterlimit="10"
   x1="320"
   y1="0"
   x2="320"
   y2="512"
   id="line54"
   style="fill:none;stroke:#a9ccdb;stroke-miterlimit:10" />
		<line
   stroke-miterlimit="10"
   x1="352"
   y1="0"
   x2="352"
   y2="512"
   id="line56"
   style="fill:none;stroke:#a9ccdb;stroke-miterlimit:10" />
		<line
   stroke-miterlimit="10"
   x1="384"
   y1="0"
   x2="384"
   y2="512"
   id="line58"
   style="fill:none;stroke:#a9ccdb;stroke-miterlimit:10" />
		<line
   stroke-miterlimit="10"
   x1="416"
   y1="0"
   x2="416"
   y2="512"
   id="line60"
   style="fill:none;stroke:#a9ccdb;stroke-miterlimit:10" />
		<line
   stroke-miterlimit="10"
   x1="448"
   y1="0"
   x2="448"
   y2="512"
   id="line62"
   style="fill:none;stroke:#a9ccdb;stroke-miterlimit:10" />
		<line
   stroke-miterlimit="10"
   x1="480"
   y1="0"
   x2="480"
   y2="512"
   id="line64"
   style="fill:none;stroke:#a9ccdb;stroke-miterlimit:10" />
	</g>
	

<path
   style="fill:#82532d"
   d="m 91.692486,178.11747 c -32.4719,-7.54053 -36.5599,16.65025 -29.5415,30.77598 13.8568,21.31816 24.242557,28.80077 51.238064,45.2627 7.07432,4.90443 21.88545,11.92541 37.9107,18.43495 23.22622,7.95945 37.58106,13.95593 60.65609,20.03266 22.00416,5.79467 43.91044,10.77037 65.66396,14.99786 44.59535,8.5753 89.05537,12.13985 128.06613,13.60301 33.41388,1.22969 69.8592,2.27723 103.73768,3.88686 64.10766,3.04582 214.16606,-7.58925 221.95942,4.52417 -1.70336,3.71742 -4.33228,9.01036 -4.42805,12.19373 -0.24926,8.28543 0.43013,13.60732 -0.26952,24.09 0.56578,2.55792 2.00692,7.97352 2.36862,10.36913 -9.62449,67.61012 -36.89029,123.311 -69.87103,175.86693 -10.05878,15.36645 -14.24029,26.24239 -35.56207,29.7627 -20.99363,3.34779 -48.81345,0.53305 -63.54618,-0.0948 -20.2516,-0.80909 -39.37382,0.0206 -59.82305,-0.50817 -22.04767,-0.57014 -47.28093,-0.43912 -66.01445,1.55362 -16.99641,2.03286 -36.01306,4.2322 -47.64081,11.19382 -15.97522,12.74899 -28.17991,28.30294 -31.77719,48.40018 -0.46257,18.87435 -5.13362,38.12812 -0.10978,54.56751 1.70076,5.46004 4.13538,10.78504 6.96743,15.94175 2.31299,5.80619 3.15012,10.66871 4.47112,15.322 2.56758,6.07922 5.40296,12.1948 8.12357,18.22752 2.88392,6.39433 5.63856,12.69557 7.80855,18.76176 2.67788,7.3984 7.22813,15.36361 9.93529,22.03087 1.76396,4.19947 4.43682,7.91484 7.69274,12.50711 11.09112,15.64289 20.02386,18.75382 26.35998,21.53079 9.16148,5.51267 20.9689,6.07213 30.7509,0.64267 8.92482,-5.11499 15.79704,-12.3718 19.32813,-20.88352 2.59266,-6.33795 3.30235,-12.19246 3.80759,-17.99697 2.63776,-12.99221 3.77514,-24.55324 8.54016,-35.98605 3.03535,-7.41542 4.57849,-15.71924 4.44447,-23.51713 -0.0739,-6.7191 3.72605,-10.04868 3.95823,-17.33692 12.26979,6.92872 21.51577,10.87651 37.43837,12.95446 37.46364,4.88911 74.93081,1.38857 130.61174,0.0473 51.00396,-7.21226 86.67068,-37.59831 113.62305,-73.28516 13.65341,-23.77704 25.23809,-49.19785 35.18037,-75.35965 16.37193,-43.08056 28.29031,-88.17037 37.65877,-131.23823 5.09524,-23.42345 14.34044,-43.30628 18.23341,-64.88502 16.08214,-58.10657 -3.17888,-133.49725 -48.13103,-168.80215 -7.6597,-5.70343 -3.38724,-7.83829 -12.56164,-12.26265 -19.24422,-2.9249 -38.42533,-4.68081 -57.57126,-5.65601 -83.938,-4.27542 -168.18081,6.45461 -253.12135,-0.52876 -20.03342,-1.21612 -42.32501,0.11408 -62.77963,-0.15403 -110.92452,-1.45397 -222.57467,5.81635 -313.44566,-9.55555 -2.1766,-0.48244 -15.82976,-0.22648 -30.340334,0.56881 z"
   id="path3768"
   inkscape:connector-curvature="0"
   sodipodi:nodetypes="ccccsccscscccccsccccccsccccccccccsccsscccscsccc" /></svg>