<?xml version="1.0" encoding="UTF-8" standalone="no"?>
<svg
   xmlns:dc="http://purl.org/dc/elements/1.1/"
   xmlns:cc="http://creativecommons.org/ns#"
   xmlns:rdf="http://www.w3.org/1999/02/22-rdf-syntax-ns#"
   xmlns:svg="http://www.w3.org/2000/svg"
   xmlns="http://www.w3.org/2000/svg"
   xmlns:sodipodi="http://sodipodi.sourceforge.net/DTD/sodipodi-0.dtd"
   xmlns:inkscape="http://www.inkscape.org/namespaces/inkscape"
   version="1.1"
   id="Layer_1"
   x="0px"
   y="0px"
   width="800"
   height="1000"
   viewBox="0 0 800 1000"
   enable-background="new 0 0 512 512"
   xml:space="preserve"
   inkscape:version="0.48.0 r9654"
   sodipodi:docname="dalhebrew-x5d3.svg"><title
   id="title3743">Sinai 357</title><metadata
   id="metadata72"><rdf:RDF><cc:Work
       rdf:about=""><dc:format>image/svg+xml</dc:format><dc:type
         rdf:resource="http://purl.org/dc/dcmitype/StillImage" /><dc:title>Sinai 357</dc:title><dc:date>2017</dc:date><dc:creator><cc:Agent><dc:title>Celeste Claire Horner</dc:title></cc:Agent></dc:creator><dc:publisher><cc:Agent><dc:title>beitdina.net</dc:title></cc:Agent></dc:publisher></cc:Work></rdf:RDF></metadata><defs
   id="defs70" /><sodipodi:namedview
   pagecolor="#ffffff"
   bordercolor="#666666"
   borderopacity="1"
   objecttolerance="10"
   gridtolerance="10"
   guidetolerance="10"
   inkscape:pageopacity="0"
   inkscape:pageshadow="2"
   inkscape:window-width="1152"
   inkscape:window-height="814"
   id="namedview68"
   showgrid="false"
   inkscape:zoom="0.31999999"
   inkscape:cx="-234.14501"
   inkscape:cy="456.08756"
   inkscape:window-x="-8"
   inkscape:window-y="-8"
   inkscape:window-maximized="1"
   inkscape:current-layer="Layer_1" />
   
	<g
   id="Grid"
   transform="matrix(1.5588385,0,0,1.9463791,4.8939593,2.3372608)">
		<rect
   x="0"
   stroke-miterlimit="10"
   width="512"
   height="512"
   id="rect4"
   y="0"
   style="fill:none;stroke:#a9ccdb;stroke-miterlimit:10" />
		<line
   stroke-miterlimit="10"
   x1="0"
   y1="32"
   x2="512"
   y2="32"
   id="line6"
   style="fill:none;stroke:#a9ccdb;stroke-miterlimit:10" />
		<line
   stroke-miterlimit="10"
   x1="0"
   y1="64"
   x2="512"
   y2="64"
   id="line8"
   style="fill:none;stroke:#a9ccdb;stroke-miterlimit:10" />
		<line
   stroke-miterlimit="10"
   x1="0"
   y1="96"
   x2="512"
   y2="96"
   id="line10"
   style="fill:none;stroke:#a9ccdb;stroke-miterlimit:10" />
		<line
   stroke-miterlimit="10"
   x1="0"
   y1="128"
   x2="512"
   y2="128"
   id="line12"
   style="fill:none;stroke:#a9ccdb;stroke-miterlimit:10" />
		<line
   stroke-miterlimit="10"
   x1="0"
   y1="160"
   x2="512"
   y2="160"
   id="line14"
   style="fill:none;stroke:#a9ccdb;stroke-miterlimit:10" />
		<line
   stroke-miterlimit="10"
   x1="0"
   y1="192"
   x2="512"
   y2="192"
   id="line16"
   style="fill:none;stroke:#a9ccdb;stroke-miterlimit:10" />
		<line
   stroke-miterlimit="10"
   x1="0"
   y1="224"
   x2="512"
   y2="224"
   id="line18"
   style="fill:none;stroke:#a9ccdb;stroke-miterlimit:10" />
		<line
   stroke-miterlimit="10"
   x1="0"
   y1="256"
   x2="512"
   y2="256"
   id="line20"
   style="fill:none;stroke:#a9ccdb;stroke-miterlimit:10" />
		<line
   stroke-miterlimit="10"
   x1="0"
   y1="288"
   x2="512"
   y2="288"
   id="line22"
   style="fill:none;stroke:#a9ccdb;stroke-miterlimit:10" />
		<line
   stroke-miterlimit="10"
   x1="0"
   y1="320"
   x2="512"
   y2="320"
   id="line24"
   style="fill:none;stroke:#a9ccdb;stroke-miterlimit:10" />
		<line
   stroke-miterlimit="10"
   x1="0"
   y1="352"
   x2="512"
   y2="352"
   id="line26"
   style="fill:none;stroke:#a9ccdb;stroke-miterlimit:10" />
		<line
   stroke-miterlimit="10"
   x1="0"
   y1="384"
   x2="512"
   y2="384"
   id="line28"
   style="fill:none;stroke:#a9ccdb;stroke-miterlimit:10" />
		<line
   stroke-miterlimit="10"
   x1="0"
   y1="416"
   x2="512"
   y2="416"
   id="line30"
   style="fill:none;stroke:#a9ccdb;stroke-miterlimit:10" />
		<line
   stroke-miterlimit="10"
   x1="0"
   y1="448"
   x2="512"
   y2="448"
   id="line32"
   style="fill:none;stroke:#ff0000;stroke-miterlimit:10" />
		<line
   stroke-miterlimit="10"
   x1="0"
   y1="480"
   x2="512"
   y2="480"
   id="line34"
   style="fill:none;stroke:#a9ccdb;stroke-miterlimit:10" />
		<line
   stroke-miterlimit="10"
   x1="32"
   y1="0"
   x2="32"
   y2="512"
   id="line36"
   style="fill:none;stroke:#a9ccdb;stroke-miterlimit:10" />
		<line
   stroke-miterlimit="10"
   x1="64"
   y1="0"
   x2="64"
   y2="512"
   id="line38"
   style="fill:none;stroke:#a9ccdb;stroke-miterlimit:10" />
		<line
   stroke-miterlimit="10"
   x1="96"
   y1="0"
   x2="96"
   y2="512"
   id="line40"
   style="fill:none;stroke:#a9ccdb;stroke-miterlimit:10" />
		<line
   stroke-miterlimit="10"
   x1="128"
   y1="0"
   x2="128"
   y2="512"
   id="line42"
   style="fill:none;stroke:#a9ccdb;stroke-miterlimit:10" />
		<line
   stroke-miterlimit="10"
   x1="160"
   y1="0"
   x2="160"
   y2="512"
   id="line44"
   style="fill:none;stroke:#a9ccdb;stroke-miterlimit:10" />
		<line
   stroke-miterlimit="10"
   x1="192"
   y1="0"
   x2="192"
   y2="512"
   id="line46"
   style="fill:none;stroke:#a9ccdb;stroke-miterlimit:10" />
		<line
   stroke-miterlimit="10"
   x1="224"
   y1="0"
   x2="224"
   y2="512"
   id="line48"
   style="fill:none;stroke:#a9ccdb;stroke-miterlimit:10" />
		<line
   stroke-miterlimit="10"
   x1="256"
   y1="0"
   x2="256"
   y2="512"
   id="line50"
   style="fill:none;stroke:#a9ccdb;stroke-miterlimit:10" />
		<line
   stroke-miterlimit="10"
   x1="288"
   y1="0"
   x2="288"
   y2="512"
   id="line52"
   style="fill:none;stroke:#a9ccdb;stroke-miterlimit:10" />
		<line
   stroke-miterlimit="10"
   x1="320"
   y1="0"
   x2="320"
   y2="512"
   id="line54"
   style="fill:none;stroke:#a9ccdb;stroke-miterlimit:10" />
		<line
   stroke-miterlimit="10"
   x1="352"
   y1="0"
   x2="352"
   y2="512"
   id="line56"
   style="fill:none;stroke:#a9ccdb;stroke-miterlimit:10" />
		<line
   stroke-miterlimit="10"
   x1="384"
   y1="0"
   x2="384"
   y2="512"
   id="line58"
   style="fill:none;stroke:#a9ccdb;stroke-miterlimit:10" />
		<line
   stroke-miterlimit="10"
   x1="416"
   y1="0"
   x2="416"
   y2="512"
   id="line60"
   style="fill:none;stroke:#a9ccdb;stroke-miterlimit:10" />
		<line
   stroke-miterlimit="10"
   x1="448"
   y1="0"
   x2="448"
   y2="512"
   id="line62"
   style="fill:none;stroke:#a9ccdb;stroke-miterlimit:10" />
		<line
   stroke-miterlimit="10"
   x1="480"
   y1="0"
   x2="480"
   y2="512"
   id="line64"
   style="fill:none;stroke:#a9ccdb;stroke-miterlimit:10" />
	</g>
<path
   style="fill:#5a2309"
   d="m 642.45125,154.87231 c -3.57025,1.98422 -4.72819,4.32812 -5.4116,6.67926 -0.76892,2.64549 -0.93708,5.30017 -3.26489,7.46208 -2.86206,2.73033 -3.78058,7.96148 -3.78058,21.53083 -16.63155,55.84051 -29.80742,118.95159 -48.83555,167.23028 -15.5254,38.84556 -6.77854,25.78289 -22.21942,75.10733 -14.53446,33.93168 -24.12315,70.07172 -40.18758,102.21012 -11.79065,13.14804 -23.72431,30.13904 -37.46097,42.87786 -27.86985,26.24572 -66.71122,11.46856 -100.83222,-0.0832 -23.15065,-7.25967 -47.70979,-13.75346 -70.85629,-20.84478 -23.90587,-6.74078 -48.2363,-15.76216 -72.58718,-24.45874 -37.60504,-13.43014 -75.25887,-26.08568 -111.47319,-28.37115 -9.96783,-1.62584 -20.45824,-2.67203 -29.892581,-3.6254 -9.38122,-1.02005 -21.711325,3.31752 -25.6518,10.92679 -2.538027,5.42563 -3.222379,12.2056 -3.152418,18.43237 0.06015,3.00632 0.465641,5.95056 1.375607,8.78775 1.197555,3.66043 3.050923,6.91426 3.900692,9.94842 1.248809,3.54059 2.570188,7.03474 3.935678,10.4788 2.380961,6.00526 4.896051,11.85824 7.394431,17.53957 21.315241,48.48013 42.855501,99.77112 30.718821,152.95531 1.89221,9.77386 -7.08756,17.14957 -7.59958,25.30126 -1.07605,8.11013 -3.27564,16.02497 -5.90478,23.18182 -2.406061,17.43442 -12.131841,32.2477 -17.838191,48.00301 -3.71562,10.41969 -5.167919,19.74777 -1.29206,26.52499 4.91975,6.98071 7.81658,5.10725 14.36017,5.36328 6.338291,-0.18658 15.946021,0.6908 19.608741,-2.13704 5.45907,-4.65207 10.94227,-2.54597 15.06555,-2.50582 2.05469,0.02 6.04467,-0.91558 8.60761,0.86022 4.00337,3.00994 7.01474,0.26077 13.43369,2.7602 5.32991,1.242 16.38298,-2.10361 17.8437,-5.07471 2.837,-4.56727 10.47842,-1.97162 12.31517,-1.42715 11.24925,0.89789 12.06245,-3.11666 18.95219,-7.59052 6.78483,-2.88295 7.97581,-4.69331 9.95214,-9.39519 3.37046,-6.62716 5.19013,-12.2978 7.89338,-18.33916 0.92338,-2.09817 1.11983,-4.77355 2.30663,-6.89817 3.20463,-5.73708 5.82659,-11.53351 5.82659,-12.88092 7.5909,-11.6482 7.23095,-21.83545 6.7421,-32.65082 -0.34056,-7.53485 -0.0566,-15.60524 -0.0762,-23.71807 0.0284,-4.21847 0.44832,-9.27117 -0.38875,-14.53576 -1.92691,-12.11901 -4.01839,-28.94643 -8.23019,-35.71998 -3.8951,-5.13451 -1.8269,-7.96879 2.01316,-10.88466 3.40099,-2.83151 6.64449,-6.27769 9.7911,-9.80946 3.06014,-3.63275 6.0846,-7.04536 9.23388,-10.18137 3.85288,-3.83663 7.89259,-7.25923 12.4131,-10.16439 2.33457,-1.43615 7.41584,-0.7609 10.90726,-0.7609 13.94623,5.42177 25.55312,6.99432 38.48552,11.34884 25.21356,8.48978 47.50269,14.35074 69.71736,23.3176 24.14158,9.74464 48.92417,23.72922 72.1608,39.33382 3.90185,2.64563 8.87742,3.29326 10.60442,5.03581 1.98109,2.77746 3.81809,5.03104 5.75639,6.81747 2.50115,2.30518 5.17095,3.83252 8.53662,4.70394 7.07264,6.87432 13.95841,10.47049 20.74604,16.86129 15.40869,10.73662 9.47596,18.35987 5.69015,33.23441 -1.78673,5.30242 -2.34356,10.22695 2.64182,14.31359 2.85579,2.17578 5.9872,4.48063 9.26152,6.60507 5.48887,3.5613 11.37934,6.61571 17.04623,7.70565 6.95912,1.30156 13.97539,1.60774 18.37357,4.7189 8.09329,5.70254 9.14929,5.69839 19.41809,-0.0757 6.52404,-1.58346 13.1698,-2.51266 19.57234,-3.81011 8.35216,-2.13049 17.72151,-5.23738 24.13294,-10.35349 4.78495,-3.81827 7.92234,-8.75561 7.75974,-15.24137 -0.2391,-6.06124 1.65249,-9.20941 10.40444,-17.31626 7.05904,-6.53872 12.39971,-14.2461 15.70454,-22.66408 2.7543,-7.0157 5.83591,-13.76749 6.84798,-15.00396 1.01206,-1.23647 2.42123,-7.90628 3.13143,-14.82177 0.7102,-6.91553 2.87704,-14.91167 4.81522,-17.76923 6.03925,-8.90409 5.3297,-54.52807 -1.10192,-70.85153 -1.23195,-3.12667 -5.42575,-7.4784 -9.31959,-9.67048 -7.74091,-4.35785 -5.7291,-8.86461 -5.7291,-19.02982 0,-3.40449 2.07444,-12.37847 4.60987,-19.94221 31.17339,-114.25018 36.60348,-158.57196 65.37252,-264.4448 2.90079,-10.71534 5.54634,-21.36023 7.94363,-31.874 1.65335,-11.41522 11.49445,-41.41171 8.30426,-47.1882 -3.61253,-4.09014 -1.21173,-7.53093 -0.6702,-9.84866 0.56573,-3.9342 0.0456,-9.4107 -1.74778,-12.11661 1.76882,-2.79039 1.34833,-6.47773 0.66517,-10.0046 -0.71811,-3.70727 -1.72642,-7.2372 -0.7873,-9.36161 4.42312,-9.96537 -3.6324,-14.41954 -14.55522,-20.29788 -13.03745,-7.01636 -17.6089,-11.28214 -21.67164,-11.28214 -5.86258,-1.64988 -13.39324,-4.68592 -17.03767,-8.1386 -2.16444,-2.15749 -4.5452,-4.05492 -8.00552,-4.91943 -12.09417,-3.24782 -18.597,-3.2673 -24.73137,-0.074 z"
   id="path3771"
   inkscape:connector-curvature="0"
   sodipodi:nodetypes="csccccccccsccccccsccccccccscccccccscscscccsccssccsccccsccccscssssssssccccccscsccccc" />
	 
</svg>