<?xml version="1.0" encoding="UTF-8" standalone="no"?>
<svg
   xmlns:dc="http://purl.org/dc/elements/1.1/"
   xmlns:cc="http://creativecommons.org/ns#"
   xmlns:rdf="http://www.w3.org/1999/02/22-rdf-syntax-ns#"
   xmlns:svg="http://www.w3.org/2000/svg"
   xmlns="http://www.w3.org/2000/svg"
   xmlns:sodipodi="http://sodipodi.sourceforge.net/DTD/sodipodi-0.dtd"
   xmlns:inkscape="http://www.inkscape.org/namespaces/inkscape"
   version="1.1"
   id="Layer_1"
   x="0px"
   y="0px"
   width="1000"
   height="1000"
   viewBox="0 0 1000 1000"
   enable-background="new 0 0 512 512"
   xml:space="preserve"
   inkscape:version="0.48.0 r9654"
   sodipodi:docname="dalhebrew-x5d3.svg"><title
   id="title3743">Sinai 357</title><metadata
   id="metadata72"><rdf:RDF><cc:Work
       rdf:about=""><dc:format>image/svg+xml</dc:format><dc:type
         rdf:resource="http://purl.org/dc/dcmitype/StillImage" /><dc:title>Sinai 357</dc:title><dc:date>2017</dc:date><dc:creator><cc:Agent><dc:title>Celeste Claire Horner</dc:title></cc:Agent></dc:creator><dc:publisher><cc:Agent><dc:title>beitdina.net</dc:title></cc:Agent></dc:publisher></cc:Work></rdf:RDF></metadata><defs
   id="defs70" /><sodipodi:namedview
   pagecolor="#ffffff"
   bordercolor="#666666"
   borderopacity="1"
   objecttolerance="10"
   gridtolerance="10"
   guidetolerance="10"
   inkscape:pageopacity="0"
   inkscape:pageshadow="2"
   inkscape:window-width="1152"
   inkscape:window-height="814"
   id="namedview68"
   showgrid="false"
   inkscape:zoom="0.31999999"
   inkscape:cx="-234.14501"
   inkscape:cy="206.08755"
   inkscape:window-x="-8"
   inkscape:window-y="-8"
   inkscape:window-maximized="1"
   inkscape:current-layer="Layer_1" />
   
	<g
   id="Grid"
   transform="matrix(1.949083,0,0,1.9463791,4.8939593,2.3372611)">
		<rect
   x="0"
   stroke-miterlimit="10"
   width="512"
   height="512"
   id="rect4"
   y="0"
   style="fill:none;stroke:#a9ccdb;stroke-miterlimit:10" />
		<line
   stroke-miterlimit="10"
   x1="0"
   y1="32"
   x2="512"
   y2="32"
   id="line6"
   style="fill:none;stroke:#a9ccdb;stroke-miterlimit:10" />
		<line
   stroke-miterlimit="10"
   x1="0"
   y1="64"
   x2="512"
   y2="64"
   id="line8"
   style="fill:none;stroke:#a9ccdb;stroke-miterlimit:10" />
		<line
   stroke-miterlimit="10"
   x1="0"
   y1="96"
   x2="512"
   y2="96"
   id="line10"
   style="fill:none;stroke:#a9ccdb;stroke-miterlimit:10" />
		<line
   stroke-miterlimit="10"
   x1="0"
   y1="128"
   x2="512"
   y2="128"
   id="line12"
   style="fill:none;stroke:#a9ccdb;stroke-miterlimit:10" />
		<line
   stroke-miterlimit="10"
   x1="0"
   y1="160"
   x2="512"
   y2="160"
   id="line14"
   style="fill:none;stroke:#a9ccdb;stroke-miterlimit:10" />
		<line
   stroke-miterlimit="10"
   x1="0"
   y1="192"
   x2="512"
   y2="192"
   id="line16"
   style="fill:none;stroke:#a9ccdb;stroke-miterlimit:10" />
		<line
   stroke-miterlimit="10"
   x1="0"
   y1="224"
   x2="512"
   y2="224"
   id="line18"
   style="fill:none;stroke:#a9ccdb;stroke-miterlimit:10" />
		<line
   stroke-miterlimit="10"
   x1="0"
   y1="256"
   x2="512"
   y2="256"
   id="line20"
   style="fill:none;stroke:#a9ccdb;stroke-miterlimit:10" />
		<line
   stroke-miterlimit="10"
   x1="0"
   y1="288"
   x2="512"
   y2="288"
   id="line22"
   style="fill:none;stroke:#a9ccdb;stroke-miterlimit:10" />
		<line
   stroke-miterlimit="10"
   x1="0"
   y1="320"
   x2="512"
   y2="320"
   id="line24"
   style="fill:none;stroke:#a9ccdb;stroke-miterlimit:10" />
		<line
   stroke-miterlimit="10"
   x1="0"
   y1="352"
   x2="512"
   y2="352"
   id="line26"
   style="fill:none;stroke:#a9ccdb;stroke-miterlimit:10" />
		<line
   stroke-miterlimit="10"
   x1="0"
   y1="384"
   x2="512"
   y2="384"
   id="line28"
   style="fill:none;stroke:#a9ccdb;stroke-miterlimit:10" />
		<line
   stroke-miterlimit="10"
   x1="0"
   y1="416"
   x2="512"
   y2="416"
   id="line30"
   style="fill:none;stroke:#a9ccdb;stroke-miterlimit:10" />
		<line
   stroke-miterlimit="10"
   x1="0"
   y1="448"
   x2="512"
   y2="448"
   id="line32"
   style="fill:none;stroke:#ff0000;stroke-miterlimit:10" />
		<line
   stroke-miterlimit="10"
   x1="0"
   y1="480"
   x2="512"
   y2="480"
   id="line34"
   style="fill:none;stroke:#a9ccdb;stroke-miterlimit:10" />
		<line
   stroke-miterlimit="10"
   x1="32"
   y1="0"
   x2="32"
   y2="512"
   id="line36"
   style="fill:none;stroke:#a9ccdb;stroke-miterlimit:10" />
		<line
   stroke-miterlimit="10"
   x1="64"
   y1="0"
   x2="64"
   y2="512"
   id="line38"
   style="fill:none;stroke:#a9ccdb;stroke-miterlimit:10" />
		<line
   stroke-miterlimit="10"
   x1="96"
   y1="0"
   x2="96"
   y2="512"
   id="line40"
   style="fill:none;stroke:#a9ccdb;stroke-miterlimit:10" />
		<line
   stroke-miterlimit="10"
   x1="128"
   y1="0"
   x2="128"
   y2="512"
   id="line42"
   style="fill:none;stroke:#a9ccdb;stroke-miterlimit:10" />
		<line
   stroke-miterlimit="10"
   x1="160"
   y1="0"
   x2="160"
   y2="512"
   id="line44"
   style="fill:none;stroke:#a9ccdb;stroke-miterlimit:10" />
		<line
   stroke-miterlimit="10"
   x1="192"
   y1="0"
   x2="192"
   y2="512"
   id="line46"
   style="fill:none;stroke:#a9ccdb;stroke-miterlimit:10" />
		<line
   stroke-miterlimit="10"
   x1="224"
   y1="0"
   x2="224"
   y2="512"
   id="line48"
   style="fill:none;stroke:#a9ccdb;stroke-miterlimit:10" />
		<line
   stroke-miterlimit="10"
   x1="256"
   y1="0"
   x2="256"
   y2="512"
   id="line50"
   style="fill:none;stroke:#a9ccdb;stroke-miterlimit:10" />
		<line
   stroke-miterlimit="10"
   x1="288"
   y1="0"
   x2="288"
   y2="512"
   id="line52"
   style="fill:none;stroke:#a9ccdb;stroke-miterlimit:10" />
		<line
   stroke-miterlimit="10"
   x1="320"
   y1="0"
   x2="320"
   y2="512"
   id="line54"
   style="fill:none;stroke:#a9ccdb;stroke-miterlimit:10" />
		<line
   stroke-miterlimit="10"
   x1="352"
   y1="0"
   x2="352"
   y2="512"
   id="line56"
   style="fill:none;stroke:#a9ccdb;stroke-miterlimit:10" />
		<line
   stroke-miterlimit="10"
   x1="384"
   y1="0"
   x2="384"
   y2="512"
   id="line58"
   style="fill:none;stroke:#a9ccdb;stroke-miterlimit:10" />
		<line
   stroke-miterlimit="10"
   x1="416"
   y1="0"
   x2="416"
   y2="512"
   id="line60"
   style="fill:none;stroke:#a9ccdb;stroke-miterlimit:10" />
		<line
   stroke-miterlimit="10"
   x1="448"
   y1="0"
   x2="448"
   y2="512"
   id="line62"
   style="fill:none;stroke:#a9ccdb;stroke-miterlimit:10" />
		<line
   stroke-miterlimit="10"
   x1="480"
   y1="0"
   x2="480"
   y2="512"
   id="line64"
   style="fill:none;stroke:#a9ccdb;stroke-miterlimit:10" />
	</g>
<path
   style="fill:#5a2309"
   d="m 609.60011,195.19182 c -3.13389,1.72937 -4.15031,3.77222 -4.75019,5.82138 -0.67495,2.3057 -0.82255,4.61942 -2.86586,6.50365 -2.51226,2.37965 -3.31852,6.93891 -3.31852,18.76542 -14.59884,48.66838 -26.16436,103.67351 -42.86687,145.75131 -13.62789,33.85625 -5.95007,22.47134 -19.50376,65.46058 -12.75806,29.57351 -21.17482,61.07174 -35.27586,89.0823 -10.3496,11.45931 -20.82473,26.26799 -32.88249,37.37065 -24.4636,22.87473 -58.55778,9.99554 -88.50852,-0.0725 -20.32118,-6.32724 -41.8787,-11.98697 -62.19624,-18.16749 -20.98409,-5.87499 -42.34086,-13.73767 -63.71558,-21.31727 -33.00895,-11.70518 -66.06073,-22.73525 -97.84894,-24.72717 -8.74956,-1.41702 -17.95784,-2.32884 -26.23911,-3.15976 -8.23465,-0.88903 -19.05777,2.89142 -22.51664,9.52336 -2.22783,4.72877 -2.82854,10.63792 -2.76713,16.06493 0.0528,2.62019 0.40873,5.18627 1.20748,7.65905 1.05119,3.19029 2.67804,6.0262 3.42395,8.67065 1.09618,3.08584 2.25606,6.1312 3.45466,9.13291 2.08996,5.23395 4.29766,10.33517 6.49068,15.2868 18.7101,42.25336 37.61771,86.95656 26.96437,133.3098 1.66095,8.51851 -6.22132,14.94689 -6.67076,22.05158 -0.94453,7.06847 -2.87529,13.96673 -5.1831,20.20436 -2.11199,15.19515 -10.64908,28.10582 -15.658,41.83752 -3.2615,9.08139 -4.5363,17.21138 -1.13415,23.11814 4.31846,6.08411 6.86124,4.45127 12.60507,4.67442 5.56363,-0.16262 13.9971,0.60207 17.21216,-1.86256 4.79187,-4.05456 9.60491,-2.21897 13.22424,-2.18397 1.80357,0.0174 5.30589,-0.79799 7.55559,0.74973 3.51408,2.62334 6.1574,0.22728 11.79183,2.40568 4.67849,1.08248 14.38065,-1.83342 15.66284,-4.42292 2.49026,-3.98065 9.19775,-1.71838 10.81001,-1.24384 9.87437,0.78256 10.58818,-2.71636 16.63586,-6.6156 5.95559,-2.51267 7.001,-4.0905 8.73579,-8.18848 2.95852,-5.77597 4.55579,-10.71827 6.92865,-15.98368 0.81052,-1.82869 0.98296,-4.16044 2.02471,-6.01218 2.81296,-5.00021 5.11447,-10.05215 5.11447,-11.2265 6.66314,-10.15211 6.34718,-19.03091 5.91808,-28.45716 -0.29894,-6.56708 -0.0497,-13.60091 -0.0669,-20.67173 0.0249,-3.67666 0.39353,-8.08039 -0.34123,-12.6688 -1.69141,-10.56245 -3.52727,-25.22856 -7.2243,-31.13212 -3.41904,-4.47504 -1.60362,-6.94528 1.76711,-9.48664 2.98532,-2.46783 5.8324,-5.47139 8.59443,-8.54954 2.68613,-3.16616 5.34094,-6.14046 8.10532,-8.87368 3.38198,-3.34385 6.92796,-6.32686 10.89597,-8.85888 2.04924,-1.25169 6.50948,-0.66317 9.57418,-0.66317 12.24172,4.7254 22.43002,6.09597 33.78182,9.8912 22.13196,7.39936 41.69691,12.50754 61.19651,20.3227 21.191,8.49304 42.94466,20.68145 63.34131,34.2818 3.42497,2.30583 7.79242,2.87028 9.30835,4.38902 1.73896,2.42072 3.35144,4.38485 5.05284,5.94183 2.19546,2.00911 4.53896,3.34028 7.49328,4.09977 6.20822,5.99139 12.25241,9.12567 18.21046,14.69564 13.52544,9.35761 8.31781,16.00173 4.9947,28.96579 -1.56836,4.62138 -2.05713,8.91341 2.31894,12.47516 2.50675,1.89633 5.25544,3.90514 8.12957,5.75672 4.81802,3.10389 9.98856,5.76599 14.96284,6.71594 6.10858,1.13439 12.26732,1.40124 16.12796,4.11281 7.10413,4.97011 8.03106,4.96649 17.04481,-0.066 5.72667,-1.38008 11.56019,-2.18993 17.18021,-3.32074 7.33136,-1.85685 15.55559,-4.56469 21.18341,-9.02369 4.20014,-3.32785 6.95408,-7.63104 6.81135,-13.28378 -0.20988,-5.28273 1.45052,-8.02655 9.13281,-15.09216 6.19628,-5.69889 10.88422,-12.41634 13.78513,-19.75312 2.41767,-6.11461 5.12265,-11.9992 6.01102,-13.07686 0.88837,-1.07766 2.12531,-6.8908 2.74871,-12.91807 0.6234,-6.0273 2.52541,-12.99642 4.2267,-15.48696 5.30114,-7.76045 4.67831,-47.52451 -0.96724,-61.75139 -1.08138,-2.72508 -4.76262,-6.51788 -8.18055,-8.42841 -6.79482,-3.79813 -5.02889,-7.72604 -5.02889,-16.58564 0,-2.96722 1.8209,-10.78858 4.04645,-17.38084 27.36338,-99.57594 32.12981,-138.20505 57.3827,-230.47964 2.54625,-9.33906 4.86846,-18.61673 6.97276,-27.78012 1.45127,-9.94905 10.0896,-36.09281 7.28931,-41.12737 -3.17101,-3.5648 -1.06363,-6.56366 -0.58829,-8.5837 0.49659,-3.42889 0.04,-8.20199 -1.53416,-10.56036 1.55263,-2.43199 1.18353,-5.64573 0.58387,-8.71961 -0.63034,-3.23111 -1.51542,-6.30766 -0.69108,-8.15921 3.88253,-8.68542 -3.18845,-12.5675 -12.77628,-17.69083 -11.44401,-6.11518 -15.45674,-9.83307 -19.02293,-9.83307 -5.14606,-1.43797 -11.75632,-4.08406 -14.95533,-7.09328 -1.8999,-1.88038 -3.98969,-3.53411 -7.02709,-4.28758 -10.61602,-2.83067 -16.32407,-2.84765 -21.7087,-0.0645 z"
   id="path3771"
   inkscape:connector-curvature="0"
   sodipodi:nodetypes="csccccccccsccccccsccccccccscccccccscscscccsccssccsccccsccccscssssssssccccccscsccccc" />
	 
</svg>