<?xml version="1.0" encoding="UTF-8" standalone="no"?>
<svg
   xmlns:dc="http://purl.org/dc/elements/1.1/"
   xmlns:cc="http://creativecommons.org/ns#"
   xmlns:rdf="http://www.w3.org/1999/02/22-rdf-syntax-ns#"
   xmlns:svg="http://www.w3.org/2000/svg"
   xmlns="http://www.w3.org/2000/svg"
   xmlns:sodipodi="http://sodipodi.sourceforge.net/DTD/sodipodi-0.dtd"
   xmlns:inkscape="http://www.inkscape.org/namespaces/inkscape"
   version="1.1"
   id="Layer_1"
   x="0px"
   y="0px"
   width="1000"
   height="1000"
   viewBox="0 0 1000 1000"
   enable-background="new 0 0 512 512"
   xml:space="preserve"
   inkscape:version="0.48.0 r9654"
   sodipodi:docname="dalhebrew-x5d3.svg"><title
   id="title3743">Sinai 357</title><metadata
   id="metadata72"><rdf:RDF><cc:Work
       rdf:about=""><dc:format>image/svg+xml</dc:format><dc:type
         rdf:resource="http://purl.org/dc/dcmitype/StillImage" /><dc:title>Sinai 357</dc:title><dc:date>2017</dc:date><dc:creator><cc:Agent><dc:title>Celeste Claire Horner</dc:title></cc:Agent></dc:creator><dc:publisher><cc:Agent><dc:title>beitdina.net</dc:title></cc:Agent></dc:publisher></cc:Work></rdf:RDF></metadata><defs
   id="defs70" /><sodipodi:namedview
   pagecolor="#ffffff"
   bordercolor="#666666"
   borderopacity="1"
   objecttolerance="10"
   gridtolerance="10"
   guidetolerance="10"
   inkscape:pageopacity="0"
   inkscape:pageshadow="2"
   inkscape:window-width="1152"
   inkscape:window-height="814"
   id="namedview68"
   showgrid="false"
   inkscape:zoom="0.31999999"
   inkscape:cx="308.79973"
   inkscape:cy="395.63183"
   inkscape:window-x="-8"
   inkscape:window-y="-8"
   inkscape:window-maximized="1"
   inkscape:current-layer="Layer_1" />
   
	<g
   id="Grid"
   transform="matrix(1.949083,0,0,1.9463791,4.8939593,2.3372611)">
		<rect
   x="0"
   stroke-miterlimit="10"
   width="512"
   height="512"
   id="rect4"
   y="0"
   style="fill:none;stroke:#a9ccdb;stroke-miterlimit:10" />
		<line
   stroke-miterlimit="10"
   x1="0"
   y1="32"
   x2="512"
   y2="32"
   id="line6"
   style="fill:none;stroke:#a9ccdb;stroke-miterlimit:10" />
		<line
   stroke-miterlimit="10"
   x1="0"
   y1="64"
   x2="512"
   y2="64"
   id="line8"
   style="fill:none;stroke:#a9ccdb;stroke-miterlimit:10" />
		<line
   stroke-miterlimit="10"
   x1="0"
   y1="96"
   x2="512"
   y2="96"
   id="line10"
   style="fill:none;stroke:#a9ccdb;stroke-miterlimit:10" />
		<line
   stroke-miterlimit="10"
   x1="0"
   y1="128"
   x2="512"
   y2="128"
   id="line12"
   style="fill:none;stroke:#a9ccdb;stroke-miterlimit:10" />
		<line
   stroke-miterlimit="10"
   x1="0"
   y1="160"
   x2="512"
   y2="160"
   id="line14"
   style="fill:none;stroke:#a9ccdb;stroke-miterlimit:10" />
		<line
   stroke-miterlimit="10"
   x1="0"
   y1="192"
   x2="512"
   y2="192"
   id="line16"
   style="fill:none;stroke:#a9ccdb;stroke-miterlimit:10" />
		<line
   stroke-miterlimit="10"
   x1="0"
   y1="224"
   x2="512"
   y2="224"
   id="line18"
   style="fill:none;stroke:#a9ccdb;stroke-miterlimit:10" />
		<line
   stroke-miterlimit="10"
   x1="0"
   y1="256"
   x2="512"
   y2="256"
   id="line20"
   style="fill:none;stroke:#a9ccdb;stroke-miterlimit:10" />
		<line
   stroke-miterlimit="10"
   x1="0"
   y1="288"
   x2="512"
   y2="288"
   id="line22"
   style="fill:none;stroke:#a9ccdb;stroke-miterlimit:10" />
		<line
   stroke-miterlimit="10"
   x1="0"
   y1="320"
   x2="512"
   y2="320"
   id="line24"
   style="fill:none;stroke:#a9ccdb;stroke-miterlimit:10" />
		<line
   stroke-miterlimit="10"
   x1="0"
   y1="352"
   x2="512"
   y2="352"
   id="line26"
   style="fill:none;stroke:#a9ccdb;stroke-miterlimit:10" />
		<line
   stroke-miterlimit="10"
   x1="0"
   y1="384"
   x2="512"
   y2="384"
   id="line28"
   style="fill:none;stroke:#a9ccdb;stroke-miterlimit:10" />
		<line
   stroke-miterlimit="10"
   x1="0"
   y1="416"
   x2="512"
   y2="416"
   id="line30"
   style="fill:none;stroke:#a9ccdb;stroke-miterlimit:10" />
		<line
   stroke-miterlimit="10"
   x1="0"
   y1="448"
   x2="512"
   y2="448"
   id="line32"
   style="fill:none;stroke:#ff0000;stroke-miterlimit:10" />
		<line
   stroke-miterlimit="10"
   x1="0"
   y1="480"
   x2="512"
   y2="480"
   id="line34"
   style="fill:none;stroke:#a9ccdb;stroke-miterlimit:10" />
		<line
   stroke-miterlimit="10"
   x1="32"
   y1="0"
   x2="32"
   y2="512"
   id="line36"
   style="fill:none;stroke:#a9ccdb;stroke-miterlimit:10" />
		<line
   stroke-miterlimit="10"
   x1="64"
   y1="0"
   x2="64"
   y2="512"
   id="line38"
   style="fill:none;stroke:#a9ccdb;stroke-miterlimit:10" />
		<line
   stroke-miterlimit="10"
   x1="96"
   y1="0"
   x2="96"
   y2="512"
   id="line40"
   style="fill:none;stroke:#a9ccdb;stroke-miterlimit:10" />
		<line
   stroke-miterlimit="10"
   x1="128"
   y1="0"
   x2="128"
   y2="512"
   id="line42"
   style="fill:none;stroke:#a9ccdb;stroke-miterlimit:10" />
		<line
   stroke-miterlimit="10"
   x1="160"
   y1="0"
   x2="160"
   y2="512"
   id="line44"
   style="fill:none;stroke:#a9ccdb;stroke-miterlimit:10" />
		<line
   stroke-miterlimit="10"
   x1="192"
   y1="0"
   x2="192"
   y2="512"
   id="line46"
   style="fill:none;stroke:#a9ccdb;stroke-miterlimit:10" />
		<line
   stroke-miterlimit="10"
   x1="224"
   y1="0"
   x2="224"
   y2="512"
   id="line48"
   style="fill:none;stroke:#a9ccdb;stroke-miterlimit:10" />
		<line
   stroke-miterlimit="10"
   x1="256"
   y1="0"
   x2="256"
   y2="512"
   id="line50"
   style="fill:none;stroke:#a9ccdb;stroke-miterlimit:10" />
		<line
   stroke-miterlimit="10"
   x1="288"
   y1="0"
   x2="288"
   y2="512"
   id="line52"
   style="fill:none;stroke:#a9ccdb;stroke-miterlimit:10" />
		<line
   stroke-miterlimit="10"
   x1="320"
   y1="0"
   x2="320"
   y2="512"
   id="line54"
   style="fill:none;stroke:#a9ccdb;stroke-miterlimit:10" />
		<line
   stroke-miterlimit="10"
   x1="352"
   y1="0"
   x2="352"
   y2="512"
   id="line56"
   style="fill:none;stroke:#a9ccdb;stroke-miterlimit:10" />
		<line
   stroke-miterlimit="10"
   x1="384"
   y1="0"
   x2="384"
   y2="512"
   id="line58"
   style="fill:none;stroke:#a9ccdb;stroke-miterlimit:10" />
		<line
   stroke-miterlimit="10"
   x1="416"
   y1="0"
   x2="416"
   y2="512"
   id="line60"
   style="fill:none;stroke:#a9ccdb;stroke-miterlimit:10" />
		<line
   stroke-miterlimit="10"
   x1="448"
   y1="0"
   x2="448"
   y2="512"
   id="line62"
   style="fill:none;stroke:#a9ccdb;stroke-miterlimit:10" />
		<line
   stroke-miterlimit="10"
   x1="480"
   y1="0"
   x2="480"
   y2="512"
   id="line64"
   style="fill:none;stroke:#a9ccdb;stroke-miterlimit:10" />
	</g>
<path
   style="fill:#5a2309"
   d="m 513.92547,273.02122 c -2.58852,1.48275 -3.42806,3.23427 -3.92355,4.99121 -0.55749,1.97689 -0.67941,3.96065 -2.36713,5.57617 -2.07507,2.0403 -2.74102,5.94938 -2.74102,16.08933 -8.49917,34.18166 -19.08792,73.89898 -30.35417,111.2364 -22.09818,46.49747 -18.41226,95.6345 -39.97488,137.64052 -7.58479,18.00711 -16.65457,24.22921 -28.66307,38.38397 -15.73151,29.34972 -55.67573,7.14175 -92.20028,-1.26019 -19.72052,-4.83291 -40.34869,-11.5547 -58.06715,-18.63662 -37.10711,-14.15149 -77.37594,-29.2838 -108.73812,-30.84542 -13.14087,-0.63574 -25.18383,-1.68114 -26.76212,-2.32314 -3.39667,-1.38165 -12.86604,3.64205 -13.8828,7.36511 -2.70696,9.91214 -2.59285,14.95992 0.45708,20.21964 1.7742,3.05967 3.69778,10.36535 4.27462,16.23485 16.8471,39.91927 40.0822,79.88237 30.24971,124.29123 1.37191,7.30371 -5.13867,12.81535 -5.5099,18.90686 -0.78015,6.06045 -2.37492,11.97496 -4.28112,17.32306 -1.74445,13.0282 -8.7959,24.09771 -12.93315,35.87115 -2.69392,7.78633 -3.74687,14.75692 -0.93677,19.82133 3.56694,5.21646 5.66722,3.81647 10.41149,4.0078 4.59543,-0.13943 11.56129,0.51621 14.21685,-1.59694 3.95797,-3.47635 7.93343,-1.90253 10.92292,-1.87252 1.48971,0.0149 4.38254,-0.68419 6.24074,0.64282 2.90255,2.24923 5.08587,0.19486 9.73979,2.0626 3.86432,0.92812 11.87808,-1.57196 12.93714,-3.79218 2.0569,-3.41297 7.59713,-1.47332 8.92882,-1.06645 8.15601,0.67096 8.74559,-2.32899 13.74084,-5.67216 4.91918,-2.15435 5.78266,-3.50717 7.21556,-7.02075 2.44367,-4.95227 3.76298,-9.18975 5.72291,-13.70428 0.66947,-1.5679 0.8119,-3.56712 1.67236,-5.15479 2.32344,-4.28714 4.22444,-8.61863 4.22444,-9.62552 6.09894,-8.16028 6.78709,-18.27963 5.97794,-27.27851 -0.51133,-5.51587 -1.41327,-11.05581 -1.60058,-16.55087 0.9819,-4.76416 -0.42361,-8.70848 -1.50901,-12.80126 -1.89057,-7.16477 -3.71067,-16.64549 -6.22024,-20.3673 -2.82405,-3.83686 -1.96985,-5.95482 0.8143,-8.13377 2.15756,-1.68855 2.83385,-4.22417 6.4958,-6.81429 2.98429,-1.91909 4.641,-4.13568 5.92307,-6.37966 2.03584,-3.56331 5.76728,-6.38523 9.72926,-9.00519 1.69263,-1.07319 3.76344,-1.57337 6.29481,-1.57337 43.34248,10.65004 67.39574,26.26564 110.29953,43.37031 5.44468,-0.99633 9.72232,1.35899 19.74812,10.87358 6.23434,5.91645 11.33517,11.52112 11.33517,12.45484 0,0.93372 3.34658,2.57687 7.43686,3.65144 5.90356,1.55095 8.00521,3.12451 10.19363,7.63223 1.51622,3.12315 4.2833,6.07057 6.14905,6.54982 4.02403,5.63383 6.83415,15.31935 5.08279,21.2434 -1.29543,3.96234 -1.69914,7.64229 1.91539,10.69611 2.07052,1.6259 4.34087,3.34824 6.71484,4.93577 3.97957,2.66125 8.25032,4.94371 12.35896,5.75819 5.04555,0.97262 10.13253,1.20141 13.32133,3.5263 5.86784,4.26132 6.63347,4.25823 14.07862,-0.0566 4.7301,-1.18326 9.54845,-1.87763 14.19046,-2.84717 6.05553,-1.59205 12.84856,-3.91374 17.49701,-7.73685 3.46922,-2.85326 5.74391,-6.54279 5.62602,-11.3894 -0.17336,-4.52938 1.19809,-6.88191 7.54349,-12.9399 5.11799,-4.88618 8.99012,-10.64568 11.3862,-16.93617 1.99694,-5.24262 4.23119,-10.28802 4.96496,-11.212 0.73378,-0.92398 1.75546,-5.90812 2.27038,-11.07586 0.51491,-5.16775 2.08593,-11.14302 3.49116,-13.27839 4.37862,-6.65375 3.86417,-40.74714 -0.79892,-52.94516 -0.8932,-2.33647 -3.93382,-5.58838 -6.75695,-7.22645 -5.61237,-3.25649 -4.15375,-6.62425 -4.15375,-14.2204 0,-2.54407 1.50402,-9.25005 3.34228,-14.9022 21.4699,-71.50939 17.87006,-133.55921 39.22695,-199.24361 1.47046,-4.108 4.84509,-17.78379 7.49914,-30.39065 4.06835,-19.32483 7.06465,-25.24432 4.7073,-29.18236 -2.61917,-3.05643 -0.87853,-5.62763 -0.48591,-7.3596 0.41018,-2.9399 0.0331,-7.03231 -1.26718,-9.05437 1.28244,-2.08516 0.97757,-4.84061 0.48226,-7.47612 -0.52064,-2.77033 -1.2517,-5.40814 -0.57081,-6.99565 3.20688,-7.44681 -2.63359,-10.77526 -10.55292,-15.16797 -9.45248,-5.24311 -12.76691,-8.4308 -15.7125,-8.4308 -4.25052,-1.2329 -9.71045,-3.50164 -12.35276,-6.08172 -1.56927,-1.61223 -3.29539,-3.03012 -5.80421,-3.67614 -8.76859,-2.427 -13.48331,-2.44156 -17.93089,-0.0553 z"
   id="path3771"
   inkscape:connector-curvature="0"
   sodipodi:nodetypes="csccccccccsssccccccccscccccccscccccscscccsssscccsccccscssssssssccscccscsccccc" />
	 
</svg>