<?xml version="1.0" encoding="UTF-8" standalone="no"?>
<svg
   xmlns:dc="http://purl.org/dc/elements/1.1/"
   xmlns:cc="http://creativecommons.org/ns#"
   xmlns:rdf="http://www.w3.org/1999/02/22-rdf-syntax-ns#"
   xmlns:svg="http://www.w3.org/2000/svg"
   xmlns="http://www.w3.org/2000/svg"
   xmlns:sodipodi="http://sodipodi.sourceforge.net/DTD/sodipodi-0.dtd"
   xmlns:inkscape="http://www.inkscape.org/namespaces/inkscape"
   version="1.1"
   id="Layer_1"
   x="0px"
   y="0px"
   width="1000"
   height="1000"
   viewBox="0 0 1000 1000"
   enable-background="new 0 0 512 512"
   xml:space="preserve"
   inkscape:version="0.48.0 r9654"
   sodipodi:docname="dolhebrew-x5d3.svg"><title
   id="title3743">Sinai 357</title><metadata
   id="metadata72"><rdf:RDF><cc:Work
       rdf:about=""><dc:format>image/svg+xml</dc:format><dc:type
         rdf:resource="http://purl.org/dc/dcmitype/StillImage" /><dc:title>Sinai 357</dc:title><dc:date>2017</dc:date><dc:creator><cc:Agent><dc:title>Celeste Claire Horner</dc:title></cc:Agent></dc:creator><dc:publisher><cc:Agent><dc:title>beitdina.net</dc:title></cc:Agent></dc:publisher></cc:Work></rdf:RDF></metadata><defs
   id="defs70" /><sodipodi:namedview
   pagecolor="#ffffff"
   bordercolor="#666666"
   borderopacity="1"
   objecttolerance="10"
   gridtolerance="10"
   guidetolerance="10"
   inkscape:pageopacity="0"
   inkscape:pageshadow="2"
   inkscape:window-width="1152"
   inkscape:window-height="814"
   id="namedview68"
   showgrid="false"
   inkscape:zoom="0.31999999"
   inkscape:cx="308.79973"
   inkscape:cy="395.63183"
   inkscape:window-x="-8"
   inkscape:window-y="-8"
   inkscape:window-maximized="1"
   inkscape:current-layer="Layer_1" />
   
	<g
   id="Grid"
   transform="matrix(1.949083,0,0,1.9463791,4.8939593,2.3372611)">
		<rect
   x="0"
   stroke-miterlimit="10"
   width="512"
   height="512"
   id="rect4"
   y="0"
   style="fill:none;stroke:#a9ccdb;stroke-miterlimit:10" />
		<line
   stroke-miterlimit="10"
   x1="0"
   y1="32"
   x2="512"
   y2="32"
   id="line6"
   style="fill:none;stroke:#a9ccdb;stroke-miterlimit:10" />
		<line
   stroke-miterlimit="10"
   x1="0"
   y1="64"
   x2="512"
   y2="64"
   id="line8"
   style="fill:none;stroke:#a9ccdb;stroke-miterlimit:10" />
		<line
   stroke-miterlimit="10"
   x1="0"
   y1="96"
   x2="512"
   y2="96"
   id="line10"
   style="fill:none;stroke:#a9ccdb;stroke-miterlimit:10" />
		<line
   stroke-miterlimit="10"
   x1="0"
   y1="128"
   x2="512"
   y2="128"
   id="line12"
   style="fill:none;stroke:#a9ccdb;stroke-miterlimit:10" />
		<line
   stroke-miterlimit="10"
   x1="0"
   y1="160"
   x2="512"
   y2="160"
   id="line14"
   style="fill:none;stroke:#a9ccdb;stroke-miterlimit:10" />
		<line
   stroke-miterlimit="10"
   x1="0"
   y1="192"
   x2="512"
   y2="192"
   id="line16"
   style="fill:none;stroke:#a9ccdb;stroke-miterlimit:10" />
		<line
   stroke-miterlimit="10"
   x1="0"
   y1="224"
   x2="512"
   y2="224"
   id="line18"
   style="fill:none;stroke:#a9ccdb;stroke-miterlimit:10" />
		<line
   stroke-miterlimit="10"
   x1="0"
   y1="256"
   x2="512"
   y2="256"
   id="line20"
   style="fill:none;stroke:#a9ccdb;stroke-miterlimit:10" />
		<line
   stroke-miterlimit="10"
   x1="0"
   y1="288"
   x2="512"
   y2="288"
   id="line22"
   style="fill:none;stroke:#a9ccdb;stroke-miterlimit:10" />
		<line
   stroke-miterlimit="10"
   x1="0"
   y1="320"
   x2="512"
   y2="320"
   id="line24"
   style="fill:none;stroke:#a9ccdb;stroke-miterlimit:10" />
		<line
   stroke-miterlimit="10"
   x1="0"
   y1="352"
   x2="512"
   y2="352"
   id="line26"
   style="fill:none;stroke:#a9ccdb;stroke-miterlimit:10" />
		<line
   stroke-miterlimit="10"
   x1="0"
   y1="384"
   x2="512"
   y2="384"
   id="line28"
   style="fill:none;stroke:#a9ccdb;stroke-miterlimit:10" />
		<line
   stroke-miterlimit="10"
   x1="0"
   y1="416"
   x2="512"
   y2="416"
   id="line30"
   style="fill:none;stroke:#a9ccdb;stroke-miterlimit:10" />
		<line
   stroke-miterlimit="10"
   x1="0"
   y1="448"
   x2="512"
   y2="448"
   id="line32"
   style="fill:none;stroke:#ff0000;stroke-miterlimit:10" />
		<line
   stroke-miterlimit="10"
   x1="0"
   y1="480"
   x2="512"
   y2="480"
   id="line34"
   style="fill:none;stroke:#a9ccdb;stroke-miterlimit:10" />
		<line
   stroke-miterlimit="10"
   x1="32"
   y1="0"
   x2="32"
   y2="512"
   id="line36"
   style="fill:none;stroke:#a9ccdb;stroke-miterlimit:10" />
		<line
   stroke-miterlimit="10"
   x1="64"
   y1="0"
   x2="64"
   y2="512"
   id="line38"
   style="fill:none;stroke:#a9ccdb;stroke-miterlimit:10" />
		<line
   stroke-miterlimit="10"
   x1="96"
   y1="0"
   x2="96"
   y2="512"
   id="line40"
   style="fill:none;stroke:#a9ccdb;stroke-miterlimit:10" />
		<line
   stroke-miterlimit="10"
   x1="128"
   y1="0"
   x2="128"
   y2="512"
   id="line42"
   style="fill:none;stroke:#a9ccdb;stroke-miterlimit:10" />
		<line
   stroke-miterlimit="10"
   x1="160"
   y1="0"
   x2="160"
   y2="512"
   id="line44"
   style="fill:none;stroke:#a9ccdb;stroke-miterlimit:10" />
		<line
   stroke-miterlimit="10"
   x1="192"
   y1="0"
   x2="192"
   y2="512"
   id="line46"
   style="fill:none;stroke:#a9ccdb;stroke-miterlimit:10" />
		<line
   stroke-miterlimit="10"
   x1="224"
   y1="0"
   x2="224"
   y2="512"
   id="line48"
   style="fill:none;stroke:#a9ccdb;stroke-miterlimit:10" />
		<line
   stroke-miterlimit="10"
   x1="256"
   y1="0"
   x2="256"
   y2="512"
   id="line50"
   style="fill:none;stroke:#a9ccdb;stroke-miterlimit:10" />
		<line
   stroke-miterlimit="10"
   x1="288"
   y1="0"
   x2="288"
   y2="512"
   id="line52"
   style="fill:none;stroke:#a9ccdb;stroke-miterlimit:10" />
		<line
   stroke-miterlimit="10"
   x1="320"
   y1="0"
   x2="320"
   y2="512"
   id="line54"
   style="fill:none;stroke:#a9ccdb;stroke-miterlimit:10" />
		<line
   stroke-miterlimit="10"
   x1="352"
   y1="0"
   x2="352"
   y2="512"
   id="line56"
   style="fill:none;stroke:#a9ccdb;stroke-miterlimit:10" />
		<line
   stroke-miterlimit="10"
   x1="384"
   y1="0"
   x2="384"
   y2="512"
   id="line58"
   style="fill:none;stroke:#a9ccdb;stroke-miterlimit:10" />
		<line
   stroke-miterlimit="10"
   x1="416"
   y1="0"
   x2="416"
   y2="512"
   id="line60"
   style="fill:none;stroke:#a9ccdb;stroke-miterlimit:10" />
		<line
   stroke-miterlimit="10"
   x1="448"
   y1="0"
   x2="448"
   y2="512"
   id="line62"
   style="fill:none;stroke:#a9ccdb;stroke-miterlimit:10" />
		<line
   stroke-miterlimit="10"
   x1="480"
   y1="0"
   x2="480"
   y2="512"
   id="line64"
   style="fill:none;stroke:#a9ccdb;stroke-miterlimit:10" />
	</g>
     <g
   id="g3767"
   transform="matrix(1.9912293,0,0,-2.3091187,1462.7523,201.2263)"><path
     style="fill:#5a2309"
     d="m -453.2801,25.004956 c -1.53187,-0.893336 -2.0287,-1.948594 -2.32193,-3.007121 -0.32992,-1.191043 -0.40207,-2.386226 -1.40085,-3.359546 -1.22801,-1.22925 -1.62212,-3.5844 -1.62212,-9.6935501 -5.02975,-20.5938689 -11.2961,-44.5228729 -17.96339,-67.0180359 -13.07755,-28.01393 -10.89625,-57.618153 -23.65686,-82.926063 -4.48863,-10.84898 -9.85606,-14.59769 -16.96261,-23.12569 -9.3098,-17.68271 -32.94852,-4.30278 -54.5635,0.75924 -11.67047,2.91175 -23.87808,6.96151 -34.36374,11.22825 -21.95974,8.52603 -45.79056,17.64299 -64.35048,18.58384 -7.77668,0.38302 -14.90362,1.01286 -15.83764,1.39965 -2.01013,0.83242 -7.61404,-2.19427 -8.21575,-4.43735 -1.60196,-5.9719 -1.53443,-9.0131 0.2705,-12.18199 1.04996,-1.8434 2.18832,-6.24495 2.52969,-9.78122 9.97,-24.05068 23.72037,-48.12777 17.90157,-74.88335 0.81189,-4.40036 -3.04103,-7.72103 -3.26072,-11.39106 -0.46169,-3.65132 -1.40546,-7.21471 -2.53354,-10.43685 -1.03235,-7.84927 -5.20535,-14.51846 -7.65375,-21.61176 -1.59424,-4.69113 -2.21737,-8.89079 -0.55437,-11.94201 2.11089,-3.14283 3.35382,-2.29936 6.16145,-2.41463 2.71954,0.084 6.84189,-0.31101 8.41343,0.96213 2.3423,2.09444 4.69495,1.14624 6.46411,1.12816 0.8816,-0.009 2.59356,0.41221 3.69323,-0.38729 1.71771,-1.35512 3.00978,-0.1174 5.76394,-1.24268 2.28688,-0.55918 7.02937,0.94708 7.65611,2.28472 1.21726,2.05626 4.49593,0.88765 5.28402,0.64252 4.82667,-0.40424 5.17558,1.40318 8.13173,3.41738 2.91114,1.29796 3.42214,2.11301 4.27012,4.22988 1.44615,2.98366 2.22691,5.53667 3.38678,8.2566 0.39619,0.94463 0.48048,2.14913 0.98969,3.10567 1.375,2.58293 2.5,5.19258 2.5,5.79921 3.60931,4.91643 4.01655,11.01317 3.5377,16.43484 -0.3026,3.32322 -0.83636,6.66094 -0.94721,9.97162 0.58108,2.87032 -0.25069,5.24671 -0.89302,7.71254 -1.11883,4.31665 -2.19595,10.02862 -3.6811,12.27095 -1.67125,2.31164 -1.16574,3.58768 0.4819,4.90046 1.27683,1.01732 1.67705,2.54499 3.84417,4.10549 1.76608,1.15622 2.74651,2.49168 3.50523,3.84364 1.2048,2.14683 3.41304,3.84699 5.75771,5.42547 1.00169,0.64658 2.22718,0.94793 3.72523,0.94793 25.64978,-6.41647 39.88434,-15.8246 65.27451,-26.12987 3.22212,0.60027 5.7536,-0.81877 11.6868,-6.55115 3.68944,-3.56456 6.70808,-6.94128 6.70808,-7.50383 0,-0.56255 1.98048,-1.55252 4.40108,-2.19993 3.49369,-0.93442 4.73743,-1.88246 6.03252,-4.59829 0.89729,-1.88164 2.53483,-3.65741 3.63897,-3.94615 2.38139,-3.39429 4.0444,-9.22965 3.00796,-12.79879 -0.76663,-2.38724 -1.00554,-4.60435 1.13351,-6.44422 1.22532,-0.97958 2.5689,-2.01726 3.9738,-2.97372 2.35508,-1.60336 4.88248,-2.9785 7.31395,-3.46921 2.98592,-0.58599 5.99636,-0.72383 7.88347,-2.12454 3.47255,-2.56737 3.92564,-2.56551 8.33163,0.0341 2.79924,0.71289 5.65071,1.13124 8.39782,1.71537 3.58362,0.95918 7.60369,2.35796 10.35461,4.66132 2.05306,1.71904 3.39921,3.94192 3.32944,6.86192 -0.10259,2.72887 0.70902,4.14623 4.46419,7.79607 3.02879,2.94384 5.32029,6.41384 6.73827,10.20375 1.18178,3.15859 2.50399,6.19836 2.93823,6.75504 0.43425,0.55668 1.03887,3.55954 1.3436,6.67302 0.30472,3.11348 1.23444,6.71348 2.06604,8 2.59124,4.00877 2.28679,24.54946 -0.47279,31.89856 -0.52859,1.40768 -2.32801,3.3669 -3.99872,4.35381 -3.32136,1.96198 -2.45816,3.991 -2.45816,8.56755 0,1.53276 0.89007,5.573 1.97794,8.97832 12.70574,43.08319 10.57538,80.467149 23.21424,120.040879 0.87021,2.475 2.86729,10.71443 4.43794,18.30985 2.40762,11.642884 4.18081,15.209275 2.78575,17.581876 -1.55001,1.841449 -0.51991,3.390554 -0.28756,4.4340354 0.24274,1.771236 0.0196,4.2368432 -0.74991,5.455102 0.75894,1.2562735 0.57852,2.91638372 0.2854,4.50423733 -0.30811,1.66907487 -0.74075,3.25831187 -0.3378,4.21475817 1.89781,4.4865742 -1.55854,6.4919121 -6.24515,9.1384411 -5.59391,3.158883 -7.55537,5.079412 -9.29855,5.079412 -2.51543,0.742806 -5.74658,2.109679 -7.31028,3.664136 -0.92868,0.97134 -1.95019,1.825595 -3.43489,2.214809 -5.18919,1.46223 -7.97933,1.471 -10.61138,0.0333 z"
     id="path3771"
     inkscape:connector-curvature="0"
     sodipodi:nodetypes="csccccccccsssccccccccscccccccscccccscscccsssscccsccccscssssssssccscccscsccccc" /></g></svg>