<?xml version="1.0" encoding="UTF-8" standalone="no"?>
<svg
   xmlns:dc="http://purl.org/dc/elements/1.1/"
   xmlns:cc="http://creativecommons.org/ns#"
   xmlns:rdf="http://www.w3.org/1999/02/22-rdf-syntax-ns#"
   xmlns:svg="http://www.w3.org/2000/svg"
   xmlns="http://www.w3.org/2000/svg"
   xmlns:sodipodi="http://sodipodi.sourceforge.net/DTD/sodipodi-0.dtd"
   xmlns:inkscape="http://www.inkscape.org/namespaces/inkscape"
   version="1.1"
   id="Layer_1"
   x="0px"
   y="0px"
   width="800"
   height="1024"
   viewBox="0 0 800 1024"
   enable-background="new 0 0 512 512"
   xml:space="preserve"
   inkscape:version="0.48.0 r9654"
   sodipodi:docname="finalmemhebrew-x5dd.svg"><title
   id="title3743">Sinai 357</title><metadata
   id="metadata72"><rdf:RDF><cc:Work
       rdf:about=""><dc:format>image/svg+xml</dc:format><dc:type
         rdf:resource="http://purl.org/dc/dcmitype/StillImage" /><dc:title>Sinai 357</dc:title><dc:date>2017</dc:date><dc:creator><cc:Agent><dc:title>Celeste Claire Horner</dc:title></cc:Agent></dc:creator><dc:publisher><cc:Agent><dc:title>beitdina.net</dc:title></cc:Agent></dc:publisher></cc:Work></rdf:RDF></metadata><defs
   id="defs70" /><sodipodi:namedview
   pagecolor="#ffffff"
   bordercolor="#666666"
   borderopacity="1"
   objecttolerance="10"
   gridtolerance="10"
   guidetolerance="10"
   inkscape:pageopacity="0"
   inkscape:pageshadow="2"
   inkscape:window-width="1152"
   inkscape:window-height="814"
   id="namedview68"
   showgrid="false"
   inkscape:zoom="0.26003743"
   inkscape:cx="290.5607"
   inkscape:cy="141.81852"
   inkscape:window-x="-8"
   inkscape:window-y="-8"
   inkscape:window-maximized="1"
   inkscape:current-layer="Layer_1" />
   
	<g
   id="Grid"
   transform="matrix(1.5502411,0,0,2.0004578,0.50019527,4.8138064)">
		<rect
   x="0"
   stroke-miterlimit="10"
   width="512"
   height="512"
   id="rect4"
   y="0"
   style="fill:none;stroke:#a9ccdb;stroke-miterlimit:10" />
		<line
   stroke-miterlimit="10"
   x1="0"
   y1="32"
   x2="512"
   y2="32"
   id="line6"
   style="fill:none;stroke:#a9ccdb;stroke-miterlimit:10" />
		<line
   stroke-miterlimit="10"
   x1="0"
   y1="64"
   x2="512"
   y2="64"
   id="line8"
   style="fill:none;stroke:#a9ccdb;stroke-miterlimit:10" />
		<line
   stroke-miterlimit="10"
   x1="0"
   y1="96"
   x2="512"
   y2="96"
   id="line10"
   style="fill:none;stroke:#a9ccdb;stroke-miterlimit:10" />
		<line
   stroke-miterlimit="10"
   x1="0"
   y1="128"
   x2="512"
   y2="128"
   id="line12"
   style="fill:none;stroke:#a9ccdb;stroke-miterlimit:10" />
		<line
   stroke-miterlimit="10"
   x1="0"
   y1="160"
   x2="512"
   y2="160"
   id="line14"
   style="fill:none;stroke:#a9ccdb;stroke-miterlimit:10" />
		<line
   stroke-miterlimit="10"
   x1="0"
   y1="192"
   x2="512"
   y2="192"
   id="line16"
   style="fill:none;stroke:#a9ccdb;stroke-miterlimit:10" />
		<line
   stroke-miterlimit="10"
   x1="0"
   y1="224"
   x2="512"
   y2="224"
   id="line18"
   style="fill:none;stroke:#a9ccdb;stroke-miterlimit:10" />
		<line
   stroke-miterlimit="10"
   x1="0"
   y1="256"
   x2="512"
   y2="256"
   id="line20"
   style="fill:none;stroke:#a9ccdb;stroke-miterlimit:10" />
		<line
   stroke-miterlimit="10"
   x1="0"
   y1="288"
   x2="512"
   y2="288"
   id="line22"
   style="fill:none;stroke:#a9ccdb;stroke-miterlimit:10" />
		<line
   stroke-miterlimit="10"
   x1="0"
   y1="320"
   x2="512"
   y2="320"
   id="line24"
   style="fill:none;stroke:#a9ccdb;stroke-miterlimit:10" />
		<line
   stroke-miterlimit="10"
   x1="0"
   y1="352"
   x2="512"
   y2="352"
   id="line26"
   style="fill:none;stroke:#a9ccdb;stroke-miterlimit:10" />
		<line
   stroke-miterlimit="10"
   x1="0"
   y1="384"
   x2="512"
   y2="384"
   id="line28"
   style="fill:none;stroke:#a9ccdb;stroke-miterlimit:10" />
		<line
   stroke-miterlimit="10"
   x1="0"
   y1="416"
   x2="512"
   y2="416"
   id="line30"
   style="fill:none;stroke:#a9ccdb;stroke-miterlimit:10" />
		<line
   stroke-miterlimit="10"
   x1="0"
   y1="448"
   x2="512"
   y2="448"
   id="line32"
   style="fill:none;stroke:#ff0000;stroke-miterlimit:10" />
		<line
   stroke-miterlimit="10"
   x1="0"
   y1="480"
   x2="512"
   y2="480"
   id="line34"
   style="fill:none;stroke:#a9ccdb;stroke-miterlimit:10" />
		<line
   stroke-miterlimit="10"
   x1="32"
   y1="0"
   x2="32"
   y2="512"
   id="line36"
   style="fill:none;stroke:#a9ccdb;stroke-miterlimit:10" />
		<line
   stroke-miterlimit="10"
   x1="64"
   y1="0"
   x2="64"
   y2="512"
   id="line38"
   style="fill:none;stroke:#a9ccdb;stroke-miterlimit:10" />
		<line
   stroke-miterlimit="10"
   x1="96"
   y1="0"
   x2="96"
   y2="512"
   id="line40"
   style="fill:none;stroke:#a9ccdb;stroke-miterlimit:10" />
		<line
   stroke-miterlimit="10"
   x1="128"
   y1="0"
   x2="128"
   y2="512"
   id="line42"
   style="fill:none;stroke:#a9ccdb;stroke-miterlimit:10" />
		<line
   stroke-miterlimit="10"
   x1="160"
   y1="0"
   x2="160"
   y2="512"
   id="line44"
   style="fill:none;stroke:#a9ccdb;stroke-miterlimit:10" />
		<line
   stroke-miterlimit="10"
   x1="192"
   y1="0"
   x2="192"
   y2="512"
   id="line46"
   style="fill:none;stroke:#a9ccdb;stroke-miterlimit:10" />
		<line
   stroke-miterlimit="10"
   x1="224"
   y1="0"
   x2="224"
   y2="512"
   id="line48"
   style="fill:none;stroke:#a9ccdb;stroke-miterlimit:10" />
		<line
   stroke-miterlimit="10"
   x1="256"
   y1="0"
   x2="256"
   y2="512"
   id="line50"
   style="fill:none;stroke:#a9ccdb;stroke-miterlimit:10" />
		<line
   stroke-miterlimit="10"
   x1="288"
   y1="0"
   x2="288"
   y2="512"
   id="line52"
   style="fill:none;stroke:#a9ccdb;stroke-miterlimit:10" />
		<line
   stroke-miterlimit="10"
   x1="320"
   y1="0"
   x2="320"
   y2="512"
   id="line54"
   style="fill:none;stroke:#a9ccdb;stroke-miterlimit:10" />
		<line
   stroke-miterlimit="10"
   x1="352"
   y1="0"
   x2="352"
   y2="512"
   id="line56"
   style="fill:none;stroke:#a9ccdb;stroke-miterlimit:10" />
		<line
   stroke-miterlimit="10"
   x1="384"
   y1="0"
   x2="384"
   y2="512"
   id="line58"
   style="fill:none;stroke:#a9ccdb;stroke-miterlimit:10" />
		<line
   stroke-miterlimit="10"
   x1="416"
   y1="0"
   x2="416"
   y2="512"
   id="line60"
   style="fill:none;stroke:#a9ccdb;stroke-miterlimit:10" />
		<line
   stroke-miterlimit="10"
   x1="448"
   y1="0"
   x2="448"
   y2="512"
   id="line62"
   style="fill:none;stroke:#a9ccdb;stroke-miterlimit:10" />
		<line
   stroke-miterlimit="10"
   x1="480"
   y1="0"
   x2="480"
   y2="512"
   id="line64"
   style="fill:none;stroke:#a9ccdb;stroke-miterlimit:10" />
	</g>
	

<path
   style="fill:#a2564a;fill-opacity:0.74782607"
   d="m 271.62216,250.61773 c -7.37335,49.32106 -3.9189,105.70818 4.93074,152.32328 10.24091,52.63971 1.58422,51.84439 -10.05787,110.1199 -0.5958,3.09048 -2.95035,2.84901 -2.9201,6.20761 -0.0647,1.71628 -1.89469,4.73224 -0.63626,7.77083 0.27003,6.22805 -2.67979,16.33298 -6.72178,17.98488 -2.4131,0.86758 -4.09503,2.10153 -6.55855,3.43361 -2.19655,1.6053 -3.33371,1.75321 -6.5367,2.1283 -17.76252,-0.21188 -40.05003,37.77711 -57.94653,39.18207 -4.39077,0.34469 -8.15703,0.49266 -10.99034,0.32352 -3.72366,-0.88988 -7.41714,-1.79552 -11.08464,-2.7076 -24.94015,-6.20237 -30.53056,-5.34953 -54.37434,-9.20811 -4.49349,-0.72717 -5.02307,-1.36055 -9.532862,-1.88047 -3.885959,-0.4194 -4.493043,-1.25353 -10.943857,-0.93656 -13.503639,0.68047 -25.687546,-5.77868 -39.728669,-2.36424 -7.193956,3.71265 -14.74028,4.11816 -16.061663,4.4224 -6.082125,2.52081 -10.593878,1.57237 -14.839292,5.42355 -3.371409,3.04143 -5.603563,9.08598 -7.062909,14.54791 -2.6822025,5.74634 -0.765772,11.29074 0.937223,16.30501 6.362602,23.90873 17.621075,43.99889 27.080996,64.65635 3.439207,7.53976 6.405284,15.08134 10.954216,21.98502 7.587701,10.73134 10.449848,18.07735 18.144934,27.63894 5.335768,6.11789 10.810481,11.84986 19.18975,16.21551 3.73403,2.51771 8.472506,5.30423 12.771855,7.17239 7.304018,3.48712 17.560468,3.64813 24.081248,6.6166 4.75352,1.75983 8.9367,3.70834 13.25943,5.38824 6.65676,2.55082 15.00609,4.4986 21.87477,3.78355 12.74938,-0.61074 23.93048,3.48218 34.66294,0.022 1.17996,-0.39676 2.22276,-0.94267 3.20744,-1.71155 12.60684,-16.98949 15.53107,-49.23566 8.47041,-65.86291 -2.48933,-4.79462 -5.55081,-9.78485 -8.9089,-13.04304 -6.56739,-3.66158 -16.31854,-18.195 -13.79137,-22.52642 8.78166,-9.5255 36.3144,55.12478 46.21389,64.5081 9.78455,8.84577 19.49158,4.84392 26.28134,3.87134 10.37057,-1.18911 26.37057,2.64697 34.82513,3.43749 19.2024,11.24285 11.24935,30.94288 9.86551,47.81892 -0.48739,8.51996 -0.68275,20.70927 -1.835,32.6839 -1.73824,18.06438 -1.89973,36.2736 6.55529,48.42117 3.27394,5.1029 2.49306,11.13557 0.56777,14.67467 -3.37439,6.20289 -10.26427,10.09415 -4.99993,17.71457 2.43734,3.26275 5.15862,6.95845 8.01011,10.53185 2.55938,1.70081 5.17878,4.98203 7.56757,8.34281 3.13485,4.41038 5.87261,8.95773 7.55653,10.24997 5.96065,4.32956 29.66597,13.84297 36.64524,18.80173 1.27952,0.90909 2.46736,1.83982 3.52365,2.79627 2.15222,0.82361 4.43502,1.37419 6.78132,1.68933 7.94719,1.06744 16.6228,-0.56614 23.42009,-3.44012 2.12024,-0.89647 4.05775,-1.91362 5.73337,-3.00713 1.28861,-0.89374 2.67049,-1.84611 4.12169,-2.84837 16.61641,-11.47631 42.31841,-29.49721 41.12166,-41.01145 -0.19992,-1.48186 -0.2993,-3.31491 -0.32206,-5.04529 -0.0266,-2.01723 0.0511,-3.89494 0.19512,-4.91405 0.34784,-4.17519 -1.4375,-20.21479 -5.68906,-27.17767 -0.72976,-1.19514 -1.53217,-2.12286 -2.40895,-2.67727 -1.00125,-0.70883 -3.76316,-3.53285 -3.29664,-2.26958 2.1116,5.71785 -7.01405,-16.2133 -28.84712,-20.20021 -1.97556,-0.36075 -3.96759,0.12476 -5.83126,0.45628 -4.5432,1.62749 -4.66488,3.88271 -6.92445,3.05978 -6.60624,-2.40594 -9.38471,-0.16601 -5.53385,-5.84872 -0.46009,-6.32737 -0.0122,-12.10364 0.47538,-17.66967 2.58747,-6.15455 -3.06553,-33.15321 1.35999,-34.63966 14.13909,-0.39093 13.92797,-1.81977 26.42925,1.85728 2.08346,0.59529 8.87373,1.72433 11.0249,2.34433 2.06473,0.59508 6.40024,0.33759 8.50299,0.95 4.93786,-0.16972 6.15395,0.12824 7.17078,2.69679 1.91275,4.83169 1.02643,13.9651 8.15712,16.88409 9.58335,2.03405 17.84795,6.40139 26.64189,8.77024 17.80695,3.40587 33.70091,4.8064 50.424,5.03195 23.41377,1.7964 32.91458,-9.58876 42.26706,-19.74698 30.1907,-22.6371 18.56806,-38.19435 25.75351,-58.29507 5.17037,-12.34753 7.27012,-4.5829 14.15731,-16.86121 7.88166,-14.05122 10.82218,-29.94848 12.19519,-44.7843 1.57137,-13.16744 -0.0386,-34.55819 8.54553,-42.15935 17.58101,-11.81961 35.00792,-8.74727 42.03333,-26.91243 10.59941,-28.41481 4.14743,-50.40428 21.72768,-71.84643 2.17556,-2.64085 4.37397,-4.94217 7.20157,-8.65577 18.56227,-24.37863 30.7359,-53.76334 32.57885,-60.76594 9.00607,-28.71788 31.99501,-43.94943 35.22676,-69.92817 1.9942,-16.033 3.91985,-31.91857 5.32977,-47.6732 0.31111,-3.47647 0.59712,-6.94654 0.85318,-10.41043 0.25328,-3.4257 0.47728,-6.84533 0.66738,-10.25906 0.99997,-17.95826 -12.13648,-35.75357 -13.6898,-53.41095 -0.57936,-5.77569 -1.8018,-11.20025 -3.62106,-16.31653 -6.33391,-17.70159 -20.44055,-36.09237 -32.49781,-49.01204 -4.71089,-4.85898 -10.01461,-9.89398 -16.29937,-15.63865 -0.93963,-0.86484 -2.04711,-1.89169 -3.41406,-3.15152 -0.98831,-0.86046 -0.94817,0.14392 -1.84915,-1.01349 -0.72142,-1.02353 -2.64469,-2.64722 -5.28985,-4.6156 -10.12168,-7.53196 -30.81353,-20.11095 -35.18741,-23.42485 -19.85766,-12.0921 -11.41942,-9.15404 -33.61825,-18.50033 -8.22786,-3.46414 -124.33855,10.68347 -165.83314,13.01124 -42.56757,-9.20286 -92.9613,-3.5266 -131.69514,-14.47521 -6.73867,-2.33778 -13.67558,-4.16611 -20.68725,-5.40535 -20.84071,-0.39761 -46.6929,-11.23375 -60.92942,-5.26167 -15.6701,8.98194 -20.06557,22.42992 -19.98257,34.97304 -1.32556,12.74346 -5.71645,30.00579 -2.85291,44.04917 10.59563,17.17134 31.60298,25.54528 44.55749,36.23683 z m 367.62082,13.7493 c 7.61346,20.75624 29.19253,44.8453 31.58563,64.51162 -10.02044,23.11665 -8.44526,49.89445 -18.11011,71.50024 -9.90204,21.99002 -35.65558,50.32716 -44.32612,66.87812 -8.49315,22.02828 -81.41374,128.84758 -90.23888,148.73615 -3.11507,7.02023 -12.76349,12.96387 -15.14462,20.05008 -1.46261,5.06631 -3.75372,6.7017 -6.09545,11.47903 -2.78743,5.09584 -6.65386,17.08077 -8.40531,21.77481 -1.87418,4.93622 -7.65648,11.6696 -10.90621,13.84262 -4.09528,2.73842 -14.40973,10.44963 -12.23965,14.9422 2.11829,4.38534 -26.83602,5.2796 -36.24702,3.74381 -12.48724,-2.03778 -28.06513,-0.10101 -52.87716,-2.41161 -13.56529,-1.26323 -39.00049,-10.90888 -48.12343,-19.61458 -10.52126,-23.61796 3.00899,-33.91221 6.64575,-52.93677 0.87898,-5.75914 2.16782,-11.18237 3.62658,-15.63059 -0.76837,-4.23513 2.14731,-12.13508 0.33005,-15.19314 1.74283,-3.07445 0.48508,-8.4475 1.9926,-10.48526 0.26454,-2.99692 21.04206,-66.66138 20.42624,-68.81098 8.65644,-59.55906 3.88288,-73.10048 8.7712,-130.46234 1.86111,-9.50429 2.9102,-18.83704 3.83495,-27.90609 1.29068,-12.65784 2.33911,-24.802 5.01503,-36.18199 1.64743,-18.20124 -28.68495,-44.36834 -20.79341,-60.61755 3.3106,-2.90211 6.38499,-3.53462 10.70413,-6.21628 4.39651,-2.7297 -2.41329,-14.42398 2.52523,-17.22173 27.47607,-14.28036 62.88887,-7.19977 89.57193,-3.25098 42.2235,6.01622 125.89056,3.10604 159.93563,11.56577 11.48924,1.69607 15.00513,10.11274 18.54242,17.91544 z"
   id="path3768"
   inkscape:connector-curvature="0"
   sodipodi:nodetypes="ccccccccscssccccccccccccccccccccccccscsccscscsscscscscsscsccccscscccccsccccsccsssccccccscsccccccccccccccssscscccccsccccsccccc"
   inkscape:transform-center-x="-695.77926"
   inkscape:transform-center-y="-31.01671" /></svg>