<?xml version="1.0" encoding="UTF-8" standalone="no"?>
<svg
   xmlns:dc="http://purl.org/dc/elements/1.1/"
   xmlns:cc="http://creativecommons.org/ns#"
   xmlns:rdf="http://www.w3.org/1999/02/22-rdf-syntax-ns#"
   xmlns:svg="http://www.w3.org/2000/svg"
   xmlns="http://www.w3.org/2000/svg"
   xmlns:sodipodi="http://sodipodi.sourceforge.net/DTD/sodipodi-0.dtd"
   xmlns:inkscape="http://www.inkscape.org/namespaces/inkscape"
   version="1.1"
   id="Layer_1"
   x="0px"
   y="0px"
   width="1024"
   height="1024"
   viewBox="0 0 1024 1024"
   enable-background="new 0 0 512 512"
   xml:space="preserve"
   inkscape:version="0.48.0 r9654"
   sodipodi:docname="finaltsadihebrew-x5e5.svg"><title
   id="title3743">Sinai 357</title><metadata
   id="metadata72"><rdf:RDF><cc:Work
       rdf:about=""><dc:format>image/svg+xml</dc:format><dc:type
         rdf:resource="http://purl.org/dc/dcmitype/StillImage" /><dc:title>Sinai 357</dc:title><dc:date>2017</dc:date><dc:creator><cc:Agent><dc:title>Celeste Claire Horner</dc:title></cc:Agent></dc:creator><dc:publisher><cc:Agent><dc:title>beitdina.net</dc:title></cc:Agent></dc:publisher></cc:Work></rdf:RDF></metadata><defs
   id="defs70" /><sodipodi:namedview
   pagecolor="#ffffff"
   bordercolor="#666666"
   borderopacity="1"
   objecttolerance="10"
   gridtolerance="10"
   guidetolerance="10"
   inkscape:pageopacity="0"
   inkscape:pageshadow="2"
   inkscape:window-width="1152"
   inkscape:window-height="814"
   id="namedview68"
   showgrid="false"
   inkscape:zoom="0.30615806"
   inkscape:cx="953.51088"
   inkscape:cy="433.8279"
   inkscape:window-x="-8"
   inkscape:window-y="-8"
   inkscape:window-maximized="1"
   inkscape:current-layer="Layer_1" />
   
	<g
   id="Grid"
   transform="matrix(2.0004581,0,0,2.0004578,0.50019527,4.813853)">
		<rect
   x="0"
   stroke-miterlimit="10"
   width="512"
   height="512"
   id="rect4"
   y="0"
   style="fill:none;stroke:#a9ccdb;stroke-miterlimit:10" />
		<line
   stroke-miterlimit="10"
   x1="0"
   y1="32"
   x2="512"
   y2="32"
   id="line6"
   style="fill:none;stroke:#a9ccdb;stroke-miterlimit:10" />
		<line
   stroke-miterlimit="10"
   x1="0"
   y1="64"
   x2="512"
   y2="64"
   id="line8"
   style="fill:none;stroke:#a9ccdb;stroke-miterlimit:10" />
		<line
   stroke-miterlimit="10"
   x1="0"
   y1="96"
   x2="512"
   y2="96"
   id="line10"
   style="fill:none;stroke:#a9ccdb;stroke-miterlimit:10" />
		<line
   stroke-miterlimit="10"
   x1="0"
   y1="128"
   x2="512"
   y2="128"
   id="line12"
   style="fill:none;stroke:#a9ccdb;stroke-miterlimit:10" />
		<line
   stroke-miterlimit="10"
   x1="0"
   y1="160"
   x2="512"
   y2="160"
   id="line14"
   style="fill:none;stroke:#a9ccdb;stroke-miterlimit:10" />
		<line
   stroke-miterlimit="10"
   x1="0"
   y1="192"
   x2="512"
   y2="192"
   id="line16"
   style="fill:none;stroke:#a9ccdb;stroke-miterlimit:10" />
		<line
   stroke-miterlimit="10"
   x1="0"
   y1="224"
   x2="512"
   y2="224"
   id="line18"
   style="fill:none;stroke:#a9ccdb;stroke-miterlimit:10" />
		<line
   stroke-miterlimit="10"
   x1="0"
   y1="256"
   x2="512"
   y2="256"
   id="line20"
   style="fill:none;stroke:#a9ccdb;stroke-miterlimit:10" />
		<line
   stroke-miterlimit="10"
   x1="0"
   y1="288"
   x2="512"
   y2="288"
   id="line22"
   style="fill:none;stroke:#a9ccdb;stroke-miterlimit:10" />
		<line
   stroke-miterlimit="10"
   x1="0"
   y1="320"
   x2="512"
   y2="320"
   id="line24"
   style="fill:none;stroke:#a9ccdb;stroke-miterlimit:10" />
		<line
   stroke-miterlimit="10"
   x1="0"
   y1="352"
   x2="512"
   y2="352"
   id="line26"
   style="fill:none;stroke:#a9ccdb;stroke-miterlimit:10" />
		<line
   stroke-miterlimit="10"
   x1="0"
   y1="384"
   x2="512"
   y2="384"
   id="line28"
   style="fill:none;stroke:#a9ccdb;stroke-miterlimit:10" />
		<line
   stroke-miterlimit="10"
   x1="0"
   y1="416"
   x2="512"
   y2="416"
   id="line30"
   style="fill:none;stroke:#a9ccdb;stroke-miterlimit:10" />
		<line
   stroke-miterlimit="10"
   x1="0"
   y1="448"
   x2="512"
   y2="448"
   id="line32"
   style="fill:none;stroke:#ff0000;stroke-miterlimit:10" />
		<line
   stroke-miterlimit="10"
   x1="0"
   y1="480"
   x2="512"
   y2="480"
   id="line34"
   style="fill:none;stroke:#a9ccdb;stroke-miterlimit:10" />
		<line
   stroke-miterlimit="10"
   x1="32"
   y1="0"
   x2="32"
   y2="512"
   id="line36"
   style="fill:none;stroke:#a9ccdb;stroke-miterlimit:10" />
		<line
   stroke-miterlimit="10"
   x1="64"
   y1="0"
   x2="64"
   y2="512"
   id="line38"
   style="fill:none;stroke:#a9ccdb;stroke-miterlimit:10" />
		<line
   stroke-miterlimit="10"
   x1="96"
   y1="0"
   x2="96"
   y2="512"
   id="line40"
   style="fill:none;stroke:#a9ccdb;stroke-miterlimit:10" />
		<line
   stroke-miterlimit="10"
   x1="128"
   y1="0"
   x2="128"
   y2="512"
   id="line42"
   style="fill:none;stroke:#a9ccdb;stroke-miterlimit:10" />
		<line
   stroke-miterlimit="10"
   x1="160"
   y1="0"
   x2="160"
   y2="512"
   id="line44"
   style="fill:none;stroke:#a9ccdb;stroke-miterlimit:10" />
		<line
   stroke-miterlimit="10"
   x1="192"
   y1="0"
   x2="192"
   y2="512"
   id="line46"
   style="fill:none;stroke:#a9ccdb;stroke-miterlimit:10" />
		<line
   stroke-miterlimit="10"
   x1="224"
   y1="0"
   x2="224"
   y2="512"
   id="line48"
   style="fill:none;stroke:#a9ccdb;stroke-miterlimit:10" />
		<line
   stroke-miterlimit="10"
   x1="256"
   y1="0"
   x2="256"
   y2="512"
   id="line50"
   style="fill:none;stroke:#a9ccdb;stroke-miterlimit:10" />
		<line
   stroke-miterlimit="10"
   x1="288"
   y1="0"
   x2="288"
   y2="512"
   id="line52"
   style="fill:none;stroke:#a9ccdb;stroke-miterlimit:10" />
		<line
   stroke-miterlimit="10"
   x1="320"
   y1="0"
   x2="320"
   y2="512"
   id="line54"
   style="fill:none;stroke:#a9ccdb;stroke-miterlimit:10" />
		<line
   stroke-miterlimit="10"
   x1="352"
   y1="0"
   x2="352"
   y2="512"
   id="line56"
   style="fill:none;stroke:#a9ccdb;stroke-miterlimit:10" />
		<line
   stroke-miterlimit="10"
   x1="384"
   y1="0"
   x2="384"
   y2="512"
   id="line58"
   style="fill:none;stroke:#a9ccdb;stroke-miterlimit:10" />
		<line
   stroke-miterlimit="10"
   x1="416"
   y1="0"
   x2="416"
   y2="512"
   id="line60"
   style="fill:none;stroke:#a9ccdb;stroke-miterlimit:10" />
		<line
   stroke-miterlimit="10"
   x1="448"
   y1="0"
   x2="448"
   y2="512"
   id="line62"
   style="fill:none;stroke:#a9ccdb;stroke-miterlimit:10" />
		<line
   stroke-miterlimit="10"
   x1="480"
   y1="0"
   x2="480"
   y2="512"
   id="line64"
   style="fill:none;stroke:#a9ccdb;stroke-miterlimit:10" />
	</g>
	<path
   sodipodi:nodetypes="ccccccccccccccccccccccscccccccssscscsssssccscc"
   inkscape:connector-curvature="0"
   id="path3768"
   d="m 133.70195,761.96249 c -6.57011,17.72671 0.34047,46.11703 1.90762,59.80287 1.20419,13.50419 3.62384,25.13411 10.39796,41.28574 19.59929,33.23967 38.18864,37.43427 67.53784,12.68639 18.46343,-16.35971 28.34659,-39.86133 36.40918,-57.88145 4.65312,-11.15234 2.08351,-25.75181 4.7103,-36.83069 10.36206,-28.35945 24.12648,-64.83213 48.2838,-83.80662 7.67455,-5.69152 17.87713,2.84171 22.76115,7.74801 36.88395,25.61663 93.86174,24.12113 124.30605,53.51949 -0.68986,9.79021 -2.18856,19.68023 -0.67161,29.31238 3.46986,19.72288 13.25832,45.32055 27.43547,62.23816 8.77982,10.80982 20.70558,16.90059 33.62045,20.33846 12.05091,3.16345 23.63449,3.88513 30.45883,3.58964 17.00071,-5.57661 19.19955,-16.26058 19.54223,-27.28142 0.97036,-12.88455 -2.47625,-28.18292 4.92706,-35.43626 8.09189,-6.49955 8.66971,-13.12197 6.9933,-21.91842 -1.89496,-9.04196 5.13637,-11.90861 12.84112,-14.73723 13.07548,-5.01714 12.18479,-11.70651 21.06856,-19.5267 8.33075,-7.30254 20.16168,-16.22051 22.17267,-21.01905 3.09981,-6.00384 3.63535,-11.54496 3.27417,-17.24977 -0.68112,-11.55423 -4.82902,-21.05642 -8.11013,-32.32298 -1.44191,-4.6215 -5.00467,-7.8395 -7.29165,-12.27643 -8.25995,-15.82568 -52.18179,-16.94441 -70.86353,-18.27663 -17.51274,-1.24884 -35.66382,3.33496 -47.06521,12.74754 -6.81688,7.87353 -29.67093,10.1244 -48.60361,5.98952 -9.38359,-0.27812 -18.51676,-1.54941 -27.4108,-3.57394 -16.18185,-7.37592 -35.88623,-11.95385 -49.71261,-18.82255 -11.42053,-5.79353 -22.39868,-12.16213 -32.96746,-18.40725 -12.01416,-7.20809 -16.31351,-13.35182 -13.43187,-23.43185 15.60634,-60.87858 27.61264,-129.2641 37.85635,-182.97645 3.0434,-15.82838 6.01215,-31.66311 8.72199,-47.54048 2.3434,-13.73108 4.49303,-27.49405 6.3294,-41.31239 1.71148,-12.87811 3.15082,-25.8043 4.22152,-38.7976 2.69918,-32.75423 -7.437,-65.93489 -10.97252,-99.84608 -3.04186,-24.4442 -19.68125,-43.69888 -26.9138,-48.71541 -11.93372,-8.27705 -30.26648,-10.7948 -34.10228,15.37897 1.03755,42.54655 -0.77801,83.34017 -4.95071,123.57873 -1.43741,13.86022 -3.15441,27.6546 -5.13084,41.43208 -1.93081,13.45998 -4.10935,26.90381 -6.51648,40.37715 -2.72809,15.26943 -5.7499,30.57675 -9.03795,45.9884 -3.20761,15.0347 -6.66874,30.1687 -10.35754,45.46367 -3.77438,15.64977 -7.78737,31.46808 -12.01159,47.52098 -13.49808,48.18562 -34.56973,88.92605 -50.61627,132.02338 -16.25281,23.5915 -27.00563,62.04699 -46.37805,88.36383 -6.11837,8.31163 -13.09654,15.41243 -21.37932,20.45175 -5.81679,2.5066 -9.38516,7.13852 -11.28119,12.15051 z"
   style="fill:#584f47" />
</svg>