<?xml version="1.0" encoding="UTF-8" standalone="no"?>
<svg
   xmlns:dc="http://purl.org/dc/elements/1.1/"
   xmlns:cc="http://creativecommons.org/ns#"
   xmlns:rdf="http://www.w3.org/1999/02/22-rdf-syntax-ns#"
   xmlns:svg="http://www.w3.org/2000/svg"
   xmlns="http://www.w3.org/2000/svg"
   xmlns:sodipodi="http://sodipodi.sourceforge.net/DTD/sodipodi-0.dtd"
   xmlns:inkscape="http://www.inkscape.org/namespaces/inkscape"
   version="1.1"
   id="Layer_1"
   x="0px"
   y="0px"
   width="1024"
   height="1024"
   viewBox="0 0 1024 1024"
   enable-background="new 0 0 512 512"
   xml:space="preserve"
   inkscape:version="0.48.0 r9654"
   sodipodi:docname="finalkafhebrew-x5da.svg"><title
   id="title3743">Sinai 357</title><metadata
   id="metadata72"><rdf:RDF><cc:Work
       rdf:about=""><dc:format>image/svg+xml</dc:format><dc:type
         rdf:resource="http://purl.org/dc/dcmitype/StillImage" /><dc:title>Sinai 357</dc:title><dc:date>2017</dc:date><dc:creator><cc:Agent><dc:title>Celeste Claire Horner</dc:title></cc:Agent></dc:creator><dc:publisher><cc:Agent><dc:title>beitdina.net</dc:title></cc:Agent></dc:publisher></cc:Work></rdf:RDF></metadata><defs
   id="defs70" /><sodipodi:namedview
   pagecolor="#ffffff"
   bordercolor="#666666"
   borderopacity="1"
   objecttolerance="10"
   gridtolerance="10"
   guidetolerance="10"
   inkscape:pageopacity="0"
   inkscape:pageshadow="2"
   inkscape:window-width="1152"
   inkscape:window-height="814"
   id="namedview68"
   showgrid="false"
   inkscape:zoom="0.50976562"
   inkscape:cx="28.872119"
   inkscape:cy="558.01433"
   inkscape:window-x="-8"
   inkscape:window-y="-8"
   inkscape:window-maximized="1"
   inkscape:current-layer="Layer_1" />
   
	<g
   id="Grid"
   transform="matrix(2.0004581,0,0,2.0004578,0.50019527,4.813853)">
		<rect
   x="0"
   stroke-miterlimit="10"
   width="512"
   height="512"
   id="rect4"
   y="0"
   style="fill:none;stroke:#a9ccdb;stroke-miterlimit:10" />
		<line
   stroke-miterlimit="10"
   x1="0"
   y1="32"
   x2="512"
   y2="32"
   id="line6"
   style="fill:none;stroke:#a9ccdb;stroke-miterlimit:10" />
		<line
   stroke-miterlimit="10"
   x1="0"
   y1="64"
   x2="512"
   y2="64"
   id="line8"
   style="fill:none;stroke:#a9ccdb;stroke-miterlimit:10" />
		<line
   stroke-miterlimit="10"
   x1="0"
   y1="96"
   x2="512"
   y2="96"
   id="line10"
   style="fill:none;stroke:#a9ccdb;stroke-miterlimit:10" />
		<line
   stroke-miterlimit="10"
   x1="0"
   y1="128"
   x2="512"
   y2="128"
   id="line12"
   style="fill:none;stroke:#a9ccdb;stroke-miterlimit:10" />
		<line
   stroke-miterlimit="10"
   x1="0"
   y1="160"
   x2="512"
   y2="160"
   id="line14"
   style="fill:none;stroke:#a9ccdb;stroke-miterlimit:10" />
		<line
   stroke-miterlimit="10"
   x1="0"
   y1="192"
   x2="512"
   y2="192"
   id="line16"
   style="fill:none;stroke:#a9ccdb;stroke-miterlimit:10" />
		<line
   stroke-miterlimit="10"
   x1="0"
   y1="224"
   x2="512"
   y2="224"
   id="line18"
   style="fill:none;stroke:#a9ccdb;stroke-miterlimit:10" />
		<line
   stroke-miterlimit="10"
   x1="0"
   y1="256"
   x2="512"
   y2="256"
   id="line20"
   style="fill:none;stroke:#a9ccdb;stroke-miterlimit:10" />
		<line
   stroke-miterlimit="10"
   x1="0"
   y1="288"
   x2="512"
   y2="288"
   id="line22"
   style="fill:none;stroke:#a9ccdb;stroke-miterlimit:10" />
		<line
   stroke-miterlimit="10"
   x1="0"
   y1="320"
   x2="512"
   y2="320"
   id="line24"
   style="fill:none;stroke:#a9ccdb;stroke-miterlimit:10" />
		<line
   stroke-miterlimit="10"
   x1="0"
   y1="352"
   x2="512"
   y2="352"
   id="line26"
   style="fill:none;stroke:#a9ccdb;stroke-miterlimit:10" />
		<line
   stroke-miterlimit="10"
   x1="0"
   y1="384"
   x2="512"
   y2="384"
   id="line28"
   style="fill:none;stroke:#a9ccdb;stroke-miterlimit:10" />
		<line
   stroke-miterlimit="10"
   x1="0"
   y1="416"
   x2="512"
   y2="416"
   id="line30"
   style="fill:none;stroke:#a9ccdb;stroke-miterlimit:10" />
		<line
   stroke-miterlimit="10"
   x1="0"
   y1="448"
   x2="512"
   y2="448"
   id="line32"
   style="fill:none;stroke:#ff0000;stroke-miterlimit:10" />
		<line
   stroke-miterlimit="10"
   x1="0"
   y1="480"
   x2="512"
   y2="480"
   id="line34"
   style="fill:none;stroke:#a9ccdb;stroke-miterlimit:10" />
		<line
   stroke-miterlimit="10"
   x1="32"
   y1="0"
   x2="32"
   y2="512"
   id="line36"
   style="fill:none;stroke:#a9ccdb;stroke-miterlimit:10" />
		<line
   stroke-miterlimit="10"
   x1="64"
   y1="0"
   x2="64"
   y2="512"
   id="line38"
   style="fill:none;stroke:#a9ccdb;stroke-miterlimit:10" />
		<line
   stroke-miterlimit="10"
   x1="96"
   y1="0"
   x2="96"
   y2="512"
   id="line40"
   style="fill:none;stroke:#a9ccdb;stroke-miterlimit:10" />
		<line
   stroke-miterlimit="10"
   x1="128"
   y1="0"
   x2="128"
   y2="512"
   id="line42"
   style="fill:none;stroke:#a9ccdb;stroke-miterlimit:10" />
		<line
   stroke-miterlimit="10"
   x1="160"
   y1="0"
   x2="160"
   y2="512"
   id="line44"
   style="fill:none;stroke:#a9ccdb;stroke-miterlimit:10" />
		<line
   stroke-miterlimit="10"
   x1="192"
   y1="0"
   x2="192"
   y2="512"
   id="line46"
   style="fill:none;stroke:#a9ccdb;stroke-miterlimit:10" />
		<line
   stroke-miterlimit="10"
   x1="224"
   y1="0"
   x2="224"
   y2="512"
   id="line48"
   style="fill:none;stroke:#a9ccdb;stroke-miterlimit:10" />
		<line
   stroke-miterlimit="10"
   x1="256"
   y1="0"
   x2="256"
   y2="512"
   id="line50"
   style="fill:none;stroke:#a9ccdb;stroke-miterlimit:10" />
		<line
   stroke-miterlimit="10"
   x1="288"
   y1="0"
   x2="288"
   y2="512"
   id="line52"
   style="fill:none;stroke:#a9ccdb;stroke-miterlimit:10" />
		<line
   stroke-miterlimit="10"
   x1="320"
   y1="0"
   x2="320"
   y2="512"
   id="line54"
   style="fill:none;stroke:#a9ccdb;stroke-miterlimit:10" />
		<line
   stroke-miterlimit="10"
   x1="352"
   y1="0"
   x2="352"
   y2="512"
   id="line56"
   style="fill:none;stroke:#a9ccdb;stroke-miterlimit:10" />
		<line
   stroke-miterlimit="10"
   x1="384"
   y1="0"
   x2="384"
   y2="512"
   id="line58"
   style="fill:none;stroke:#a9ccdb;stroke-miterlimit:10" />
		<line
   stroke-miterlimit="10"
   x1="416"
   y1="0"
   x2="416"
   y2="512"
   id="line60"
   style="fill:none;stroke:#a9ccdb;stroke-miterlimit:10" />
		<line
   stroke-miterlimit="10"
   x1="448"
   y1="0"
   x2="448"
   y2="512"
   id="line62"
   style="fill:none;stroke:#a9ccdb;stroke-miterlimit:10" />
		<line
   stroke-miterlimit="10"
   x1="480"
   y1="0"
   x2="480"
   y2="512"
   id="line64"
   style="fill:none;stroke:#a9ccdb;stroke-miterlimit:10" />
	</g>
	
<path
   style="fill:#9f4b11"
   d="m 417.72179,500.15387 c -4.46336,25.74973 -0.60721,50.39393 -0.42761,74.50026 -1.42473,20.35726 -8.05152,36.2312 -8.34567,55.18132 -2.3798,15.25075 -7.3468,30.8176 -12.758,45.39865 -5.20322,14.02055 -7.34933,22.96827 -11.46868,34.00836 -5.71763,9.28264 -14.2305,19.59031 -22.41631,22.44098 -13.40268,4.62789 -27.73053,7.05062 -42.10806,8.2764 -22.9442,1.95615 -46.0149,0.86404 -65.65395,0.82119 -23.75262,-2.80446 -43.07458,-0.0463 -60.96535,7.27052 -17.67199,7.22735 -38.10895,18.209 -55.8789,33.36446 -13.39257,21.83275 -8.78114,36.72895 -1.58589,54.25167 4.55369,11.27234 13.55234,19.36303 21.84415,26.83369 11.57022,10.04274 22.97151,17.28716 35.1238,21.95861 21.24143,8.10268 43.43985,6.20225 64.3191,5.13198 10.72606,-0.58064 20.86985,-1.93276 28.63246,-5.61457 3.88359,-1.87182 3.83186,-9.58326 10.43634,-10.87515 2.61554,-2.07717 8.76521,-2.66163 14.31027,-3.41424 6.66284,0.0303 9.44784,-3.58402 13.45345,-7.77689 9.91096,-10.33836 11.72149,-6.19281 29.51689,-7.9796 17.5459,-1.78671 33.92035,-5.87998 51.04103,-8.45372 9.24282,-2.46214 14.56784,2.78963 20.65175,8.03182 6.95574,6.3853 13.43824,12.53418 21.50727,16.22374 11.25293,4.22572 21.65477,7.47823 32.37959,8.94772 12.3009,1.67791 24.66613,2.00943 34.41182,-0.31988 11.11554,-4.19017 23.19714,-3.62196 32.04113,-10.26345 11.21393,-8.48942 26.57754,-22.63854 27.55576,-30.91163 0.65465,-8.87877 0.95973,-18.28571 1.09946,-27.26822 1.6904,-14.80377 -1.24271,-24.68317 -4.65571,-37.9039 -3.46303,-11.2455 -2.59807,-21.4107 -11.86663,-26.14651 -8.57384,-2.48082 -16.61578,-10.34165 -25.20526,-15.39908 -6.60098,-2.76971 -8.19515,-6.98912 -9.1835,-11.21361 l -2.38915,-10.3433 c -2.71295,-5.10866 0.40707,-6.4516 2.13634,-9.62616 3.05299,-5.92324 1.92287,-19.56912 4.76206,-29.14053 11.74663,-39.59952 18.85791,-125.80676 17.94055,-196.85495 1.89392,-10.96631 0.61831,-22.12436 1.41924,-32.05944 2.06768,-23.05833 2.8212,-53.66209 -0.96535,-83.66992 0.93733,-6.55313 -0.98006,-13.94087 -2.03124,-19.16006 -5.72111,-30.58954 -18.36548,-57.90097 -20.9654,-75.312 -11.07988,-26.7953 -18.72141,-87.03893 -24.45081,-102.54019 -4.07275,-15.2058 -11.37168,-25.09837 -32.48807,-28.42757 -9.69613,-1.52868 -37.34694,-0.25927 -43.43015,5.22803 -6.88007,7.0158 -4.64984,11.83328 -5.94729,24.47004 -3.76063,36.62835 -0.86715,88.85726 -0.29018,110.23976 -3.71579,79.57779 1.40931,159.79112 0.8947,228.09537 z"
   id="path3767"
   inkscape:connector-curvature="0"
   sodipodi:nodetypes="cccsccscsccccccccccccccccccccccccsccccccscscc" /></svg>