<?xml version="1.0" encoding="UTF-8" standalone="no"?>
<svg
   xmlns:dc="http://purl.org/dc/elements/1.1/"
   xmlns:cc="http://creativecommons.org/ns#"
   xmlns:rdf="http://www.w3.org/1999/02/22-rdf-syntax-ns#"
   xmlns:svg="http://www.w3.org/2000/svg"
   xmlns="http://www.w3.org/2000/svg"
   xmlns:sodipodi="http://sodipodi.sourceforge.net/DTD/sodipodi-0.dtd"
   xmlns:inkscape="http://www.inkscape.org/namespaces/inkscape"
   version="1.1"
   id="Layer_1"
   x="0px"
   y="0px"
   width="1024"
   height="1024"
   viewBox="0 0 1024 1024"
   enable-background="new 0 0 512 512"
   xml:space="preserve"
   inkscape:version="0.48.0 r9654"
   sodipodi:docname="finalmemhebrew-x5dd.svg"><title
   id="title3743">Sinai 357</title><metadata
   id="metadata72"><rdf:RDF><cc:Work
       rdf:about=""><dc:format>image/svg+xml</dc:format><dc:type
         rdf:resource="http://purl.org/dc/dcmitype/StillImage" /><dc:title>Sinai 357</dc:title><dc:date>2017</dc:date><dc:creator><cc:Agent><dc:title>Celeste Claire Horner</dc:title></cc:Agent></dc:creator><dc:publisher><cc:Agent><dc:title>beitdina.net</dc:title></cc:Agent></dc:publisher></cc:Work></rdf:RDF></metadata><defs
   id="defs70" /><sodipodi:namedview
   pagecolor="#ffffff"
   bordercolor="#666666"
   borderopacity="1"
   objecttolerance="10"
   gridtolerance="10"
   guidetolerance="10"
   inkscape:pageopacity="0"
   inkscape:pageshadow="2"
   inkscape:window-width="1152"
   inkscape:window-height="814"
   id="namedview68"
   showgrid="false"
   inkscape:zoom="0.26003743"
   inkscape:cx="290.5607"
   inkscape:cy="878.59829"
   inkscape:window-x="-8"
   inkscape:window-y="-8"
   inkscape:window-maximized="1"
   inkscape:current-layer="Layer_1" />
   
	<g
   id="Grid"
   transform="matrix(2.0004581,0,0,2.0004578,0.50019527,4.813853)">
		<rect
   x="0"
   stroke-miterlimit="10"
   width="512"
   height="512"
   id="rect4"
   y="0"
   style="fill:none;stroke:#a9ccdb;stroke-miterlimit:10" />
		<line
   stroke-miterlimit="10"
   x1="0"
   y1="32"
   x2="512"
   y2="32"
   id="line6"
   style="fill:none;stroke:#a9ccdb;stroke-miterlimit:10" />
		<line
   stroke-miterlimit="10"
   x1="0"
   y1="64"
   x2="512"
   y2="64"
   id="line8"
   style="fill:none;stroke:#a9ccdb;stroke-miterlimit:10" />
		<line
   stroke-miterlimit="10"
   x1="0"
   y1="96"
   x2="512"
   y2="96"
   id="line10"
   style="fill:none;stroke:#a9ccdb;stroke-miterlimit:10" />
		<line
   stroke-miterlimit="10"
   x1="0"
   y1="128"
   x2="512"
   y2="128"
   id="line12"
   style="fill:none;stroke:#a9ccdb;stroke-miterlimit:10" />
		<line
   stroke-miterlimit="10"
   x1="0"
   y1="160"
   x2="512"
   y2="160"
   id="line14"
   style="fill:none;stroke:#a9ccdb;stroke-miterlimit:10" />
		<line
   stroke-miterlimit="10"
   x1="0"
   y1="192"
   x2="512"
   y2="192"
   id="line16"
   style="fill:none;stroke:#a9ccdb;stroke-miterlimit:10" />
		<line
   stroke-miterlimit="10"
   x1="0"
   y1="224"
   x2="512"
   y2="224"
   id="line18"
   style="fill:none;stroke:#a9ccdb;stroke-miterlimit:10" />
		<line
   stroke-miterlimit="10"
   x1="0"
   y1="256"
   x2="512"
   y2="256"
   id="line20"
   style="fill:none;stroke:#a9ccdb;stroke-miterlimit:10" />
		<line
   stroke-miterlimit="10"
   x1="0"
   y1="288"
   x2="512"
   y2="288"
   id="line22"
   style="fill:none;stroke:#a9ccdb;stroke-miterlimit:10" />
		<line
   stroke-miterlimit="10"
   x1="0"
   y1="320"
   x2="512"
   y2="320"
   id="line24"
   style="fill:none;stroke:#a9ccdb;stroke-miterlimit:10" />
		<line
   stroke-miterlimit="10"
   x1="0"
   y1="352"
   x2="512"
   y2="352"
   id="line26"
   style="fill:none;stroke:#a9ccdb;stroke-miterlimit:10" />
		<line
   stroke-miterlimit="10"
   x1="0"
   y1="384"
   x2="512"
   y2="384"
   id="line28"
   style="fill:none;stroke:#a9ccdb;stroke-miterlimit:10" />
		<line
   stroke-miterlimit="10"
   x1="0"
   y1="416"
   x2="512"
   y2="416"
   id="line30"
   style="fill:none;stroke:#a9ccdb;stroke-miterlimit:10" />
		<line
   stroke-miterlimit="10"
   x1="0"
   y1="448"
   x2="512"
   y2="448"
   id="line32"
   style="fill:none;stroke:#ff0000;stroke-miterlimit:10" />
		<line
   stroke-miterlimit="10"
   x1="0"
   y1="480"
   x2="512"
   y2="480"
   id="line34"
   style="fill:none;stroke:#a9ccdb;stroke-miterlimit:10" />
		<line
   stroke-miterlimit="10"
   x1="32"
   y1="0"
   x2="32"
   y2="512"
   id="line36"
   style="fill:none;stroke:#a9ccdb;stroke-miterlimit:10" />
		<line
   stroke-miterlimit="10"
   x1="64"
   y1="0"
   x2="64"
   y2="512"
   id="line38"
   style="fill:none;stroke:#a9ccdb;stroke-miterlimit:10" />
		<line
   stroke-miterlimit="10"
   x1="96"
   y1="0"
   x2="96"
   y2="512"
   id="line40"
   style="fill:none;stroke:#a9ccdb;stroke-miterlimit:10" />
		<line
   stroke-miterlimit="10"
   x1="128"
   y1="0"
   x2="128"
   y2="512"
   id="line42"
   style="fill:none;stroke:#a9ccdb;stroke-miterlimit:10" />
		<line
   stroke-miterlimit="10"
   x1="160"
   y1="0"
   x2="160"
   y2="512"
   id="line44"
   style="fill:none;stroke:#a9ccdb;stroke-miterlimit:10" />
		<line
   stroke-miterlimit="10"
   x1="192"
   y1="0"
   x2="192"
   y2="512"
   id="line46"
   style="fill:none;stroke:#a9ccdb;stroke-miterlimit:10" />
		<line
   stroke-miterlimit="10"
   x1="224"
   y1="0"
   x2="224"
   y2="512"
   id="line48"
   style="fill:none;stroke:#a9ccdb;stroke-miterlimit:10" />
		<line
   stroke-miterlimit="10"
   x1="256"
   y1="0"
   x2="256"
   y2="512"
   id="line50"
   style="fill:none;stroke:#a9ccdb;stroke-miterlimit:10" />
		<line
   stroke-miterlimit="10"
   x1="288"
   y1="0"
   x2="288"
   y2="512"
   id="line52"
   style="fill:none;stroke:#a9ccdb;stroke-miterlimit:10" />
		<line
   stroke-miterlimit="10"
   x1="320"
   y1="0"
   x2="320"
   y2="512"
   id="line54"
   style="fill:none;stroke:#a9ccdb;stroke-miterlimit:10" />
		<line
   stroke-miterlimit="10"
   x1="352"
   y1="0"
   x2="352"
   y2="512"
   id="line56"
   style="fill:none;stroke:#a9ccdb;stroke-miterlimit:10" />
		<line
   stroke-miterlimit="10"
   x1="384"
   y1="0"
   x2="384"
   y2="512"
   id="line58"
   style="fill:none;stroke:#a9ccdb;stroke-miterlimit:10" />
		<line
   stroke-miterlimit="10"
   x1="416"
   y1="0"
   x2="416"
   y2="512"
   id="line60"
   style="fill:none;stroke:#a9ccdb;stroke-miterlimit:10" />
		<line
   stroke-miterlimit="10"
   x1="448"
   y1="0"
   x2="448"
   y2="512"
   id="line62"
   style="fill:none;stroke:#a9ccdb;stroke-miterlimit:10" />
		<line
   stroke-miterlimit="10"
   x1="480"
   y1="0"
   x2="480"
   y2="512"
   id="line64"
   style="fill:none;stroke:#a9ccdb;stroke-miterlimit:10" />
	</g>
	

<path
   style="fill:#a2564a;fill-opacity:0.74782607"
   d="m 225.47572,245.96717 c -6.07665,45.60357 -3.22971,97.74061 4.0636,140.84218 8.4399,48.67209 1.30561,47.93671 -8.28906,101.81981 -0.49102,2.85754 -2.43149,2.63427 -2.40656,5.73972 -0.0533,1.58692 -1.56148,4.37556 -0.52436,7.18512 0.22254,5.75862 -2.20852,15.10191 -5.53967,16.6293 -1.98872,0.80219 -3.37486,1.94313 -5.40514,3.17481 -1.81025,1.4843 -2.74743,1.62106 -5.38713,1.96788 -14.63874,-0.19591 -33.00668,34.92973 -47.75584,36.22879 -3.61859,0.31871 -6.7225,0.45553 -9.05754,0.29914 -3.0688,-0.82281 -6.11273,-1.66019 -9.13525,-2.50352 -20.55409,-5.73488 -25.16135,-4.94632 -44.81187,-8.51407 -3.70325,-0.67236 -4.1397,-1.258 -7.85638,-1.73873 -3.20256,-0.38779 -3.70288,-1.15905 -9.01923,-0.86597 -11.12884,0.62918 -21.17004,-5.34312 -32.74184,-2.18604 -5.9288,3.43282 -12.148,3.80776 -13.237,4.08907 -5.0125,2.33081 -8.7308,1.45386 -12.2296,5.01476 -2.7785,2.81219 -4.6181,8.40114 -5.8208,13.45139 -2.2105002,5.31322 -0.6311002,10.43972 0.7724,15.07605 5.243651,22.10665 14.522168,40.68255 22.318433,59.78299 2.834375,6.97146 5.278827,13.94461 9.027767,20.32794 6.2533,9.92248 8.6121,16.7148 14.9539,25.5557 4.3974,5.65676 8.90931,10.9567 15.81497,14.99329 3.07735,2.32795 6.9825,4.90444 10.52575,6.63179 6.01951,3.22428 14.47222,3.37316 19.84623,6.11788 3.91755,1.62719 7.36506,3.42883 10.92758,4.98211 5.48608,2.35856 12.36706,4.15953 18.02779,3.49838 10.50723,-0.56471 19.72198,3.21971 28.56699,0.0203 0.97245,-0.36685 1.83186,-0.87162 2.64337,-1.58254 10.38975,-15.70894 12.79972,-45.52461 6.98077,-60.89861 -2.05155,-4.43324 -4.57462,-9.04734 -7.34215,-12.05995 -5.41242,-3.38559 -13.4487,-16.82358 -11.36597,-20.82853 7.23729,-8.80753 29.92802,50.96985 38.08655,59.64592 8.0638,8.17903 16.06372,4.47882 21.65941,3.57954 8.54676,-1.09948 21.73294,2.44746 28.70065,3.1784 15.8254,10.39544 9.271,28.61061 8.13053,44.21465 -0.40168,7.87778 -0.56268,19.14835 -1.51229,30.22041 -1.43255,16.70281 -1.56564,33.53954 5.40245,44.77151 2.69817,4.71828 2.05462,10.29625 0.46792,13.56859 -2.78096,5.73536 -8.45916,9.33332 -4.12062,16.37937 2.0087,3.01682 4.2514,6.43397 6.60142,9.73803 2.10928,1.57261 4.26802,4.60652 6.23671,7.71398 2.58354,4.07796 4.83983,8.28256 6.22761,9.4774 4.91239,4.00323 24.4488,12.79958 30.20067,17.38458 1.0545,0.84057 2.03344,1.70115 2.90397,2.58551 1.77372,0.76153 3.65506,1.27061 5.58873,1.562 6.54957,0.98698 13.69946,-0.52347 19.30135,-3.18083 1.74737,-0.8289 3.34414,-1.76938 4.72508,-2.78047 1.06199,-0.82638 2.20085,-1.70696 3.39683,-2.63368 13.69419,-10.6113 34.87614,-27.27391 33.88986,-37.92028 -0.16476,-1.37017 -0.24667,-3.06506 -0.26542,-4.66501 -0.0219,-1.86519 0.0421,-3.60137 0.1608,-4.54367 0.28667,-3.86049 -1.18469,-18.69113 -4.68856,-25.1292 -0.60142,-1.10506 -1.26272,-1.96285 -1.9853,-2.47547 -0.82517,-0.65541 -3.10136,-3.26657 -2.71688,-2.09852 1.74024,5.28688 -5.78054,-14.99125 -23.77396,-18.67765 -1.62813,-0.33356 -3.26984,0.11535 -4.80576,0.42189 -3.74421,1.50482 -3.84449,3.59005 -5.70669,2.82915 -5.44444,-2.2246 -7.73428,-0.1535 -4.56064,-5.40788 -0.37918,-5.85046 -0.0101,-11.19135 0.39177,-16.33785 2.13243,-5.69066 -2.52641,-30.65435 1.12082,-32.02876 11.65254,-0.36146 11.47855,-1.68261 21.78131,1.71729 1.71705,0.55042 7.31316,1.59436 9.08602,2.16763 1.70162,0.55023 5.27467,0.31215 7.00762,0.8784 4.06947,-0.15693 5.07169,0.11857 5.9097,2.49352 1.57637,4.46751 0.84592,12.91251 6.72258,15.61148 7.89799,1.88074 14.70914,5.9189 21.95655,8.1092 14.67535,3.14916 27.77414,4.44413 41.55625,4.65268 19.29614,1.661 27.1261,-8.86603 34.83382,-18.25859 24.88125,-20.93087 15.30261,-35.31552 21.2244,-53.90118 4.26109,-11.41686 5.99157,-4.23747 11.66756,-15.59033 6.49556,-12.99213 8.91895,-27.69116 10.0505,-41.40876 1.29502,-12.17497 -0.0318,-31.95343 7.04268,-38.98166 14.48915,-10.92873 28.8513,-8.08796 34.64119,-24.88396 8.73536,-26.27309 3.41805,-46.60514 17.90657,-66.43113 1.79296,-2.4418 3.60475,-4.56966 5.93508,-8.00336 15.29784,-22.54113 25.33057,-49.71102 26.84941,-56.18581 7.42223,-26.55332 26.36825,-40.63682 29.03166,-64.65746 1.64349,-14.82454 3.23049,-29.51276 4.39245,-44.07992 0.2564,-3.21443 0.49211,-6.42295 0.70314,-9.62576 0.20874,-3.16749 0.39334,-6.32937 0.55001,-9.4858 0.82411,-16.60469 -10.00211,-33.05871 -11.28226,-49.38519 -0.47747,-5.34036 -1.48493,-10.35605 -2.98425,-15.0867 -5.22,-16.36737 -16.8458,-33.37198 -26.78262,-45.31785 -3.88242,-4.49274 -8.25341,-9.14824 -13.43291,-14.45991 -0.77438,-0.79966 -1.68709,-1.74911 -2.81365,-2.91398 -0.8145,-0.79561 -0.78142,0.13307 -1.52395,-0.9371 -0.59455,-0.94639 -2.17958,-2.44769 -4.35956,-4.26771 -8.34164,-6.96425 -25.39455,-18.59512 -28.99922,-21.65924 -16.36542,-11.18068 -9.41116,-8.46407 -27.70602,-17.1059 -6.78088,-3.20304 -102.47192,9.87822 -136.66912,12.03054 -35.08148,-8.50921 -76.61278,-3.26079 -108.53475,-13.38417 -5.55358,-2.16157 -11.27054,-3.8521 -17.04911,-4.99793 -17.17559,-0.36764 -38.48132,-10.38703 -50.21415,-4.86508 -12.9143,8.30494 -16.53677,20.7393 -16.46836,32.33701 -1.09245,11.78294 -4.71114,27.74415 -2.35119,40.72904 8.73224,15.87708 26.04516,23.61985 36.72145,33.50554 z m 302.96967,12.71297 c 6.27453,19.19177 24.05863,41.46516 26.03087,59.64917 -8.25821,21.37427 -6.96005,46.13374 -14.9252,66.11104 -8.16063,20.33256 -29.38506,46.53384 -36.53077,61.8373 -6.99951,20.36793 -67.09602,119.13592 -74.36914,137.52542 -2.56724,6.49109 -10.51885,11.98674 -12.48123,18.53884 -1.20539,4.68445 -3.09358,6.19657 -5.02348,10.61382 -2.29722,4.71175 -5.48369,15.79334 -6.92712,20.13357 -1.54458,4.56416 -6.30999,10.79003 -8.98821,12.79926 -3.37507,2.53202 -11.87558,9.66201 -10.08714,13.81596 1.74576,4.0548 -22.11654,4.88166 -29.87248,3.46163 -10.29119,-1.88419 -23.1295,-0.0934 -43.57799,-2.22984 -11.17965,-1.16802 -32.14172,-10.08665 -39.66027,-18.13617 -8.67095,-21.8378 2.47982,-31.35614 5.477,-48.94675 0.7244,-5.32506 1.78658,-10.33952 2.9888,-14.45247 -0.63324,-3.91591 1.76968,-11.22042 0.27201,-14.04798 1.43633,-2.84272 0.39977,-7.81078 1.64217,-9.69495 0.21802,-2.77103 17.34153,-61.6369 16.83401,-63.62448 7.13408,-55.0699 3.20002,-67.59066 7.22866,-120.62897 1.53381,-8.78792 2.3984,-17.41723 3.16052,-25.80272 1.0637,-11.70377 1.92775,-22.93259 4.13307,-33.45483 1.35771,-16.82936 -23.64031,-41.02416 -17.1366,-56.04861 2.72838,-2.68337 5.2621,-3.26821 8.82166,-5.74774 3.62332,-2.52395 -1.98888,-13.3368 2.08113,-15.92367 22.64403,-13.20401 51.82901,-6.6571 73.81949,-3.00595 34.79792,5.56276 103.75098,2.87193 131.80876,10.69402 9.4687,1.56824 12.36627,9.35051 15.28148,16.5651 z"
   id="path3768"
   inkscape:connector-curvature="0"
   sodipodi:nodetypes="ccccccccscssccccccccccccccccccccccccscsccscscsscscscscsscsccccscscccccsccccsccsssccccccscsccccccccccccccssscscccccsccccsccccc"
   inkscape:transform-center-x="-573.41697"
   inkscape:transform-center-y="-28.678911" /></svg>