<?xml version="1.0" encoding="UTF-8" standalone="no"?>
<svg
   xmlns:dc="http://purl.org/dc/elements/1.1/"
   xmlns:cc="http://creativecommons.org/ns#"
   xmlns:rdf="http://www.w3.org/1999/02/22-rdf-syntax-ns#"
   xmlns:svg="http://www.w3.org/2000/svg"
   xmlns="http://www.w3.org/2000/svg"
   xmlns:sodipodi="http://sodipodi.sourceforge.net/DTD/sodipodi-0.dtd"
   xmlns:inkscape="http://www.inkscape.org/namespaces/inkscape"
   version="1.1"
   id="Layer_1"
   x="0px"
   y="0px"
   width="1024"
   height="1024"
   viewBox="0 0 1024 1024"
   enable-background="new 0 0 512 512"
   xml:space="preserve"
   inkscape:version="0.48.0 r9654"
   sodipodi:docname="finalmemhebrew-x5dd.svg"><title
   id="title3743">Sinai 357</title><metadata
   id="metadata72"><rdf:RDF><cc:Work
       rdf:about=""><dc:format>image/svg+xml</dc:format><dc:type
         rdf:resource="http://purl.org/dc/dcmitype/StillImage" /><dc:title>Sinai 357</dc:title><dc:date>2017</dc:date><dc:creator><cc:Agent><dc:title>Celeste Claire Horner</dc:title></cc:Agent></dc:creator><dc:publisher><cc:Agent><dc:title>beitdina.net</dc:title></cc:Agent></dc:publisher></cc:Work></rdf:RDF></metadata><defs
   id="defs70" /><sodipodi:namedview
   pagecolor="#ffffff"
   bordercolor="#666666"
   borderopacity="1"
   objecttolerance="10"
   gridtolerance="10"
   guidetolerance="10"
   inkscape:pageopacity="0"
   inkscape:pageshadow="2"
   inkscape:window-width="1152"
   inkscape:window-height="814"
   id="namedview68"
   showgrid="false"
   inkscape:zoom="0.36774846"
   inkscape:cx="153.81537"
   inkscape:cy="423.11698"
   inkscape:window-x="-8"
   inkscape:window-y="-8"
   inkscape:window-maximized="1"
   inkscape:current-layer="Layer_1" />
   
	<g
   id="Grid"
   transform="matrix(2.0004581,0,0,2.0004578,0.50019527,4.813853)">
		<rect
   x="0"
   stroke-miterlimit="10"
   width="512"
   height="512"
   id="rect4"
   y="0"
   style="fill:none;stroke:#a9ccdb;stroke-miterlimit:10" />
		<line
   stroke-miterlimit="10"
   x1="0"
   y1="32"
   x2="512"
   y2="32"
   id="line6"
   style="fill:none;stroke:#a9ccdb;stroke-miterlimit:10" />
		<line
   stroke-miterlimit="10"
   x1="0"
   y1="64"
   x2="512"
   y2="64"
   id="line8"
   style="fill:none;stroke:#a9ccdb;stroke-miterlimit:10" />
		<line
   stroke-miterlimit="10"
   x1="0"
   y1="96"
   x2="512"
   y2="96"
   id="line10"
   style="fill:none;stroke:#a9ccdb;stroke-miterlimit:10" />
		<line
   stroke-miterlimit="10"
   x1="0"
   y1="128"
   x2="512"
   y2="128"
   id="line12"
   style="fill:none;stroke:#a9ccdb;stroke-miterlimit:10" />
		<line
   stroke-miterlimit="10"
   x1="0"
   y1="160"
   x2="512"
   y2="160"
   id="line14"
   style="fill:none;stroke:#a9ccdb;stroke-miterlimit:10" />
		<line
   stroke-miterlimit="10"
   x1="0"
   y1="192"
   x2="512"
   y2="192"
   id="line16"
   style="fill:none;stroke:#a9ccdb;stroke-miterlimit:10" />
		<line
   stroke-miterlimit="10"
   x1="0"
   y1="224"
   x2="512"
   y2="224"
   id="line18"
   style="fill:none;stroke:#a9ccdb;stroke-miterlimit:10" />
		<line
   stroke-miterlimit="10"
   x1="0"
   y1="256"
   x2="512"
   y2="256"
   id="line20"
   style="fill:none;stroke:#a9ccdb;stroke-miterlimit:10" />
		<line
   stroke-miterlimit="10"
   x1="0"
   y1="288"
   x2="512"
   y2="288"
   id="line22"
   style="fill:none;stroke:#a9ccdb;stroke-miterlimit:10" />
		<line
   stroke-miterlimit="10"
   x1="0"
   y1="320"
   x2="512"
   y2="320"
   id="line24"
   style="fill:none;stroke:#a9ccdb;stroke-miterlimit:10" />
		<line
   stroke-miterlimit="10"
   x1="0"
   y1="352"
   x2="512"
   y2="352"
   id="line26"
   style="fill:none;stroke:#a9ccdb;stroke-miterlimit:10" />
		<line
   stroke-miterlimit="10"
   x1="0"
   y1="384"
   x2="512"
   y2="384"
   id="line28"
   style="fill:none;stroke:#a9ccdb;stroke-miterlimit:10" />
		<line
   stroke-miterlimit="10"
   x1="0"
   y1="416"
   x2="512"
   y2="416"
   id="line30"
   style="fill:none;stroke:#a9ccdb;stroke-miterlimit:10" />
		<line
   stroke-miterlimit="10"
   x1="0"
   y1="448"
   x2="512"
   y2="448"
   id="line32"
   style="fill:none;stroke:#ff0000;stroke-miterlimit:10" />
		<line
   stroke-miterlimit="10"
   x1="0"
   y1="480"
   x2="512"
   y2="480"
   id="line34"
   style="fill:none;stroke:#a9ccdb;stroke-miterlimit:10" />
		<line
   stroke-miterlimit="10"
   x1="32"
   y1="0"
   x2="32"
   y2="512"
   id="line36"
   style="fill:none;stroke:#a9ccdb;stroke-miterlimit:10" />
		<line
   stroke-miterlimit="10"
   x1="64"
   y1="0"
   x2="64"
   y2="512"
   id="line38"
   style="fill:none;stroke:#a9ccdb;stroke-miterlimit:10" />
		<line
   stroke-miterlimit="10"
   x1="96"
   y1="0"
   x2="96"
   y2="512"
   id="line40"
   style="fill:none;stroke:#a9ccdb;stroke-miterlimit:10" />
		<line
   stroke-miterlimit="10"
   x1="128"
   y1="0"
   x2="128"
   y2="512"
   id="line42"
   style="fill:none;stroke:#a9ccdb;stroke-miterlimit:10" />
		<line
   stroke-miterlimit="10"
   x1="160"
   y1="0"
   x2="160"
   y2="512"
   id="line44"
   style="fill:none;stroke:#a9ccdb;stroke-miterlimit:10" />
		<line
   stroke-miterlimit="10"
   x1="192"
   y1="0"
   x2="192"
   y2="512"
   id="line46"
   style="fill:none;stroke:#a9ccdb;stroke-miterlimit:10" />
		<line
   stroke-miterlimit="10"
   x1="224"
   y1="0"
   x2="224"
   y2="512"
   id="line48"
   style="fill:none;stroke:#a9ccdb;stroke-miterlimit:10" />
		<line
   stroke-miterlimit="10"
   x1="256"
   y1="0"
   x2="256"
   y2="512"
   id="line50"
   style="fill:none;stroke:#a9ccdb;stroke-miterlimit:10" />
		<line
   stroke-miterlimit="10"
   x1="288"
   y1="0"
   x2="288"
   y2="512"
   id="line52"
   style="fill:none;stroke:#a9ccdb;stroke-miterlimit:10" />
		<line
   stroke-miterlimit="10"
   x1="320"
   y1="0"
   x2="320"
   y2="512"
   id="line54"
   style="fill:none;stroke:#a9ccdb;stroke-miterlimit:10" />
		<line
   stroke-miterlimit="10"
   x1="352"
   y1="0"
   x2="352"
   y2="512"
   id="line56"
   style="fill:none;stroke:#a9ccdb;stroke-miterlimit:10" />
		<line
   stroke-miterlimit="10"
   x1="384"
   y1="0"
   x2="384"
   y2="512"
   id="line58"
   style="fill:none;stroke:#a9ccdb;stroke-miterlimit:10" />
		<line
   stroke-miterlimit="10"
   x1="416"
   y1="0"
   x2="416"
   y2="512"
   id="line60"
   style="fill:none;stroke:#a9ccdb;stroke-miterlimit:10" />
		<line
   stroke-miterlimit="10"
   x1="448"
   y1="0"
   x2="448"
   y2="512"
   id="line62"
   style="fill:none;stroke:#a9ccdb;stroke-miterlimit:10" />
		<line
   stroke-miterlimit="10"
   x1="480"
   y1="0"
   x2="480"
   y2="512"
   id="line64"
   style="fill:none;stroke:#a9ccdb;stroke-miterlimit:10" />
	</g>
	

<path
   style="fill:#65564a"
   d="m 305.16858,246.2627 c -14.76254,112.33344 -31.79767,233.88991 -46.13831,337.77899 -0.40833,3.0654 -2.02204,2.82589 -2.0013,6.15722 -0.0443,1.70235 -1.29853,4.69383 -0.43606,7.70776 1.00388,7.79039 2.33479,13.95097 -4.6068,17.83889 -1.65382,0.86054 -2.80653,2.08448 -4.49492,3.40575 -1.5054,1.59226 -2.28477,1.73897 -4.47995,2.11102 -12.1736,-0.21016 -31.54979,4.42495 -43.81522,5.8185 -3.00923,0.34189 -5.59044,0.48867 -7.53226,0.3209 -2.55202,-0.88266 -5.08336,-1.78095 -7.59689,-2.68562 -17.09281,-6.15203 -33.36155,-12.59873 -49.70295,-16.42599 -3.07963,-0.72127 -3.44259,-1.34951 -6.53338,-1.86521 -2.66326,-0.41599 -3.07932,-1.24336 -7.50041,-0.92896 -9.25482,0.67495 -17.60506,-5.73177 -27.228175,-2.34505 -4.93039,3.68252 -10.10232,4.08473 -11.00792,4.38651 -4.16837,2.50035 -7.26055,1.55961 -10.17017,5.37952 -2.31054,3.01675 -3.8404,9.01223 -4.84061,14.42983 -1.83813,5.6997 -0.52481,11.19909 0.64247,16.17267 3.21188,13.68372 8.02766,33.98102 12.91245,49.18951 5.75502,12.03706 7.93372,25.2802 13.15502,36.74859 5.20029,10.64423 7.161815,17.93061 12.435735,27.41459 3.65681,6.06822 7.40895,11.75368 13.1517,16.08388 2.55914,2.49729 5.80666,5.26119 8.75323,7.11418 5.00584,3.45881 12.03513,3.61852 16.50416,6.56289 3.25784,1.74555 6.1248,3.67824 9.08739,5.3445 4.56223,2.53012 10.28447,4.46209 14.99194,3.75285 8.73783,-0.60579 16.40083,3.45391 23.75636,0.0218 0.80868,-0.39354 1.52337,-0.93502 2.19822,-1.69765 8.64014,-16.85159 9.5136,-47.37749 4.67455,-63.86978 -1.70606,-4.75571 -5.50026,-9.70543 -7.80173,-12.93717 -4.19535,-5.15851 -2.45924,-10.62804 -5.22403,-15.07383 -6.36945,-10.24213 32.04731,15.72065 46.68456,12.68623 7.1075,-1.17945 15.67465,-2.78142 21.46901,-1.99731 8.8275,1.18853 18.04775,-2.5162 19.90395,-0.66772 4.58408,4.12067 14.59519,8.53069 18.07503,16.38038 6.17646,13.93264 8.88498,30.5685 14.55145,42.43965 1.67043,3.23626 3.53546,6.90197 5.48974,10.44636 1.75409,1.687 3.54929,4.9416 5.18646,8.27509 2.14848,4.37459 4.02481,8.88502 5.1789,10.16677 4.08514,4.29443 10.73763,8.57395 15.5209,13.49246 0.87692,0.90171 1.69101,1.82489 2.41494,2.77358 1.47503,0.81692 3.03956,1.36303 4.6476,1.67562 5.44662,1.05877 11.39249,-0.56155 16.05103,-3.4122 1.45312,-0.88919 2.78099,-1.89808 3.92938,-2.98272 0.88316,-0.88649 1.83023,-1.83112 2.82481,-2.82525 11.38811,-11.38315 29.00305,-29.25778 28.18286,-40.67856 -0.13701,-1.46983 -0.20513,-3.288 -0.22072,-5.00433 -0.0182,-2.00086 0.035,-3.86333 0.13372,-4.87418 0.2384,-4.14129 -0.98519,-20.05069 -3.89902,-26.95706 -0.50014,-1.18544 -1.05008,-2.10563 -1.65097,-2.65554 -0.68621,-0.70308 -1.44219,-1.4581 -2.25936,-2.25116 -8.74381,-8.48584 -24.49299,-21.32701 -36.73046,-21.49477 -1.382,-0.0189 -2.71921,0.12374 -3.99648,0.45258 -3.11369,1.61428 -3.19708,3.85119 -4.74569,3.03494 -4.5276,-2.38641 -6.43184,-0.16467 -3.79263,-5.80124 1.87685,-1.03718 3.83128,-1.80305 5.8323,-2.33664 1.73689,-0.31528 3.40572,-0.4953 5.01959,-0.55988 9.69026,-0.38777 21.13835,6.44565 29.70614,10.09286 1.4279,0.59045 2.88363,1.19466 4.35795,1.80963 1.41506,0.59025 3.18716,0.85052 4.62829,1.45796 16.44475,5.97258 38.30309,8.15577 55.77654,8.32126 0.9217,0.009 2.51101,0.0118 3.40687,0.01 1.51108,-0.004 2.30355,-0.0228 3.73012,-0.0558 23.40421,0.50441 50.16311,-9.9266 61.16276,-27.0167 12.50979,-41.95401 24.13229,-84.59961 33.6573,-127.6414 4.68349,-21.16387 11.53992,-44.09505 15.27717,-64.64653 3.96651,-21.81219 9.54842,-42.07126 12.12273,-62.53577 1.61195,-18.71962 3.23236,-37.23398 4.36615,-55.56957 0.21322,-3.44824 0.40924,-6.89015 0.58474,-10.32592 0.17358,-3.39789 0.3271,-6.78976 0.45738,-10.17579 0.68534,-17.8125 0.72757,-35.46336 -0.33702,-52.97741 -0.18677,-2.98175 -0.53185,-5.99787 -1.01548,-9.02606 -3.13331,-19.6189 -12.08244,-39.74429 -21.47736,-54.31372 -3.22862,-4.81953 -6.86354,-9.81367 -11.17082,-15.5117 -0.64397,-0.85783 -1.40299,-1.87634 -2.33984,-3.12594 -0.67734,-0.85348 -0.64983,0.14275 -1.26732,-1.00527 -2.38635,-4.89995 -23.96016,-23.66682 -27.74121,-27.81284 -13.6095,-11.99395 -7.82633,-9.07976 -23.04036,-18.35016 -6.67263,-4.06585 -33.72484,-18.73715 -40.2195,-22.2515 -21.96684,-11.82655 -60.63091,-5.29678 -80.54424,-14.26585 -7.57325,-3.8024 -15.51186,-6.24605 -23.44261,-6.98249 -11.19696,-1.03975 -22.37826,1.32347 -32.49362,8.07024 -10.73955,8.90903 -13.752,22.24785 -13.69511,34.68916 1.64342,22.14113 4.35957,46.12392 4.59731,65.90312 z m 190.2132,64.97264 c 4.69693,21.03435 1.63429,44.40572 2.73835,62.90766 -4.65933,18.96683 -7.43378,45.42098 -10.36067,62.74522 -4.03332,22.45405 -4.22995,42.82504 -10.94752,61.38322 -5.82081,21.84947 -13.33145,43.01897 -19.37978,62.7461 -2.13493,6.96325 -4.08767,12.55657 -5.71958,19.58526 -1.00241,5.02519 -3.37213,9.7413 -4.97704,14.47985 -1.91037,5.05448 -4.95999,10.75414 -6.16035,15.41008 -1.28448,4.89615 -7.6459,11.5749 -9.87312,13.73026 -5.54644,5.36757 -23.85116,10.59712 -36.90859,7.51324 -18.04101,-4.26087 -47.26722,-17.35709 -48.77874,-27.42785 -0.43174,-2.87583 -1.25959,-6.19551 -2.19517,-9.01868 -0.60967,-4.53518 -0.61389,-9.7034 0.27215,-13.41226 -0.5266,-4.20075 1.47168,-12.03658 0.2262,-15.06981 1.19446,-3.0495 0.33245,-8.37893 1.36564,-10.40015 0.1813,-2.97259 1.46851,-8.98246 1.04646,-11.11462 5.93271,-59.07561 20.25018,-113.76036 23.60041,-170.65661 1.27552,-9.42715 1.99452,-18.68414 2.62829,-27.67958 0.88457,-12.55509 1.60312,-24.60068 3.43707,-35.8883 1.12907,-18.0535 5.2624,-41.59165 10.6709,-57.70896 14.18069,-17.99082 44.12122,-10.16938 61.57239,-0.77388 26.1979,12.87886 44.08919,37.28779 47.7427,58.64981 z"
   id="path3768"
   inkscape:connector-curvature="0"
   sodipodi:nodetypes="cccccccscsscccccccccccccccccccscccsccscscsscscscscsscsccscscssccsscssscscccccsccsccccccsccccssccccccsccccc" /></svg>