<?xml version="1.0" encoding="UTF-8" standalone="no"?>
<svg
   xmlns:dc="http://purl.org/dc/elements/1.1/"
   xmlns:cc="http://creativecommons.org/ns#"
   xmlns:rdf="http://www.w3.org/1999/02/22-rdf-syntax-ns#"
   xmlns:svg="http://www.w3.org/2000/svg"
   xmlns="http://www.w3.org/2000/svg"
   xmlns:sodipodi="http://sodipodi.sourceforge.net/DTD/sodipodi-0.dtd"
   xmlns:inkscape="http://www.inkscape.org/namespaces/inkscape"
   version="1.1"
   id="Layer_1"
   x="0px"
   y="0px"
   width="1024"
   height="1124"
   viewBox="0 0 1024 1124"
   enable-background="new 0 0 512 512"
   xml:space="preserve"
   inkscape:version="0.48.0 r9654"
   sodipodi:docname="finalnunhebrew-x5df.svg"><title
   id="title3743">Sinai 357</title><metadata
   id="metadata72"><rdf:RDF><cc:Work
       rdf:about=""><dc:format>image/svg+xml</dc:format><dc:type
         rdf:resource="http://purl.org/dc/dcmitype/StillImage" /><dc:title>Sinai 357</dc:title><dc:date>2017</dc:date><dc:creator><cc:Agent><dc:title>Celeste Claire Horner</dc:title></cc:Agent></dc:creator><dc:publisher><cc:Agent><dc:title>beitdina.net</dc:title></cc:Agent></dc:publisher></cc:Work></rdf:RDF></metadata><defs
   id="defs70"><linearGradient
     id="linearGradient4587"><stop
       id="stop4589"
       offset="0"
       style="stop-color:#ee9751;stop-opacity:1;" /><stop
       id="stop4591"
       offset="1"
       style="stop-color:#ee9751;stop-opacity:0;" /></linearGradient><linearGradient
     id="linearGradient4617"><stop
       id="stop4619"
       offset="0"
       style="stop-color:#030303;stop-opacity:1;" /><stop
       id="stop4621"
       offset="1"
       style="stop-color:#030303;stop-opacity:0;" /></linearGradient></defs><sodipodi:namedview
   pagecolor="#ffffff"
   bordercolor="#666666"
   borderopacity="1"
   objecttolerance="10"
   gridtolerance="10"
   guidetolerance="10"
   inkscape:pageopacity="0"
   inkscape:pageshadow="2"
   inkscape:window-width="1152"
   inkscape:window-height="814"
   id="namedview68"
   showgrid="false"
   inkscape:zoom="0.43297288"
   inkscape:cx="1112.6905"
   inkscape:cy="459.9528"
   inkscape:window-x="-8"
   inkscape:window-y="-8"
   inkscape:window-maximized="1"
   inkscape:current-layer="Layer_1" />
   
	<g
   id="Grid"
   transform="matrix(2.0004581,0,0,2.1916553,0.50019527,7.8100839)">
		<rect
   x="0"
   stroke-miterlimit="10"
   width="512"
   height="512"
   id="rect4"
   y="0"
   style="fill:none;stroke:#a9ccdb;stroke-miterlimit:10" />
		<line
   stroke-miterlimit="10"
   x1="0"
   y1="32"
   x2="512"
   y2="32"
   id="line6"
   style="fill:none;stroke:#a9ccdb;stroke-miterlimit:10" />
		<line
   stroke-miterlimit="10"
   x1="0"
   y1="64"
   x2="512"
   y2="64"
   id="line8"
   style="fill:none;stroke:#a9ccdb;stroke-miterlimit:10" />
		<line
   stroke-miterlimit="10"
   x1="0"
   y1="96"
   x2="512"
   y2="96"
   id="line10"
   style="fill:none;stroke:#a9ccdb;stroke-miterlimit:10" />
		<line
   stroke-miterlimit="10"
   x1="0"
   y1="128"
   x2="512"
   y2="128"
   id="line12"
   style="fill:none;stroke:#a9ccdb;stroke-miterlimit:10" />
		<line
   stroke-miterlimit="10"
   x1="0"
   y1="160"
   x2="512"
   y2="160"
   id="line14"
   style="fill:none;stroke:#a9ccdb;stroke-miterlimit:10" />
		<line
   stroke-miterlimit="10"
   x1="0"
   y1="192"
   x2="512"
   y2="192"
   id="line16"
   style="fill:none;stroke:#a9ccdb;stroke-miterlimit:10" />
		<line
   stroke-miterlimit="10"
   x1="0"
   y1="224"
   x2="512"
   y2="224"
   id="line18"
   style="fill:none;stroke:#a9ccdb;stroke-miterlimit:10" />
		<line
   stroke-miterlimit="10"
   x1="0"
   y1="256"
   x2="512"
   y2="256"
   id="line20"
   style="fill:none;stroke:#a9ccdb;stroke-miterlimit:10" />
		<line
   stroke-miterlimit="10"
   x1="0"
   y1="288"
   x2="512"
   y2="288"
   id="line22"
   style="fill:none;stroke:#a9ccdb;stroke-miterlimit:10" />
		<line
   stroke-miterlimit="10"
   x1="0"
   y1="320"
   x2="512"
   y2="320"
   id="line24"
   style="fill:none;stroke:#a9ccdb;stroke-miterlimit:10" />
		<line
   stroke-miterlimit="10"
   x1="0"
   y1="352"
   x2="512"
   y2="352"
   id="line26"
   style="fill:none;stroke:#a9ccdb;stroke-miterlimit:10" />
		<line
   stroke-miterlimit="10"
   x1="0"
   y1="384"
   x2="512"
   y2="384"
   id="line28"
   style="fill:none;stroke:#a9ccdb;stroke-miterlimit:10" />
		<line
   stroke-miterlimit="10"
   x1="0"
   y1="416"
   x2="512"
   y2="416"
   id="line30"
   style="fill:none;stroke:#a9ccdb;stroke-miterlimit:10" />
		<line
   stroke-miterlimit="10"
   x1="0"
   y1="448"
   x2="512"
   y2="448"
   id="line32"
   style="fill:none;stroke:#ff0000;stroke-miterlimit:10" />
		<line
   stroke-miterlimit="10"
   x1="0"
   y1="480"
   x2="512"
   y2="480"
   id="line34"
   style="fill:none;stroke:#a9ccdb;stroke-miterlimit:10" />
		<line
   stroke-miterlimit="10"
   x1="32"
   y1="0"
   x2="32"
   y2="512"
   id="line36"
   style="fill:none;stroke:#a9ccdb;stroke-miterlimit:10" />
		<line
   stroke-miterlimit="10"
   x1="64"
   y1="0"
   x2="64"
   y2="512"
   id="line38"
   style="fill:none;stroke:#a9ccdb;stroke-miterlimit:10" />
		<line
   stroke-miterlimit="10"
   x1="96"
   y1="0"
   x2="96"
   y2="512"
   id="line40"
   style="fill:none;stroke:#a9ccdb;stroke-miterlimit:10" />
		<line
   stroke-miterlimit="10"
   x1="128"
   y1="0"
   x2="128"
   y2="512"
   id="line42"
   style="fill:none;stroke:#a9ccdb;stroke-miterlimit:10" />
		<line
   stroke-miterlimit="10"
   x1="160"
   y1="0"
   x2="160"
   y2="512"
   id="line44"
   style="fill:none;stroke:#a9ccdb;stroke-miterlimit:10" />
		<line
   stroke-miterlimit="10"
   x1="192"
   y1="0"
   x2="192"
   y2="512"
   id="line46"
   style="fill:none;stroke:#a9ccdb;stroke-miterlimit:10" />
		<line
   stroke-miterlimit="10"
   x1="224"
   y1="0"
   x2="224"
   y2="512"
   id="line48"
   style="fill:none;stroke:#a9ccdb;stroke-miterlimit:10" />
		<line
   stroke-miterlimit="10"
   x1="256"
   y1="0"
   x2="256"
   y2="512"
   id="line50"
   style="fill:none;stroke:#a9ccdb;stroke-miterlimit:10" />
		<line
   stroke-miterlimit="10"
   x1="288"
   y1="0"
   x2="288"
   y2="512"
   id="line52"
   style="fill:none;stroke:#a9ccdb;stroke-miterlimit:10" />
		<line
   stroke-miterlimit="10"
   x1="320"
   y1="0"
   x2="320"
   y2="512"
   id="line54"
   style="fill:none;stroke:#a9ccdb;stroke-miterlimit:10" />
		<line
   stroke-miterlimit="10"
   x1="352"
   y1="0"
   x2="352"
   y2="512"
   id="line56"
   style="fill:none;stroke:#a9ccdb;stroke-miterlimit:10" />
		<line
   stroke-miterlimit="10"
   x1="384"
   y1="0"
   x2="384"
   y2="512"
   id="line58"
   style="fill:none;stroke:#a9ccdb;stroke-miterlimit:10" />
		<line
   stroke-miterlimit="10"
   x1="416"
   y1="0"
   x2="416"
   y2="512"
   id="line60"
   style="fill:none;stroke:#a9ccdb;stroke-miterlimit:10" />
		<line
   stroke-miterlimit="10"
   x1="448"
   y1="0"
   x2="448"
   y2="512"
   id="line62"
   style="fill:none;stroke:#a9ccdb;stroke-miterlimit:10" />
		<line
   stroke-miterlimit="10"
   x1="480"
   y1="0"
   x2="480"
   y2="512"
   id="line64"
   style="fill:none;stroke:#a9ccdb;stroke-miterlimit:10" />
	</g>
	
<path
   style="fill:#62574d"
   d="m 315.83171,111.30487 c -0.26817,14.8095 14.09605,26.689 26.76262,39.1454 16.06379,12.45608 29.6954,27.56163 41.07027,44.25899 13.61726,19.988 24.00124,42.25707 31.45456,64.99263 -0.42383,14.73093 -5.34163,27.5031 -4.62316,41.20204 0.59525,10.61118 4.03964,18.54962 7.05636,30.06935 2.93137,11.30614 1.78512,15.87536 -2.96996,27.67574 -9.66369,23.98241 -10.4159,27.97705 -13.31666,70.71957 -1.47846,21.78753 -4.89911,40.62246 -7.9422,43.73497 -10.69882,10.94325 -39.68564,60.57294 -45.17344,77.34279 -4.81871,13.45244 -13.93312,20.26792 -23.22398,27.44493 -4.98346,3.84984 -10.01793,7.80371 -14.46675,12.94176 -20.86432,19.03248 -40.70744,40.91688 -59.65856,62.35277 -18.38709,23.65814 -42.17713,41.3546 -58.55071,64.10469 -8.844,12.24973 -22.65419,11.71368 -37.7175,13.04592 -17.40175,1.96162 -28.50723,4.9781 -38.74141,10.0113 -9.47258,4.65869 -18.199418,11.04508 -30.481753,19.92201 -20.825434,15.46385 -27.743306,18.73741 -20.315038,71.82507 4.746492,17.02413 -3.975999,34.77211 -0.281107,51.58521 6.022028,27.39458 24.233462,52.30736 32.872015,67.56371 13.932613,19.7059 35.001073,29.7723 47.133913,50.07758 16.05167,35.6716 42.52581,-2.61418 42.99075,-19.06848 0.0778,-3.6075 3.07985,-11.3431 6.66828,-17.1903 2.89561,-9.5363 6.60606,-18.4531 10.84377,-26.93808 11.84729,-23.7218 27.8129,-44.06881 41.59238,-65.14229 12.41264,-26.09443 28.41067,-48.38957 46.13767,-68.81446 24.84123,-28.62152 53.07716,-53.57039 79.59977,-80.15448 7.2708,-7.50353 12.68425,-16.96446 19.83697,-27.92496 34.88218,-46.42172 54.49814,-68.81814 78.80989,-111.18275 12.75737,-22.44373 20.37513,-48.80317 31.09689,-68.09579 10.45963,-23.01032 16.75802,-48.75535 22.00975,-71.39859 0.7409,-28.96403 0.61121,-62.4063 -1.06018,-88.58453 -2.46128,-21.65555 -7.93614,-41.20678 -15.06037,-59.72598 -9.5949,-24.94328 -22.18138,-48.01474 -34.42321,-71.83469 -8.86905,-17.1611 -18.45102,-33.06903 -33.18524,-45.09639 -23.99124,-23.28186 -45.38192,-52.67286 -62.17641,-76.41606 -5.67162,-8.176245 -16.51883,-10.549045 -28.91631,-15.305345 -18.16821,-7.0134 -31.67002,7.3636 -33.65281,22.856745 z"
   id="path3771"
   inkscape:connector-curvature="0"
   sodipodi:nodetypes="ccscccssscsccccsccsccccscsccccccscccccc" />
</svg>