<?xml version="1.0" encoding="UTF-8" standalone="no"?>
<svg
   xmlns:dc="http://purl.org/dc/elements/1.1/"
   xmlns:cc="http://creativecommons.org/ns#"
   xmlns:rdf="http://www.w3.org/1999/02/22-rdf-syntax-ns#"
   xmlns:svg="http://www.w3.org/2000/svg"
   xmlns="http://www.w3.org/2000/svg"
   xmlns:sodipodi="http://sodipodi.sourceforge.net/DTD/sodipodi-0.dtd"
   xmlns:inkscape="http://www.inkscape.org/namespaces/inkscape"
   version="1.1"
   id="Layer_1"
   x="0px"
   y="0px"
   width="1000"
   height="1024"
   viewBox="0 0 1000 1024"
   enable-background="new 0 0 512 512"
   xml:space="preserve"
   inkscape:version="0.48.0 r9654"
   sodipodi:docname="hehebrew-x5d4.svg"><title
   id="title3743">Sinai 357</title><metadata
   id="metadata72"><rdf:RDF><cc:Work
       rdf:about=""><dc:format>image/svg+xml</dc:format><dc:type
         rdf:resource="http://purl.org/dc/dcmitype/StillImage" /><dc:title>Sinai 357</dc:title><dc:date>2017</dc:date><dc:creator><cc:Agent><dc:title>Celeste Claire Horner</dc:title></cc:Agent></dc:creator><dc:publisher><cc:Agent><dc:title>beitdina.net</dc:title></cc:Agent></dc:publisher></cc:Work></rdf:RDF></metadata><defs
   id="defs70" /><sodipodi:namedview
   pagecolor="#ffffff"
   bordercolor="#666666"
   borderopacity="1"
   objecttolerance="10"
   gridtolerance="10"
   guidetolerance="10"
   inkscape:pageopacity="0"
   inkscape:pageshadow="2"
   inkscape:window-width="1152"
   inkscape:window-height="814"
   id="namedview68"
   showgrid="false"
   inkscape:zoom="0.25488281"
   inkscape:cx="-1087.3869"
   inkscape:cy="810.34338"
   inkscape:window-x="-8"
   inkscape:window-y="-8"
   inkscape:window-maximized="1"
   inkscape:current-layer="Layer_1" />
   
	<g
   id="Grid"
   transform="matrix(1.940304,0,0,1.9922665,4.3973279,2.4578361)">
		<rect
   x="0"
   stroke-miterlimit="10"
   width="512"
   height="512"
   id="rect4"
   y="0"
   style="fill:none;stroke:#a9ccdb;stroke-miterlimit:10" />
		<line
   stroke-miterlimit="10"
   x1="0"
   y1="32"
   x2="512"
   y2="32"
   id="line6"
   style="fill:none;stroke:#a9ccdb;stroke-miterlimit:10" />
		<line
   stroke-miterlimit="10"
   x1="0"
   y1="64"
   x2="512"
   y2="64"
   id="line8"
   style="fill:none;stroke:#a9ccdb;stroke-miterlimit:10" />
		<line
   stroke-miterlimit="10"
   x1="0"
   y1="96"
   x2="512"
   y2="96"
   id="line10"
   style="fill:none;stroke:#a9ccdb;stroke-miterlimit:10" />
		<line
   stroke-miterlimit="10"
   x1="0"
   y1="128"
   x2="512"
   y2="128"
   id="line12"
   style="fill:none;stroke:#a9ccdb;stroke-miterlimit:10" />
		<line
   stroke-miterlimit="10"
   x1="0"
   y1="160"
   x2="512"
   y2="160"
   id="line14"
   style="fill:none;stroke:#a9ccdb;stroke-miterlimit:10" />
		<line
   stroke-miterlimit="10"
   x1="0"
   y1="192"
   x2="512"
   y2="192"
   id="line16"
   style="fill:none;stroke:#a9ccdb;stroke-miterlimit:10" />
		<line
   stroke-miterlimit="10"
   x1="0"
   y1="224"
   x2="512"
   y2="224"
   id="line18"
   style="fill:none;stroke:#a9ccdb;stroke-miterlimit:10" />
		<line
   stroke-miterlimit="10"
   x1="0"
   y1="256"
   x2="512"
   y2="256"
   id="line20"
   style="fill:none;stroke:#a9ccdb;stroke-miterlimit:10" />
		<line
   stroke-miterlimit="10"
   x1="0"
   y1="288"
   x2="512"
   y2="288"
   id="line22"
   style="fill:none;stroke:#a9ccdb;stroke-miterlimit:10" />
		<line
   stroke-miterlimit="10"
   x1="0"
   y1="320"
   x2="512"
   y2="320"
   id="line24"
   style="fill:none;stroke:#a9ccdb;stroke-miterlimit:10" />
		<line
   stroke-miterlimit="10"
   x1="0"
   y1="352"
   x2="512"
   y2="352"
   id="line26"
   style="fill:none;stroke:#a9ccdb;stroke-miterlimit:10" />
		<line
   stroke-miterlimit="10"
   x1="0"
   y1="384"
   x2="512"
   y2="384"
   id="line28"
   style="fill:none;stroke:#a9ccdb;stroke-miterlimit:10" />
		<line
   stroke-miterlimit="10"
   x1="0"
   y1="416"
   x2="512"
   y2="416"
   id="line30"
   style="fill:none;stroke:#a9ccdb;stroke-miterlimit:10" />
		<line
   stroke-miterlimit="10"
   x1="0"
   y1="448"
   x2="512"
   y2="448"
   id="line32"
   style="fill:none;stroke:#ff0000;stroke-miterlimit:10" />
		<line
   stroke-miterlimit="10"
   x1="0"
   y1="480"
   x2="512"
   y2="480"
   id="line34"
   style="fill:none;stroke:#a9ccdb;stroke-miterlimit:10" />
		<line
   stroke-miterlimit="10"
   x1="32"
   y1="0"
   x2="32"
   y2="512"
   id="line36"
   style="fill:none;stroke:#a9ccdb;stroke-miterlimit:10" />
		<line
   stroke-miterlimit="10"
   x1="64"
   y1="0"
   x2="64"
   y2="512"
   id="line38"
   style="fill:none;stroke:#a9ccdb;stroke-miterlimit:10" />
		<line
   stroke-miterlimit="10"
   x1="96"
   y1="0"
   x2="96"
   y2="512"
   id="line40"
   style="fill:none;stroke:#a9ccdb;stroke-miterlimit:10" />
		<line
   stroke-miterlimit="10"
   x1="128"
   y1="0"
   x2="128"
   y2="512"
   id="line42"
   style="fill:none;stroke:#a9ccdb;stroke-miterlimit:10" />
		<line
   stroke-miterlimit="10"
   x1="160"
   y1="0"
   x2="160"
   y2="512"
   id="line44"
   style="fill:none;stroke:#a9ccdb;stroke-miterlimit:10" />
		<line
   stroke-miterlimit="10"
   x1="192"
   y1="0"
   x2="192"
   y2="512"
   id="line46"
   style="fill:none;stroke:#a9ccdb;stroke-miterlimit:10" />
		<line
   stroke-miterlimit="10"
   x1="224"
   y1="0"
   x2="224"
   y2="512"
   id="line48"
   style="fill:none;stroke:#a9ccdb;stroke-miterlimit:10" />
		<line
   stroke-miterlimit="10"
   x1="256"
   y1="0"
   x2="256"
   y2="512"
   id="line50"
   style="fill:none;stroke:#a9ccdb;stroke-miterlimit:10" />
		<line
   stroke-miterlimit="10"
   x1="288"
   y1="0"
   x2="288"
   y2="512"
   id="line52"
   style="fill:none;stroke:#a9ccdb;stroke-miterlimit:10" />
		<line
   stroke-miterlimit="10"
   x1="320"
   y1="0"
   x2="320"
   y2="512"
   id="line54"
   style="fill:none;stroke:#a9ccdb;stroke-miterlimit:10" />
		<line
   stroke-miterlimit="10"
   x1="352"
   y1="0"
   x2="352"
   y2="512"
   id="line56"
   style="fill:none;stroke:#a9ccdb;stroke-miterlimit:10" />
		<line
   stroke-miterlimit="10"
   x1="384"
   y1="0"
   x2="384"
   y2="512"
   id="line58"
   style="fill:none;stroke:#a9ccdb;stroke-miterlimit:10" />
		<line
   stroke-miterlimit="10"
   x1="416"
   y1="0"
   x2="416"
   y2="512"
   id="line60"
   style="fill:none;stroke:#a9ccdb;stroke-miterlimit:10" />
		<line
   stroke-miterlimit="10"
   x1="448"
   y1="0"
   x2="448"
   y2="512"
   id="line62"
   style="fill:none;stroke:#a9ccdb;stroke-miterlimit:10" />
		<line
   stroke-miterlimit="10"
   x1="480"
   y1="0"
   x2="480"
   y2="512"
   id="line64"
   style="fill:none;stroke:#a9ccdb;stroke-miterlimit:10" />
	</g>

<path
   style="fill:#592002;fill-opacity:0.70869565"
   d="m 307.85912,179.34556 c -11.32297,21.59759 -10.34901,43.64974 -14.09587,65.08842 -6.08649,25.11558 -9.43096,46.54055 -7.50272,70.95101 0.18366,20.53708 -3.09813,38.19183 -5.33711,55.83305 -7.50365,25.31147 5.28806,55.11774 0.97074,77.45046 -4.27511,18.20863 4.90141,80.05692 -7.07032,88.68885 -9.97563,10.69412 -54.22322,10.96697 -64.54897,6.84338 -8.95939,-3.57793 -15.68361,-0.8362 -18.08218,-5.61913 -3.57291,-8.97166 -0.83425,-15.9105 -2.95559,-20.5317 -0.78072,-1.70075 -2.8663,-3.73417 -5.39193,-4.66437 -3.46619,-2.15582 -9.69879,-2.05571 -16.6803,-1.76205 -7.10891,-0.99918 -11.31154,1.35397 -18.21776,0.61961 -12.44967,-1.57508 -20.68188,0.62582 -34.88062,-0.43565 -2.6854,0.17203 -7.97917,0.39704 -13.1539,0.79862 -5.833193,0.45268 -11.861905,-0.25739 -13.485939,0.82106 -1.658843,1.10156 -2.879853,4.02119 -4.098368,5.68761 -1.958106,7.57666 -3.73823,9.88576 -9.382789,11.98395 -2.949446,1.1005 -5.009517,4.08374 -5.318722,7.48714 -0.287721,3.13454 -2.019337,5.92729 -2.353129,10.0669 -0.63657,7.89461 -0.193872,16.90406 -0.284559,24.3092 -0.370911,8.48574 3.126684,10.89987 4.666406,12.81891 2.545188,3.17221 4.546838,2.58848 10.298241,8.13198 1.487667,1.52539 1.64578,3.75668 1.302829,6.14797 -0.641923,4.47593 2.509161,9.51243 3.789306,11.5297 2.835894,5.93543 0.574227,6.82122 3.727663,9.06987 2.043235,1.45698 4.030471,3.48614 5.802766,7.83179 4.640755,11.37911 7.890935,37.76805 12.698585,49.5663 1.20478,2.95659 3.54225,4.00414 6.11259,4.66962 0.65083,6.41651 9.91091,19.27209 9.73615,22.06315 -0.41066,4.40223 -0.59838,8.42907 0.38163,10.47328 4.01601,8.377 8.23133,16.45776 12.71847,24.04547 1.51792,2.56679 4.39964,3.47792 7.694,3.87054 4.84641,4.5983 15.86417,19.73123 15.75664,21.86926 -0.24455,3.02272 -0.0872,5.54721 1.15201,6.75638 1.78236,1.73919 4.56821,2.62415 7.64168,3.22305 1.78991,7.27971 13.90165,13.76522 14.02561,17.09303 -0.0365,2.9665 3.36891,5.69414 3.97724,7.60538 4.2965,8.06579 16.23952,13.52834 23.06842,14.52219 15.99889,3.36087 47.80199,4.4857 61.22824,1.93173 19.14516,-3.64184 30.44743,-6.85178 49.93206,-10.28424 35.50849,1.06773 73.87079,-3.19716 108.13205,-2.09074 31.06247,1.00311 60.40585,-2.93296 80.55298,5.65423 11.03352,8.19335 11.4501,15.26459 13.78851,22.68217 5.48567,11.34789 16.29568,25.25324 24.70286,33.18054 17.07259,8.58776 38.03996,24.02987 58.24927,24.06915 23.0451,-1.82221 38.97178,5.11581 54.24043,-13.83562 5.50502,-11.905 14.32688,-2.45919 20.44578,-13.11321 6.42635,-11.41617 -7.66292,-27.00172 3.08846,-46.40867 4.34302,-8.02509 6.03403,-13.49636 5.75733,-23.4052 -0.69663,-13.92863 1.76033,-65.56213 0.95738,-79.24751 -0.41246,-7.27623 -0.29771,-13.17181 0.39,-18.28959 1.65612,-5.99397 11.61373,-9.34569 14.18644,-17.36602 3.70854,-11.56122 -1.78523,-22.09578 1.6563,-32.73424 0.84666,-2.6172 -0.75075,-12.74393 1.08788,-15.07672 1.43261,-1.81765 1.13649,-5.6246 0.40152,-9.21273 -0.66948,-3.26839 -0.23182,-5.37439 -0.65469,-6.61084 0.80885,-2.40491 2.06996,-4.47241 5.24437,-5.19168 4.17292,-0.94551 9.10968,-1.25619 11.44493,-3.09207 2.83159,-2.22609 2.29047,-6.43086 2.34308,-10.65164 0.0286,-2.2926 3.00658,-4.58992 4.02113,-6.57744 1.28087,-2.50922 0.82752,-5.01076 3.22771,-7.50737 2.81671,-2.92986 2.27587,-6.54595 3.75721,-9.46719 2.13395,-4.20822 -2.68687,-0.0104 5.44454,-9.85592 2.21006,-2.67596 2.41406,-6.87223 3.78504,-10.32388 1.90205,-4.7887 8.41416,-11.68264 9.72067,-16.53963 1.93949,-8.95972 8.17935,-17.83564 9.05802,-27.28936 1.81804,-13.0292 -5.19476,-25.36193 -2.24985,-37.16103 2.01161,-8.08487 3.24972,-15.88649 8.545,-21.9329 2.59292,-2.97588 4.90635,-6.02674 6.20797,-10.4858 6.71296,-22.997 4.08489,-52.3166 2.66614,-75.18588 -1.42431,-22.95894 -2.3176,-57.3084 -1.1383,-86.23126 0.98926,-14.62855 2.66041,-21.68713 -1.34457,-35.31674 -4.08318,-19.58154 -8.63745,-20.83303 -22.5803,-34.83671 -5.92169,-6.0738 -13.27738,-18.51198 -25.06776,-25.75685 -14.67429,-9.01696 -18.87446,-9.36166 -32.06212,-11.47253 -10.41015,-1.66628 -33.37702,-1.66926 -39.81417,1.70214 -12.92531,8.37459 -15.66414,6.78266 -15.29734,12.98297 -1.12399,12.76899 -0.43777,23.49963 1.51072,35.32599 5.96761,15.82824 -0.0647,26.38419 -0.93706,41.50912 -1.16447,20.98932 17.00879,32.53597 18.32441,56.92368 0.62498,11.58528 1.20208,23.0946 1.41991,34.09147 0.31383,15.84338 -7.99648,29.37913 -13.67855,41.2257 -1.66653,3.47456 -1.71986,10.27162 -2.65031,13.47117 -0.95897,2.75985 -1.31622,6.94415 -0.92667,15.3455 0.24796,5.34753 0.23649,10.99862 -0.7124,15.88488 -1.1222,5.77875 -4.3155,12.02163 -5.325,14.32217 -2.44923,5.58149 -6.48911,3.1987 -9.24885,9.72894 -2.10057,4.97046 -6.11354,5.83234 -6.80718,11.96109 -0.59111,5.22278 -1.29005,10.74472 -3.15126,16.3589 -1.6861,4.43342 -5.23256,8.37722 -8.49205,12.25802 -3.57245,4.2534 -4.02595,7.04401 -4.08187,11.70774 -0.043,4.16763 -2.73316,10.06643 -2.70012,14.55154 0.064,8.68864 -0.0635,17.27757 -1.67714,23.07242 -1.65068,5.92787 -0.59994,11.86732 -0.69111,17.15072 -0.13462,7.8012 -1.12177,14.17205 -3.62882,16.96329 -3.16606,3.50379 -13.44095,4.81044 -21.24772,3.893 -5.37741,-0.63195 -10.93549,-1.33194 -13.06385,-0.74877 -4.83218,1.25957 -8.15335,0.16301 -13.89855,0.89276 -14.80291,1.88023 -60.8611,0.79994 -93.57482,-3.567 -4.51768,-0.60306 -6.78505,-3.88783 -11.46822,-2.90358 -3.68982,1.34683 -9.16337,-1.17328 -12.51795,-4.61912 -3.76636,-3.86883 -8.178,-4.74326 -12.21385,-6.78324 -4.73595,-0.66132 -5.23525,-4.96757 -7.58869,-6.0545 -4.37825,-2.0221 -4.18495,-1.43641 -5.68604,-5.63812 -0.55621,-1.5569 -5.31598,-3.29498 -6.13421,-5.23762 -2.8065,-5.73795 -9.86872,-5.93686 -10.2088,-14.53192 -0.49672,-13.13877 -4.27395,-50.48166 -1.9388,-82.99843 9.29788,-11.68125 13.48797,-18.44887 13.96489,-31.52086 3.10542,-10.45995 4.54688,-21.77458 6.4982,-31.7651 0.76031,-9.35884 3.06904,-18.65622 5.63808,-26.91301 5.2153,-12.87007 5.36818,-25.75621 7.21014,-38.32281 0.7203,-4.92336 1.36489,-9.75804 1.12394,-14.65394 -0.30666,-5.6341 -1.51029,-11.32768 -2.87103,-16.69604 -1.8622,-5.42935 5.2949,-8.38599 4.66319,-13.23186 -1.52395,-11.69032 -2.0213,-24.34715 0.38563,-36.62532 2.17929,-11.05846 -1.6424,-21.8271 -1.4825,-31.29969 0.23952,-18.64696 -1.81401,-23.67142 -7.16064,-35.55689 -4.26547,-9.48199 -7.54641,-18.42722 -7.29088,-19.87838 -0.41986,-2.47432 -2.00624,-5.63286 -4.1189,-8.83145 -1.7324,-2.62245 -3.81874,-5.2725 -5.90588,-7.59386 -2.73091,-3.03742 -5.46319,-5.5129 -7.40594,-6.63072 -23.43552,-12.31522 -27.51912,8.42804 -55.74448,4.65765 -11.8924,-1.32467 -17.86366,1.33171 -21.37048,6.31498 -4.96089,7.04954 -4.98992,18.75568 -9.87297,30.43555 z"
   id="path3758"
   inkscape:connector-curvature="0"
   sodipodi:nodetypes="ccccccscsccccsscccscscscsssccssccsccccscsccccccccccsssscssssssssccccsscccssccccssscssssscscssscscsscscsscccccccccsccscssccscc" /></svg>