<?xml version="1.0" encoding="UTF-8" standalone="no"?>
<svg
   xmlns:dc="http://purl.org/dc/elements/1.1/"
   xmlns:cc="http://creativecommons.org/ns#"
   xmlns:rdf="http://www.w3.org/1999/02/22-rdf-syntax-ns#"
   xmlns:svg="http://www.w3.org/2000/svg"
   xmlns="http://www.w3.org/2000/svg"
   xmlns:sodipodi="http://sodipodi.sourceforge.net/DTD/sodipodi-0.dtd"
   xmlns:inkscape="http://www.inkscape.org/namespaces/inkscape"
   version="1.1"
   id="Layer_1"
   x="0px"
   y="0px"
   width="1000"
   height="1024"
   viewBox="0 0 1000 1024"
   enable-background="new 0 0 512 512"
   xml:space="preserve"
   inkscape:version="0.48.0 r9654"
   sodipodi:docname="hethebrew-x5d7.svg"><title
   id="title3743">Sinai 357</title><metadata
   id="metadata72"><rdf:RDF><cc:Work
       rdf:about=""><dc:format>image/svg+xml</dc:format><dc:type
         rdf:resource="http://purl.org/dc/dcmitype/StillImage" /><dc:title>Sinai 357</dc:title><dc:date>2017</dc:date><dc:creator><cc:Agent><dc:title>Celeste Claire Horner</dc:title></cc:Agent></dc:creator><dc:publisher><cc:Agent><dc:title>beitdina.net</dc:title></cc:Agent></dc:publisher></cc:Work></rdf:RDF></metadata><defs
   id="defs70" /><sodipodi:namedview
   pagecolor="#ffffff"
   bordercolor="#666666"
   borderopacity="1"
   objecttolerance="10"
   gridtolerance="10"
   guidetolerance="10"
   inkscape:pageopacity="0"
   inkscape:pageshadow="2"
   inkscape:window-width="1152"
   inkscape:window-height="814"
   id="namedview68"
   showgrid="false"
   inkscape:zoom="0.36045873"
   inkscape:cx="-12.064814"
   inkscape:cy="337.91587"
   inkscape:window-x="-8"
   inkscape:window-y="-8"
   inkscape:window-maximized="1"
   inkscape:current-layer="Layer_1"
   inkscape:snap-center="true" />
   
	<g
   id="Grid"
   transform="matrix(1.951787,0,0,2.0005106,3.2501362,4.7867761)">
		<rect
   x="0"
   stroke-miterlimit="10"
   width="512"
   height="512"
   id="rect4"
   y="0"
   style="fill:none;stroke:#a9ccdb;stroke-miterlimit:10" />
		<line
   stroke-miterlimit="10"
   x1="0"
   y1="32"
   x2="512"
   y2="32"
   id="line6"
   style="fill:none;stroke:#a9ccdb;stroke-miterlimit:10" />
		<line
   stroke-miterlimit="10"
   x1="0"
   y1="64"
   x2="512"
   y2="64"
   id="line8"
   style="fill:none;stroke:#a9ccdb;stroke-miterlimit:10" />
		<line
   stroke-miterlimit="10"
   x1="0"
   y1="96"
   x2="512"
   y2="96"
   id="line10"
   style="fill:none;stroke:#a9ccdb;stroke-miterlimit:10" />
		<line
   stroke-miterlimit="10"
   x1="0"
   y1="128"
   x2="512"
   y2="128"
   id="line12"
   style="fill:none;stroke:#a9ccdb;stroke-miterlimit:10" />
		<line
   stroke-miterlimit="10"
   x1="0"
   y1="160"
   x2="512"
   y2="160"
   id="line14"
   style="fill:none;stroke:#a9ccdb;stroke-miterlimit:10" />
		<line
   stroke-miterlimit="10"
   x1="0"
   y1="192"
   x2="512"
   y2="192"
   id="line16"
   style="fill:none;stroke:#a9ccdb;stroke-miterlimit:10" />
		<line
   stroke-miterlimit="10"
   x1="0"
   y1="224"
   x2="512"
   y2="224"
   id="line18"
   style="fill:none;stroke:#a9ccdb;stroke-miterlimit:10" />
		<line
   stroke-miterlimit="10"
   x1="0"
   y1="256"
   x2="512"
   y2="256"
   id="line20"
   style="fill:none;stroke:#a9ccdb;stroke-miterlimit:10" />
		<line
   stroke-miterlimit="10"
   x1="0"
   y1="288"
   x2="512"
   y2="288"
   id="line22"
   style="fill:none;stroke:#a9ccdb;stroke-miterlimit:10" />
		<line
   stroke-miterlimit="10"
   x1="0"
   y1="320"
   x2="512"
   y2="320"
   id="line24"
   style="fill:none;stroke:#a9ccdb;stroke-miterlimit:10" />
		<line
   stroke-miterlimit="10"
   x1="0"
   y1="352"
   x2="512"
   y2="352"
   id="line26"
   style="fill:none;stroke:#a9ccdb;stroke-miterlimit:10" />
		<line
   stroke-miterlimit="10"
   x1="0"
   y1="384"
   x2="512"
   y2="384"
   id="line28"
   style="fill:none;stroke:#a9ccdb;stroke-miterlimit:10" />
		<line
   stroke-miterlimit="10"
   x1="0"
   y1="416"
   x2="512"
   y2="416"
   id="line30"
   style="fill:none;stroke:#a9ccdb;stroke-miterlimit:10" />
		<line
   stroke-miterlimit="10"
   x1="0"
   y1="448"
   x2="512"
   y2="448"
   id="line32"
   style="fill:none;stroke:#ff0000;stroke-miterlimit:10" />
		<line
   stroke-miterlimit="10"
   x1="0"
   y1="480"
   x2="512"
   y2="480"
   id="line34"
   style="fill:none;stroke:#a9ccdb;stroke-miterlimit:10" />
		<line
   stroke-miterlimit="10"
   x1="32"
   y1="0"
   x2="32"
   y2="512"
   id="line36"
   style="fill:none;stroke:#a9ccdb;stroke-miterlimit:10" />
		<line
   stroke-miterlimit="10"
   x1="64"
   y1="0"
   x2="64"
   y2="512"
   id="line38"
   style="fill:none;stroke:#a9ccdb;stroke-miterlimit:10" />
		<line
   stroke-miterlimit="10"
   x1="96"
   y1="0"
   x2="96"
   y2="512"
   id="line40"
   style="fill:none;stroke:#a9ccdb;stroke-miterlimit:10" />
		<line
   stroke-miterlimit="10"
   x1="128"
   y1="0"
   x2="128"
   y2="512"
   id="line42"
   style="fill:none;stroke:#a9ccdb;stroke-miterlimit:10" />
		<line
   stroke-miterlimit="10"
   x1="160"
   y1="0"
   x2="160"
   y2="512"
   id="line44"
   style="fill:none;stroke:#a9ccdb;stroke-miterlimit:10" />
		<line
   stroke-miterlimit="10"
   x1="192"
   y1="0"
   x2="192"
   y2="512"
   id="line46"
   style="fill:none;stroke:#a9ccdb;stroke-miterlimit:10" />
		<line
   stroke-miterlimit="10"
   x1="224"
   y1="0"
   x2="224"
   y2="512"
   id="line48"
   style="fill:none;stroke:#a9ccdb;stroke-miterlimit:10" />
		<line
   stroke-miterlimit="10"
   x1="256"
   y1="0"
   x2="256"
   y2="512"
   id="line50"
   style="fill:none;stroke:#a9ccdb;stroke-miterlimit:10" />
		<line
   stroke-miterlimit="10"
   x1="288"
   y1="0"
   x2="288"
   y2="512"
   id="line52"
   style="fill:none;stroke:#a9ccdb;stroke-miterlimit:10" />
		<line
   stroke-miterlimit="10"
   x1="320"
   y1="0"
   x2="320"
   y2="512"
   id="line54"
   style="fill:none;stroke:#a9ccdb;stroke-miterlimit:10" />
		<line
   stroke-miterlimit="10"
   x1="352"
   y1="0"
   x2="352"
   y2="512"
   id="line56"
   style="fill:none;stroke:#a9ccdb;stroke-miterlimit:10" />
		<line
   stroke-miterlimit="10"
   x1="384"
   y1="0"
   x2="384"
   y2="512"
   id="line58"
   style="fill:none;stroke:#a9ccdb;stroke-miterlimit:10" />
		<line
   stroke-miterlimit="10"
   x1="416"
   y1="0"
   x2="416"
   y2="512"
   id="line60"
   style="fill:none;stroke:#a9ccdb;stroke-miterlimit:10" />
		<line
   stroke-miterlimit="10"
   x1="448"
   y1="0"
   x2="448"
   y2="512"
   id="line62"
   style="fill:none;stroke:#a9ccdb;stroke-miterlimit:10" />
		<line
   stroke-miterlimit="10"
   x1="480"
   y1="0"
   x2="480"
   y2="512"
   id="line64"
   style="fill:none;stroke:#a9ccdb;stroke-miterlimit:10" />
	</g>
	

<path
   style="fill:#ee4437;fill-opacity:0.59565214"
   d="m 205.59993,312.27628 c -1.3142,19.62708 5.9063,22.65126 4.2075,41.09202 -1.4741,16.21675 -2.2472,31.94778 -0.7473,46.35715 1.3231,12.00399 1.9098,23.87379 1.8252,34.17321 -2.2083,32.10568 -27.74149,77.30536 -37.39019,108.07286 -17.3321,35.71464 -4.70561,79.16114 -11.75041,137.3208 -9.1192,32.22353 -5.38707,84.14619 -0.0631,123.05914 4.2713,31.21917 8.77907,50.8112 25.69517,71.90775 12.0303,15.00341 30.6562,27.75976 49.2065,36.61662 11.8143,5.64071 21.1245,10.52424 36.68,10.73284 8.8003,-0.60697 47.05696,2.39527 53.08026,-16.9598 10.20184,-32.70041 -2.8889,-96.53896 6.21819,-106.96102 12.98961,-11.5571 17.54307,-5.64116 34.27076,-5.5344 6.86966,0.64458 44.41645,2.39386 50.58222,1.44444 17.66988,1.20924 45.57374,-5.9141 60.94024,2.99942 8.89574,17.12804 0.43032,32.04526 3.56261,45.76748 2.64161,6.78514 4.44692,12.92822 6.72632,18.63763 2.48181,7.72218 6.66861,12.58791 11.25417,16.93714 4.51199,4.27945 9.41006,8.05884 13.44985,13.56728 3.22497,4.4261 5.98546,8.84331 9.28529,11.49406 5.303,4.09399 20.11049,14.67582 27.99623,15.91588 17.72979,2.78807 29.48048,3.63706 39.44582,1.6224 10.52254,-2.12725 21.82893,-7.44723 33.30826,-17.04845 6.62223,-2.71811 10.33052,-7.98786 15.85207,-11.09623 4.40821,-1.57975 6.57515,-3.76721 8.59299,-6.89087 -1.28833,-12.42402 -3.70922,-46.22168 -3.24279,-59.07916 0.60195,-16.59318 1.39223,-32.96426 -0.91474,-47.60829 -3.21331,-19.73663 -1.21691,-43.5936 -1.81575,-61.29957 -0.60813,-33.42321 -0.33892,-30.89369 5.63736,-62.34692 5.05551,-26.60721 -4.04122,-75.10171 1.112,-86.40618 10.05647,-22.0606 20.866,-39.62468 24.02116,-57.68033 15.02863,-27.98549 10.87865,-63.13941 14.09836,-93.40861 -0.51051,-24.9878 -4.57815,-53.91052 -8.98556,-76.66774 -7.15431,-34.80619 -33.69522,-31.24632 -79.56011,-37.61319 -29.46656,-4.09048 -37.09395,0.65317 -51.95969,10.93896 -17.82859,12.33584 -15.01989,40.01573 -16.07088,88.94353 -0.4531,21.09363 9.41725,78.76325 -0.54532,104.14438 -7.68353,19.57497 -11.45148,17.02618 -15.6433,25.0552 -2.38038,13.22814 -1.88811,41.50078 -3.42843,54.12431 -1.70367,13.96233 -4.19696,12.18828 -10.3633,24.95513 -7.55472,5.4874 -13.50336,10.98559 -17.30269,14.3348 -6.40232,5.6438 -9.2532,7.73709 -22.00248,11.99435 -37.85066,-0.50007 -78.21757,-3.43413 -113.09374,-2.2727 -12.73122,0.88106 -12.20209,5.04717 -15.87764,0.54115 -2.77601,-3.88968 -7.43714,-16.44669 -7.80664,-24.84661 -1.27165,-28.90832 15.66977,-75.07163 20.20667,-125.75369 -2.23759,-63.2406 5.37361,-135.87741 -11.61289,-178.79956 -1.29199,-24.2336 -24.60738,-20.72657 -32.52218,-28.14752 -9.9115,-23.00747 1.6351,-27.23561 -27.4398,-25.92335 -7.2556,0.33659 -14.9721,0.89585 -21.967,1.3658 -23.5549,-2.35724 -17.3191,9.58049 -24.7216,23.89783 -5.7627,10.32702 -18.4704,15.59465 -17.7948,19.68384 z"
   id="path3762-4"
   inkscape:connector-curvature="0"
   sodipodi:nodetypes="ccccccsssccccccccsccsscccsccsscccsssscscscccscccccccc" /></svg>