<?xml version="1.0" encoding="UTF-8" standalone="no"?>
<svg
   xmlns:dc="http://purl.org/dc/elements/1.1/"
   xmlns:cc="http://creativecommons.org/ns#"
   xmlns:rdf="http://www.w3.org/1999/02/22-rdf-syntax-ns#"
   xmlns:svg="http://www.w3.org/2000/svg"
   xmlns="http://www.w3.org/2000/svg"
   xmlns:sodipodi="http://sodipodi.sourceforge.net/DTD/sodipodi-0.dtd"
   xmlns:inkscape="http://www.inkscape.org/namespaces/inkscape"
   version="1.1"
   id="Layer_1"
   x="0px"
   y="0px"
   width="1024"
   height="1024"
   viewBox="0 0 1024 1024"
   enable-background="new 0 0 512 512"
   xml:space="preserve"
   inkscape:version="0.48.0 r9654"
   sodipodi:docname="kafhebrew-x5db.svg"><title
   id="title3743">Sinai 357</title><metadata
   id="metadata72"><rdf:RDF><cc:Work
       rdf:about=""><dc:format>image/svg+xml</dc:format><dc:type
         rdf:resource="http://purl.org/dc/dcmitype/StillImage" /><dc:title>Sinai 357</dc:title><dc:date>2017</dc:date><dc:creator><cc:Agent><dc:title>Celeste Claire Horner</dc:title></cc:Agent></dc:creator><dc:publisher><cc:Agent><dc:title>beitdina.net</dc:title></cc:Agent></dc:publisher></cc:Work></rdf:RDF></metadata><defs
   id="defs70" /><sodipodi:namedview
   pagecolor="#ffffff"
   bordercolor="#666666"
   borderopacity="1"
   objecttolerance="10"
   gridtolerance="10"
   guidetolerance="10"
   inkscape:pageopacity="0"
   inkscape:pageshadow="2"
   inkscape:window-width="1152"
   inkscape:window-height="814"
   id="namedview68"
   showgrid="false"
   inkscape:zoom="0.62469926"
   inkscape:cx="713.49242"
   inkscape:cy="583.52303"
   inkscape:window-x="-8"
   inkscape:window-y="-8"
   inkscape:window-maximized="1"
   inkscape:current-layer="Layer_1" />
   
	<g
   id="Grid"
   transform="matrix(2.0004581,0,0,2.0004578,0.50019527,4.813853)">
		<rect
   x="0"
   stroke-miterlimit="10"
   width="512"
   height="512"
   id="rect4"
   y="0"
   style="fill:none;stroke:#a9ccdb;stroke-miterlimit:10" />
		<line
   stroke-miterlimit="10"
   x1="0"
   y1="32"
   x2="512"
   y2="32"
   id="line6"
   style="fill:none;stroke:#a9ccdb;stroke-miterlimit:10" />
		<line
   stroke-miterlimit="10"
   x1="0"
   y1="64"
   x2="512"
   y2="64"
   id="line8"
   style="fill:none;stroke:#a9ccdb;stroke-miterlimit:10" />
		<line
   stroke-miterlimit="10"
   x1="0"
   y1="96"
   x2="512"
   y2="96"
   id="line10"
   style="fill:none;stroke:#a9ccdb;stroke-miterlimit:10" />
		<line
   stroke-miterlimit="10"
   x1="0"
   y1="128"
   x2="512"
   y2="128"
   id="line12"
   style="fill:none;stroke:#a9ccdb;stroke-miterlimit:10" />
		<line
   stroke-miterlimit="10"
   x1="0"
   y1="160"
   x2="512"
   y2="160"
   id="line14"
   style="fill:none;stroke:#a9ccdb;stroke-miterlimit:10" />
		<line
   stroke-miterlimit="10"
   x1="0"
   y1="192"
   x2="512"
   y2="192"
   id="line16"
   style="fill:none;stroke:#a9ccdb;stroke-miterlimit:10" />
		<line
   stroke-miterlimit="10"
   x1="0"
   y1="224"
   x2="512"
   y2="224"
   id="line18"
   style="fill:none;stroke:#a9ccdb;stroke-miterlimit:10" />
		<line
   stroke-miterlimit="10"
   x1="0"
   y1="256"
   x2="512"
   y2="256"
   id="line20"
   style="fill:none;stroke:#a9ccdb;stroke-miterlimit:10" />
		<line
   stroke-miterlimit="10"
   x1="0"
   y1="288"
   x2="512"
   y2="288"
   id="line22"
   style="fill:none;stroke:#a9ccdb;stroke-miterlimit:10" />
		<line
   stroke-miterlimit="10"
   x1="0"
   y1="320"
   x2="512"
   y2="320"
   id="line24"
   style="fill:none;stroke:#a9ccdb;stroke-miterlimit:10" />
		<line
   stroke-miterlimit="10"
   x1="0"
   y1="352"
   x2="512"
   y2="352"
   id="line26"
   style="fill:none;stroke:#a9ccdb;stroke-miterlimit:10" />
		<line
   stroke-miterlimit="10"
   x1="0"
   y1="384"
   x2="512"
   y2="384"
   id="line28"
   style="fill:none;stroke:#a9ccdb;stroke-miterlimit:10" />
		<line
   stroke-miterlimit="10"
   x1="0"
   y1="416"
   x2="512"
   y2="416"
   id="line30"
   style="fill:none;stroke:#a9ccdb;stroke-miterlimit:10" />
		<line
   stroke-miterlimit="10"
   x1="0"
   y1="448"
   x2="512"
   y2="448"
   id="line32"
   style="fill:none;stroke:#ff0000;stroke-miterlimit:10" />
		<line
   stroke-miterlimit="10"
   x1="0"
   y1="480"
   x2="512"
   y2="480"
   id="line34"
   style="fill:none;stroke:#a9ccdb;stroke-miterlimit:10" />
		<line
   stroke-miterlimit="10"
   x1="32"
   y1="0"
   x2="32"
   y2="512"
   id="line36"
   style="fill:none;stroke:#a9ccdb;stroke-miterlimit:10" />
		<line
   stroke-miterlimit="10"
   x1="64"
   y1="0"
   x2="64"
   y2="512"
   id="line38"
   style="fill:none;stroke:#a9ccdb;stroke-miterlimit:10" />
		<line
   stroke-miterlimit="10"
   x1="96"
   y1="0"
   x2="96"
   y2="512"
   id="line40"
   style="fill:none;stroke:#a9ccdb;stroke-miterlimit:10" />
		<line
   stroke-miterlimit="10"
   x1="128"
   y1="0"
   x2="128"
   y2="512"
   id="line42"
   style="fill:none;stroke:#a9ccdb;stroke-miterlimit:10" />
		<line
   stroke-miterlimit="10"
   x1="160"
   y1="0"
   x2="160"
   y2="512"
   id="line44"
   style="fill:none;stroke:#a9ccdb;stroke-miterlimit:10" />
		<line
   stroke-miterlimit="10"
   x1="192"
   y1="0"
   x2="192"
   y2="512"
   id="line46"
   style="fill:none;stroke:#a9ccdb;stroke-miterlimit:10" />
		<line
   stroke-miterlimit="10"
   x1="224"
   y1="0"
   x2="224"
   y2="512"
   id="line48"
   style="fill:none;stroke:#a9ccdb;stroke-miterlimit:10" />
		<line
   stroke-miterlimit="10"
   x1="256"
   y1="0"
   x2="256"
   y2="512"
   id="line50"
   style="fill:none;stroke:#a9ccdb;stroke-miterlimit:10" />
		<line
   stroke-miterlimit="10"
   x1="288"
   y1="0"
   x2="288"
   y2="512"
   id="line52"
   style="fill:none;stroke:#a9ccdb;stroke-miterlimit:10" />
		<line
   stroke-miterlimit="10"
   x1="320"
   y1="0"
   x2="320"
   y2="512"
   id="line54"
   style="fill:none;stroke:#a9ccdb;stroke-miterlimit:10" />
		<line
   stroke-miterlimit="10"
   x1="352"
   y1="0"
   x2="352"
   y2="512"
   id="line56"
   style="fill:none;stroke:#a9ccdb;stroke-miterlimit:10" />
		<line
   stroke-miterlimit="10"
   x1="384"
   y1="0"
   x2="384"
   y2="512"
   id="line58"
   style="fill:none;stroke:#a9ccdb;stroke-miterlimit:10" />
		<line
   stroke-miterlimit="10"
   x1="416"
   y1="0"
   x2="416"
   y2="512"
   id="line60"
   style="fill:none;stroke:#a9ccdb;stroke-miterlimit:10" />
		<line
   stroke-miterlimit="10"
   x1="448"
   y1="0"
   x2="448"
   y2="512"
   id="line62"
   style="fill:none;stroke:#a9ccdb;stroke-miterlimit:10" />
		<line
   stroke-miterlimit="10"
   x1="480"
   y1="0"
   x2="480"
   y2="512"
   id="line64"
   style="fill:none;stroke:#a9ccdb;stroke-miterlimit:10" />
	</g>
<path
   style="fill:#542e12"
   d="m 166.88833,130.59487 c -6.4375,0.39209 -11.7047,0.97949 -15.098,1.60631 -6.2008,1.38634 -5.7269,8.37458 -9.0152,12.61194 -4.1988,4.46745 -5.2678,7.50483 -4.3779,10.66018 0.7176,2.5443 2.709,5.16531 5.3602,8.67464 23.7041,27.43234 45.8034,55.69869 69.8031,81.0975 7.8052,8.85332 9.6408,8.30402 20.1413,8.65205 40.0845,1.32003 79.9306,0.29477 118.9431,-0.0265 15.6936,-0.12922 38.6231,-14.66478 54.0082,-13.45372 33.2897,2.62046 51.2248,26.82517 77.2433,37.00517 16.7674,11.23348 15.4538,17.88885 35.6535,18.11109 l 15.8941,0.17487 c 2.3089,-0.23236 3.7075,-0.0114 5.55,1.12366 l 7.9421,4.89272 c 2.7813,2.15924 4.2977,3.02108 7.1665,3.26304 4.9682,0.53488 6.237,3.6391 5.41,7.55003 -2.4055,10.4731 -1.8958,22.15078 -2.5159,32.0167 -2.8776,43.41728 -8.9498,82.98242 -19.4618,119.64804 -3.7478,13.07214 -18.5019,25.77576 -23.4347,38.15397 -13.5149,33.91331 -15.7193,64.76526 -39.7141,94.68153 -7.8322,9.68584 -30.9384,20.47764 -45.5235,31.73587 -15.5489,12.00225 -22.9229,24.19658 -42.1956,24.85718 -35.3062,7.84269 -50.4382,-17.70999 -82.0337,-29.35509 -42.4258,-13.07982 -90.5333,-15.82239 -130.3278,-18.40583 -18.0321,-1.13387 -38.3261,-1.34578 -54.5115,1.49728 -24.856297,4.55092 -27.031697,23.24765 -28.790797,55.18016 -1.1125,21.02761 8.428897,39.99662 8.958997,63.52015 0.3327,14.76624 -9.201797,34.50954 -7.463397,47.76394 3.5224,26.85588 13.113697,32.19578 21.316897,44.69752 6.6163,9.58015 12.4614,18.56437 21.3505,25.79594 9.2494,7.52454 19.4432,13.62539 29.9866,17.9855 14.4789,4.94043 26.9777,7.97327 38.2845,6.61777 10.6764,-1.27994 20.2899,-6.47257 29.5038,-17.66645 7.084,-8.74053 12.857,-19.05882 18.0412,-27.41666 6.9334,-10.06211 15.9421,-19.38551 21.6396,-22.04056 6.9881,-0.17797 14.3307,-1.45902 20.9997,-3.9026 8.6404,-3.16592 16.1502,-8.28329 20.2931,-15.48138 2.6655,-4.63755 5.6469,-9.8526 10.7199,-12.42624 4.5005,-2.28321 10.0106,0.0428 15.0549,2.1991 3.2523,1.92419 5.6152,2.07592 9.2982,2.1135 17.7936,0.15971 34.262,-0.46632 50.7863,-0.29216 4.2008,-0.57187 5.7326,1.34587 8.0712,3.9931 32.4909,33.85489 58.6125,77.25983 92.0097,99.13644 22.3668,11.39925 34.4956,20.72936 57.0799,13.57149 14.6102,-3.94195 32.7007,-19.0512 38.8676,-31.45121 3.2838,-2.17889 4.2378,-13.60048 5.1825,-14.61383 l 1.2344,-23.85285 c 0.6788,-13.11907 1.2372,-31.51983 1.2406,-40.8906 l 0,-11.39895 c -0.5463,-4.36963 0.7806,-8.68926 2.1341,-12.2359 0.8248,-2.14993 1.7906,-4.40397 2.8428,-6.68988 4.0539,-8.80699 9.391,-18.0871 12.8935,-23.70925 33.6682,-42.97264 62.4277,-90.48903 69.5148,-142.84663 0.5649,-14.78498 0.5844,-33.04843 0.043,-40.58543 -2.422,-16.73345 3.9629,-19.94715 6.1106,-34.00205 22.0443,-16.29174 31.8364,-67.57148 46.8683,-95.40273 4.5516,-7.48748 4.4739,-16.28451 5.2603,-24.11715 3.1675,-31.67435 3.1649,-58.28036 2.6108,-73.06457 0.1711,-7.16575 -0.6602,-14.29272 -5.3473,-19.36738 -5.8405,-6.24355 -15.4164,-10.85502 -22.4001,-17.69752 -11.1623,-11.31216 -23.6263,-20.82879 -33.1978,-32.29923 -10.7692,-13.08183 -21.2508,-28.08521 -33.1788,-35.97087 -21.8403,-6.80208 -51.7991,-14.82155 -72.8488,-15.92701 -10.4989,-0.46326 -20.5618,-0.75076 -27.5592,-5.30075 -5.5663,-2.90458 -8.6096,-7.42085 -12.1843,-12.05141 -8.656,-11.19237 -16.5096,-18.7303 -24.87,-26.58822 -7.9356,-8.1299 -7.4596,-7.51713 -18.9996,-7.51713 l -39.0346,0 c -15.1035,1.12048 -26.168,0.27093 -36.001,-1.41897 -15.2488,-4.18375 -19.5373,-7.01334 -33.7397,-11.52931 -6.5112,-2.11284 -12.2961,-5.32977 -18.9835,-11.53596 -19.3699,-23.39871 -58.5985,-15.70361 -84.8397,-16.84541 -28.0467,-1.1275 -46.8093,1.4498 -72.0496,11.6709 -17.8036,7.7169 -36.4394,10.38125 -51.6207,17.11808 z"
   id="path3769"
   inkscape:connector-curvature="0"
   sodipodi:nodetypes="cccscccssccccccccsscscccccsscscscccscsccccccccscccscccccccccccccccccccccccc" />
</svg>