<?xml version="1.0" encoding="UTF-8" standalone="no"?>
<svg
   xmlns:dc="http://purl.org/dc/elements/1.1/"
   xmlns:cc="http://creativecommons.org/ns#"
   xmlns:rdf="http://www.w3.org/1999/02/22-rdf-syntax-ns#"
   xmlns:svg="http://www.w3.org/2000/svg"
   xmlns="http://www.w3.org/2000/svg"
   xmlns:sodipodi="http://sodipodi.sourceforge.net/DTD/sodipodi-0.dtd"
   xmlns:inkscape="http://www.inkscape.org/namespaces/inkscape"
   version="1.1"
   id="Layer_1"
   x="0px"
   y="0px"
   width="800"
   height="1100"
   viewBox="0 0 800 1100"
   enable-background="new 0 0 512 512"
   xml:space="preserve"
   inkscape:version="0.48.0 r9654"
   sodipodi:docname="lamedhebrew-x5dc.svg"><title
   id="title3743">Sinai 357</title><metadata
   id="metadata72"><rdf:RDF><cc:Work
       rdf:about=""><dc:format>image/svg+xml</dc:format><dc:type
         rdf:resource="http://purl.org/dc/dcmitype/StillImage" /><dc:title>Sinai 357</dc:title><dc:date>2017</dc:date><dc:creator><cc:Agent><dc:title>Celeste Claire Horner</dc:title></cc:Agent></dc:creator><dc:publisher><cc:Agent><dc:title>beitdina.net</dc:title></cc:Agent></dc:publisher></cc:Work></rdf:RDF></metadata><defs
   id="defs70" /><sodipodi:namedview
   pagecolor="#ffffff"
   bordercolor="#666666"
   borderopacity="1"
   objecttolerance="10"
   gridtolerance="10"
   guidetolerance="10"
   inkscape:pageopacity="0"
   inkscape:pageshadow="2"
   inkscape:window-width="1152"
   inkscape:window-height="814"
   id="namedview68"
   showgrid="false"
   inkscape:zoom="0.3751856"
   inkscape:cx="412.70036"
   inkscape:cy="512.22687"
   inkscape:window-x="-8"
   inkscape:window-y="-8"
   inkscape:window-maximized="1"
   inkscape:current-layer="Layer_1" />
   
	<g
   id="Grid"
   transform="matrix(1.5531994,0,0,2.1460938,11.161585,6.1841231)">
		<rect
   x="0"
   stroke-miterlimit="10"
   width="512"
   height="512"
   id="rect4"
   y="0"
   style="fill:none;stroke:#a9ccdb;stroke-miterlimit:10" />
		<line
   stroke-miterlimit="10"
   x1="0"
   y1="32"
   x2="512"
   y2="32"
   id="line6"
   style="fill:none;stroke:#a9ccdb;stroke-miterlimit:10" />
		<line
   stroke-miterlimit="10"
   x1="0"
   y1="64"
   x2="512"
   y2="64"
   id="line8"
   style="fill:none;stroke:#a9ccdb;stroke-miterlimit:10" />
		<line
   stroke-miterlimit="10"
   x1="0"
   y1="96"
   x2="512"
   y2="96"
   id="line10"
   style="fill:none;stroke:#a9ccdb;stroke-miterlimit:10" />
		<line
   stroke-miterlimit="10"
   x1="0"
   y1="128"
   x2="512"
   y2="128"
   id="line12"
   style="fill:none;stroke:#a9ccdb;stroke-miterlimit:10" />
		<line
   stroke-miterlimit="10"
   x1="0"
   y1="160"
   x2="512"
   y2="160"
   id="line14"
   style="fill:none;stroke:#a9ccdb;stroke-miterlimit:10" />
		<line
   stroke-miterlimit="10"
   x1="0"
   y1="192"
   x2="512"
   y2="192"
   id="line16"
   style="fill:none;stroke:#a9ccdb;stroke-miterlimit:10" />
		<line
   stroke-miterlimit="10"
   x1="0"
   y1="224"
   x2="512"
   y2="224"
   id="line18"
   style="fill:none;stroke:#a9ccdb;stroke-miterlimit:10" />
		<line
   stroke-miterlimit="10"
   x1="0"
   y1="256"
   x2="512"
   y2="256"
   id="line20"
   style="fill:none;stroke:#a9ccdb;stroke-miterlimit:10" />
		<line
   stroke-miterlimit="10"
   x1="0"
   y1="288"
   x2="512"
   y2="288"
   id="line22"
   style="fill:none;stroke:#a9ccdb;stroke-miterlimit:10" />
		<line
   stroke-miterlimit="10"
   x1="0"
   y1="320"
   x2="512"
   y2="320"
   id="line24"
   style="fill:none;stroke:#a9ccdb;stroke-miterlimit:10" />
		<line
   stroke-miterlimit="10"
   x1="0"
   y1="352"
   x2="512"
   y2="352"
   id="line26"
   style="fill:none;stroke:#a9ccdb;stroke-miterlimit:10" />
		<line
   stroke-miterlimit="10"
   x1="0"
   y1="384"
   x2="512"
   y2="384"
   id="line28"
   style="fill:none;stroke:#a9ccdb;stroke-miterlimit:10" />
		<line
   stroke-miterlimit="10"
   x1="0"
   y1="416"
   x2="512"
   y2="416"
   id="line30"
   style="fill:none;stroke:#a9ccdb;stroke-miterlimit:10" />
		<line
   stroke-miterlimit="10"
   x1="0"
   y1="448"
   x2="512"
   y2="448"
   id="line32"
   style="fill:none;stroke:#ff0000;stroke-miterlimit:10" />
		<line
   stroke-miterlimit="10"
   x1="0"
   y1="480"
   x2="512"
   y2="480"
   id="line34"
   style="fill:none;stroke:#a9ccdb;stroke-miterlimit:10" />
		<line
   stroke-miterlimit="10"
   x1="32"
   y1="0"
   x2="32"
   y2="512"
   id="line36"
   style="fill:none;stroke:#a9ccdb;stroke-miterlimit:10" />
		<line
   stroke-miterlimit="10"
   x1="64"
   y1="0"
   x2="64"
   y2="512"
   id="line38"
   style="fill:none;stroke:#a9ccdb;stroke-miterlimit:10" />
		<line
   stroke-miterlimit="10"
   x1="96"
   y1="0"
   x2="96"
   y2="512"
   id="line40"
   style="fill:none;stroke:#a9ccdb;stroke-miterlimit:10" />
		<line
   stroke-miterlimit="10"
   x1="128"
   y1="0"
   x2="128"
   y2="512"
   id="line42"
   style="fill:none;stroke:#a9ccdb;stroke-miterlimit:10" />
		<line
   stroke-miterlimit="10"
   x1="160"
   y1="0"
   x2="160"
   y2="512"
   id="line44"
   style="fill:none;stroke:#a9ccdb;stroke-miterlimit:10" />
		<line
   stroke-miterlimit="10"
   x1="192"
   y1="0"
   x2="192"
   y2="512"
   id="line46"
   style="fill:none;stroke:#a9ccdb;stroke-miterlimit:10" />
		<line
   stroke-miterlimit="10"
   x1="224"
   y1="0"
   x2="224"
   y2="512"
   id="line48"
   style="fill:none;stroke:#a9ccdb;stroke-miterlimit:10" />
		<line
   stroke-miterlimit="10"
   x1="256"
   y1="0"
   x2="256"
   y2="512"
   id="line50"
   style="fill:none;stroke:#a9ccdb;stroke-miterlimit:10" />
		<line
   stroke-miterlimit="10"
   x1="288"
   y1="0"
   x2="288"
   y2="512"
   id="line52"
   style="fill:none;stroke:#a9ccdb;stroke-miterlimit:10" />
		<line
   stroke-miterlimit="10"
   x1="320"
   y1="0"
   x2="320"
   y2="512"
   id="line54"
   style="fill:none;stroke:#a9ccdb;stroke-miterlimit:10" />
		<line
   stroke-miterlimit="10"
   x1="352"
   y1="0"
   x2="352"
   y2="512"
   id="line56"
   style="fill:none;stroke:#a9ccdb;stroke-miterlimit:10" />
		<line
   stroke-miterlimit="10"
   x1="384"
   y1="0"
   x2="384"
   y2="512"
   id="line58"
   style="fill:none;stroke:#a9ccdb;stroke-miterlimit:10" />
		<line
   stroke-miterlimit="10"
   x1="416"
   y1="0"
   x2="416"
   y2="512"
   id="line60"
   style="fill:none;stroke:#a9ccdb;stroke-miterlimit:10" />
		<line
   stroke-miterlimit="10"
   x1="448"
   y1="0"
   x2="448"
   y2="512"
   id="line62"
   style="fill:none;stroke:#a9ccdb;stroke-miterlimit:10" />
		<line
   stroke-miterlimit="10"
   x1="480"
   y1="0"
   x2="480"
   y2="512"
   id="line64"
   style="fill:none;stroke:#a9ccdb;stroke-miterlimit:10" />
	</g>
	

<path
   style="fill:#6a5947"
   d="m 387.40716,108.61111 c 0.38561,13.12403 2.3945,31.08265 6.05162,43.2365 5.5129,18.32103 10.68556,25.95258 12.87697,41.78347 1.09575,8.29388 7.68097,16.41469 9.25081,28.947 0.69449,5.54426 -0.19418,11.55639 -1.70036,16.94094 -3.0579,14.60509 -9.60502,15.88859 -20.92374,14.75813 -12.50022,-1.28017 -22.70989,-4.56192 -34.22504,-0.86491 -6.49858,2.21666 -16.26969,1.66251 -21.69289,1.79847 -5.11668,0.36957 -4.80269,6.19592 -10.26103,8.58454 -18.32732,8.03054 -42.77645,34.61188 -51.53955,44.66991 -11.20389,13.39333 -15.5253,26.31975 -17.12052,39.77728 -0.663,7.15213 -0.18661,14.50283 -0.24413,23.50953 -0.0602,9.05008 -2.13779,16.10408 -2.33071,25.71642 -0.26438,6.17565 -3.11824,12.22901 -4.83257,18.4146 -19.78682,44.27658 -25.96825,89.98845 -42.94143,127.2754 -10.21989,42.85387 -36.38109,74.5415 -50.94807,115.13055 -1.74833,4.62738 -10.64983,9.15163 -11.90547,12.27851 -2.67501,6.6617 2.28032,10.72818 -5.28357,22.28235 -10.43406,17.14103 -14.4126,9.12081 -20.37442,20.55316 -6.55641,11.99255 -17.97962,35.71382 -24.118611,48.35708 -4.11151,8.46784 3.14724,14.23255 -4.63383,17.01413 -20.27891,6.79444 -23.87836,29.54059 -16.94839,51.2717 2.2581,7.08104 -3.40285,15.64167 -0.0934,23.48147 2.86272,6.78144 14.36351,13.02354 20.23025,17.30214 12.649401,9.22513 22.356131,6.23364 25.077421,10.17753 1.36956,1.98485 4.08044,10.31608 17.6072,19.64444 13.35247,9.20817 32.68294,16.21112 42.89806,22.21734 35.98666,21.15923 57.9602,8.32231 53.79032,-13.06448 -4.58871,-5.3354 27.37972,-16.88564 26.30273,-23.40998 -1.61237,-9.76533 2.73675,-22.2506 4.79075,-31.03472 1.21248,-10.5324 -3.9073,-22.25405 -0.53671,-36.79473 2.22451,-9.59691 -4.76019,-27.09888 -1.5608,-37.93612 14.12786,-47.85396 10.96249,-85.7715 20.48257,-146.64506 3.39206,-37.24968 19.38418,-77.94631 27.19698,-103.98487 3.32743,-14.22598 7.35445,-30.51345 10.13936,-45.3651 0.64744,-3.45274 4.25164,-10.0047 5.12263,-13.25825 2.41396,-4.51606 -1.03147,-6.19169 1.18196,-11.14924 7.29342,-16.33554 13.73099,-33.813 20.84677,-44.16367 9.84577,-13.54884 22.46675,-19.2277 20.6153,-43.23481 -1.48658,-16.13896 -0.0327,-16.30129 1.22879,-19.79583 7.50068,-8.96331 15.89799,2.01708 25.88815,-0.81549 15.7073,-4.45312 23.42516,1.50678 37.55169,-0.43575 10.44438,-2.63686 12.3259,4.96612 17.30927,7.72614 6.74032,6.09349 15.16874,-0.54406 22.90809,1.78918 9.74751,2.93832 27.56907,5.8648 37.23637,-2.87873 2.47115,-2.32855 4.627,-5.17351 6.41824,-8.6156 4.70587,-6.28452 3.24685,-14.50704 3.93361,-19.03374 0.63836,-4.20817 3.65042,-13.2627 1.9166,-17.15192 -2.15015,-4.82332 4.70089,-13.99134 0.73026,-20.31621 -8.81078,-13.84506 -1.44182,-30.17806 -6.39222,-47.19942 -3.36418,-11.56728 -23.89615,-34.40107 -27.07094,-46.74626 -2.27637,-8.85223 -7.38349,-18.74403 -12.00782,-26.18691 -7.03275,-11.3198 -2.08731,-24.72287 -7.38218,-34.42776 C 462.44612,125.03757 448.3765,103.84604 434.07,98.217124 401.61475,87.039814 405.02946,79.332084 387.40712,108.61111 z"
   id="path3764"
   inkscape:connector-curvature="0"
   sodipodi:nodetypes="cscsccccscccccccsccscsssssscscssccscscccsccsccsscsssscc" /></svg>