<?xml version="1.0" encoding="UTF-8" standalone="no"?>
<svg
   xmlns:dc="http://purl.org/dc/elements/1.1/"
   xmlns:cc="http://creativecommons.org/ns#"
   xmlns:rdf="http://www.w3.org/1999/02/22-rdf-syntax-ns#"
   xmlns:svg="http://www.w3.org/2000/svg"
   xmlns="http://www.w3.org/2000/svg"
   xmlns:sodipodi="http://sodipodi.sourceforge.net/DTD/sodipodi-0.dtd"
   xmlns:inkscape="http://www.inkscape.org/namespaces/inkscape"
   version="1.1"
   id="Layer_1"
   x="0px"
   y="0px"
   width="800"
   height="1100"
   viewBox="0 0 800 1100"
   enable-background="new 0 0 512 512"
   xml:space="preserve"
   inkscape:version="0.48.0 r9654"
   sodipodi:docname="lamedhebrew-x5dc.svg"><title
   id="title3743">Sinai 357</title><metadata
   id="metadata72"><rdf:RDF><cc:Work
       rdf:about=""><dc:format>image/svg+xml</dc:format><dc:type
         rdf:resource="http://purl.org/dc/dcmitype/StillImage" /><dc:title>Sinai 357</dc:title><dc:date>2017</dc:date><dc:creator><cc:Agent><dc:title>Celeste Claire Horner</dc:title></cc:Agent></dc:creator><dc:publisher><cc:Agent><dc:title>beitdina.net</dc:title></cc:Agent></dc:publisher></cc:Work></rdf:RDF></metadata><defs
   id="defs70" /><sodipodi:namedview
   pagecolor="#ffffff"
   bordercolor="#666666"
   borderopacity="1"
   objecttolerance="10"
   gridtolerance="10"
   guidetolerance="10"
   inkscape:pageopacity="0"
   inkscape:pageshadow="2"
   inkscape:window-width="1152"
   inkscape:window-height="814"
   id="namedview68"
   showgrid="false"
   inkscape:zoom="0.3751856"
   inkscape:cx="-199.46724"
   inkscape:cy="567.94918"
   inkscape:window-x="-8"
   inkscape:window-y="-8"
   inkscape:window-maximized="1"
   inkscape:current-layer="Layer_1" />
   
	<g
   id="Grid"
   transform="matrix(1.5531994,0,0,2.1460938,3.1655425,6.1841231)">
		<rect
   x="0"
   stroke-miterlimit="10"
   width="512"
   height="512"
   id="rect4"
   y="0"
   style="fill:none;stroke:#a9ccdb;stroke-miterlimit:10" />
		<line
   stroke-miterlimit="10"
   x1="0"
   y1="32"
   x2="512"
   y2="32"
   id="line6"
   style="fill:none;stroke:#a9ccdb;stroke-miterlimit:10" />
		<line
   stroke-miterlimit="10"
   x1="0"
   y1="64"
   x2="512"
   y2="64"
   id="line8"
   style="fill:none;stroke:#a9ccdb;stroke-miterlimit:10" />
		<line
   stroke-miterlimit="10"
   x1="0"
   y1="96"
   x2="512"
   y2="96"
   id="line10"
   style="fill:none;stroke:#a9ccdb;stroke-miterlimit:10" />
		<line
   stroke-miterlimit="10"
   x1="0"
   y1="128"
   x2="512"
   y2="128"
   id="line12"
   style="fill:none;stroke:#a9ccdb;stroke-miterlimit:10" />
		<line
   stroke-miterlimit="10"
   x1="0"
   y1="160"
   x2="512"
   y2="160"
   id="line14"
   style="fill:none;stroke:#a9ccdb;stroke-miterlimit:10" />
		<line
   stroke-miterlimit="10"
   x1="0"
   y1="192"
   x2="512"
   y2="192"
   id="line16"
   style="fill:none;stroke:#a9ccdb;stroke-miterlimit:10" />
		<line
   stroke-miterlimit="10"
   x1="0"
   y1="224"
   x2="512"
   y2="224"
   id="line18"
   style="fill:none;stroke:#a9ccdb;stroke-miterlimit:10" />
		<line
   stroke-miterlimit="10"
   x1="0"
   y1="256"
   x2="512"
   y2="256"
   id="line20"
   style="fill:none;stroke:#a9ccdb;stroke-miterlimit:10" />
		<line
   stroke-miterlimit="10"
   x1="0"
   y1="288"
   x2="512"
   y2="288"
   id="line22"
   style="fill:none;stroke:#a9ccdb;stroke-miterlimit:10" />
		<line
   stroke-miterlimit="10"
   x1="0"
   y1="320"
   x2="512"
   y2="320"
   id="line24"
   style="fill:none;stroke:#a9ccdb;stroke-miterlimit:10" />
		<line
   stroke-miterlimit="10"
   x1="0"
   y1="352"
   x2="512"
   y2="352"
   id="line26"
   style="fill:none;stroke:#a9ccdb;stroke-miterlimit:10" />
		<line
   stroke-miterlimit="10"
   x1="0"
   y1="384"
   x2="512"
   y2="384"
   id="line28"
   style="fill:none;stroke:#a9ccdb;stroke-miterlimit:10" />
		<line
   stroke-miterlimit="10"
   x1="0"
   y1="416"
   x2="512"
   y2="416"
   id="line30"
   style="fill:none;stroke:#a9ccdb;stroke-miterlimit:10" />
		<line
   stroke-miterlimit="10"
   x1="0"
   y1="448"
   x2="512"
   y2="448"
   id="line32"
   style="fill:none;stroke:#ff0000;stroke-miterlimit:10" />
		<line
   stroke-miterlimit="10"
   x1="0"
   y1="480"
   x2="512"
   y2="480"
   id="line34"
   style="fill:none;stroke:#a9ccdb;stroke-miterlimit:10" />
		<line
   stroke-miterlimit="10"
   x1="32"
   y1="0"
   x2="32"
   y2="512"
   id="line36"
   style="fill:none;stroke:#a9ccdb;stroke-miterlimit:10" />
		<line
   stroke-miterlimit="10"
   x1="64"
   y1="0"
   x2="64"
   y2="512"
   id="line38"
   style="fill:none;stroke:#a9ccdb;stroke-miterlimit:10" />
		<line
   stroke-miterlimit="10"
   x1="96"
   y1="0"
   x2="96"
   y2="512"
   id="line40"
   style="fill:none;stroke:#a9ccdb;stroke-miterlimit:10" />
		<line
   stroke-miterlimit="10"
   x1="128"
   y1="0"
   x2="128"
   y2="512"
   id="line42"
   style="fill:none;stroke:#a9ccdb;stroke-miterlimit:10" />
		<line
   stroke-miterlimit="10"
   x1="160"
   y1="0"
   x2="160"
   y2="512"
   id="line44"
   style="fill:none;stroke:#a9ccdb;stroke-miterlimit:10" />
		<line
   stroke-miterlimit="10"
   x1="192"
   y1="0"
   x2="192"
   y2="512"
   id="line46"
   style="fill:none;stroke:#a9ccdb;stroke-miterlimit:10" />
		<line
   stroke-miterlimit="10"
   x1="224"
   y1="0"
   x2="224"
   y2="512"
   id="line48"
   style="fill:none;stroke:#a9ccdb;stroke-miterlimit:10" />
		<line
   stroke-miterlimit="10"
   x1="256"
   y1="0"
   x2="256"
   y2="512"
   id="line50"
   style="fill:none;stroke:#a9ccdb;stroke-miterlimit:10" />
		<line
   stroke-miterlimit="10"
   x1="288"
   y1="0"
   x2="288"
   y2="512"
   id="line52"
   style="fill:none;stroke:#a9ccdb;stroke-miterlimit:10" />
		<line
   stroke-miterlimit="10"
   x1="320"
   y1="0"
   x2="320"
   y2="512"
   id="line54"
   style="fill:none;stroke:#a9ccdb;stroke-miterlimit:10" />
		<line
   stroke-miterlimit="10"
   x1="352"
   y1="0"
   x2="352"
   y2="512"
   id="line56"
   style="fill:none;stroke:#a9ccdb;stroke-miterlimit:10" />
		<line
   stroke-miterlimit="10"
   x1="384"
   y1="0"
   x2="384"
   y2="512"
   id="line58"
   style="fill:none;stroke:#a9ccdb;stroke-miterlimit:10" />
		<line
   stroke-miterlimit="10"
   x1="416"
   y1="0"
   x2="416"
   y2="512"
   id="line60"
   style="fill:none;stroke:#a9ccdb;stroke-miterlimit:10" />
		<line
   stroke-miterlimit="10"
   x1="448"
   y1="0"
   x2="448"
   y2="512"
   id="line62"
   style="fill:none;stroke:#a9ccdb;stroke-miterlimit:10" />
		<line
   stroke-miterlimit="10"
   x1="480"
   y1="0"
   x2="480"
   y2="512"
   id="line64"
   style="fill:none;stroke:#a9ccdb;stroke-miterlimit:10" />
	</g>
	

<path
   style="fill:#985947;fill-opacity:0.74782607"
   d="m 273.15312,133.306 c 0.3856,13.38149 2.3945,31.69244 6.0516,44.0848 15.9472,20.27033 -11.1909,144.23449 -35.1458,142.48616 -12.5002,-1.30529 -26.7079,-11.44553 -38.2231,-7.67599 -6.4986,2.26015 -16.2697,1.69513 -21.6929,1.83376 -5.1166,0.37682 -4.8038,6.31485 -10.261,8.75297 -15.4171,6.80762 -11.2627,17.71464 -18.8763,28.53044 -8.5152,10.64705 -17.5487,22.07912 -19.1323,34.47365 -0.663,7.29245 -0.1866,14.78738 -0.2441,23.97079 -0.06,9.22764 -2.1378,16.42004 -2.3307,26.22097 -0.2644,6.29682 3.5451,7.03367 1.8308,13.34062 -19.7868,45.14529 11.3466,67.29525 -5.6266,105.31377 -10.2199,43.69466 -7.0622,55.6217 -21.6292,97.0071 -1.7484,4.71817 4.0095,12.04882 2.7539,15.23706 -3.9323,3.35239 0.363,15.93848 0.744,21.4932 7.5478,31.53428 -19.01381,16.97684 -27.73471,33.05331 1.7315,6.25068 0.9759,12.50711 0.6608,16.37199 -1.8509,22.70626 -23.8338,9.76669 -34.1081,26.13975 -2.7417,15.60496 -19.6535,16.54359 -16.0232,28.52616 2.1933,7.49878 -3.8071,11.0185 -14.8877,47.21412 5.1198,17.50278 7.0324,14.83213 -4.0914,32.77451 5.8686,6.84469 -4.464,20.75794 -1.7589,23.0769 2.3517,7.48169 -4.0192,24.6665 0.423,32.11835 6.744,10.4115 16.8749,10.07319 25.6032,15.9534 18.8717,10.22529 36.0718,11.97922 48.2287,-0.44672 25.84551,-1.99618 33.37581,-19.19353 44.36791,-33.05595 -5.7059,-14.68538 19.8406,-17.0749 23.7311,-32.66935 5.4568,-4.38244 8.0757,-3.03916 10.0159,-8.21293 3.4971,-11.46341 3.343,-25.62781 2.9474,-37.59505 -0.4071,-12.31168 -1.0699,-22.41692 1.724,-33.4975 14.1279,-48.79285 38.9487,-24.94858 48.4688,-87.01648 0.059,-30.06684 0.8608,-60.9386 1.2973,-91.46891 0.5995,-41.9283 0.5101,-83.2126 -3.1383,-120.88359 -1.1028,-10.83009 -2.3332,-33.79403 -3.6779,-44.41557 -1.4865,-16.45561 -0.033,-16.62112 1.2288,-20.18422 7.5007,-9.13917 15.898,2.05665 25.8882,-0.83149 15.7073,-4.54049 8.7657,-1.18131 22.8923,-3.16195 10.4443,-2.68859 12.3259,5.06356 17.3092,7.87773 6.7404,6.21304 15.1688,-0.55474 22.9081,1.82428 9.7475,2.99597 40.8958,-17.12008 50.5631,-26.03516 2.4712,-2.37423 4.627,-5.27501 6.4183,-8.78464 4.7058,-6.40782 3.2468,-14.79166 3.9336,-19.40718 0.6383,-4.29073 3.6504,-13.52291 1.9166,-17.48844 -2.1502,-4.91795 4.7009,-14.26585 0.7302,-20.71481 -12.7965,-39.72172 18.5726,-110.67367 -4.1581,-148.30717 -7.0327,-11.54189 -2.0873,-25.20796 -7.3821,-35.10327 -7.4754,-13.97073 -21.5451,-35.57801 -35.8516,-41.31735 -32.4552,-11.3966 -29.0405,-19.25563 -46.6628,10.59793 z"
   id="path3764-2"
   inkscape:connector-curvature="0"
   sodipodi:nodetypes="ccccccccccccccccscccccccccccsccscccsccsccssccsccc" /></svg>