<?xml version="1.0" encoding="UTF-8" standalone="no"?>
<svg
   xmlns:dc="http://purl.org/dc/elements/1.1/"
   xmlns:cc="http://creativecommons.org/ns#"
   xmlns:rdf="http://www.w3.org/1999/02/22-rdf-syntax-ns#"
   xmlns:svg="http://www.w3.org/2000/svg"
   xmlns="http://www.w3.org/2000/svg"
   xmlns:sodipodi="http://sodipodi.sourceforge.net/DTD/sodipodi-0.dtd"
   xmlns:inkscape="http://www.inkscape.org/namespaces/inkscape"
   version="1.1"
   id="Layer_1"
   x="0px"
   y="0px"
   width="1024"
   height="1024"
   viewBox="0 0 1024 1024"
   enable-background="new 0 0 512 512"
   xml:space="preserve"
   inkscape:version="0.48.0 r9654"
   sodipodi:docname="memhebrew-x5de.svg"><title
   id="title3743">Sinai 357</title><metadata
   id="metadata72"><rdf:RDF><cc:Work
       rdf:about=""><dc:format>image/svg+xml</dc:format><dc:type
         rdf:resource="http://purl.org/dc/dcmitype/StillImage" /><dc:title>Sinai 357</dc:title><dc:date>2017</dc:date><dc:creator><cc:Agent><dc:title>Celeste Claire Horner</dc:title></cc:Agent></dc:creator><dc:publisher><cc:Agent><dc:title>beitdina.net</dc:title></cc:Agent></dc:publisher></cc:Work></rdf:RDF></metadata><defs
   id="defs70" /><sodipodi:namedview
   pagecolor="#ffffff"
   bordercolor="#666666"
   borderopacity="1"
   objecttolerance="10"
   gridtolerance="10"
   guidetolerance="10"
   inkscape:pageopacity="0"
   inkscape:pageshadow="2"
   inkscape:window-width="976"
   inkscape:window-height="679"
   id="namedview68"
   showgrid="false"
   inkscape:zoom="0.23895264"
   inkscape:cx="-297.70489"
   inkscape:cy="609.89213"
   inkscape:window-x="82"
   inkscape:window-y="78"
   inkscape:window-maximized="0"
   inkscape:current-layer="Layer_1"
   showguides="true"
   inkscape:guide-bbox="true" />
   
	<g
   id="Grid"
   transform="matrix(2.0004581,0,0,2.0004578,0.50019527,4.813853)">
		<rect
   x="0"
   stroke-miterlimit="10"
   width="512"
   height="512"
   id="rect4"
   y="0"
   style="fill:none;stroke:#a9ccdb;stroke-miterlimit:10" />
		<line
   stroke-miterlimit="10"
   x1="0"
   y1="32"
   x2="512"
   y2="32"
   id="line6"
   style="fill:none;stroke:#a9ccdb;stroke-miterlimit:10" />
		<line
   stroke-miterlimit="10"
   x1="0"
   y1="64"
   x2="512"
   y2="64"
   id="line8"
   style="fill:none;stroke:#a9ccdb;stroke-miterlimit:10" />
		<line
   stroke-miterlimit="10"
   x1="0"
   y1="96"
   x2="512"
   y2="96"
   id="line10"
   style="fill:none;stroke:#a9ccdb;stroke-miterlimit:10" />
		<line
   stroke-miterlimit="10"
   x1="0"
   y1="128"
   x2="512"
   y2="128"
   id="line12"
   style="fill:none;stroke:#a9ccdb;stroke-miterlimit:10" />
		<line
   stroke-miterlimit="10"
   x1="0"
   y1="160"
   x2="512"
   y2="160"
   id="line14"
   style="fill:none;stroke:#a9ccdb;stroke-miterlimit:10" />
		<line
   stroke-miterlimit="10"
   x1="0"
   y1="192"
   x2="512"
   y2="192"
   id="line16"
   style="fill:none;stroke:#a9ccdb;stroke-miterlimit:10" />
		<line
   stroke-miterlimit="10"
   x1="0"
   y1="224"
   x2="512"
   y2="224"
   id="line18"
   style="fill:none;stroke:#a9ccdb;stroke-miterlimit:10" />
		<line
   stroke-miterlimit="10"
   x1="0"
   y1="256"
   x2="512"
   y2="256"
   id="line20"
   style="fill:none;stroke:#a9ccdb;stroke-miterlimit:10" />
		<line
   stroke-miterlimit="10"
   x1="0"
   y1="288"
   x2="512"
   y2="288"
   id="line22"
   style="fill:none;stroke:#a9ccdb;stroke-miterlimit:10" />
		<line
   stroke-miterlimit="10"
   x1="0"
   y1="320"
   x2="512"
   y2="320"
   id="line24"
   style="fill:none;stroke:#a9ccdb;stroke-miterlimit:10" />
		<line
   stroke-miterlimit="10"
   x1="0"
   y1="352"
   x2="512"
   y2="352"
   id="line26"
   style="fill:none;stroke:#a9ccdb;stroke-miterlimit:10" />
		<line
   stroke-miterlimit="10"
   x1="0"
   y1="384"
   x2="512"
   y2="384"
   id="line28"
   style="fill:none;stroke:#a9ccdb;stroke-miterlimit:10" />
		<line
   stroke-miterlimit="10"
   x1="0"
   y1="416"
   x2="512"
   y2="416"
   id="line30"
   style="fill:none;stroke:#a9ccdb;stroke-miterlimit:10" />
		<line
   stroke-miterlimit="10"
   x1="0"
   y1="448"
   x2="512"
   y2="448"
   id="line32"
   style="fill:none;stroke:#ff0000;stroke-miterlimit:10" />
		<line
   stroke-miterlimit="10"
   x1="0"
   y1="480"
   x2="512"
   y2="480"
   id="line34"
   style="fill:none;stroke:#a9ccdb;stroke-miterlimit:10" />
		<line
   stroke-miterlimit="10"
   x1="32"
   y1="0"
   x2="32"
   y2="512"
   id="line36"
   style="fill:none;stroke:#a9ccdb;stroke-miterlimit:10" />
		<line
   stroke-miterlimit="10"
   x1="64"
   y1="0"
   x2="64"
   y2="512"
   id="line38"
   style="fill:none;stroke:#a9ccdb;stroke-miterlimit:10" />
		<line
   stroke-miterlimit="10"
   x1="96"
   y1="0"
   x2="96"
   y2="512"
   id="line40"
   style="fill:none;stroke:#a9ccdb;stroke-miterlimit:10" />
		<line
   stroke-miterlimit="10"
   x1="128"
   y1="0"
   x2="128"
   y2="512"
   id="line42"
   style="fill:none;stroke:#a9ccdb;stroke-miterlimit:10" />
		<line
   stroke-miterlimit="10"
   x1="160"
   y1="0"
   x2="160"
   y2="512"
   id="line44"
   style="fill:none;stroke:#a9ccdb;stroke-miterlimit:10" />
		<line
   stroke-miterlimit="10"
   x1="192"
   y1="0"
   x2="192"
   y2="512"
   id="line46"
   style="fill:none;stroke:#a9ccdb;stroke-miterlimit:10" />
		<line
   stroke-miterlimit="10"
   x1="224"
   y1="0"
   x2="224"
   y2="512"
   id="line48"
   style="fill:none;stroke:#a9ccdb;stroke-miterlimit:10" />
		<line
   stroke-miterlimit="10"
   x1="256"
   y1="0"
   x2="256"
   y2="512"
   id="line50"
   style="fill:none;stroke:#a9ccdb;stroke-miterlimit:10" />
		<line
   stroke-miterlimit="10"
   x1="288"
   y1="0"
   x2="288"
   y2="512"
   id="line52"
   style="fill:none;stroke:#a9ccdb;stroke-miterlimit:10" />
		<line
   stroke-miterlimit="10"
   x1="320"
   y1="0"
   x2="320"
   y2="512"
   id="line54"
   style="fill:none;stroke:#a9ccdb;stroke-miterlimit:10" />
		<line
   stroke-miterlimit="10"
   x1="352"
   y1="0"
   x2="352"
   y2="512"
   id="line56"
   style="fill:none;stroke:#a9ccdb;stroke-miterlimit:10" />
		<line
   stroke-miterlimit="10"
   x1="384"
   y1="0"
   x2="384"
   y2="512"
   id="line58"
   style="fill:none;stroke:#a9ccdb;stroke-miterlimit:10" />
		<line
   stroke-miterlimit="10"
   x1="416"
   y1="0"
   x2="416"
   y2="512"
   id="line60"
   style="fill:none;stroke:#a9ccdb;stroke-miterlimit:10" />
		<line
   stroke-miterlimit="10"
   x1="448"
   y1="0"
   x2="448"
   y2="512"
   id="line62"
   style="fill:none;stroke:#a9ccdb;stroke-miterlimit:10" />
		<line
   stroke-miterlimit="10"
   x1="480"
   y1="0"
   x2="480"
   y2="512"
   id="line64"
   style="fill:none;stroke:#a9ccdb;stroke-miterlimit:10" />
	</g>
	
<path
   style="fill:#a61e20;fill-opacity:0.85652173;stroke:#c10714;stroke-opacity:0.92608696"
   d="m 184.30175,164.46258 c 13.2741,26.2801 47.6838,37.4199 66.5833,38.4917 12.4068,0.7145 32.4458,0.4075 44.5,0.01 76.4042,6.9305 127.5599,22.882 180.356,50.56885 65.8527,24.32666 107.0038,61.57151 158.86045,97.49722 10.7137,7.27953 25.3175,21.43673 38.3891,21.43673 -1.6486,31.62026 5.5423,70.45416 -0.3892,96.9322 -2.6061,9.9539 -8.475,16.19964 -21.2997,16.0633 -2.5482,26.96666 -0.1463,47.10917 0,74.77736 l -37.04595,0.68656 c -14.7583,0.54682 -14.7018,0.47226 -29.454,0.0361 0.3283,-23.6907 -7.3643,-18.71032 -22.5375,-18.5 l -21.9625,0 c -70.7505,-29.44923 -177.8886,-70.52131 -237.925,-116.75721 -16.4432,-13.37131 -32.679,-27.46683 -53.716,-37.07444 -31.1646,-14.70429 -33.7843,-35.16829 -64.859,-35.16829 -19.3144,-6.96863 -18.4576,-19 -38.5602,-19 l -17.4398,0 -33.499999,0 c -9.844704,0.38657 -19.311404,18.91819 -21.000004,19 -8.1604,14.16746 -2.2121,40.8571 6.2286,45.96597 17.232304,7.96355 16.356804,10.03403 37.771403,10.03403 66.0301,6.18871 125.9357,85.86885 189.9103,123.47212 28.0051,25.5769 48.8835,25.9921 80.423,40.21492 21.2097,12.38983 40.6667,20.78147 40.6667,44.31296 -25.9709,-0.31996 -22.1917,1.97135 -22,19 l 0,10.24411 c -0.027,9.4849 1.9346,8.75589 -6.3026,8.75589 -2.0924,0 -4.1849,0 -6.2774,0 -9.6468,0.25712 -9.42,-2.33737 -9.42,6.9376 0,4.0208 0,8.0416 0,12.0624 l -10.845,0 -10.8449,0 -0.6551,13.65811 c -0.033,10.84536 -0.082,19.93162 -1.5861,26.87153 -6.1462,18.82478 -20.0689,8.09883 -20.0689,24.9703 0.3269,12.74707 0.885,9.5 -11.5,9.5 -21.738,11.26535 -11.8529,12.9898 -11.5,28 -4.9112,17.0745 -0.2768,21.50232 5.8777,26.23157 3.5838,2.7538 7.683,15.96698 10.7131,21.4816 3.8679,7.03371 5.221,5.25313 5.5972,16.44982 0.6945,9.53637 3.3479,17.65246 12.6696,24.59535 13.0086,9.52013 14.9998,10.55011 22.6982,11.01651 11.9356,-2.62292 19.2349,3.41782 25.4445,10.03167 5.8151,6.19369 10.6745,12.89 17.4909,13.44444 12.941,0.87691 32.7202,-5.85624 37.3399,-8.99657 7.139,-5.24724 13.4441,-12.22759 22.4027,-18.05915 6.6545,-5.2544 11.2238,-11.1648 17.7527,-11.19524 l 21.9903,0 0.2597,-47.25 0.2598,-47.25 c 27.9165,-0.4189 20.2423,-18.8128 44.5,-18.5 1.0069,21.52528 26.0832,26.26241 49.3597,29.79712 26.41525,4.62223 47.63975,29.25657 64.13485,29.06141 38.6517,-2.34201 71.3643,-0.16403 101.8516,-14.35815 28.8164,-8.25039 29.6535,-5.88072 29.6535,-36.35555 l 0,-83.76164 c 3.2242,-110.73597 26.3435,-161.13487 22,-282.38319 5.6851,-24.83504 5.449,-32.06711 -4.1088,-47.87712 -4.8485,-9.77646 -6.8464,-24.72594 -11.6669,-29.04558 -6.3292,-5.67161 -16.0094,0.9227 -28.2243,0.9227 -33.6306,-13.82414 -49.505,-31.51268 -72.7817,-49.56059 -58.926,-35.28173 -114.74895,-71.46343 -172.20585,-100.70253 -63.5178,-27.2805 -110.8497,-42.5499 -177.1646,-54.6343 -34.5846,-6.559 -47.1427,0.1418 -62.2042,-13.975195 -8.5818,-3.5618 -18.0621,-6.0923 -27.8714,-7.6575 -19.202,-3.064 -39.6643,-2.4294 -57.1141,1.4078 -9.5724,2.2066 -17.35,5.564 -21.7443,10.112495 -16.2104,17.354 -19.0068,41.6284 -9.9098,64.0098 z"
   id="path3785"
   inkscape:connector-curvature="0"
   sodipodi:nodetypes="ccccccccccccccccccccccccccccccccccccccsccccscccccccccccccccscccccsccc" />
	</svg>