<?xml version="1.0" encoding="UTF-8" standalone="no"?>
<svg
   xmlns:dc="http://purl.org/dc/elements/1.1/"
   xmlns:cc="http://creativecommons.org/ns#"
   xmlns:rdf="http://www.w3.org/1999/02/22-rdf-syntax-ns#"
   xmlns:svg="http://www.w3.org/2000/svg"
   xmlns="http://www.w3.org/2000/svg"
   xmlns:sodipodi="http://sodipodi.sourceforge.net/DTD/sodipodi-0.dtd"
   xmlns:inkscape="http://www.inkscape.org/namespaces/inkscape"
   version="1.1"
   id="Layer_1"
   x="0px"
   y="0px"
   width="1024"
   height="1024"
   viewBox="0 0 1024 1024"
   enable-background="new 0 0 512 512"
   xml:space="preserve"
   inkscape:version="0.48.0 r9654"
   sodipodi:docname="memhebrew-x5de.svg"><title
   id="title3743">Sinai 357</title><metadata
   id="metadata72"><rdf:RDF><cc:Work
       rdf:about=""><dc:format>image/svg+xml</dc:format><dc:type
         rdf:resource="http://purl.org/dc/dcmitype/StillImage" /><dc:title>Sinai 357</dc:title><dc:date>2017</dc:date><dc:creator><cc:Agent><dc:title>Celeste Claire Horner</dc:title></cc:Agent></dc:creator><dc:publisher><cc:Agent><dc:title>beitdina.net</dc:title></cc:Agent></dc:publisher></cc:Work></rdf:RDF></metadata><defs
   id="defs70" /><sodipodi:namedview
   pagecolor="#ffffff"
   bordercolor="#666666"
   borderopacity="1"
   objecttolerance="10"
   gridtolerance="10"
   guidetolerance="10"
   inkscape:pageopacity="0"
   inkscape:pageshadow="2"
   inkscape:window-width="976"
   inkscape:window-height="679"
   id="namedview68"
   showgrid="false"
   inkscape:zoom="0.16896503"
   inkscape:cx="-1169.8979"
   inkscape:cy="1111.969"
   inkscape:window-x="82"
   inkscape:window-y="78"
   inkscape:window-maximized="0"
   inkscape:current-layer="Layer_1"
   showguides="true"
   inkscape:guide-bbox="true" />
   
	<g
   id="Grid"
   transform="matrix(2.0004581,0,0,2.0004578,0.50019527,4.8138064)">
		<rect
   x="0"
   stroke-miterlimit="10"
   width="512"
   height="512"
   id="rect4"
   y="0"
   style="fill:none;stroke:#a9ccdb;stroke-miterlimit:10" />
		<line
   stroke-miterlimit="10"
   x1="0"
   y1="32"
   x2="512"
   y2="32"
   id="line6"
   style="fill:none;stroke:#a9ccdb;stroke-miterlimit:10" />
		<line
   stroke-miterlimit="10"
   x1="0"
   y1="64"
   x2="512"
   y2="64"
   id="line8"
   style="fill:none;stroke:#a9ccdb;stroke-miterlimit:10" />
		<line
   stroke-miterlimit="10"
   x1="0"
   y1="96"
   x2="512"
   y2="96"
   id="line10"
   style="fill:none;stroke:#a9ccdb;stroke-miterlimit:10" />
		<line
   stroke-miterlimit="10"
   x1="0"
   y1="128"
   x2="512"
   y2="128"
   id="line12"
   style="fill:none;stroke:#a9ccdb;stroke-miterlimit:10" />
		<line
   stroke-miterlimit="10"
   x1="0"
   y1="160"
   x2="512"
   y2="160"
   id="line14"
   style="fill:none;stroke:#a9ccdb;stroke-miterlimit:10" />
		<line
   stroke-miterlimit="10"
   x1="0"
   y1="192"
   x2="512"
   y2="192"
   id="line16"
   style="fill:none;stroke:#a9ccdb;stroke-miterlimit:10" />
		<line
   stroke-miterlimit="10"
   x1="0"
   y1="224"
   x2="512"
   y2="224"
   id="line18"
   style="fill:none;stroke:#a9ccdb;stroke-miterlimit:10" />
		<line
   stroke-miterlimit="10"
   x1="0"
   y1="256"
   x2="512"
   y2="256"
   id="line20"
   style="fill:none;stroke:#a9ccdb;stroke-miterlimit:10" />
		<line
   stroke-miterlimit="10"
   x1="0"
   y1="288"
   x2="512"
   y2="288"
   id="line22"
   style="fill:none;stroke:#a9ccdb;stroke-miterlimit:10" />
		<line
   stroke-miterlimit="10"
   x1="0"
   y1="320"
   x2="512"
   y2="320"
   id="line24"
   style="fill:none;stroke:#a9ccdb;stroke-miterlimit:10" />
		<line
   stroke-miterlimit="10"
   x1="0"
   y1="352"
   x2="512"
   y2="352"
   id="line26"
   style="fill:none;stroke:#a9ccdb;stroke-miterlimit:10" />
		<line
   stroke-miterlimit="10"
   x1="0"
   y1="384"
   x2="512"
   y2="384"
   id="line28"
   style="fill:none;stroke:#a9ccdb;stroke-miterlimit:10" />
		<line
   stroke-miterlimit="10"
   x1="0"
   y1="416"
   x2="512"
   y2="416"
   id="line30"
   style="fill:none;stroke:#a9ccdb;stroke-miterlimit:10" />
		<line
   stroke-miterlimit="10"
   x1="0"
   y1="448"
   x2="512"
   y2="448"
   id="line32"
   style="fill:none;stroke:#ff0000;stroke-miterlimit:10" />
		<line
   stroke-miterlimit="10"
   x1="0"
   y1="480"
   x2="512"
   y2="480"
   id="line34"
   style="fill:none;stroke:#a9ccdb;stroke-miterlimit:10" />
		<line
   stroke-miterlimit="10"
   x1="32"
   y1="0"
   x2="32"
   y2="512"
   id="line36"
   style="fill:none;stroke:#a9ccdb;stroke-miterlimit:10" />
		<line
   stroke-miterlimit="10"
   x1="64"
   y1="0"
   x2="64"
   y2="512"
   id="line38"
   style="fill:none;stroke:#a9ccdb;stroke-miterlimit:10" />
		<line
   stroke-miterlimit="10"
   x1="96"
   y1="0"
   x2="96"
   y2="512"
   id="line40"
   style="fill:none;stroke:#a9ccdb;stroke-miterlimit:10" />
		<line
   stroke-miterlimit="10"
   x1="128"
   y1="0"
   x2="128"
   y2="512"
   id="line42"
   style="fill:none;stroke:#a9ccdb;stroke-miterlimit:10" />
		<line
   stroke-miterlimit="10"
   x1="160"
   y1="0"
   x2="160"
   y2="512"
   id="line44"
   style="fill:none;stroke:#a9ccdb;stroke-miterlimit:10" />
		<line
   stroke-miterlimit="10"
   x1="192"
   y1="0"
   x2="192"
   y2="512"
   id="line46"
   style="fill:none;stroke:#a9ccdb;stroke-miterlimit:10" />
		<line
   stroke-miterlimit="10"
   x1="224"
   y1="0"
   x2="224"
   y2="512"
   id="line48"
   style="fill:none;stroke:#a9ccdb;stroke-miterlimit:10" />
		<line
   stroke-miterlimit="10"
   x1="256"
   y1="0"
   x2="256"
   y2="512"
   id="line50"
   style="fill:none;stroke:#a9ccdb;stroke-miterlimit:10" />
		<line
   stroke-miterlimit="10"
   x1="288"
   y1="0"
   x2="288"
   y2="512"
   id="line52"
   style="fill:none;stroke:#a9ccdb;stroke-miterlimit:10" />
		<line
   stroke-miterlimit="10"
   x1="320"
   y1="0"
   x2="320"
   y2="512"
   id="line54"
   style="fill:none;stroke:#a9ccdb;stroke-miterlimit:10" />
		<line
   stroke-miterlimit="10"
   x1="352"
   y1="0"
   x2="352"
   y2="512"
   id="line56"
   style="fill:none;stroke:#a9ccdb;stroke-miterlimit:10" />
		<line
   stroke-miterlimit="10"
   x1="384"
   y1="0"
   x2="384"
   y2="512"
   id="line58"
   style="fill:none;stroke:#a9ccdb;stroke-miterlimit:10" />
		<line
   stroke-miterlimit="10"
   x1="416"
   y1="0"
   x2="416"
   y2="512"
   id="line60"
   style="fill:none;stroke:#a9ccdb;stroke-miterlimit:10" />
		<line
   stroke-miterlimit="10"
   x1="448"
   y1="0"
   x2="448"
   y2="512"
   id="line62"
   style="fill:none;stroke:#a9ccdb;stroke-miterlimit:10" />
		<line
   stroke-miterlimit="10"
   x1="480"
   y1="0"
   x2="480"
   y2="512"
   id="line64"
   style="fill:none;stroke:#a9ccdb;stroke-miterlimit:10" />
	</g>
	
<path
   style="fill:#a61e20;fill-opacity:0.54782613"
   d="m 422.52787,148.03478 c -8.6235,1.47177 -19.8811,4.67072 -24.6438,7.0028 -12.758,6.24697 -18.5422,23.52571 -18.6792,55.79816 -0.1154,27.20064 3.2553,42.62974 10.7553,49.23148 11.7541,10.34635 29.8875,12.17364 104.5677,10.53718 43.5911,-0.9552 42.5193,-0.78672 48.7742,-7.66704 1.8009,-1.98089 3.7278,-3.60162 4.2822,-3.60162 2.2416,0 8.3744,3.1711 11.5856,5.99056 5.2599,4.61824 10.729,7.00808 16.0682,7.02131 5.84626,0.0145 13.32065,1.93203 19.15297,4.91367 6.38665,3.26504 11.93,9.55353 18.09907,20.53201 5.87442,10.45411 10.79268,16.18128 18.23993,21.23984 4.23816,2.87878 5.39487,4.61335 11.72187,17.57767 7.96417,16.31895 10.08863,19.41446 14.6251,21.30992 3.01548,1.25995 3.1899,1.60654 2.83261,5.62882 -0.2094,2.35741 -1.07002,23.8612 -1.91249,47.7862 -2.57298,73.0695 -5.985,132.0735 -8.41381,145.5 -1.8728,10.35286 -2.52119,11.11783 -14.40933,17 -7.56972,3.74545 -8.37253,4.45732 -12.61515,11.18633 -2.49203,3.95249 -7.78176,11.94654 -11.75495,17.76456 -3.9732,5.81802 -7.8474,12.70917 -8.60936,15.31367 l -1.38536,4.73544 -48.50621,-4.32445 c -60.84205,21.64967 -107.39775,3.18259 -164.39909,-1.76604 l -11.124,-0.63356 -0.5698,-4.81162 c -1.0961,-9.25452 -3.711,-10.96433 -16.7686,-10.96433 l -8.9924,0 -12.897,-6.601 c -7.0934,-3.63054 -5.43409,-7.34304 -6.20349,-8.25 -5.4644,-6.44134 -4.8718,-17.3994 2.1171,-39.149 8.6496,-26.91754 8.6018,-26.36244 5.0985,-59.24585 -8.2899,-77.81038 -17.0263,-114.03948 -31.2105,-129.42756 -7.0999,-7.70251 -23.36451,-10.85513 -45.32581,-14.3637 -36.2827,-5.79658 -40.7127,-9.32126 -62.0948,-49.40506 -6.9698,-13.06599 -13.6869,-21.71468 -19.7982,-25.49168 -1.8009,-1.11302 -6.5738,-2.71773 -10.6064,-3.56602 -4.1363,-0.8701 -10.2019,-3.1302 -13.9163,-5.18537 -3.6214,-2.00366 -9.7042,-5.25666 -13.5175,-7.22889 l -6.9332,-3.58587 -34.0114,-0.31155 c -40.197497,-0.36822 -38.769097,-0.65995 -50.232197,10.2589 l -7.6683,7.30419 0.4741,4.93436 c 1.0599,11.03041 16.8444,35.74825 37.4097,58.58202 8.2495,9.15938 10.9421,10.95817 22.813297,15.24042 9.0215,3.25425 11.3738,3.66466 26,4.53611 16.2176,0.96626 30.9223,2.99724 36.2116,5.00145 4.754,1.80136 15.39641,5.00202 17.49771,11.80506 1.0985,3.5564 2.9144,7.95024 4.0354,9.76408 4.1765,6.75775 15.3674,15.07487 30.5803,22.72739 6.2978,3.16803 8.9126,6.34984 10.935,13.30664 4.2363,14.5726 0.3039,32.00542 -9.6575,42.81226 -3.6442,3.95344 -4.4052,4.31128 -10.4963,4.93533 -13.7148,1.40512 -28.0894,5.73257 -40.9326,12.32266 -9.3826,4.81441 -12.0779,6.92805 -15.5834,12.22026 -5.2506,7.92697 -6.8808,15.50545 -8.4025,39.06042 -0.764,11.825 -1.9213,25.775 -2.572,31 -0.6534,5.24659 -0.9312,13.97728 -0.6206,19.5 1.2538,22.29134 1.30819,36.06545 22.50799,51.73715 5.268,3.89426 9.7281,7.459 9.9114,7.92166 0.1834,0.46265 0.8469,0.84119 1.4746,0.84119 1.9437,0 9.20943,22.40555 9.20943,24.85202 2.33678,6.76287 5.92427,15.23541 -2.71535,16.10576 -8.40268,2.93785 -15.97896,-7.02327 -25.24271,4.60216 -6.91325,8.67571 -8.91488,12.19753 -8.91488,17.53252 -21.30598,-1.07445 5.2663,25.55526 1.0215,40.92054 -5.26206,8.45353 -10.23294,42.98195 -8.32318,50.18823 4.71094,17.10021 -22.47447,23.31098 -6.70043,32.88234 10.8366,6.45135 -2.44109,28.51033 8.00181,28.54716 11.3897,0.0402 11.70959,-5.55425 22.45379,3.17176 10.7021,8.6918 6.6227,28.55961 21.7575,28.12431 15.0341,-0.43242 14.74002,5.74903 17.04832,3.66006 2.1326,-1.92994 15.4968,-1.01118 19.052,1.30978 2.0029,1.30756 5.5081,1.60336 19,1.60336 15.6085,0 16.8267,-0.14043 21.544,-2.48337 5.8712,-2.91608 9.4737,-6.1869 12.1008,-10.98665 3.3869,-6.18821 9.5109,-13.02998 11.6628,-13.02998 0.7316,0 2.4341,-1.33095 3.7833,-2.95766 1.3492,-1.62671 2.8677,-2.97671 3.3744,-3 0.5066,-0.0233 1.7473,-0.78989 2.7568,-1.70356 1.9214,-1.73883 4.942,-3.62091 8.3219,-5.18528 4.9707,-2.30064 8.0531,-3.49072 8.6801,-3.3513 0.3741,0.0832 1.2042,-1.4366 1.8447,-3.37728 0.6405,-1.94067 1.6844,-3.33644 2.3198,-3.10171 0.6355,0.23473 1.0429,0.93304 0.9054,1.55179 -0.1375,0.61875 -0.1375,1.20186 0,1.2958 0.1375,0.0939 57.4,0.73521 127.25,1.42505 76.2915,0.75345 130.1942,1.67865 135,2.31717 12.73726,1.69233 74.08172,6.14027 84.29966,6.11237 13.11201,-0.0358 15.76886,-1.65146 21.21959,-12.90386 l 3.00685,-6.20726 3.73695,0.64159 c 2.05532,0.35288 6.88695,1.32191 10.73695,2.15341 17.89908,3.86574 25.91677,2.56251 33.67607,-5.47386 9.16491,-9.49217 13.44671,-20.14342 20.90863,-52.01154 7.98558,-34.10455 11.59148,-46.75633 15.83368,-55.55456 6.43761,-13.35145 9.12808,-15.48265 23.58162,-18.67969 18.11652,-4.00727 22.44765,-7.1082 22.54851,-16.14391 0.0687,-6.15328 7.01855,-39.24407 12.46402,-59.34571 l 4.60525,-17 -0.49726,-17 c -1.07713,-36.82422 -7.92606,-68.26489 -34.63604,-159 -18.91682,-64.26135 -28.64149,-108.16017 -30.60818,-138.17046 -0.53052,-8.09535 -0.29735,-11.49507 1.19629,-17.44238 3.43611,-13.68177 2.08055,-21.89575 -5.18951,-31.44567 -1.28059,-1.68218 -4.34039,-7.69383 -6.79957,-13.35922 -2.45917,-5.66539 -5.23894,-11.14904 -6.17727,-12.18588 -2.96025,-3.27104 -7.18202,-3.72359 -19.87007,-2.12996 -11.60553,1.45767 -12.09319,1.43911 -21.45581,-0.81671 -7.90125,-1.90371 -12.64751,-2.33841 -27.08036,-2.48021 -12.42139,-0.12204 -18.96014,-0.61594 -22.53139,-1.7019 -6.99892,-2.12826 -23.39852,-10.43581 -39.96861,-20.2469 -9.95454,-5.89405 -18.76787,-10.11499 -30.5,-14.60726 -12.14188,-4.64917 -17.6457,-7.30865 -20.8377,-10.0689 -6.3628,-5.50226 -11.8441,-7.84455 -18.3576,-7.84455 -5.7232,0 -5.8873,0.0672 -24.3047,9.95626 -5.3281,2.86086 -6.6525,3.16553 -11.8267,2.72056 -6.8893,-0.59245 -18.6924,-5.92956 -30.0248,-13.5766 -8.8213,-5.95254 -15.2281,-7.92444 -37.6139,-11.5769 -14.5627,-2.37605 -21.1838,-2.82284 -27.0346,-1.82428 z m -159.1309,517.16703 c -0.586,0.20134 -1.7988,-0.36716 -2.6949,-1.26333 -1.5059,-1.50588 -1.4251,-1.53363 1.0655,-0.36607 1.4822,0.69483 2.2154,1.42806 1.6294,1.6294 z m -1.745,30.4006 c -0.9876,0.98026 -1.1025,0.8654 -0.5598,-0.5598 0.3755,-0.98622 0.9347,-1.54122 1.2426,-1.23333 0.3079,0.30789 6e-4,1.11479 -0.6828,1.79313 z m 9.1567,4.83992 c 2.0794,1.04137 4.2614,1.89341 4.8489,1.89341 1.9506,0 16.97426,19.95062 16.97426,21.00865 0,0.57257 -6.35103,-6.71254 -7.31353,-7.55773 -0.9625,-0.84519 -6.41543,-11.51579 -7.79043,-11.88421 -2.2938,-0.6146 -7.7208,-2.72086 -14,-5.43353 -2.4022,-1.03779 -2.3827,-1.05734 0.5,-0.50001 1.65,0.319 4.7014,1.43204 6.7808,2.47342 z m 28.91038,52.08262 c -0.2774,0.6875 -3.03328,-8.76798 -3.03328,-10.14298 0,-1.375 -2.30188,-12.92294 -2.02448,-12.23544 0.2774,0.6875 5.33516,21.69092 5.05776,22.37842 z m 27.3071,60.21833 c 0,0.55 -1.44775,9.74109 -1.98095,8.91609 -0.5332,-0.825 -0.46363,-6.13493 -0.46363,-6.68493 0,-0.55 -1.5869,-12.35668 -1.0537,-11.53168 0.5332,0.825 3.49828,8.75052 3.49828,9.30052 z m 193.23272,29.28545 c -0.973,0.25354 -2.323,0.23687 -3,-0.037 -0.6771,-0.27392 0.119,-0.48137 1.769,-0.46099 1.65,0.0204 2.2039,0.2445 1.231,0.49804 z m 63.99997,2 c -0.97297,0.25354 -2.32297,0.23687 -3,-0.037 -0.67703,-0.27392 0.11903,-0.48137 1.76903,-0.46099 1.65,0.0204 2.20394,0.2445 1.23097,0.49804 z"
   id="path4565"
   inkscape:connector-curvature="0"
   sodipodi:nodetypes="csssscssssssssssssssscccccscssssssssssscsscssssssssssssssssscsccsccccssssssscssccscscscsssscsssssssscsssssssssssssssssssccscssccscssssssssssssssssscccccccccc" />
	</svg>