<?xml version="1.0" encoding="UTF-8" standalone="no"?>
<svg
   xmlns:dc="http://purl.org/dc/elements/1.1/"
   xmlns:cc="http://creativecommons.org/ns#"
   xmlns:rdf="http://www.w3.org/1999/02/22-rdf-syntax-ns#"
   xmlns:svg="http://www.w3.org/2000/svg"
   xmlns="http://www.w3.org/2000/svg"
   xmlns:sodipodi="http://sodipodi.sourceforge.net/DTD/sodipodi-0.dtd"
   xmlns:inkscape="http://www.inkscape.org/namespaces/inkscape"
   version="1.1"
   id="Layer_1"
   x="0px"
   y="0px"
   width="1024"
   height="1024"
   viewBox="0 0 1024 1024"
   enable-background="new 0 0 512 512"
   xml:space="preserve"
   inkscape:version="0.48.0 r9654"
   sodipodi:docname="nunhebrew-x5e0.svg"><title
   id="title3743">Sinai 357</title><metadata
   id="metadata72"><rdf:RDF><cc:Work
       rdf:about=""><dc:format>image/svg+xml</dc:format><dc:type
         rdf:resource="http://purl.org/dc/dcmitype/StillImage" /><dc:title>Sinai 357</dc:title><dc:date>2017</dc:date><dc:creator><cc:Agent><dc:title>Celeste Claire Horner</dc:title></cc:Agent></dc:creator><dc:publisher><cc:Agent><dc:title>beitdina.net</dc:title></cc:Agent></dc:publisher></cc:Work></rdf:RDF></metadata><defs
   id="defs70" /><sodipodi:namedview
   pagecolor="#ffffff"
   bordercolor="#666666"
   borderopacity="1"
   objecttolerance="10"
   gridtolerance="10"
   guidetolerance="10"
   inkscape:pageopacity="0"
   inkscape:pageshadow="2"
   inkscape:window-width="1152"
   inkscape:window-height="814"
   id="namedview68"
   showgrid="false"
   inkscape:zoom="0.15617482"
   inkscape:cx="-1511.7257"
   inkscape:cy="565.69384"
   inkscape:window-x="-8"
   inkscape:window-y="-8"
   inkscape:window-maximized="1"
   inkscape:current-layer="Layer_1" />
   
	<g
   id="Grid"
   transform="matrix(2.0059908,0,0,2.0059908,0.50299541,-3.5702931)">
		<rect
   x="-0.47926444"
   stroke-miterlimit="10"
   width="512.47925"
   height="510.08289"
   id="rect4"
   y="1.9170578"
   style="fill:none;stroke:#a9ccdb;stroke-miterlimit:10"
   ry="0" />
		<line
   stroke-miterlimit="10"
   x1="0"
   y1="32"
   x2="512"
   y2="32"
   id="line6"
   style="fill:none;stroke:#a9ccdb;stroke-miterlimit:10" />
		<line
   stroke-miterlimit="10"
   x1="0"
   y1="64"
   x2="512"
   y2="64"
   id="line8"
   style="fill:none;stroke:#a9ccdb;stroke-miterlimit:10" />
		<line
   stroke-miterlimit="10"
   x1="0"
   y1="96"
   x2="512"
   y2="96"
   id="line10"
   style="fill:none;stroke:#a9ccdb;stroke-miterlimit:10" />
		<line
   stroke-miterlimit="10"
   x1="0"
   y1="128"
   x2="512"
   y2="128"
   id="line12"
   style="fill:none;stroke:#a9ccdb;stroke-miterlimit:10" />
		<line
   stroke-miterlimit="10"
   x1="0"
   y1="160"
   x2="512"
   y2="160"
   id="line14"
   style="fill:none;stroke:#a9ccdb;stroke-miterlimit:10" />
		<line
   stroke-miterlimit="10"
   x1="0"
   y1="192"
   x2="512"
   y2="192"
   id="line16"
   style="fill:none;stroke:#a9ccdb;stroke-miterlimit:10" />
		<line
   stroke-miterlimit="10"
   x1="0"
   y1="224"
   x2="512"
   y2="224"
   id="line18"
   style="fill:none;stroke:#a9ccdb;stroke-miterlimit:10" />
		<line
   stroke-miterlimit="10"
   x1="0"
   y1="256"
   x2="512"
   y2="256"
   id="line20"
   style="fill:none;stroke:#a9ccdb;stroke-miterlimit:10" />
		<line
   stroke-miterlimit="10"
   x1="0"
   y1="288"
   x2="512"
   y2="288"
   id="line22"
   style="fill:none;stroke:#a9ccdb;stroke-miterlimit:10" />
		<line
   stroke-miterlimit="10"
   x1="0"
   y1="320"
   x2="512"
   y2="320"
   id="line24"
   style="fill:none;stroke:#a9ccdb;stroke-miterlimit:10" />
		<line
   stroke-miterlimit="10"
   x1="0"
   y1="352"
   x2="512"
   y2="352"
   id="line26"
   style="fill:none;stroke:#a9ccdb;stroke-miterlimit:10" />
		<line
   stroke-miterlimit="10"
   x1="0"
   y1="384"
   x2="512"
   y2="384"
   id="line28"
   style="fill:none;stroke:#a9ccdb;stroke-miterlimit:10" />
		<line
   stroke-miterlimit="10"
   x1="0"
   y1="416"
   x2="512"
   y2="416"
   id="line30"
   style="fill:none;stroke:#a9ccdb;stroke-miterlimit:10" />
		<line
   stroke-miterlimit="10"
   x1="0"
   y1="448"
   x2="512"
   y2="448"
   id="line32"
   style="fill:none;stroke:#ff0000;stroke-miterlimit:10" />
		<line
   stroke-miterlimit="10"
   x1="0"
   y1="480"
   x2="512"
   y2="480"
   id="line34"
   style="fill:none;stroke:#a9ccdb;stroke-miterlimit:10" />
		<line
   stroke-miterlimit="10"
   x1="32"
   y1="0"
   x2="32"
   y2="512"
   id="line36"
   style="fill:none;stroke:#a9ccdb;stroke-miterlimit:10" />
		<line
   stroke-miterlimit="10"
   x1="64"
   y1="0"
   x2="64"
   y2="512"
   id="line38"
   style="fill:none;stroke:#a9ccdb;stroke-miterlimit:10" />
		<line
   stroke-miterlimit="10"
   x1="96"
   y1="0"
   x2="96"
   y2="512"
   id="line40"
   style="fill:none;stroke:#a9ccdb;stroke-miterlimit:10" />
		<line
   stroke-miterlimit="10"
   x1="128"
   y1="0"
   x2="128"
   y2="512"
   id="line42"
   style="fill:none;stroke:#a9ccdb;stroke-miterlimit:10" />
		<line
   stroke-miterlimit="10"
   x1="160"
   y1="0"
   x2="160"
   y2="512"
   id="line44"
   style="fill:none;stroke:#a9ccdb;stroke-miterlimit:10" />
		<line
   stroke-miterlimit="10"
   x1="192"
   y1="0"
   x2="192"
   y2="512"
   id="line46"
   style="fill:none;stroke:#a9ccdb;stroke-miterlimit:10" />
		<line
   stroke-miterlimit="10"
   x1="224"
   y1="0"
   x2="224"
   y2="512"
   id="line48"
   style="fill:none;stroke:#a9ccdb;stroke-miterlimit:10" />
		<line
   stroke-miterlimit="10"
   x1="256"
   y1="0"
   x2="256"
   y2="512"
   id="line50"
   style="fill:none;stroke:#a9ccdb;stroke-miterlimit:10" />
		<line
   stroke-miterlimit="10"
   x1="288"
   y1="0"
   x2="288"
   y2="512"
   id="line52"
   style="fill:none;stroke:#a9ccdb;stroke-miterlimit:10" />
		<line
   stroke-miterlimit="10"
   x1="320"
   y1="0"
   x2="320"
   y2="512"
   id="line54"
   style="fill:none;stroke:#a9ccdb;stroke-miterlimit:10" />
		<line
   stroke-miterlimit="10"
   x1="352"
   y1="0"
   x2="352"
   y2="512"
   id="line56"
   style="fill:none;stroke:#a9ccdb;stroke-miterlimit:10" />
		<line
   stroke-miterlimit="10"
   x1="384"
   y1="0"
   x2="384"
   y2="512"
   id="line58"
   style="fill:none;stroke:#a9ccdb;stroke-miterlimit:10" />
		<line
   stroke-miterlimit="10"
   x1="416"
   y1="0"
   x2="416"
   y2="512"
   id="line60"
   style="fill:none;stroke:#a9ccdb;stroke-miterlimit:10" />
		<line
   stroke-miterlimit="10"
   x1="448"
   y1="0"
   x2="448"
   y2="512"
   id="line62"
   style="fill:none;stroke:#a9ccdb;stroke-miterlimit:10" />
		<line
   stroke-miterlimit="10"
   x1="480"
   y1="0"
   x2="480"
   y2="512"
   id="line64"
   style="fill:none;stroke:#a9ccdb;stroke-miterlimit:10" />
	</g>
<path
   sodipodi:nodetypes="csccsccccccccscccsccccccccccscccscccccsccccssccccscsccccccccccccccccccccccccccc"
   inkscape:connector-curvature="0"
   id="path3786"
   d="m 147.25902,66.950338 c -4.40441,0.13473 -15.01898,-0.54994 -19.18457,-0.0197 -10.66425,1.3571 -13.60705,4.84709 -17.58773,7.28428 -4.67765,3.00385 -10.768638,12.58637 -1.2928,26.539292 4.64449,12.71796 22.7681,28.41414 39.19469,42.85845 7.77009,6.83247 15.16042,13.3848 20.56486,19.20937 13.70786,14.70336 9.56145,10.15832 26.58343,20.24529 l 11.0091,0 11.00909,0 c 2.08577,7.6397 16.39111,4.02487 26.03255,5.34787 27.03022,2.92641 53.23813,-3.64768 80.4346,-3.53209 8.21284,5.38981 3.44526,7.77881 13.04816,12.75382 11.92576,4.4233 24.60589,10.98965 37.36421,11.6557 10.58898,-3.46017 21.51571,-4.20955 32.53592,-3.17194 45.62763,4.29615 92.85702,39.22638 124.34358,39.22638 l 5.50455,0 0,4.26161 c -0.21138,3.41032 2.4986,3.42437 3.77598,3.63628 1.27369,0.21122 1.10953,0.62534 4.48083,0.62534 4.54125,0 11.97239,0.19446 16.51364,0.42897 10.575,1.00922 9.78416,8.89247 10.95754,12.52318 1.61147,23.6812 0.43802,28.36949 -6.84734,52.79404 7.55943,21.25141 -10.58056,45.8971 -21.44466,60.37761 -11.03163,10.97201 -3.37455,10.63338 -0.13295,20.61322 2.95101,9.5704 -6.98573,19.18605 -7.30304,30.28112 -6.53785,1.35788 -8.31303,21.6442 -11.00909,26.88094 -6.86204,8.66773 -5.51996,9.23897 -5.32341,18.19885 -2.90063,8.11924 -3.84386,10.56986 -9.00355,16.61078 -4.44665,5.12824 -11.98488,9.94669 -14.3003,14.86912 -7.87131,16.73402 -11.39227,30.30843 -26.41817,30.30843 -39.13822,27.57095 -88.07273,65.57654 -88.07273,115.39138 -5.84924,15.15723 7.97629,21.07821 8.82574,27.44248 1.25502,10.96114 -1.31443,32.77963 -2.58695,42.08121 -1.05331,7.69925 0.55953,9.87701 -3.55774,10.35081 -3.45194,0.0349 -2.58067,0.52563 -2.50011,3.52726 0.56665,21.95519 -11.03744,30.86511 -11.19001,40.51281 -9.58428,4.97622 18.03727,26.74448 22.01816,21.9637 11.9657,-7.52691 25.25718,-0.71073 34.02544,0.84383 5.94775,1.03851 11.00054,5.09166 21.37529,6.19062 5.04641,0.53456 21.5223,5.47478 21.66291,6.73383 1.59557,6.16619 13.99806,10.87861 21.44493,16.00125 10.22466,11.75267 18.74916,8.52716 30.84758,12.97117 8.08907,3.0466 13.76201,9.12916 13.76201,19.21659 -1.57348,4.20602 -1.34365,7.30382 -0.0373,9.51999 1.79541,3.04594 5.62439,4.42644 9.59966,4.72974 6.05942,0.46228 12.45876,-1.57812 12.5143,-4.03759 0.0134,-1.30124 3.61339,-10.03728 3.61339,-12.54678 6.70512,-6.81255 7.50924,-5.40064 10.56776,-9.85875 7.58791,-7.12076 12.82454,-18.54804 18.409,-18.68448 12.27028,1.67966 14.15724,1.53687 16.93088,-3.42201 1.08816,-1.94549 2.31274,-4.63219 4.35435,-8.24092 2.78648,-4.47193 11.0868,-4.60233 12.32066,-6.88512 2.59329,-4.79795 0.0792,-4.62364 -0.19991,-17.12082 l 0,-12.26916 c -3.52913,-16.61546 7.4309,-14.67971 14.75734,-24.08708 2.24826,-2.93711 3.96289,-6.04978 5.84261,-8.767 19.1507,-14.89218 1.62662,-15.67904 1.41822,-25.02946 l 0,-8.85104 c 3.66973,0 7.33938,0 11.0091,0 9.62356,-13.58015 11.22046,-11.89788 11.00909,-26.88094 6.64431,-18.31646 -11.1234,-17.76443 -13.17108,-30.89302 -1.94195,-14.1678 2.01641,-35.51777 2.16199,-44.50472 -1.12092,-7.08694 0.52986,-14.1987 2.81114,-21.31881 14.90851,-30.91475 25.27162,-65.89476 33.80923,-97.64352 1.91934,-11.71733 7.07839,-21.73147 10.20685,-31.80469 4.39269,-14.28105 6.76301,-32.63235 8.09064,-45.26218 1.4058,-19.72241 0.16916,-37.29057 0.12758,-52.4556 l 0,-30.81474 c 25.28677,-6.47877 29.10195,-41.13511 40.06111,-55.2456 7.69237,-20.66316 4.62886,-41.50868 0.13761,-57.67986 -0.77536,-2.34717 -4.64565,-1.73429 -3.22417,-5.84169 6.14469,-18.13449 -5.5245,-26.69369 -15.90302,-25.05954 -34.05023,-10.70044 -53.00692,-29.16962 -89.216,-40.83004 -7.22799,-0.36787 -14.2108,-5.1085 -20.70214,-5.6334 -7.87913,-0.55617 -12.98969,4.09043 -22.7846,4.09043 -17.45026,0 -24.63822,-3.71063 -42.08845,-3.71063 -100.00955,-31.2089 -212.24222,-46.256782 -299.90222,-61.702962 -36.45122,-6.70562 -74.07757,-13.91423 -112.0832,-15.291 z"
   style="fill:#97704f" />
</svg>