<?xml version="1.0" encoding="UTF-8" standalone="no"?>
<svg
   xmlns:dc="http://purl.org/dc/elements/1.1/"
   xmlns:cc="http://creativecommons.org/ns#"
   xmlns:rdf="http://www.w3.org/1999/02/22-rdf-syntax-ns#"
   xmlns:svg="http://www.w3.org/2000/svg"
   xmlns="http://www.w3.org/2000/svg"
   xmlns:sodipodi="http://sodipodi.sourceforge.net/DTD/sodipodi-0.dtd"
   xmlns:inkscape="http://www.inkscape.org/namespaces/inkscape"
   version="1.1"
   id="Layer_1"
   x="0px"
   y="0px"
   width="1024"
   height="1024"
   viewBox="0 0 1024 1024"
   enable-background="new 0 0 512 512"
   xml:space="preserve"
   inkscape:version="0.48.0 r9654"
   sodipodi:docname="nunhebrew-x5e0.svg"><title
   id="title3743">Sinai 357</title><metadata
   id="metadata72"><rdf:RDF><cc:Work
       rdf:about=""><dc:format>image/svg+xml</dc:format><dc:type
         rdf:resource="http://purl.org/dc/dcmitype/StillImage" /><dc:title>Sinai 357</dc:title><dc:date>2017</dc:date><dc:creator><cc:Agent><dc:title>Celeste Claire Horner</dc:title></cc:Agent></dc:creator><dc:publisher><cc:Agent><dc:title>beitdina.net</dc:title></cc:Agent></dc:publisher></cc:Work></rdf:RDF></metadata><defs
   id="defs70" /><sodipodi:namedview
   pagecolor="#ffffff"
   bordercolor="#666666"
   borderopacity="1"
   objecttolerance="10"
   gridtolerance="10"
   guidetolerance="10"
   inkscape:pageopacity="0"
   inkscape:pageshadow="2"
   inkscape:window-width="1152"
   inkscape:window-height="814"
   id="namedview68"
   showgrid="false"
   inkscape:zoom="0.4417291"
   inkscape:cx="352.19294"
   inkscape:cy="760.79585"
   inkscape:window-x="-8"
   inkscape:window-y="-8"
   inkscape:window-maximized="1"
   inkscape:current-layer="Layer_1" />
   
	<g
   id="Grid"
   transform="matrix(2.0059908,0,0,2.0059908,0.50299541,-3.5702931)">
		<rect
   x="-0.47926444"
   stroke-miterlimit="10"
   width="512.47925"
   height="510.08289"
   id="rect4"
   y="1.9170578"
   style="fill:none;stroke:#a9ccdb;stroke-miterlimit:10"
   ry="0" />
		<line
   stroke-miterlimit="10"
   x1="0"
   y1="32"
   x2="512"
   y2="32"
   id="line6"
   style="fill:none;stroke:#a9ccdb;stroke-miterlimit:10" />
		<line
   stroke-miterlimit="10"
   x1="0"
   y1="64"
   x2="512"
   y2="64"
   id="line8"
   style="fill:none;stroke:#a9ccdb;stroke-miterlimit:10" />
		<line
   stroke-miterlimit="10"
   x1="0"
   y1="96"
   x2="512"
   y2="96"
   id="line10"
   style="fill:none;stroke:#a9ccdb;stroke-miterlimit:10" />
		<line
   stroke-miterlimit="10"
   x1="0"
   y1="128"
   x2="512"
   y2="128"
   id="line12"
   style="fill:none;stroke:#a9ccdb;stroke-miterlimit:10" />
		<line
   stroke-miterlimit="10"
   x1="0"
   y1="160"
   x2="512"
   y2="160"
   id="line14"
   style="fill:none;stroke:#a9ccdb;stroke-miterlimit:10" />
		<line
   stroke-miterlimit="10"
   x1="0"
   y1="192"
   x2="512"
   y2="192"
   id="line16"
   style="fill:none;stroke:#a9ccdb;stroke-miterlimit:10" />
		<line
   stroke-miterlimit="10"
   x1="0"
   y1="224"
   x2="512"
   y2="224"
   id="line18"
   style="fill:none;stroke:#a9ccdb;stroke-miterlimit:10" />
		<line
   stroke-miterlimit="10"
   x1="0"
   y1="256"
   x2="512"
   y2="256"
   id="line20"
   style="fill:none;stroke:#a9ccdb;stroke-miterlimit:10" />
		<line
   stroke-miterlimit="10"
   x1="0"
   y1="288"
   x2="512"
   y2="288"
   id="line22"
   style="fill:none;stroke:#a9ccdb;stroke-miterlimit:10" />
		<line
   stroke-miterlimit="10"
   x1="0"
   y1="320"
   x2="512"
   y2="320"
   id="line24"
   style="fill:none;stroke:#a9ccdb;stroke-miterlimit:10" />
		<line
   stroke-miterlimit="10"
   x1="0"
   y1="352"
   x2="512"
   y2="352"
   id="line26"
   style="fill:none;stroke:#a9ccdb;stroke-miterlimit:10" />
		<line
   stroke-miterlimit="10"
   x1="0"
   y1="384"
   x2="512"
   y2="384"
   id="line28"
   style="fill:none;stroke:#a9ccdb;stroke-miterlimit:10" />
		<line
   stroke-miterlimit="10"
   x1="0"
   y1="416"
   x2="512"
   y2="416"
   id="line30"
   style="fill:none;stroke:#a9ccdb;stroke-miterlimit:10" />
		<line
   stroke-miterlimit="10"
   x1="0"
   y1="448"
   x2="512"
   y2="448"
   id="line32"
   style="fill:none;stroke:#ff0000;stroke-miterlimit:10" />
		<line
   stroke-miterlimit="10"
   x1="0"
   y1="480"
   x2="512"
   y2="480"
   id="line34"
   style="fill:none;stroke:#a9ccdb;stroke-miterlimit:10" />
		<line
   stroke-miterlimit="10"
   x1="32"
   y1="0"
   x2="32"
   y2="512"
   id="line36"
   style="fill:none;stroke:#a9ccdb;stroke-miterlimit:10" />
		<line
   stroke-miterlimit="10"
   x1="64"
   y1="0"
   x2="64"
   y2="512"
   id="line38"
   style="fill:none;stroke:#a9ccdb;stroke-miterlimit:10" />
		<line
   stroke-miterlimit="10"
   x1="96"
   y1="0"
   x2="96"
   y2="512"
   id="line40"
   style="fill:none;stroke:#a9ccdb;stroke-miterlimit:10" />
		<line
   stroke-miterlimit="10"
   x1="128"
   y1="0"
   x2="128"
   y2="512"
   id="line42"
   style="fill:none;stroke:#a9ccdb;stroke-miterlimit:10" />
		<line
   stroke-miterlimit="10"
   x1="160"
   y1="0"
   x2="160"
   y2="512"
   id="line44"
   style="fill:none;stroke:#a9ccdb;stroke-miterlimit:10" />
		<line
   stroke-miterlimit="10"
   x1="192"
   y1="0"
   x2="192"
   y2="512"
   id="line46"
   style="fill:none;stroke:#a9ccdb;stroke-miterlimit:10" />
		<line
   stroke-miterlimit="10"
   x1="224"
   y1="0"
   x2="224"
   y2="512"
   id="line48"
   style="fill:none;stroke:#a9ccdb;stroke-miterlimit:10" />
		<line
   stroke-miterlimit="10"
   x1="256"
   y1="0"
   x2="256"
   y2="512"
   id="line50"
   style="fill:none;stroke:#a9ccdb;stroke-miterlimit:10" />
		<line
   stroke-miterlimit="10"
   x1="288"
   y1="0"
   x2="288"
   y2="512"
   id="line52"
   style="fill:none;stroke:#a9ccdb;stroke-miterlimit:10" />
		<line
   stroke-miterlimit="10"
   x1="320"
   y1="0"
   x2="320"
   y2="512"
   id="line54"
   style="fill:none;stroke:#a9ccdb;stroke-miterlimit:10" />
		<line
   stroke-miterlimit="10"
   x1="352"
   y1="0"
   x2="352"
   y2="512"
   id="line56"
   style="fill:none;stroke:#a9ccdb;stroke-miterlimit:10" />
		<line
   stroke-miterlimit="10"
   x1="384"
   y1="0"
   x2="384"
   y2="512"
   id="line58"
   style="fill:none;stroke:#a9ccdb;stroke-miterlimit:10" />
		<line
   stroke-miterlimit="10"
   x1="416"
   y1="0"
   x2="416"
   y2="512"
   id="line60"
   style="fill:none;stroke:#a9ccdb;stroke-miterlimit:10" />
		<line
   stroke-miterlimit="10"
   x1="448"
   y1="0"
   x2="448"
   y2="512"
   id="line62"
   style="fill:none;stroke:#a9ccdb;stroke-miterlimit:10" />
		<line
   stroke-miterlimit="10"
   x1="480"
   y1="0"
   x2="480"
   y2="512"
   id="line64"
   style="fill:none;stroke:#a9ccdb;stroke-miterlimit:10" />
	</g>
<path
   sodipodi:nodetypes="csccccccsccsccscscscccsccscsccccsccscsccccccccccsccccccccccccccccccccccscccccccccccc"
   inkscape:connector-curvature="0"
   id="path3786"
   d="m 130.81983,82.545871 c -4.40441,0.13473 -15.01898,-0.54994 -19.18457,-0.0197 -10.66425,1.3571 -13.607055,4.84709 -17.587735,7.28428 -4.67765,3.00385 -10.76864,12.586369 -1.2928,26.539289 4.64449,12.71796 22.768105,28.41414 39.194695,42.85845 9.09929,7.52827 16.60241,15.53767 24.45248,23.22036 8.8388,8.62895 6.00111,1.32686 21.14359,10.30007 l 10.16016,1.13192 c 4.10542,-0.11312 7.74626,-0.56865 10.79136,0.0189 6.48428,1.25115 11.26738,4.23155 19.11357,4.22688 8.57361,-0.5119 19.63048,-0.20728 27.73742,0.25609 5.78117,0.3245 12.99812,1.60282 17.60861,1.22701 12.93272,-1.05416 23.16957,-3.9907 41.4249,-3.91311 8.21284,5.38981 11.44911,5.37765 21.05201,10.35266 5.32574,1.97534 10.80191,4.37806 16.36831,6.49182 3.58426,1.36107 6.63997,2.03638 10.28297,2.96659 2.55499,1.1426 5.64296,1.949 8.13654,1.87047 3.73094,-0.11749 7.39822,-0.94906 11.01706,-0.54128 6.18473,0.74252 11.52148,4.16791 19.29294,4.89963 45.62764,4.29608 50.43661,30.42214 81.92317,30.42214 3.56037,0.38737 4.35593,-0.51523 7.30114,1.67983 1.87482,1.83644 5.89453,4.01234 7.59214,4.01361 1.66466,0 5.60122,1.724 7.27611,1.76866 2.89427,0.0772 5.22902,1.34155 8.10561,1.4901 10.575,1.00922 13.17991,9.45843 14.35329,13.08914 0.61258,9.00213 -2.22604,12.61186 -2.17093,15.67136 0.0899,4.98889 2.24066,7.57591 -2.27525,22.71575 3.73155,10.4903 -0.61544,21.59353 -3.2692,31.31697 -1.76864,6.48035 -2.87265,12.36032 -4.93774,17.69551 -0.48803,5.98152 -4.35968,9.74412 -5.23738,15.05419 0.1521,5.91244 0.28051,9.30535 -0.16474,12.15706 -6.16592,16.9036 -18.54308,33.34644 -24.36662,49.76305 -6.13643,16.41911 -17.1338,37.38106 -25.07112,52.18728 -5.45381,10.17351 -5.37172,7.27975 -10.46672,17.09547 -3.45554,7.3463 -11.00878,19.79106 -19.66724,31.44198 -7.85802,10.90323 -17.69242,19.17257 -27.97743,26.57137 -11.67551,8.3991 -23.93172,15.67635 -34.53657,24.41135 -13.70157,11.4817 -24.55343,23.60002 -31.07617,39.1215 -4.40552,10.48335 -6.83619,22.51915 -6.83619,36.95977 -5.84924,15.15723 7.97629,21.07821 8.82574,27.44248 1.25502,10.96114 -1.31443,32.77963 -2.58695,42.08121 1.46716,13.0315 -6.28567,7.52132 -6.05785,13.87807 0.56665,21.95519 -11.03744,30.86511 -11.19001,40.51281 -9.58428,4.97622 18.03727,26.74448 22.01816,21.9637 19.54302,-14.69125 34.77108,-0.0873 54.47943,7.33628 9.97305,3.60835 6.73296,6.03028 15.30578,9.7777 12.42018,5.44166 26.05974,8.62025 37.24198,15.36911 14.65455,4.72153 15.15689,12.56297 17.64481,18.18418 1.72195,3.16976 5.48068,6.6151 9.68817,9.11052 5.07546,3.0102 10.80393,4.63812 14.39794,2.73261 6.31302,-3.22591 8.84656,-8.03262 12.23638,-13.31616 2.80886,-4.59086 8.09105,-7.35208 10.37763,-10.63573 7.58791,-7.12076 12.82454,-18.54804 18.409,-18.68448 22.93936,2.00549 33.79606,-22.44614 33.40598,-35.66887 l 0,-12.26916 c -3.52913,-16.61546 7.4309,-14.67971 14.75734,-24.08708 2.24826,-2.93711 3.96289,-6.04978 5.84261,-8.767 19.1507,-14.89218 1.62662,-15.67904 1.41822,-25.02946 l 0,-8.85104 c 2.86862,0 5.73719,0 8.60578,0 8.0856,-1.43275 11.36074,-14.0313 12.5727,-22.18024 7.55066,-18.96081 -10.48678,-26.63497 -12.33137,-35.59372 -1.94195,-14.1678 2.01641,-35.51777 2.16199,-44.50472 -1.12092,-7.08694 0.52986,-14.1987 2.81114,-21.31881 14.90851,-30.91475 29.07345,-58.89139 37.61106,-90.64015 1.91934,-11.71733 6.4781,-19.13022 9.60656,-29.20344 4.39269,-14.28105 5.76253,-22.22734 7.09016,-34.85717 1.25397,-17.5924 1.24239,-48.30761 1.15252,-64.28982 -1.21275,-1.79308 2.28823,-7.29257 3.40422,-11.28544 l 4.42308,-16.40224 c 1.29356,-8.5748 3.89158,-6.37133 9.7255,-9.81317 9.53309,-5.69252 15.21327,-16.16647 19.83828,-26.65816 2.71931,-6.16866 5.07385,-12.34345 7.63229,-17.55613 3.26839,-5.19943 5.77427,-10.39092 7.1328,-15.93838 4.33972,-17.89042 1.51828,-35.43341 -2.37729,-49.45978 -3.60244,-6.54186 -2.29412,-6.59389 -1.66816,-12.60971 1.48685,-13.47584 -8.47017,-19.70686 -17.45903,-18.29152 -34.05023,-10.70044 -53.00692,-29.16962 -89.216,-40.83004 -7.22799,-0.36787 -14.2108,-5.1085 -20.70214,-5.6334 -7.87913,-0.55617 -12.98969,4.09043 -22.7846,4.09043 -17.45026,0 -24.63822,-3.71063 -42.08845,-3.71063 -100.00955,-31.2089 -169.82181,-37.45254 -257.48181,-52.898719 -36.45122,-6.70562 -74.07757,-13.91423 -112.0832,-15.291 z"
   style="fill:#97704f" />
</svg>