<?xml version="1.0" encoding="UTF-8" standalone="no"?>
<svg
   xmlns:dc="http://purl.org/dc/elements/1.1/"
   xmlns:cc="http://creativecommons.org/ns#"
   xmlns:rdf="http://www.w3.org/1999/02/22-rdf-syntax-ns#"
   xmlns:svg="http://www.w3.org/2000/svg"
   xmlns="http://www.w3.org/2000/svg"
   xmlns:sodipodi="http://sodipodi.sourceforge.net/DTD/sodipodi-0.dtd"
   xmlns:inkscape="http://www.inkscape.org/namespaces/inkscape"
   version="1.1"
   id="Layer_1"
   x="0px"
   y="0px"
   width="700"
   height="1024"
   viewBox="0 0 700 1024"
   enable-background="new 0 0 512 512"
   xml:space="preserve"
   inkscape:version="0.48.0 r9654"
   sodipodi:docname="pehebrew-x5e4.svg"><title
   id="title3743">Sinai 357</title><metadata
   id="metadata72"><rdf:RDF><cc:Work
       rdf:about=""><dc:format>image/svg+xml</dc:format><dc:type
         rdf:resource="http://purl.org/dc/dcmitype/StillImage" /><dc:title>Sinai 357</dc:title><dc:date>2017</dc:date><dc:creator><cc:Agent><dc:title>Celeste Claire Horner</dc:title></cc:Agent></dc:creator><dc:publisher><cc:Agent><dc:title>beitdina.net</dc:title></cc:Agent></dc:publisher></cc:Work></rdf:RDF></metadata><defs
   id="defs70" /><sodipodi:namedview
   pagecolor="#ffffff"
   bordercolor="#666666"
   borderopacity="1"
   objecttolerance="10"
   gridtolerance="10"
   guidetolerance="10"
   inkscape:pageopacity="0"
   inkscape:pageshadow="2"
   inkscape:window-width="1152"
   inkscape:window-height="814"
   id="namedview68"
   showgrid="false"
   inkscape:zoom="0.36774845"
   inkscape:cx="-145.29399"
   inkscape:cy="602.90781"
   inkscape:window-x="-8"
   inkscape:window-y="-8"
   inkscape:window-maximized="1"
   inkscape:current-layer="Layer_1"
   showguides="true"
   inkscape:guide-bbox="true" />
   
	
	


<g
   transform="matrix(4.4637923,0,0,4.9975799,-3306.2811,-1632.7003)"
   id="g2991"><g
     id="g4784" /><g
     id="g4634"><g
       id="g4519"
       transform="translate(477.65623,235.79285)"><g
         id="Grid"
         transform="matrix(0.30374688,0,0,0.40028531,263.75757,91.926833)"><rect
           x="0"
           stroke-miterlimit="10"
           width="512"
           height="512"
           id="rect4"
           y="0"
           style="fill:none;stroke:#a9ccdb;stroke-miterlimit:10" /><line
           stroke-miterlimit="10"
           x1="0"
           y1="32"
           x2="512"
           y2="32"
           id="line6"
           style="fill:none;stroke:#a9ccdb;stroke-miterlimit:10" /><line
           stroke-miterlimit="10"
           x1="0"
           y1="64"
           x2="512"
           y2="64"
           id="line8"
           style="fill:none;stroke:#a9ccdb;stroke-miterlimit:10" /><line
           stroke-miterlimit="10"
           x1="0"
           y1="96"
           x2="512"
           y2="96"
           id="line10"
           style="fill:none;stroke:#a9ccdb;stroke-miterlimit:10" /><line
           stroke-miterlimit="10"
           x1="0"
           y1="128"
           x2="512"
           y2="128"
           id="line12"
           style="fill:none;stroke:#a9ccdb;stroke-miterlimit:10" /><line
           stroke-miterlimit="10"
           x1="0"
           y1="160"
           x2="512"
           y2="160"
           id="line14"
           style="fill:none;stroke:#a9ccdb;stroke-miterlimit:10" /><line
           stroke-miterlimit="10"
           x1="0"
           y1="192"
           x2="512"
           y2="192"
           id="line16"
           style="fill:none;stroke:#a9ccdb;stroke-miterlimit:10" /><line
           stroke-miterlimit="10"
           x1="0"
           y1="224"
           x2="512"
           y2="224"
           id="line18"
           style="fill:none;stroke:#a9ccdb;stroke-miterlimit:10" /><line
           stroke-miterlimit="10"
           x1="0"
           y1="256"
           x2="512"
           y2="256"
           id="line20"
           style="fill:none;stroke:#a9ccdb;stroke-miterlimit:10" /><line
           stroke-miterlimit="10"
           x1="0"
           y1="288"
           x2="512"
           y2="288"
           id="line22"
           style="fill:none;stroke:#a9ccdb;stroke-miterlimit:10" /><line
           stroke-miterlimit="10"
           x1="0"
           y1="320"
           x2="512"
           y2="320"
           id="line24"
           style="fill:none;stroke:#a9ccdb;stroke-miterlimit:10" /><line
           stroke-miterlimit="10"
           x1="0"
           y1="352"
           x2="512"
           y2="352"
           id="line26"
           style="fill:none;stroke:#a9ccdb;stroke-miterlimit:10" /><line
           stroke-miterlimit="10"
           x1="0"
           y1="384"
           x2="512"
           y2="384"
           id="line28"
           style="fill:none;stroke:#a9ccdb;stroke-miterlimit:10" /><line
           stroke-miterlimit="10"
           x1="0"
           y1="416"
           x2="512"
           y2="416"
           id="line30"
           style="fill:none;stroke:#a9ccdb;stroke-miterlimit:10" /><line
           stroke-miterlimit="10"
           x1="0"
           y1="448"
           x2="512"
           y2="448"
           id="line32"
           style="fill:none;stroke:#ff0000;stroke-miterlimit:10" /><line
           stroke-miterlimit="10"
           x1="0"
           y1="480"
           x2="512"
           y2="480"
           id="line34"
           style="fill:none;stroke:#a9ccdb;stroke-miterlimit:10" /><line
           stroke-miterlimit="10"
           x1="32"
           y1="0"
           x2="32"
           y2="512"
           id="line36"
           style="fill:none;stroke:#a9ccdb;stroke-miterlimit:10" /><line
           stroke-miterlimit="10"
           x1="64"
           y1="0"
           x2="64"
           y2="512"
           id="line38"
           style="fill:none;stroke:#a9ccdb;stroke-miterlimit:10" /><line
           stroke-miterlimit="10"
           x1="96"
           y1="0"
           x2="96"
           y2="512"
           id="line40"
           style="fill:none;stroke:#a9ccdb;stroke-miterlimit:10" /><line
           stroke-miterlimit="10"
           x1="128"
           y1="0"
           x2="128"
           y2="512"
           id="line42"
           style="fill:none;stroke:#a9ccdb;stroke-miterlimit:10" /><line
           stroke-miterlimit="10"
           x1="160"
           y1="0"
           x2="160"
           y2="512"
           id="line44"
           style="fill:none;stroke:#a9ccdb;stroke-miterlimit:10" /><line
           stroke-miterlimit="10"
           x1="192"
           y1="0"
           x2="192"
           y2="512"
           id="line46"
           style="fill:none;stroke:#a9ccdb;stroke-miterlimit:10" /><line
           stroke-miterlimit="10"
           x1="224"
           y1="0"
           x2="224"
           y2="512"
           id="line48"
           style="fill:none;stroke:#a9ccdb;stroke-miterlimit:10" /><line
           stroke-miterlimit="10"
           x1="256"
           y1="0"
           x2="256"
           y2="512"
           id="line50"
           style="fill:none;stroke:#a9ccdb;stroke-miterlimit:10" /><line
           stroke-miterlimit="10"
           x1="288"
           y1="0"
           x2="288"
           y2="512"
           id="line52"
           style="fill:none;stroke:#a9ccdb;stroke-miterlimit:10" /><line
           stroke-miterlimit="10"
           x1="320"
           y1="0"
           x2="320"
           y2="512"
           id="line54"
           style="fill:none;stroke:#a9ccdb;stroke-miterlimit:10" /><line
           stroke-miterlimit="10"
           x1="352"
           y1="0"
           x2="352"
           y2="512"
           id="line56"
           style="fill:none;stroke:#a9ccdb;stroke-miterlimit:10" /><line
           stroke-miterlimit="10"
           x1="384"
           y1="0"
           x2="384"
           y2="512"
           id="line58"
           style="fill:none;stroke:#a9ccdb;stroke-miterlimit:10" /><line
           stroke-miterlimit="10"
           x1="416"
           y1="0"
           x2="416"
           y2="512"
           id="line60"
           style="fill:none;stroke:#a9ccdb;stroke-miterlimit:10" /><line
           stroke-miterlimit="10"
           x1="448"
           y1="0"
           x2="448"
           y2="512"
           id="line62"
           style="fill:none;stroke:#a9ccdb;stroke-miterlimit:10" /><line
           stroke-miterlimit="10"
           x1="480"
           y1="0"
           x2="480"
           y2="512"
           id="line64"
           style="fill:none;stroke:#a9ccdb;stroke-miterlimit:10" /></g><g
         id="g5180"
         transform="translate(101.34448,27.123307)" /></g></g><flowRoot
     style="font-size:28px;font-style:normal;font-variant:normal;font-weight:normal;font-stretch:normal;text-align:start;line-height:100%;letter-spacing:0px;word-spacing:0px;writing-mode:lr-tb;text-anchor:start;fill:#000000;fill-opacity:1;stroke:none;font-family:Arial;-inkscape-font-specification:Arial"
     id="flowRoot4904"
     xml:space="preserve"><flowRegion
       id="flowRegion4906"><rect
         style="font-size:28px"
         y="186.87357"
         x="31.103449"
         height="32.045979"
         width="594.73566"
         id="rect4908" /></flowRegion><flowPara
       id="flowPara4910" /></flowRoot></g>
  


<path
   style="fill:#936036;fill-opacity:0.78260869"
   d="m 140.81787,210.47395 c 12.90974,13.20806 26.78146,20.91542 40.7778,26.35642 12.67434,4.92706 25.4509,7.99569 37.70791,11.60755 7.38674,2.20151 19.27887,5.35858 26.43026,6.57705 15.14971,2.91669 28.10254,8.21825 42.79738,14.31436 13.9219,1.84153 26.01672,9.67954 37.49376,18.76042 11.30433,12.08622 26.13881,17.15777 37.3916,27.88549 9.61171,9.31612 23.17059,23.70643 25.80164,43.91006 6.59874,42.20129 10.97176,51.46906 7.50797,89.87064 -3.0212,46.11345 -19.74003,93.29097 -26.58215,131.10441 -5.74707,33.0836 -26.3773,90.31709 -37.20197,112.20561 -3.63801,6.87027 -17.00718,43.2494 -27.27051,57.55879 -13.46997,14.98937 -56.69457,2.86176 -63.24666,-9.63292 -14.95797,-22.6696 -30.66472,-31.52572 -36.0302,-53.85004 -2.94149,-11.8513 -5.29258,-30.95014 -8.97774,-46.70945 -3.83824,-16.414 -5.736,-31.07657 -0.81082,-35.92383 11.15596,-9.96972 50.94025,-17.21201 57.14606,-30.83845 4.75146,-7.82724 8.7198,-16.23079 10.84424,-24.93122 2.05357,-8.41017 2.38421,-17.09775 0.0338,-25.81036 -3.45587,-11.65364 -19.73446,-20.64015 -27.70808,-25.17335 -27.84874,-2.42835 -70.8412,-2.92234 -94.71053,11.94245 -15.42435,12.92015 -27.67363,28.01208 -37.50316,47.19057 -16.635489,21.73096 -10.567367,52.93165 -6.994611,75.39535 6.806041,43.20259 12.855541,86.39259 33.564141,121.63908 38.35441,53.55636 68.88681,103.66537 122.7912,131.6717 24.08829,12.38723 49.971,21.70692 62.83915,18.64869 9.95639,-4.55882 23.8479,-13.83184 26.87691,-19.15672 12.12847,-20.28888 19.61223,-13.67166 29.04285,-34.69819 8.29153,-18.48684 14.94581,-14.7024 22.45991,-41.27029 15.27806,-36.29203 26.89953,-67.2554 40.1445,-103.20708 11.8141,-54.00431 31.08762,-80.18334 37.39669,-130.94862 3.15148,-26.48575 8.76216,-76.4094 11.56973,-96.62462 5.81965,-35.40407 8.31513,-73.18149 7.27053,-102.94648 -0.59625,-14.44066 -0.37899,-54.41579 -5.25287,-68.20511 C 472.36162,284.43315 452.59555,265.81902 432.12083,247.30308 407.69602,225.21492 360.79873,194.97169 333.7911,177.02431 292.27872,149.95796 274.09598,141.2668 233.39199,123.44577 201.72878,112.07704 171.05261,99.361235 143.83541,96.310995 133.27687,95.872415 113.75244,110.92975 110.5876,119.7043 c -4.20857,11.21487 -4.91652,18.34893 -3.64112,25.33455 3.29305,12.03893 6.93115,22.87922 11.53629,32.78998 5.62464,12.10486 12.69179,22.8231 22.3351,32.64512 z"
   id="path3825"
   inkscape:connector-curvature="0"
   sodipodi:nodetypes="csccccccccccccsccscccccccccsccccccscccccsc" /></svg>