<?xml version="1.0" encoding="UTF-8" standalone="no"?>
<svg
   xmlns:dc="http://purl.org/dc/elements/1.1/"
   xmlns:cc="http://creativecommons.org/ns#"
   xmlns:rdf="http://www.w3.org/1999/02/22-rdf-syntax-ns#"
   xmlns:svg="http://www.w3.org/2000/svg"
   xmlns="http://www.w3.org/2000/svg"
   xmlns:sodipodi="http://sodipodi.sourceforge.net/DTD/sodipodi-0.dtd"
   xmlns:inkscape="http://www.inkscape.org/namespaces/inkscape"
   version="1.1"
   id="Layer_1"
   x="0px"
   y="0px"
   width="800"
   height="1024"
   viewBox="0 0 800 1024"
   enable-background="new 0 0 512 512"
   xml:space="preserve"
   inkscape:version="0.48.0 r9654"
   sodipodi:docname="qofhebrew-x5e7.svg"><title
   id="title3743">Sinai 357</title><metadata
   id="metadata72"><rdf:RDF><cc:Work
       rdf:about=""><dc:format>image/svg+xml</dc:format><dc:type
         rdf:resource="http://purl.org/dc/dcmitype/StillImage" /><dc:title>Sinai 357</dc:title><dc:date>2017</dc:date><dc:creator><cc:Agent><dc:title>Celeste Claire Horner</dc:title></cc:Agent></dc:creator><dc:publisher><cc:Agent><dc:title>beitdina.net</dc:title></cc:Agent></dc:publisher></cc:Work></rdf:RDF></metadata><defs
   id="defs70" /><sodipodi:namedview
   pagecolor="#ffffff"
   bordercolor="#666666"
   borderopacity="1"
   objecttolerance="10"
   gridtolerance="10"
   guidetolerance="10"
   inkscape:pageopacity="0"
   inkscape:pageshadow="2"
   inkscape:window-width="921"
   inkscape:window-height="713"
   id="namedview68"
   showgrid="false"
   inkscape:zoom="0.22086456"
   inkscape:cx="-301.14161"
   inkscape:cy="292.85331"
   inkscape:window-x="66"
   inkscape:window-y="80"
   inkscape:window-maximized="0"
   inkscape:current-layer="Layer_1" />
   
	<g
   id="Grid"
   transform="matrix(1.5631518,0,0,2.0004578,0.50019527,4.8138064)">
		<rect
   x="0"
   stroke-miterlimit="10"
   width="512"
   height="512"
   id="rect4"
   y="0"
   style="fill:none;stroke:#a9ccdb;stroke-miterlimit:10" />
		<line
   stroke-miterlimit="10"
   x1="0"
   y1="32"
   x2="512"
   y2="32"
   id="line6"
   style="fill:none;stroke:#a9ccdb;stroke-miterlimit:10" />
		<line
   stroke-miterlimit="10"
   x1="0"
   y1="64"
   x2="512"
   y2="64"
   id="line8"
   style="fill:none;stroke:#a9ccdb;stroke-miterlimit:10" />
		<line
   stroke-miterlimit="10"
   x1="0"
   y1="96"
   x2="512"
   y2="96"
   id="line10"
   style="fill:none;stroke:#a9ccdb;stroke-miterlimit:10" />
		<line
   stroke-miterlimit="10"
   x1="0"
   y1="128"
   x2="512"
   y2="128"
   id="line12"
   style="fill:none;stroke:#a9ccdb;stroke-miterlimit:10" />
		<line
   stroke-miterlimit="10"
   x1="0"
   y1="160"
   x2="512"
   y2="160"
   id="line14"
   style="fill:none;stroke:#a9ccdb;stroke-miterlimit:10" />
		<line
   stroke-miterlimit="10"
   x1="0"
   y1="192"
   x2="512"
   y2="192"
   id="line16"
   style="fill:none;stroke:#a9ccdb;stroke-miterlimit:10" />
		<line
   stroke-miterlimit="10"
   x1="0"
   y1="224"
   x2="512"
   y2="224"
   id="line18"
   style="fill:none;stroke:#a9ccdb;stroke-miterlimit:10" />
		<line
   stroke-miterlimit="10"
   x1="0"
   y1="256"
   x2="512"
   y2="256"
   id="line20"
   style="fill:none;stroke:#a9ccdb;stroke-miterlimit:10" />
		<line
   stroke-miterlimit="10"
   x1="0"
   y1="288"
   x2="512"
   y2="288"
   id="line22"
   style="fill:none;stroke:#a9ccdb;stroke-miterlimit:10" />
		<line
   stroke-miterlimit="10"
   x1="0"
   y1="320"
   x2="512"
   y2="320"
   id="line24"
   style="fill:none;stroke:#a9ccdb;stroke-miterlimit:10" />
		<line
   stroke-miterlimit="10"
   x1="0"
   y1="352"
   x2="512"
   y2="352"
   id="line26"
   style="fill:none;stroke:#a9ccdb;stroke-miterlimit:10" />
		<line
   stroke-miterlimit="10"
   x1="0"
   y1="384"
   x2="512"
   y2="384"
   id="line28"
   style="fill:none;stroke:#a9ccdb;stroke-miterlimit:10" />
		<line
   stroke-miterlimit="10"
   x1="0"
   y1="416"
   x2="512"
   y2="416"
   id="line30"
   style="fill:none;stroke:#a9ccdb;stroke-miterlimit:10" />
		<line
   stroke-miterlimit="10"
   x1="0"
   y1="448"
   x2="512"
   y2="448"
   id="line32"
   style="fill:none;stroke:#ff0000;stroke-miterlimit:10" />
		<line
   stroke-miterlimit="10"
   x1="0"
   y1="480"
   x2="512"
   y2="480"
   id="line34"
   style="fill:none;stroke:#a9ccdb;stroke-miterlimit:10" />
		<line
   stroke-miterlimit="10"
   x1="32"
   y1="0"
   x2="32"
   y2="512"
   id="line36"
   style="fill:none;stroke:#a9ccdb;stroke-miterlimit:10" />
		<line
   stroke-miterlimit="10"
   x1="64"
   y1="0"
   x2="64"
   y2="512"
   id="line38"
   style="fill:none;stroke:#a9ccdb;stroke-miterlimit:10" />
		<line
   stroke-miterlimit="10"
   x1="96"
   y1="0"
   x2="96"
   y2="512"
   id="line40"
   style="fill:none;stroke:#a9ccdb;stroke-miterlimit:10" />
		<line
   stroke-miterlimit="10"
   x1="128"
   y1="0"
   x2="128"
   y2="512"
   id="line42"
   style="fill:none;stroke:#a9ccdb;stroke-miterlimit:10" />
		<line
   stroke-miterlimit="10"
   x1="160"
   y1="0"
   x2="160"
   y2="512"
   id="line44"
   style="fill:none;stroke:#a9ccdb;stroke-miterlimit:10" />
		<line
   stroke-miterlimit="10"
   x1="192"
   y1="0"
   x2="192"
   y2="512"
   id="line46"
   style="fill:none;stroke:#a9ccdb;stroke-miterlimit:10" />
		<line
   stroke-miterlimit="10"
   x1="224"
   y1="0"
   x2="224"
   y2="512"
   id="line48"
   style="fill:none;stroke:#a9ccdb;stroke-miterlimit:10" />
		<line
   stroke-miterlimit="10"
   x1="256"
   y1="0"
   x2="256"
   y2="512"
   id="line50"
   style="fill:none;stroke:#a9ccdb;stroke-miterlimit:10" />
		<line
   stroke-miterlimit="10"
   x1="288"
   y1="0"
   x2="288"
   y2="512"
   id="line52"
   style="fill:none;stroke:#a9ccdb;stroke-miterlimit:10" />
		<line
   stroke-miterlimit="10"
   x1="320"
   y1="0"
   x2="320"
   y2="512"
   id="line54"
   style="fill:none;stroke:#a9ccdb;stroke-miterlimit:10" />
		<line
   stroke-miterlimit="10"
   x1="352"
   y1="0"
   x2="352"
   y2="512"
   id="line56"
   style="fill:none;stroke:#a9ccdb;stroke-miterlimit:10" />
		<line
   stroke-miterlimit="10"
   x1="384"
   y1="0"
   x2="384"
   y2="512"
   id="line58"
   style="fill:none;stroke:#a9ccdb;stroke-miterlimit:10" />
		<line
   stroke-miterlimit="10"
   x1="416"
   y1="0"
   x2="416"
   y2="512"
   id="line60"
   style="fill:none;stroke:#a9ccdb;stroke-miterlimit:10" />
		<line
   stroke-miterlimit="10"
   x1="448"
   y1="0"
   x2="448"
   y2="512"
   id="line62"
   style="fill:none;stroke:#a9ccdb;stroke-miterlimit:10" />
		<line
   stroke-miterlimit="10"
   x1="480"
   y1="0"
   x2="480"
   y2="512"
   id="line64"
   style="fill:none;stroke:#a9ccdb;stroke-miterlimit:10" />
	</g>
	

<path
   style="fill:#591000"
   d="M 269.07032,150.86463 C 241.29943,265.72807 214.5794,385.06684 195.66923,500.18726 185.36141,562.9387 172.6801,623.56339 174.23991,683.5409 c 0.0878,3.37629 -5.14308,8.61043 -5.00676,11.97457 -37.36929,16.54693 -22.52913,10.1979 -30.53637,11.49533 -28.94132,-6.30076 -25.67996,5.84487 -43.562511,24.23401 -10.839872,11.2128 -20.434637,22.8535 -22.938774,30.00017 -1.65059,7.38985 -2.0742,9.52493 -0.545315,16.43357 1.067561,4.79891 2.376222,9.69553 4.03716,14.13343 3.03385,6.70765 5.930147,11.25817 9.855149,14.24596 52.449451,23.38191 135.938361,107.45782 167.251241,85.32896 1.74961,-1.2908 5.54848,-1.21324 10.99285,-2.00446 6.44988,-0.93732 9.3276,-3.46454 11.53424,-6.75015 4.17263,-9.07558 7.90252,-16.43205 11.26811,-23.92892 3.30022,-7.35128 6.25015,-14.83758 8.92375,-24.21218 2.78728,-9.7658 4.89593,-16.42886 11.55187,-18.84263 4.5469,-1.64893 17.33833,-1.31482 24.34909,1.36785 2.99109,1.14454 6.26714,2.71657 9.87993,4.74448 9.22208,2.64335 -0.49206,0.62575 9.25593,1.76432 24.334,3.27072 46.07708,7.72412 70.89654,9.13707 25.0303,1.42493 53.13249,-0.20005 76.59122,0.86157 24.36624,1.28059 57.1832,2.69977 77.37956,-1.78593 23.27554,-4.45181 21.66421,-7.95459 31.91657,-13.83054 1.42586,-1.6046 2.83743,-3.13433 4.22995,-4.61299 3.13316,-3.32695 6.16995,-6.39538 9.05639,-9.47656 3.87257,-4.13381 7.47453,-8.2906 10.67556,-13.1255 1.50139,-2.26772 2.91458,-4.68462 4.22613,-7.31829 5.61565,-13.13664 14.06524,-25.48169 13.45615,-41.53579 2.43191,-16.62692 -4.72508,-36.88497 -6.12661,-49.65059 -9.19647,-21.90975 -21.75875,-43.71542 -36.52953,-64.69825 -8.86214,-12.58923 -18.51927,-24.88225 -28.72144,-36.72383 -34.11569,-39.59777 -68.98341,-76.6325 -105.94208,-100.32903 -3.17187,-1.99023 -24.95919,-13.37065 -28.25485,-15.05198 -4.72707,-2.39122 -33.8448,0.17405 -37.3802,0.86076 -2.16764,0.78157 -2.70922,5.35544 -3.96158,7.079 -1.57346,2.16549 -2.8281,5.35657 -1.7648,7.47768 1.78999,1.71884 -2.43625,5.62019 -0.8706,7.72509 2.28316,3.06929 0.25809,6.97393 2.46974,10.20837 3.38259,4.93988 -0.99466,8.10413 4.66437,13.94126 13.62797,14.05684 21.88824,27.95989 30.86619,36.90736 10.71617,10.69235 22.92219,23.60232 30.86872,35.64531 13.37668,20.27237 31.49166,41.60896 44.08376,61.15021 -1.33928,13.29452 -3.56788,26.71159 -2.89578,40.04972 -2.68914,8.89985 -16.70343,11.79864 -18.57498,11.96987 -9.40341,-0.52644 -67.75919,-0.86053 -76.342,-1.05752 -56.75549,-1.30268 -48.63937,3.38934 -107.41606,-1.90188 -12.46951,-1.16493 -7.74709,-9.62077 -8.74596,-14.85185 -1.65507,-59.06305 10.09947,-114.53456 18.28831,-169.7853 14.97072,-101.0085 33.66629,-198.36878 47.33238,-295.00742 1.27791,-22.44779 7.35578,-49.55538 -5.57411,-68.28945 -7.29444,-9.05681 -15.5546,-13.80828 -24.62213,-16.73987 -11.44086,-3.6989 -24.16705,-4.50057 -37.86048,-7.39741 -14.25372,-3.60714 -26.05833,2.63187 -26.89753,17.49609 z"
   id="path3782"
   inkscape:connector-curvature="0"
   sodipodi:nodetypes="cssccccccccscscssccscccssscccsscccscscscscccsccsccsccc" /></svg>