<?xml version="1.0" encoding="UTF-8" standalone="no"?>
<svg
   xmlns:dc="http://purl.org/dc/elements/1.1/"
   xmlns:cc="http://creativecommons.org/ns#"
   xmlns:rdf="http://www.w3.org/1999/02/22-rdf-syntax-ns#"
   xmlns:svg="http://www.w3.org/2000/svg"
   xmlns="http://www.w3.org/2000/svg"
   xmlns:sodipodi="http://sodipodi.sourceforge.net/DTD/sodipodi-0.dtd"
   xmlns:inkscape="http://www.inkscape.org/namespaces/inkscape"
   version="1.1"
   id="Layer_1"
   x="0px"
   y="0px"
   width="1024"
   height="1024"
   viewBox="0 0 1024 1024"
   enable-background="new 0 0 512 512"
   xml:space="preserve"
   inkscape:version="0.48.0 r9654"
   sodipodi:docname="qofhebrew-x5e7.svg"><title
   id="title3743">Sinai 357</title><metadata
   id="metadata72"><rdf:RDF><cc:Work
       rdf:about=""><dc:format>image/svg+xml</dc:format><dc:type
         rdf:resource="http://purl.org/dc/dcmitype/StillImage" /><dc:title>Sinai 357</dc:title><dc:date>2017</dc:date><dc:creator><cc:Agent><dc:title>Celeste Claire Horner</dc:title></cc:Agent></dc:creator><dc:publisher><cc:Agent><dc:title>beitdina.net</dc:title></cc:Agent></dc:publisher></cc:Work></rdf:RDF></metadata><defs
   id="defs70" /><sodipodi:namedview
   pagecolor="#ffffff"
   bordercolor="#666666"
   borderopacity="1"
   objecttolerance="10"
   gridtolerance="10"
   guidetolerance="10"
   inkscape:pageopacity="0"
   inkscape:pageshadow="2"
   inkscape:window-width="1152"
   inkscape:window-height="814"
   id="namedview68"
   showgrid="false"
   inkscape:zoom="0.44172912"
   inkscape:cx="-115.24081"
   inkscape:cy="583.47455"
   inkscape:window-x="-8"
   inkscape:window-y="-8"
   inkscape:window-maximized="1"
   inkscape:current-layer="Layer_1" />
   
	<g
   id="Grid"
   transform="matrix(2.0004581,0,0,2.0004578,0.50019527,4.813853)">
		<rect
   x="0"
   stroke-miterlimit="10"
   width="512"
   height="512"
   id="rect4"
   y="0"
   style="fill:none;stroke:#a9ccdb;stroke-miterlimit:10" />
		<line
   stroke-miterlimit="10"
   x1="0"
   y1="32"
   x2="512"
   y2="32"
   id="line6"
   style="fill:none;stroke:#a9ccdb;stroke-miterlimit:10" />
		<line
   stroke-miterlimit="10"
   x1="0"
   y1="64"
   x2="512"
   y2="64"
   id="line8"
   style="fill:none;stroke:#a9ccdb;stroke-miterlimit:10" />
		<line
   stroke-miterlimit="10"
   x1="0"
   y1="96"
   x2="512"
   y2="96"
   id="line10"
   style="fill:none;stroke:#a9ccdb;stroke-miterlimit:10" />
		<line
   stroke-miterlimit="10"
   x1="0"
   y1="128"
   x2="512"
   y2="128"
   id="line12"
   style="fill:none;stroke:#a9ccdb;stroke-miterlimit:10" />
		<line
   stroke-miterlimit="10"
   x1="0"
   y1="160"
   x2="512"
   y2="160"
   id="line14"
   style="fill:none;stroke:#a9ccdb;stroke-miterlimit:10" />
		<line
   stroke-miterlimit="10"
   x1="0"
   y1="192"
   x2="512"
   y2="192"
   id="line16"
   style="fill:none;stroke:#a9ccdb;stroke-miterlimit:10" />
		<line
   stroke-miterlimit="10"
   x1="0"
   y1="224"
   x2="512"
   y2="224"
   id="line18"
   style="fill:none;stroke:#a9ccdb;stroke-miterlimit:10" />
		<line
   stroke-miterlimit="10"
   x1="0"
   y1="256"
   x2="512"
   y2="256"
   id="line20"
   style="fill:none;stroke:#a9ccdb;stroke-miterlimit:10" />
		<line
   stroke-miterlimit="10"
   x1="0"
   y1="288"
   x2="512"
   y2="288"
   id="line22"
   style="fill:none;stroke:#a9ccdb;stroke-miterlimit:10" />
		<line
   stroke-miterlimit="10"
   x1="0"
   y1="320"
   x2="512"
   y2="320"
   id="line24"
   style="fill:none;stroke:#a9ccdb;stroke-miterlimit:10" />
		<line
   stroke-miterlimit="10"
   x1="0"
   y1="352"
   x2="512"
   y2="352"
   id="line26"
   style="fill:none;stroke:#a9ccdb;stroke-miterlimit:10" />
		<line
   stroke-miterlimit="10"
   x1="0"
   y1="384"
   x2="512"
   y2="384"
   id="line28"
   style="fill:none;stroke:#a9ccdb;stroke-miterlimit:10" />
		<line
   stroke-miterlimit="10"
   x1="0"
   y1="416"
   x2="512"
   y2="416"
   id="line30"
   style="fill:none;stroke:#a9ccdb;stroke-miterlimit:10" />
		<line
   stroke-miterlimit="10"
   x1="0"
   y1="448"
   x2="512"
   y2="448"
   id="line32"
   style="fill:none;stroke:#ff0000;stroke-miterlimit:10" />
		<line
   stroke-miterlimit="10"
   x1="0"
   y1="480"
   x2="512"
   y2="480"
   id="line34"
   style="fill:none;stroke:#a9ccdb;stroke-miterlimit:10" />
		<line
   stroke-miterlimit="10"
   x1="32"
   y1="0"
   x2="32"
   y2="512"
   id="line36"
   style="fill:none;stroke:#a9ccdb;stroke-miterlimit:10" />
		<line
   stroke-miterlimit="10"
   x1="64"
   y1="0"
   x2="64"
   y2="512"
   id="line38"
   style="fill:none;stroke:#a9ccdb;stroke-miterlimit:10" />
		<line
   stroke-miterlimit="10"
   x1="96"
   y1="0"
   x2="96"
   y2="512"
   id="line40"
   style="fill:none;stroke:#a9ccdb;stroke-miterlimit:10" />
		<line
   stroke-miterlimit="10"
   x1="128"
   y1="0"
   x2="128"
   y2="512"
   id="line42"
   style="fill:none;stroke:#a9ccdb;stroke-miterlimit:10" />
		<line
   stroke-miterlimit="10"
   x1="160"
   y1="0"
   x2="160"
   y2="512"
   id="line44"
   style="fill:none;stroke:#a9ccdb;stroke-miterlimit:10" />
		<line
   stroke-miterlimit="10"
   x1="192"
   y1="0"
   x2="192"
   y2="512"
   id="line46"
   style="fill:none;stroke:#a9ccdb;stroke-miterlimit:10" />
		<line
   stroke-miterlimit="10"
   x1="224"
   y1="0"
   x2="224"
   y2="512"
   id="line48"
   style="fill:none;stroke:#a9ccdb;stroke-miterlimit:10" />
		<line
   stroke-miterlimit="10"
   x1="256"
   y1="0"
   x2="256"
   y2="512"
   id="line50"
   style="fill:none;stroke:#a9ccdb;stroke-miterlimit:10" />
		<line
   stroke-miterlimit="10"
   x1="288"
   y1="0"
   x2="288"
   y2="512"
   id="line52"
   style="fill:none;stroke:#a9ccdb;stroke-miterlimit:10" />
		<line
   stroke-miterlimit="10"
   x1="320"
   y1="0"
   x2="320"
   y2="512"
   id="line54"
   style="fill:none;stroke:#a9ccdb;stroke-miterlimit:10" />
		<line
   stroke-miterlimit="10"
   x1="352"
   y1="0"
   x2="352"
   y2="512"
   id="line56"
   style="fill:none;stroke:#a9ccdb;stroke-miterlimit:10" />
		<line
   stroke-miterlimit="10"
   x1="384"
   y1="0"
   x2="384"
   y2="512"
   id="line58"
   style="fill:none;stroke:#a9ccdb;stroke-miterlimit:10" />
		<line
   stroke-miterlimit="10"
   x1="416"
   y1="0"
   x2="416"
   y2="512"
   id="line60"
   style="fill:none;stroke:#a9ccdb;stroke-miterlimit:10" />
		<line
   stroke-miterlimit="10"
   x1="448"
   y1="0"
   x2="448"
   y2="512"
   id="line62"
   style="fill:none;stroke:#a9ccdb;stroke-miterlimit:10" />
		<line
   stroke-miterlimit="10"
   x1="480"
   y1="0"
   x2="480"
   y2="512"
   id="line64"
   style="fill:none;stroke:#a9ccdb;stroke-miterlimit:10" />
	</g>
	

<path
   style="fill:#591000"
   d="m 238.81031,217.13274 c -23.53457,104.63527 -46.17858,213.34736 -62.20409,318.21673 -8.73541,57.16365 -19.48224,112.38993 -18.16037,167.02667 0.0744,3.07564 -4.35853,7.8437 -4.243,10.90827 -31.66878,15.07349 -19.09242,9.28982 -25.87819,10.47172 -24.52645,-5.7397 -21.7626,5.3244 -36.917245,22.07606 -9.186299,10.21434 -17.317426,20.81848 -19.439568,27.32876 -1.3988,6.73181 -1.75779,8.67677 -0.46213,14.97022 0.90471,4.37159 2.01374,8.83218 3.42131,12.8749 2.57105,6.11036 5.02553,10.25567 8.35179,12.97741 44.448523,21.29984 115.201583,97.88909 141.737823,77.73073 1.48271,-1.17586 4.70208,-1.10521 9.31594,-1.82597 5.46598,-0.85386 7.90472,-3.15604 9.77474,-6.14908 3.53612,-8.26743 6.69703,-14.96883 9.54921,-21.79813 2.79679,-6.69668 5.29672,-13.51635 7.56248,-22.05618 2.36209,-8.89619 4.14907,-14.96593 9.78968,-17.16476 3.85329,-1.5021 14.69345,-1.19774 20.63475,1.24605 2.53481,1.04262 5.31111,2.47467 8.37279,4.322 7.81529,2.40797 -0.417,0.57003 7.84398,1.60721 20.62196,2.97948 39.04823,7.03632 60.08159,8.32345 21.21204,1.29805 45.02737,-0.18224 64.90758,0.78485 20.64928,1.16656 48.46016,2.45937 65.57566,-1.6269 19.72496,-4.05539 18.35943,-7.24626 27.04784,-12.59898 1.20835,-1.46172 2.40459,-2.85523 3.58469,-4.20222 2.65521,-3.0307 5.22875,-5.82589 7.67488,-8.63271 3.28182,-3.76571 6.33432,-7.55235 9.04705,-11.95672 1.27236,-2.06579 2.46997,-4.26747 3.58145,-6.66662 4.75901,-11.96687 11.91965,-23.21264 11.40348,-37.83718 2.06093,-15.14635 -4.00429,-33.6005 -5.19203,-45.22939 -7.79359,-19.95876 -18.43955,-39.82272 -30.95711,-58.9371 -7.51026,-11.46821 -15.69424,-22.66658 -24.34012,-33.45371 -28.91149,-36.07173 -58.4603,-69.80866 -89.78109,-91.3951 -2.68802,-1.813 -21.15178,-12.18004 -23.9447,-13.71165 -4.00598,-2.17829 -28.68193,0.15855 -31.67802,0.78411 -1.83698,0.71197 -2.29594,4.87856 -3.35726,6.44864 -1.33344,1.97266 -2.39669,4.87959 -1.49559,6.81182 1.51694,1.56578 -2.06461,5.11973 -0.73779,7.0372 1.93487,2.79598 0.21872,6.35293 2.09299,9.29935 2.86659,4.5 -0.84293,7.38249 3.95284,12.69984 11.54909,12.80513 18.54929,25.47017 26.15769,33.6209 9.08147,9.74023 19.42552,21.50062 26.15984,32.47122 11.33613,18.46719 26.68775,37.90384 37.35898,55.70501 -1.13498,12.11069 -3.02361,24.33302 -2.45404,36.48344 -2.27892,8.10735 -14.1554,10.74801 -15.74145,10.90399 -7.96896,-0.47956 -57.42283,-0.7839 -64.69637,-0.96335 -48.0977,-1.18668 -41.21966,3.08753 -91.03023,-1.73252 -10.56734,-1.0612 -6.56531,-8.76408 -7.4118,-13.52935 -1.4026,-53.8037 8.55884,-104.33567 15.49851,-154.66654 12.687,-92.01406 28.53065,-180.70476 40.11204,-268.73808 1.08297,-20.4489 6.23369,-45.14266 -4.72381,-62.20853 -6.1817,-8.25033 -13.18181,-12.5787 -20.86613,-15.24924 -9.69561,-3.36953 -20.48048,-4.09981 -32.08504,-6.7387 -12.07938,-3.28594 -22.08325,2.39751 -22.79443,15.93813 z"
   id="path3782"
   inkscape:connector-curvature="0"
   sodipodi:nodetypes="cssccccccccscscssccscccssscccsscccscscscscccsccsccsccc" /></svg>