<?xml version="1.0" encoding="UTF-8" standalone="no"?>
<svg
   xmlns:dc="http://purl.org/dc/elements/1.1/"
   xmlns:cc="http://creativecommons.org/ns#"
   xmlns:rdf="http://www.w3.org/1999/02/22-rdf-syntax-ns#"
   xmlns:svg="http://www.w3.org/2000/svg"
   xmlns="http://www.w3.org/2000/svg"
   xmlns:sodipodi="http://sodipodi.sourceforge.net/DTD/sodipodi-0.dtd"
   xmlns:inkscape="http://www.inkscape.org/namespaces/inkscape"
   version="1.1"
   id="Layer_1"
   x="0px"
   y="0px"
   width="1024"
   height="1024"
   viewBox="0 0 1024 1024"
   enable-background="new 0 0 512 512"
   xml:space="preserve"
   inkscape:version="0.48.0 r9654"
   sodipodi:docname="samekhhebrew-x5e1.svg"><title
   id="title3743">Sinai 357</title><metadata
   id="metadata72"><rdf:RDF><cc:Work
       rdf:about=""><dc:format>image/svg+xml</dc:format><dc:type
         rdf:resource="http://purl.org/dc/dcmitype/StillImage" /><dc:title>Sinai 357</dc:title><dc:date>2017</dc:date><dc:creator><cc:Agent><dc:title>Celeste Claire Horner</dc:title></cc:Agent></dc:creator><dc:publisher><cc:Agent><dc:title>beitdina.net</dc:title></cc:Agent></dc:publisher></cc:Work></rdf:RDF></metadata><defs
   id="defs70" /><sodipodi:namedview
   pagecolor="#ffffff"
   bordercolor="#666666"
   borderopacity="1"
   objecttolerance="10"
   gridtolerance="10"
   guidetolerance="10"
   inkscape:pageopacity="0"
   inkscape:pageshadow="2"
   inkscape:window-width="1152"
   inkscape:window-height="814"
   id="namedview68"
   showgrid="false"
   inkscape:zoom="0.35544204"
   inkscape:cx="-2.4968815"
   inkscape:cy="562.40397"
   inkscape:window-x="-8"
   inkscape:window-y="-8"
   inkscape:window-maximized="1"
   inkscape:current-layer="Layer_1" />
   
	<g
   id="Grid"
   transform="matrix(2.0004581,0,0,2.0004578,0.50019527,4.813853)">
		<rect
   x="0"
   stroke-miterlimit="10"
   width="512"
   height="512"
   id="rect4"
   y="0"
   style="fill:none;stroke:#a9ccdb;stroke-miterlimit:10" />
		<line
   stroke-miterlimit="10"
   x1="0"
   y1="32"
   x2="512"
   y2="32"
   id="line6"
   style="fill:none;stroke:#a9ccdb;stroke-miterlimit:10" />
		<line
   stroke-miterlimit="10"
   x1="0"
   y1="64"
   x2="512"
   y2="64"
   id="line8"
   style="fill:none;stroke:#a9ccdb;stroke-miterlimit:10" />
		<line
   stroke-miterlimit="10"
   x1="0"
   y1="96"
   x2="512"
   y2="96"
   id="line10"
   style="fill:none;stroke:#a9ccdb;stroke-miterlimit:10" />
		<line
   stroke-miterlimit="10"
   x1="0"
   y1="128"
   x2="512"
   y2="128"
   id="line12"
   style="fill:none;stroke:#a9ccdb;stroke-miterlimit:10" />
		<line
   stroke-miterlimit="10"
   x1="0"
   y1="160"
   x2="512"
   y2="160"
   id="line14"
   style="fill:none;stroke:#a9ccdb;stroke-miterlimit:10" />
		<line
   stroke-miterlimit="10"
   x1="0"
   y1="192"
   x2="512"
   y2="192"
   id="line16"
   style="fill:none;stroke:#a9ccdb;stroke-miterlimit:10" />
		<line
   stroke-miterlimit="10"
   x1="0"
   y1="224"
   x2="512"
   y2="224"
   id="line18"
   style="fill:none;stroke:#a9ccdb;stroke-miterlimit:10" />
		<line
   stroke-miterlimit="10"
   x1="0"
   y1="256"
   x2="512"
   y2="256"
   id="line20"
   style="fill:none;stroke:#a9ccdb;stroke-miterlimit:10" />
		<line
   stroke-miterlimit="10"
   x1="0"
   y1="288"
   x2="512"
   y2="288"
   id="line22"
   style="fill:none;stroke:#a9ccdb;stroke-miterlimit:10" />
		<line
   stroke-miterlimit="10"
   x1="0"
   y1="320"
   x2="512"
   y2="320"
   id="line24"
   style="fill:none;stroke:#a9ccdb;stroke-miterlimit:10" />
		<line
   stroke-miterlimit="10"
   x1="0"
   y1="352"
   x2="512"
   y2="352"
   id="line26"
   style="fill:none;stroke:#a9ccdb;stroke-miterlimit:10" />
		<line
   stroke-miterlimit="10"
   x1="0"
   y1="384"
   x2="512"
   y2="384"
   id="line28"
   style="fill:none;stroke:#a9ccdb;stroke-miterlimit:10" />
		<line
   stroke-miterlimit="10"
   x1="0"
   y1="416"
   x2="512"
   y2="416"
   id="line30"
   style="fill:none;stroke:#a9ccdb;stroke-miterlimit:10" />
		<line
   stroke-miterlimit="10"
   x1="0"
   y1="448"
   x2="512"
   y2="448"
   id="line32"
   style="fill:none;stroke:#ff0000;stroke-miterlimit:10" />
		<line
   stroke-miterlimit="10"
   x1="0"
   y1="480"
   x2="512"
   y2="480"
   id="line34"
   style="fill:none;stroke:#a9ccdb;stroke-miterlimit:10" />
		<line
   stroke-miterlimit="10"
   x1="32"
   y1="0"
   x2="32"
   y2="512"
   id="line36"
   style="fill:none;stroke:#a9ccdb;stroke-miterlimit:10" />
		<line
   stroke-miterlimit="10"
   x1="64"
   y1="0"
   x2="64"
   y2="512"
   id="line38"
   style="fill:none;stroke:#a9ccdb;stroke-miterlimit:10" />
		<line
   stroke-miterlimit="10"
   x1="96"
   y1="0"
   x2="96"
   y2="512"
   id="line40"
   style="fill:none;stroke:#a9ccdb;stroke-miterlimit:10" />
		<line
   stroke-miterlimit="10"
   x1="128"
   y1="0"
   x2="128"
   y2="512"
   id="line42"
   style="fill:none;stroke:#a9ccdb;stroke-miterlimit:10" />
		<line
   stroke-miterlimit="10"
   x1="160"
   y1="0"
   x2="160"
   y2="512"
   id="line44"
   style="fill:none;stroke:#a9ccdb;stroke-miterlimit:10" />
		<line
   stroke-miterlimit="10"
   x1="192"
   y1="0"
   x2="192"
   y2="512"
   id="line46"
   style="fill:none;stroke:#a9ccdb;stroke-miterlimit:10" />
		<line
   stroke-miterlimit="10"
   x1="224"
   y1="0"
   x2="224"
   y2="512"
   id="line48"
   style="fill:none;stroke:#a9ccdb;stroke-miterlimit:10" />
		<line
   stroke-miterlimit="10"
   x1="256"
   y1="0"
   x2="256"
   y2="512"
   id="line50"
   style="fill:none;stroke:#a9ccdb;stroke-miterlimit:10" />
		<line
   stroke-miterlimit="10"
   x1="288"
   y1="0"
   x2="288"
   y2="512"
   id="line52"
   style="fill:none;stroke:#a9ccdb;stroke-miterlimit:10" />
		<line
   stroke-miterlimit="10"
   x1="320"
   y1="0"
   x2="320"
   y2="512"
   id="line54"
   style="fill:none;stroke:#a9ccdb;stroke-miterlimit:10" />
		<line
   stroke-miterlimit="10"
   x1="352"
   y1="0"
   x2="352"
   y2="512"
   id="line56"
   style="fill:none;stroke:#a9ccdb;stroke-miterlimit:10" />
		<line
   stroke-miterlimit="10"
   x1="384"
   y1="0"
   x2="384"
   y2="512"
   id="line58"
   style="fill:none;stroke:#a9ccdb;stroke-miterlimit:10" />
		<line
   stroke-miterlimit="10"
   x1="416"
   y1="0"
   x2="416"
   y2="512"
   id="line60"
   style="fill:none;stroke:#a9ccdb;stroke-miterlimit:10" />
		<line
   stroke-miterlimit="10"
   x1="448"
   y1="0"
   x2="448"
   y2="512"
   id="line62"
   style="fill:none;stroke:#a9ccdb;stroke-miterlimit:10" />
		<line
   stroke-miterlimit="10"
   x1="480"
   y1="0"
   x2="480"
   y2="512"
   id="line64"
   style="fill:none;stroke:#a9ccdb;stroke-miterlimit:10" />
	</g>
	
   
<path
   style="fill:#836607;fill-opacity:0.77391304"
   d="m 358.54734,128.09611 c -19.97876,9.2658 -18.71395,10.73587 -19.0336,28.10869 -0.56475,17.55542 9.3637,24.5995 3.792,32.08867 -0.6649,2.08213 -1.2236,3.7415 -1.7011,5.06894 -0.5257,2.83726 -1.8832,4.5684 -3.9292,6.13396 -1.7345,1.36639 -14.2744,28.64745 -16.1148,29.21062 -6.25264,22.84386 0.14112,47.80996 0.54964,67.18605 -1.67143,22.81462 -3.074,43.61279 -2.28407,63.46117 -0.75903,21.93673 3.63899,41.62343 0.19588,62.21027 -1.42191,7.99109 -7.29115,15.06329 -9.81011,23.30123 -4.64608,14.21417 -4.84063,24.87806 -8.87031,37.41663 -4.90814,10.52739 -10.99439,18.16776 -18.18934,25.04003 -28.24037,23.38077 -62.52319,52.05053 -92.89664,64.33586 -12.9733,4.95907 -30.2911,7.81595 -42.2949,7.6799 -27.0294,-1.15568 -36.5463,-28.0179 -54.565896,-18.98414 -21.0442,11.25985 -27.7617,23.62862 -28.1692,38.07293 -0.3576,12.67762 4.1456,26.95412 8.0896,43.48303 3.460162,12.49731 8.480843,24.31656 14.195731,35.75332 5.654103,11.31511 11.987725,22.25582 18.161895,33.10837 10.46353,18.3465 21.07575,34.99099 28.08076,44.22206 8.57703,14.24004 16.92598,29.2899 26.16273,42.93851 9.88504,11.45997 20.59677,24.19356 30.83593,35.66681 9.1547,10.25809 17.93162,19.50868 25.40215,25.94069 6.8953,5.77508 15.4139,13.42282 28.20355,15.5501 12.88524,2.14318 30.04227,-1.25362 37.10759,-0.67947 8.001,0 27.9133,-11.36303 40.794,-27.56376 5.55337,-6.91313 9.05703,-15.1689 13.43693,-22.14068 5.36218,-8.67864 6.9842,-8.54753 13.11027,-15.57134 2.61046,-2.99427 11.12357,-11.95755 14.10379,-11.35964 8.47963,0.11809 17.21379,-6.60659 21.71537,-12.72098 7.64274,-10.08477 20.33943,-7.83715 24.99779,-5.08488 17.93397,4.45557 36.85367,7.12695 56.06403,9.06168 17.01916,1.71405 35.26904,3.18411 53.4445,4.86465 44.03628,6.9571 85.54324,7.54607 128.05442,21.54078 38.11101,13.54491 79.70011,20.35934 109.16768,33.29726 11.45437,5.02911 34.24374,24.41281 46.43187,30.27634 15.28417,7.62861 43.59352,6.96645 57.82861,8.33708 6.2618,0.53576 23.8995,1.57787 58.4817,-7.59679 17.2653,-5.81451 22.35951,-20.90732 33.97781,-35.35371 17.6298,-22.59524 21.3521,-41.25942 20.0833,-66.69456 -1.7599,-27.04299 -12.5841,-43.19619 -27.7133,-62.16497 -11.5613,-14.47604 -23.3509,-27.89232 -20.7371,-34.8985 0.0993,-26.74337 0.78962,-54.59119 1.22879,-82.38908 0.18526,-17.87861 0.36356,-35.71334 0.22405,-53.37521 -1.41562,-42.92485 -1.0508,-86.73121 -11.2158,-126.78952 -5.28069,-20.81017 -13.40313,-40.60883 -26.09325,-58.74691 -17.20444,-21.83954 -33.61376,-46.75253 -53.57076,-67.44412 -25.74161,-27.66737 -41.26581,-42.53918 -68.75277,-59.38422 -11.79617,-13.9271 -47.56946,-19.76252 -62.34444,-27.54976 -21.47058,-7.32513 -42.193,-13.31174 -63.38379,-22.54087 -21.54768,-9.70051 -41.51324,-14.92318 -63.04692,-20.42995 -19.60751,-5.01419 -27.9242,-7.61983 -46.20771,-10.39758 -8.8623,-1.56541 -18.2817,-7.81054 -21.67374,-14.36987 -3.9372,-7.61381 -14.5552,-13.71618 -30.8924,-17.75455 -42.08759,-0.71338 -91.09748,-12.10954 -120.43122,8.62943 z m 261.93097,162.74775 c 2.1265,0.30134 4.046,0.0509 5.9096,-0.007 2.0243,-0.0626 3.9824,0.10221 6.0679,1.44861 2.7189,1.86117 5.4404,3.68164 7.7636,4.83341 6.1984,0.10932 6.3271,2.1844 8.232,3.21445 3.7059,2.00402 5.3195,3.97031 9.6712,7.25871 3.1474,-0.008 5.9794,1.48907 8.5306,3.35197 2.9051,2.12135 5.4458,4.7171 7.673,6.10499 2.2945,1.33647 4.1229,1.38333 7.4961,2.54343 13.5682,7.97545 25.25444,21.44745 35.52073,31.92692 12.30167,13.01548 27.07034,28.39396 36.13164,41.35302 11.95646,21.27522 16.08378,45.1447 17.37133,67.60544 1.29171,20.93396 -0.8537,42.53271 -0.72391,61.85596 0.29066,18.01941 0.31921,36.73216 0.26,54.89251 -0.0478,14.64782 -0.15261,28.93625 -0.22307,42.21161 -0.0978,15.27107 -0.52542,30.28979 -1.96265,44.48604 -0.9893,6.09375 -18.63911,14.16343 -26.91951,18.02975 -30.45066,3.79198 -65.98827,0.89532 -93.98283,-3.6999 -2.9823,0.30698 -10.4818,-3.74381 -13.3643,-3.69387 -4.4378,0.0769 -9.12,-2.94251 -13.3769,-3.36456 -45.03241,-20.92304 -101.46378,-22.95786 -131.81451,-49.81287 -7.61109,-11.79224 -14.02581,-24.08116 -14.18963,-37.10214 -0.14954,-11.88612 -0.26233,-23.32967 -0.34152,-34.44401 -0.15585,-21.87334 -0.18158,-42.47163 -0.10121,-62.65903 0.0321,-8.06495 0.0811,-16.06431 0.14558,-24.0532 0.1112,-13.78571 -0.0902,-26.24991 -0.33983,-38.65546 -0.40794,-20.27062 -0.94481,-40.38468 -0.45767,-65.8517 0.64056,-24.08809 5.64007,-56.26207 20.03648,-68.2646 12.24188,-6.55443 29.04297,-8.4002 38.74348,-9.76074 25.78283,-3.70105 71.91522,3.50135 88.2443,10.25197 z"
   id="path3758"
   inkscape:connector-curvature="0"
   sodipodi:nodetypes="cccccccccccccccscscccscscccccccsccscccccccccscccccscsccccscsccccccccscccccccssscsccccc" /></svg>