<?xml version="1.0" encoding="UTF-8" standalone="no"?>
<svg
   xmlns:dc="http://purl.org/dc/elements/1.1/"
   xmlns:cc="http://creativecommons.org/ns#"
   xmlns:rdf="http://www.w3.org/1999/02/22-rdf-syntax-ns#"
   xmlns:svg="http://www.w3.org/2000/svg"
   xmlns="http://www.w3.org/2000/svg"
   xmlns:sodipodi="http://sodipodi.sourceforge.net/DTD/sodipodi-0.dtd"
   xmlns:inkscape="http://www.inkscape.org/namespaces/inkscape"
   version="1.1"
   id="Layer_1"
   x="0px"
   y="0px"
   width="1024"
   height="1024"
   viewBox="0 0 1024 1024"
   enable-background="new 0 0 512 512"
   xml:space="preserve"
   inkscape:version="0.48.0 r9654"
   sodipodi:docname="samekhhebrew-x5e1.svg"><title
   id="title3743">Sinai 357</title><metadata
   id="metadata72"><rdf:RDF><cc:Work
       rdf:about=""><dc:format>image/svg+xml</dc:format><dc:type
         rdf:resource="http://purl.org/dc/dcmitype/StillImage" /><dc:title>Sinai 357</dc:title><dc:date>2017</dc:date><dc:creator><cc:Agent><dc:title>Celeste Claire Horner</dc:title></cc:Agent></dc:creator><dc:publisher><cc:Agent><dc:title>beitdina.net</dc:title></cc:Agent></dc:publisher></cc:Work></rdf:RDF></metadata><defs
   id="defs70" /><sodipodi:namedview
   pagecolor="#ffffff"
   bordercolor="#666666"
   borderopacity="1"
   objecttolerance="10"
   gridtolerance="10"
   guidetolerance="10"
   inkscape:pageopacity="0"
   inkscape:pageshadow="2"
   inkscape:window-width="849"
   inkscape:window-height="801"
   id="namedview68"
   showgrid="false"
   inkscape:zoom="0.35544204"
   inkscape:cx="-76.901643"
   inkscape:cy="422.58586"
   inkscape:window-x="298"
   inkscape:window-y="0"
   inkscape:window-maximized="0"
   inkscape:current-layer="Layer_1" />
   
	<g
   id="Grid"
   transform="matrix(2.0004581,0,0,2.0004578,0.50019527,4.813853)">
		<rect
   x="0"
   stroke-miterlimit="10"
   width="512"
   height="512"
   id="rect4"
   y="0"
   style="fill:none;stroke:#a9ccdb;stroke-miterlimit:10" />
		<line
   stroke-miterlimit="10"
   x1="0"
   y1="32"
   x2="512"
   y2="32"
   id="line6"
   style="fill:none;stroke:#a9ccdb;stroke-miterlimit:10" />
		<line
   stroke-miterlimit="10"
   x1="0"
   y1="64"
   x2="512"
   y2="64"
   id="line8"
   style="fill:none;stroke:#a9ccdb;stroke-miterlimit:10" />
		<line
   stroke-miterlimit="10"
   x1="0"
   y1="96"
   x2="512"
   y2="96"
   id="line10"
   style="fill:none;stroke:#a9ccdb;stroke-miterlimit:10" />
		<line
   stroke-miterlimit="10"
   x1="0"
   y1="128"
   x2="512"
   y2="128"
   id="line12"
   style="fill:none;stroke:#a9ccdb;stroke-miterlimit:10" />
		<line
   stroke-miterlimit="10"
   x1="0"
   y1="160"
   x2="512"
   y2="160"
   id="line14"
   style="fill:none;stroke:#a9ccdb;stroke-miterlimit:10" />
		<line
   stroke-miterlimit="10"
   x1="0"
   y1="192"
   x2="512"
   y2="192"
   id="line16"
   style="fill:none;stroke:#a9ccdb;stroke-miterlimit:10" />
		<line
   stroke-miterlimit="10"
   x1="0"
   y1="224"
   x2="512"
   y2="224"
   id="line18"
   style="fill:none;stroke:#a9ccdb;stroke-miterlimit:10" />
		<line
   stroke-miterlimit="10"
   x1="0"
   y1="256"
   x2="512"
   y2="256"
   id="line20"
   style="fill:none;stroke:#a9ccdb;stroke-miterlimit:10" />
		<line
   stroke-miterlimit="10"
   x1="0"
   y1="288"
   x2="512"
   y2="288"
   id="line22"
   style="fill:none;stroke:#a9ccdb;stroke-miterlimit:10" />
		<line
   stroke-miterlimit="10"
   x1="0"
   y1="320"
   x2="512"
   y2="320"
   id="line24"
   style="fill:none;stroke:#a9ccdb;stroke-miterlimit:10" />
		<line
   stroke-miterlimit="10"
   x1="0"
   y1="352"
   x2="512"
   y2="352"
   id="line26"
   style="fill:none;stroke:#a9ccdb;stroke-miterlimit:10" />
		<line
   stroke-miterlimit="10"
   x1="0"
   y1="384"
   x2="512"
   y2="384"
   id="line28"
   style="fill:none;stroke:#a9ccdb;stroke-miterlimit:10" />
		<line
   stroke-miterlimit="10"
   x1="0"
   y1="416"
   x2="512"
   y2="416"
   id="line30"
   style="fill:none;stroke:#a9ccdb;stroke-miterlimit:10" />
		<line
   stroke-miterlimit="10"
   x1="0"
   y1="448"
   x2="512"
   y2="448"
   id="line32"
   style="fill:none;stroke:#ff0000;stroke-miterlimit:10" />
		<line
   stroke-miterlimit="10"
   x1="0"
   y1="480"
   x2="512"
   y2="480"
   id="line34"
   style="fill:none;stroke:#a9ccdb;stroke-miterlimit:10" />
		<line
   stroke-miterlimit="10"
   x1="32"
   y1="0"
   x2="32"
   y2="512"
   id="line36"
   style="fill:none;stroke:#a9ccdb;stroke-miterlimit:10" />
		<line
   stroke-miterlimit="10"
   x1="64"
   y1="0"
   x2="64"
   y2="512"
   id="line38"
   style="fill:none;stroke:#a9ccdb;stroke-miterlimit:10" />
		<line
   stroke-miterlimit="10"
   x1="96"
   y1="0"
   x2="96"
   y2="512"
   id="line40"
   style="fill:none;stroke:#a9ccdb;stroke-miterlimit:10" />
		<line
   stroke-miterlimit="10"
   x1="128"
   y1="0"
   x2="128"
   y2="512"
   id="line42"
   style="fill:none;stroke:#a9ccdb;stroke-miterlimit:10" />
		<line
   stroke-miterlimit="10"
   x1="160"
   y1="0"
   x2="160"
   y2="512"
   id="line44"
   style="fill:none;stroke:#a9ccdb;stroke-miterlimit:10" />
		<line
   stroke-miterlimit="10"
   x1="192"
   y1="0"
   x2="192"
   y2="512"
   id="line46"
   style="fill:none;stroke:#a9ccdb;stroke-miterlimit:10" />
		<line
   stroke-miterlimit="10"
   x1="224"
   y1="0"
   x2="224"
   y2="512"
   id="line48"
   style="fill:none;stroke:#a9ccdb;stroke-miterlimit:10" />
		<line
   stroke-miterlimit="10"
   x1="256"
   y1="0"
   x2="256"
   y2="512"
   id="line50"
   style="fill:none;stroke:#a9ccdb;stroke-miterlimit:10" />
		<line
   stroke-miterlimit="10"
   x1="288"
   y1="0"
   x2="288"
   y2="512"
   id="line52"
   style="fill:none;stroke:#a9ccdb;stroke-miterlimit:10" />
		<line
   stroke-miterlimit="10"
   x1="320"
   y1="0"
   x2="320"
   y2="512"
   id="line54"
   style="fill:none;stroke:#a9ccdb;stroke-miterlimit:10" />
		<line
   stroke-miterlimit="10"
   x1="352"
   y1="0"
   x2="352"
   y2="512"
   id="line56"
   style="fill:none;stroke:#a9ccdb;stroke-miterlimit:10" />
		<line
   stroke-miterlimit="10"
   x1="384"
   y1="0"
   x2="384"
   y2="512"
   id="line58"
   style="fill:none;stroke:#a9ccdb;stroke-miterlimit:10" />
		<line
   stroke-miterlimit="10"
   x1="416"
   y1="0"
   x2="416"
   y2="512"
   id="line60"
   style="fill:none;stroke:#a9ccdb;stroke-miterlimit:10" />
		<line
   stroke-miterlimit="10"
   x1="448"
   y1="0"
   x2="448"
   y2="512"
   id="line62"
   style="fill:none;stroke:#a9ccdb;stroke-miterlimit:10" />
		<line
   stroke-miterlimit="10"
   x1="480"
   y1="0"
   x2="480"
   y2="512"
   id="line64"
   style="fill:none;stroke:#a9ccdb;stroke-miterlimit:10" />
	</g>
	
   
<path
   style="fill:#836607;fill-opacity:0.77391304"
   d="m 222.77567,212.51267 c -1.47701,1.78587 -3.0373,3.66107 -4.74185,5.67206 -0.6649,2.08213 -1.2236,3.7415 -1.7011,5.06894 -0.5257,2.83726 -1.8832,4.5684 -3.9292,6.13396 -1.7345,1.36639 -12.28503,34.61557 -14.12543,35.17874 -10.23887,62.36708 -2.40676,118.36194 -5.01552,173.5045 -0.66284,14.01079 3.45467,23.85939 -0.31244,37.52855 -5.937,17.90754 -14.36005,34.5438 -23.30246,48.64532 -14.91595,23.52135 -31.27686,39.99047 -39.95575,43.54397 -24.28336,3.00983 -36.881583,8.64386 -44.570056,18.32964 -8.09974,10.2039 -10.75039,24.90462 -15.87383,45.77127 -2.97274,11.1962 -4.11349,23.53182 -4.53096,35.77303 -0.14288,11.09776 -0.49596,22.47754 -0.23113,33.68013 0.4018,16.99669 2.22595,33.5855 8.36459,48.16262 6.60953,15.37811 16.316733,29.3978 26.502103,44.55729 9.885043,11.45997 20.596773,24.19356 30.835933,35.66681 9.1547,10.25809 17.93162,19.50868 25.40215,25.94069 6.8953,5.77508 15.4139,13.42282 28.20355,15.5501 12.88524,2.14318 30.04227,-1.25362 37.10759,-0.67947 17.29776,-2.6841 26.18745,-11.0383 32.14852,-20.95195 5.6199,-9.34625 8.63682,-20.07857 13.64222,-28.75249 5.36218,-8.67864 6.9842,-8.54753 13.11027,-15.57134 3.53217,-2.61694 7.66842,-6.36889 11.50839,-9.86717 3.86574,-3.52175 7.43121,-6.7864 9.77782,-8.37715 4.43354,-2.14971 9.63963,-6.02648 13.74791,-7.67471 16.61585,-6.66621 13.66975,1.00938 34.78538,0.63645 22.99681,1.86447 44.37811,2.41266 65.53047,2.43377 20.35522,0.0203 12.64722,-0.44747 33.8141,-0.70005 22.17951,-0.24396 43.96901,0.12472 63.92243,2.44408 14.06463,1.63486 23.75322,2.50702 36.88733,7.24908 11.45437,5.02911 45.49733,21.59941 57.68546,27.46294 15.28417,7.62861 43.59352,6.96645 57.82861,8.33708 6.2618,0.53576 23.8995,1.57787 58.4817,-7.59679 17.2653,-5.81451 22.35951,-20.90732 33.97781,-35.35371 11.54168,-15.44802 17.6682,-31.87096 20.40138,-48.17557 5.59053,-14.67813 2.46506,-29.68859 1.99759,-46.15557 -0.54667,-19.25707 0.3839,-38.37616 0.33853,-57.74881 -0.0498,-21.27146 2.83871,-47.61702 -0.77388,-64.9836 0.0766,-26.40108 -16.45989,-22.32383 -30.53788,-34.25609 -7.26295,-6.15595 -16.79129,-31.1718 -16.916,-36.18015 -4.23658,-19.34852 -9.35763,-38.76574 -14.26882,-56.40271 -3.09137,-11.0968 -6.28558,-22.39869 -9.76011,-33.48764 -12.91582,-31.53322 -34.06563,-66.12818 -51.8601,-93.66514 -5.51766,-8.53858 -10.90398,-15.82472 -15.93207,-21.20087 -19.93756,-22.04214 -38.2519,-39.17051 -60.14946,-48.21107 -20.48846,-8.45881 -42.37225,-15.06195 -66.65697,-26.98662 -22.73598,-8.32343 -41.78529,-15.6704 -61.42357,-21.9501 -11.26525,-3.60227 -22.72431,-6.85336 -35.18426,-9.7361 -13.09878,-2.85736 9.64644,-5.19401 -3.01503,-7.15321 -21.68891,-2.59177 -42.50703,-7.3591 -63.3287,-10.18223 -21.28667,-2.88617 -42.57705,-3.74034 -64.80539,1.83947 -9.42734,2.46144 -18.17667,5.93996 -26.53903,10.73535 -12.7422,7.30703 -24.58592,17.67162 -36.56084,32.15447 z m 213.63212,102.59566 c 2.1265,0.30134 4.046,0.0509 5.9096,-0.007 2.0243,-0.0626 3.9824,0.10221 6.0679,1.44861 2.7189,1.86117 5.4404,3.68164 7.7636,4.83341 6.1984,0.10932 6.3271,2.1844 8.232,3.21445 3.7059,2.00402 5.3195,3.97031 9.6712,7.25871 3.1474,-0.008 5.9794,1.48907 8.5306,3.35197 2.9051,2.12135 5.4458,4.7171 7.673,6.10499 2.2945,1.33647 4.1229,1.38333 7.4961,2.54343 13.5682,7.97545 19.62764,21.44744 29.89393,31.92691 12.30167,13.01548 21.44354,22.76716 30.50484,35.72622 13.3075,23.36186 30.05133,36.03114 35.65866,60.42096 1.15005,4.96695 2.36987,8.72762 6.13796,14.14538 6.30461,11.28379 13.95443,21.92929 14.23837,32.38788 0.23946,14.84529 0.30102,30.16116 0.28217,45.25104 -0.0204,17.28427 -0.16041,36.09217 -0.24524,51.85308 -1.15601,14.2933 -3.31291,27.2707 -9.9578,36.59005 -5.32455,7.46761 -13.53078,12.58645 -26.41279,14.15146 -31.22576,-3.48741 -60.49184,0.62598 -89.47846,-0.0538 -2.9823,0.30698 -10.19046,0.81761 -13.07296,0.86755 -4.4378,0.0769 -8.41665,-1.53581 -12.67355,-1.95786 -44.54815,-7.22697 -72.34216,2.22175 -112.43051,-11.15951 -11.55709,-3.69508 -19.86838,-14.56481 -24.57086,-25.9767 -6.53805,-21.46798 -5.07096,-43.63247 -4.75395,-63.59689 0.25777,-15.96696 1.12378,-41.44343 1.85703,-64.02237 0.97072,-21.78038 1.10916,-46.14474 1.27174,-66.47634 0.11682,-20.55117 -0.31177,-39.068 -0.84788,-58.02062 -0.33977,-12.04995 -0.61213,-24.0682 -0.29094,-40.85974 0.64056,-24.08809 -5.61352,-19.68789 8.78289,-31.69042 12.24188,-6.55443 29.04297,-8.4002 38.74348,-9.76074 25.78283,-3.70105 49.69079,14.75495 66.01987,21.50557 z"
   id="path3758"
   inkscape:connector-curvature="0"
   sodipodi:nodetypes="cccccscscsccsccscscsccscscscsccccccsscscccscscsccscscccscscccccccccccsccccccccccccccc" /></svg>