<?xml version="1.0" encoding="UTF-8" standalone="no"?>
<svg
   xmlns:dc="http://purl.org/dc/elements/1.1/"
   xmlns:cc="http://creativecommons.org/ns#"
   xmlns:rdf="http://www.w3.org/1999/02/22-rdf-syntax-ns#"
   xmlns:svg="http://www.w3.org/2000/svg"
   xmlns="http://www.w3.org/2000/svg"
   xmlns:sodipodi="http://sodipodi.sourceforge.net/DTD/sodipodi-0.dtd"
   xmlns:inkscape="http://www.inkscape.org/namespaces/inkscape"
   version="1.1"
   id="Layer_1"
   x="0px"
   y="0px"
   width="1024"
   height="1024"
   viewBox="0 0 1024 1024"
   enable-background="new 0 0 512 512"
   xml:space="preserve"
   inkscape:version="0.48.0 r9654"
   sodipodi:docname="shinhebrew-x5e9.svg"><title
   id="title3743">Sinai 357</title><metadata
   id="metadata72"><rdf:RDF><cc:Work
       rdf:about=""><dc:format>image/svg+xml</dc:format><dc:type
         rdf:resource="http://purl.org/dc/dcmitype/StillImage" /><dc:title>Sinai 357</dc:title><dc:date>2017</dc:date><dc:creator><cc:Agent><dc:title>Celeste Claire Horner</dc:title></cc:Agent></dc:creator><dc:publisher><cc:Agent><dc:title>beitdina.net</dc:title></cc:Agent></dc:publisher></cc:Work></rdf:RDF></metadata><defs
   id="defs70" /><sodipodi:namedview
   pagecolor="#ffffff"
   bordercolor="#666666"
   borderopacity="1"
   objecttolerance="10"
   gridtolerance="10"
   guidetolerance="10"
   inkscape:pageopacity="0"
   inkscape:pageshadow="2"
   inkscape:window-width="1152"
   inkscape:window-height="814"
   id="namedview68"
   showgrid="false"
   inkscape:zoom="0.31866643"
   inkscape:cx="-39.854261"
   inkscape:cy="652.22138"
   inkscape:window-x="-8"
   inkscape:window-y="-8"
   inkscape:window-maximized="1"
   inkscape:current-layer="Layer_1" />
   
	<g
   id="Grid"
   transform="matrix(2.0004581,0,0,2.0004578,0.50019527,4.813853)">
		<rect
   x="0"
   stroke-miterlimit="10"
   width="512"
   height="512"
   id="rect4"
   y="0"
   style="fill:none;stroke:#a9ccdb;stroke-miterlimit:10" />
		<line
   stroke-miterlimit="10"
   x1="0"
   y1="32"
   x2="512"
   y2="32"
   id="line6"
   style="fill:none;stroke:#a9ccdb;stroke-miterlimit:10" />
		<line
   stroke-miterlimit="10"
   x1="0"
   y1="64"
   x2="512"
   y2="64"
   id="line8"
   style="fill:none;stroke:#a9ccdb;stroke-miterlimit:10" />
		<line
   stroke-miterlimit="10"
   x1="0"
   y1="96"
   x2="512"
   y2="96"
   id="line10"
   style="fill:none;stroke:#a9ccdb;stroke-miterlimit:10" />
		<line
   stroke-miterlimit="10"
   x1="0"
   y1="128"
   x2="512"
   y2="128"
   id="line12"
   style="fill:none;stroke:#a9ccdb;stroke-miterlimit:10" />
		<line
   stroke-miterlimit="10"
   x1="0"
   y1="160"
   x2="512"
   y2="160"
   id="line14"
   style="fill:none;stroke:#a9ccdb;stroke-miterlimit:10" />
		<line
   stroke-miterlimit="10"
   x1="0"
   y1="192"
   x2="512"
   y2="192"
   id="line16"
   style="fill:none;stroke:#a9ccdb;stroke-miterlimit:10" />
		<line
   stroke-miterlimit="10"
   x1="0"
   y1="224"
   x2="512"
   y2="224"
   id="line18"
   style="fill:none;stroke:#a9ccdb;stroke-miterlimit:10" />
		<line
   stroke-miterlimit="10"
   x1="0"
   y1="256"
   x2="512"
   y2="256"
   id="line20"
   style="fill:none;stroke:#a9ccdb;stroke-miterlimit:10" />
		<line
   stroke-miterlimit="10"
   x1="0"
   y1="288"
   x2="512"
   y2="288"
   id="line22"
   style="fill:none;stroke:#a9ccdb;stroke-miterlimit:10" />
		<line
   stroke-miterlimit="10"
   x1="0"
   y1="320"
   x2="512"
   y2="320"
   id="line24"
   style="fill:none;stroke:#a9ccdb;stroke-miterlimit:10" />
		<line
   stroke-miterlimit="10"
   x1="0"
   y1="352"
   x2="512"
   y2="352"
   id="line26"
   style="fill:none;stroke:#a9ccdb;stroke-miterlimit:10" />
		<line
   stroke-miterlimit="10"
   x1="0"
   y1="384"
   x2="512"
   y2="384"
   id="line28"
   style="fill:none;stroke:#a9ccdb;stroke-miterlimit:10" />
		<line
   stroke-miterlimit="10"
   x1="0"
   y1="416"
   x2="512"
   y2="416"
   id="line30"
   style="fill:none;stroke:#a9ccdb;stroke-miterlimit:10" />
		<line
   stroke-miterlimit="10"
   x1="0"
   y1="448"
   x2="512"
   y2="448"
   id="line32"
   style="fill:none;stroke:#ff0000;stroke-miterlimit:10" />
		<line
   stroke-miterlimit="10"
   x1="0"
   y1="480"
   x2="512"
   y2="480"
   id="line34"
   style="fill:none;stroke:#a9ccdb;stroke-miterlimit:10" />
		<line
   stroke-miterlimit="10"
   x1="32"
   y1="0"
   x2="32"
   y2="512"
   id="line36"
   style="fill:none;stroke:#a9ccdb;stroke-miterlimit:10" />
		<line
   stroke-miterlimit="10"
   x1="64"
   y1="0"
   x2="64"
   y2="512"
   id="line38"
   style="fill:none;stroke:#a9ccdb;stroke-miterlimit:10" />
		<line
   stroke-miterlimit="10"
   x1="96"
   y1="0"
   x2="96"
   y2="512"
   id="line40"
   style="fill:none;stroke:#a9ccdb;stroke-miterlimit:10" />
		<line
   stroke-miterlimit="10"
   x1="128"
   y1="0"
   x2="128"
   y2="512"
   id="line42"
   style="fill:none;stroke:#a9ccdb;stroke-miterlimit:10" />
		<line
   stroke-miterlimit="10"
   x1="160"
   y1="0"
   x2="160"
   y2="512"
   id="line44"
   style="fill:none;stroke:#a9ccdb;stroke-miterlimit:10" />
		<line
   stroke-miterlimit="10"
   x1="192"
   y1="0"
   x2="192"
   y2="512"
   id="line46"
   style="fill:none;stroke:#a9ccdb;stroke-miterlimit:10" />
		<line
   stroke-miterlimit="10"
   x1="224"
   y1="0"
   x2="224"
   y2="512"
   id="line48"
   style="fill:none;stroke:#a9ccdb;stroke-miterlimit:10" />
		<line
   stroke-miterlimit="10"
   x1="256"
   y1="0"
   x2="256"
   y2="512"
   id="line50"
   style="fill:none;stroke:#a9ccdb;stroke-miterlimit:10" />
		<line
   stroke-miterlimit="10"
   x1="288"
   y1="0"
   x2="288"
   y2="512"
   id="line52"
   style="fill:none;stroke:#a9ccdb;stroke-miterlimit:10" />
		<line
   stroke-miterlimit="10"
   x1="320"
   y1="0"
   x2="320"
   y2="512"
   id="line54"
   style="fill:none;stroke:#a9ccdb;stroke-miterlimit:10" />
		<line
   stroke-miterlimit="10"
   x1="352"
   y1="0"
   x2="352"
   y2="512"
   id="line56"
   style="fill:none;stroke:#a9ccdb;stroke-miterlimit:10" />
		<line
   stroke-miterlimit="10"
   x1="384"
   y1="0"
   x2="384"
   y2="512"
   id="line58"
   style="fill:none;stroke:#a9ccdb;stroke-miterlimit:10" />
		<line
   stroke-miterlimit="10"
   x1="416"
   y1="0"
   x2="416"
   y2="512"
   id="line60"
   style="fill:none;stroke:#a9ccdb;stroke-miterlimit:10" />
		<line
   stroke-miterlimit="10"
   x1="448"
   y1="0"
   x2="448"
   y2="512"
   id="line62"
   style="fill:none;stroke:#a9ccdb;stroke-miterlimit:10" />
		<line
   stroke-miterlimit="10"
   x1="480"
   y1="0"
   x2="480"
   y2="512"
   id="line64"
   style="fill:none;stroke:#a9ccdb;stroke-miterlimit:10" />
	</g>
	

	
<path
   style="fill:#6c5946"
   d="m 62.985322,757.0245 c -1.0705,26.45208 9.72459,49.86335 35.063093,71.32284 9.293295,6.62361 9.005875,8.81222 21.071075,9.39461 10.3185,-0.98762 34.10435,-0.58538 41.99495,-3.2715 18.39056,-3.56244 22.18726,-15.24703 29.89421,-31.22596 6.90021,-14.30631 21.94071,-30.79722 19.7841,-44.47338 -1.1227,-5.03533 5.75589,-24.53248 7.08247,-28.87175 -8.74097,-18.39428 8.41371,-14.06652 7.27251,-20.81385 2.6497,-18.53769 12.37176,-36.62063 12.91466,-54.95814 -1.0947,-17.22569 1.43308,-14.5931 2.30688,-32.82102 5.3991,-20.06156 10.96558,-11.07836 17.67868,-7.86048 4.9806,3.42706 9.90727,6.96955 14.78689,10.60964 33.75453,25.18012 65.2581,55.03074 96.79268,83.65391 28.26606,25.65642 56.55704,50.32665 86.51632,69.76315 6.7182,3.52414 13.4018,6.95971 19.9826,10.06357 5.2316,2.46753 10.3982,4.72543 15.4654,6.65153 18.82298,8.93753 35.92656,8.50008 50.19972,2.33254 26.17846,-11.31191 36.55939,-35.62329 36.84025,-62.99805 -9.45153,-38.37827 -49.83104,-71.65153 -92.47137,-100.6723 -39.692,-27.01416 -88.76923,-42.91734 -119.75729,-52.74917 -14.9527,-4.159 -17.93738,-5.59404 -36.18838,-13.50584 -6.303,-5.32275 -27.96488,-10.56843 -39.50387,-14.3138 -11.12155,-3.60988 -19.97514,-9.07566 -21.85858,-12.67185 -4.75267,-11.25764 -0.05,-21.05264 2.32254,-31.17905 3.52662,-15.1696 3.12053,-29.42732 6.305,-43.32045 2.05973,-9.00335 4.06388,-19.57383 4.97945,-26.48587 0.1968,-2.1833 49.57614,23.39416 52.10304,20.21266 14.1848,-0.6988 7.5707,-5.63271 20.6628,3.52529 12.88755,7.85226 22.88183,3.53408 35.13803,7.41049 16.0284,5.06949 34.34924,17.84969 52.12897,26.43425 3.1937,3.3332 6.92,6.1526 10.8789,7.6792 9.8237,6.3148 29.25876,0.0866 36.44336,8.61555 2.5496,3.02659 5.1711,5.86374 8.0334,8.27805 14.0719,11.96664 30.8571,21.61791 42.6789,32.94287 15.365,16.81897 28.90917,26.85063 42.57749,36.01071 12.59996,8.4441 31.96229,25.02335 46.29685,36.62025 27.61422,22.14741 23.55171,45.82321 38.24196,67.27431 4.20492,6.0636 10.031,10.6384 15.50174,15.93321 5.99126,4.25968 12.21474,9.73589 18.53083,15.38484 13.03698,11.65992 26.46854,24.05581 39.06707,28.00858 10.3526,2.85804 12.658,4.45267 22.6064,4.05101 15.41967,-2.0889 16.5761,-6.83234 27.19668,-11.01418 13.37583,-5.26673 23.09774,-14.62014 29.54891,-34.17306 1.3886,-20.24861 9.70149,-24.42847 8.64119,-43.56649 -0.5515,-9.95559 -2.1535,-19.71303 -5.5538,-29.22251 -13.4117,-12.42913 -26.77236,-23.76167 -39.92696,-32.16379 -6.59916,-3.08296 -13.32441,-7.64357 -18.87173,-12.38137 -6.89153,-5.60841 -16.34305,-12.57699 -23.53915,-16.62998 -12.31807,-6.88783 -25.69992,-6.45193 -42.18703,-11.38436 -5.6705,-1.6611 -17.28764,-19.50782 -41.66951,-39.03613 -3.08543,-2.47123 -8.4279,-5.93785 -14.88549,-9.85352 -18.60104,-11.27907 -46.45447,-26.28409 -56.26791,-31.95764 -27.852,-21.78701 -48.5638,-15.93797 -81.2856,-42.38467 -12.4551,-12.0621 -44.23917,-14.08597 -57.78907,-24.14257 -18.4923,-13.7248 -13.7157,-14.27414 -34.6602,-20.92764 -12.5502,-3.67 -19.6614,-12.39398 -31.9479,-5.88658 -7.9813,3.3262 -70.73143,-1.85018 -71.41523,-6.05508 -5.74769,-4.70615 -8.69645,-10.88475 -11.19457,-16.99869 -2.80181,-6.13995 -7.07731,-19.54047 -13.55773,-21.60525 -10.8431,-2.8038 -20.25448,-59.1984 -28.84908,-68.5926 -9.4212,-10.6761 -26.14411,-2.8126 -33.25071,-2.2352 -19.0111,-0.9188 13.43618,-1.27774 -5.06962,0.20386 -6.0758,0.2779 -16.46006,-3.99214 -21.49656,2.28346 -9.41348,41.65006 -13.41693,84.99532 -18.87389,127.31579 -19.09441,86.81974 -28.48478,173.48401 -55.90291,251.13965 -2.5805,7.10202 -5.59076,14.04729 -9.22242,20.79463 -12.237156,22.79856 -46.732988,55.96935 -48.333438,78.49332 z"
   id="path3762"
   inkscape:connector-curvature="0"
   sodipodi:nodetypes="ccccsccccccsscscscsccsccccccsccsccscccsccscscccccssccsccccccccccccc" /></svg>