<?xml version="1.0" encoding="UTF-8" standalone="no"?>
<svg
   xmlns:dc="http://purl.org/dc/elements/1.1/"
   xmlns:cc="http://creativecommons.org/ns#"
   xmlns:rdf="http://www.w3.org/1999/02/22-rdf-syntax-ns#"
   xmlns:svg="http://www.w3.org/2000/svg"
   xmlns="http://www.w3.org/2000/svg"
   xmlns:sodipodi="http://sodipodi.sourceforge.net/DTD/sodipodi-0.dtd"
   xmlns:inkscape="http://www.inkscape.org/namespaces/inkscape"
   version="1.1"
   id="Layer_1"
   x="0px"
   y="0px"
   width="900"
   height="1024"
   viewBox="0 0 900 1024"
   enable-background="new 0 0 512 512"
   xml:space="preserve"
   inkscape:version="0.48.0 r9654"
   sodipodi:docname="shinhebrew-x5e9.svg"><title
   id="title3743">Sinai 357</title><metadata
   id="metadata72"><rdf:RDF><cc:Work
       rdf:about=""><dc:format>image/svg+xml</dc:format><dc:type
         rdf:resource="http://purl.org/dc/dcmitype/StillImage" /><dc:title>Sinai 357</dc:title><dc:date>2017</dc:date><dc:creator><cc:Agent><dc:title>Celeste Claire Horner</dc:title></cc:Agent></dc:creator><dc:publisher><cc:Agent><dc:title>beitdina.net</dc:title></cc:Agent></dc:publisher></cc:Work></rdf:RDF></metadata><defs
   id="defs70" /><sodipodi:namedview
   pagecolor="#ffffff"
   bordercolor="#666666"
   borderopacity="1"
   objecttolerance="10"
   gridtolerance="10"
   guidetolerance="10"
   inkscape:pageopacity="0"
   inkscape:pageshadow="2"
   inkscape:window-width="1152"
   inkscape:window-height="814"
   id="namedview68"
   showgrid="false"
   inkscape:zoom="0.22533119"
   inkscape:cx="-750.56077"
   inkscape:cy="874.91872"
   inkscape:window-x="-8"
   inkscape:window-y="-8"
   inkscape:window-maximized="1"
   inkscape:current-layer="Layer_1" />
   
	<g
   id="Grid"
   transform="matrix(1.7666557,0,0,2.0004578,0.50019527,4.8138064)">
		<rect
   x="0"
   stroke-miterlimit="10"
   width="512"
   height="512"
   id="rect4"
   y="0"
   style="fill:none;stroke:#a9ccdb;stroke-miterlimit:10" />
		<line
   stroke-miterlimit="10"
   x1="0"
   y1="32"
   x2="512"
   y2="32"
   id="line6"
   style="fill:none;stroke:#a9ccdb;stroke-miterlimit:10" />
		<line
   stroke-miterlimit="10"
   x1="0"
   y1="64"
   x2="512"
   y2="64"
   id="line8"
   style="fill:none;stroke:#a9ccdb;stroke-miterlimit:10" />
		<line
   stroke-miterlimit="10"
   x1="0"
   y1="96"
   x2="512"
   y2="96"
   id="line10"
   style="fill:none;stroke:#a9ccdb;stroke-miterlimit:10" />
		<line
   stroke-miterlimit="10"
   x1="0"
   y1="128"
   x2="512"
   y2="128"
   id="line12"
   style="fill:none;stroke:#a9ccdb;stroke-miterlimit:10" />
		<line
   stroke-miterlimit="10"
   x1="0"
   y1="160"
   x2="512"
   y2="160"
   id="line14"
   style="fill:none;stroke:#a9ccdb;stroke-miterlimit:10" />
		<line
   stroke-miterlimit="10"
   x1="0"
   y1="192"
   x2="512"
   y2="192"
   id="line16"
   style="fill:none;stroke:#a9ccdb;stroke-miterlimit:10" />
		<line
   stroke-miterlimit="10"
   x1="0"
   y1="224"
   x2="512"
   y2="224"
   id="line18"
   style="fill:none;stroke:#a9ccdb;stroke-miterlimit:10" />
		<line
   stroke-miterlimit="10"
   x1="0"
   y1="256"
   x2="512"
   y2="256"
   id="line20"
   style="fill:none;stroke:#a9ccdb;stroke-miterlimit:10" />
		<line
   stroke-miterlimit="10"
   x1="0"
   y1="288"
   x2="512"
   y2="288"
   id="line22"
   style="fill:none;stroke:#a9ccdb;stroke-miterlimit:10" />
		<line
   stroke-miterlimit="10"
   x1="0"
   y1="320"
   x2="512"
   y2="320"
   id="line24"
   style="fill:none;stroke:#a9ccdb;stroke-miterlimit:10" />
		<line
   stroke-miterlimit="10"
   x1="0"
   y1="352"
   x2="512"
   y2="352"
   id="line26"
   style="fill:none;stroke:#a9ccdb;stroke-miterlimit:10" />
		<line
   stroke-miterlimit="10"
   x1="0"
   y1="384"
   x2="512"
   y2="384"
   id="line28"
   style="fill:none;stroke:#a9ccdb;stroke-miterlimit:10" />
		<line
   stroke-miterlimit="10"
   x1="0"
   y1="416"
   x2="512"
   y2="416"
   id="line30"
   style="fill:none;stroke:#a9ccdb;stroke-miterlimit:10" />
		<line
   stroke-miterlimit="10"
   x1="0"
   y1="448"
   x2="512"
   y2="448"
   id="line32"
   style="fill:none;stroke:#ff0000;stroke-miterlimit:10" />
		<line
   stroke-miterlimit="10"
   x1="0"
   y1="480"
   x2="512"
   y2="480"
   id="line34"
   style="fill:none;stroke:#a9ccdb;stroke-miterlimit:10" />
		<line
   stroke-miterlimit="10"
   x1="32"
   y1="0"
   x2="32"
   y2="512"
   id="line36"
   style="fill:none;stroke:#a9ccdb;stroke-miterlimit:10" />
		<line
   stroke-miterlimit="10"
   x1="64"
   y1="0"
   x2="64"
   y2="512"
   id="line38"
   style="fill:none;stroke:#a9ccdb;stroke-miterlimit:10" />
		<line
   stroke-miterlimit="10"
   x1="96"
   y1="0"
   x2="96"
   y2="512"
   id="line40"
   style="fill:none;stroke:#a9ccdb;stroke-miterlimit:10" />
		<line
   stroke-miterlimit="10"
   x1="128"
   y1="0"
   x2="128"
   y2="512"
   id="line42"
   style="fill:none;stroke:#a9ccdb;stroke-miterlimit:10" />
		<line
   stroke-miterlimit="10"
   x1="160"
   y1="0"
   x2="160"
   y2="512"
   id="line44"
   style="fill:none;stroke:#a9ccdb;stroke-miterlimit:10" />
		<line
   stroke-miterlimit="10"
   x1="192"
   y1="0"
   x2="192"
   y2="512"
   id="line46"
   style="fill:none;stroke:#a9ccdb;stroke-miterlimit:10" />
		<line
   stroke-miterlimit="10"
   x1="224"
   y1="0"
   x2="224"
   y2="512"
   id="line48"
   style="fill:none;stroke:#a9ccdb;stroke-miterlimit:10" />
		<line
   stroke-miterlimit="10"
   x1="256"
   y1="0"
   x2="256"
   y2="512"
   id="line50"
   style="fill:none;stroke:#a9ccdb;stroke-miterlimit:10" />
		<line
   stroke-miterlimit="10"
   x1="288"
   y1="0"
   x2="288"
   y2="512"
   id="line52"
   style="fill:none;stroke:#a9ccdb;stroke-miterlimit:10" />
		<line
   stroke-miterlimit="10"
   x1="320"
   y1="0"
   x2="320"
   y2="512"
   id="line54"
   style="fill:none;stroke:#a9ccdb;stroke-miterlimit:10" />
		<line
   stroke-miterlimit="10"
   x1="352"
   y1="0"
   x2="352"
   y2="512"
   id="line56"
   style="fill:none;stroke:#a9ccdb;stroke-miterlimit:10" />
		<line
   stroke-miterlimit="10"
   x1="384"
   y1="0"
   x2="384"
   y2="512"
   id="line58"
   style="fill:none;stroke:#a9ccdb;stroke-miterlimit:10" />
		<line
   stroke-miterlimit="10"
   x1="416"
   y1="0"
   x2="416"
   y2="512"
   id="line60"
   style="fill:none;stroke:#a9ccdb;stroke-miterlimit:10" />
		<line
   stroke-miterlimit="10"
   x1="448"
   y1="0"
   x2="448"
   y2="512"
   id="line62"
   style="fill:none;stroke:#a9ccdb;stroke-miterlimit:10" />
		<line
   stroke-miterlimit="10"
   x1="480"
   y1="0"
   x2="480"
   y2="512"
   id="line64"
   style="fill:none;stroke:#a9ccdb;stroke-miterlimit:10" />
	</g>
	

	
<path
   style="fill:#6c5946"
   d="m 68.583157,759.3557 c 5.318632,24.16871 14.755875,45.44712 30.989518,59.54887 6.533045,5.67511 14.166835,10.18789 23.075875,13.25899 16.50952,5.59377 35.34475,6.19103 53.63004,5.97555 17.11034,-1.84322 34.31821,-14.55593 47.34389,-31.13888 22.25623,-30.23217 12.76362,-74.00128 12.31819,-107.45002 0.76327,-27.63632 16.04176,-55.65546 17.15813,-81.12677 -1.17595,-20.09941 1.53944,-17.02763 2.47809,-38.29646 5.79982,-23.40837 11.77943,-12.92653 18.99077,-9.17182 5.35025,3.99879 29.18298,11.56352 34.42475,15.81087 26.48134,26.58838 32.79144,66.8631 45.49377,104.58055 8.61228,41.3594 22.42983,74.26014 49.6396,100.22719 4.35708,4.1581 9.05756,8.13839 14.13505,11.94717 2.99435,4.9211 7.88664,10.87447 13.11911,16.04813 9.17887,5.19941 40.02426,12.16289 45.13335,10.71855 29.31609,-9.92933 57.20942,-24.35424 57.63437,-57.3588 -0.0234,-10.51778 -4.64918,-18.77418 -4.53385,-30.98415 -10.15301,-44.7808 -35.77189,-87.12238 -81.57693,-120.9846 -14.17772,-10.48115 -20.89768,-30.10735 -24.77576,-40.72334 -7.78479,-21.31038 -10.07707,-40.5322 -32.29628,-48.18962 -16.06247,-4.85283 -19.26867,-6.52727 -38.87424,-15.75898 -6.7708,-6.21073 -30.04039,-12.33152 -42.43579,-16.70172 -11.94698,-4.21211 -21.45767,-10.58973 -23.48089,-14.78586 -2.31778,-35.36571 3.66932,-67.00573 7.87487,-100.67619 0.10872,-1.31011 23.00435,-15.3891 38.75969,-8.97612 20.52604,5.41072 40.31343,12.6564 59.40844,21.24716 44.5079,20.0239 95.36714,71.37429 132.93793,99.81021 44.70325,55.01442 102.8693,67.94292 126.30894,131.46163 6.7441,19.38683 10.20448,39.93718 12.89304,61.03412 1.75684,32.32146 14.26589,64.27349 31.49421,87.04531 16.55277,20.06304 33.13742,43.49581 48.35699,48.91859 11.12096,3.33483 13.59746,5.19549 24.28422,4.72683 12.55505,-2.58539 24.98679,-9.10001 35.518,-17.84414 11.62933,-9.65592 20.94114,-22.03058 25.54226,-34.83524 4.44859,-12.79711 6.29944,-26.89545 7.12589,-41.26566 0.63645,-12.2726 -0.60471,-24.23784 -3.81911,-40.25067 C 831.23662,664.77984 814.51466,642.20335 797.28711,621.818 782.8889,607.35118 773.6583,589.51053 759.18885,577.35453 746.62565,566.88747 717.91451,557.09667 706.01175,545.01079 622.05554,482.441 528.87304,391.39597 445.71565,334.15353 422.71928,318.3237 404.66588,306.97006 381.36286,302.45566 c -22.84014,2.43738 -49.68865,0.19954 -50.16577,-2.98731 -8.90686,1.3517 -26.30476,-5.06435 -32.00068,-12.17797 -16.36543,-19.64557 -20.92622,-45.69472 -35.62121,-63.53996 -2.24422,-2.58405 -3.69019,-5.78588 -6.15361,-6.971 -10.91894,-1.99758 -39.70173,-3.39685 -46.86198,1.06355 -2.56069,1.73581 -2.8916,3.08151 -4.96096,5.88226 -4.79755,23.05682 -6.24829,42.81132 -8.32679,63.43688 -2.3025,22.8483 -3.91282,45.64902 -6.99366,71.60173 -20.51156,101.30362 -33.96984,173.26019 -63.42291,263.87088 -2.77202,8.28683 -6.0057,16.39076 -9.9069,24.26374 -21.557133,28.94071 -35.188183,40.67222 -44.066697,62.70347 -7.774588,19.65902 -8.494678,30.5036 -4.298536,49.75377 z"
   id="path3762"
   inkscape:connector-curvature="0"
   sodipodi:nodetypes="cscccccccccscccccssccscccsccccccsccccccscccccccsccccc" /></svg>