<?xml version="1.0" encoding="UTF-8" standalone="no"?>
<svg
   xmlns:dc="http://purl.org/dc/elements/1.1/"
   xmlns:cc="http://creativecommons.org/ns#"
   xmlns:rdf="http://www.w3.org/1999/02/22-rdf-syntax-ns#"
   xmlns:svg="http://www.w3.org/2000/svg"
   xmlns="http://www.w3.org/2000/svg"
   xmlns:sodipodi="http://sodipodi.sourceforge.net/DTD/sodipodi-0.dtd"
   xmlns:inkscape="http://www.inkscape.org/namespaces/inkscape"
   version="1.1"
   id="Layer_1"
   x="0px"
   y="0px"
   width="1000"
   height="1024"
   viewBox="0 0 1000 1024"
   enable-background="new 0 0 512 512"
   xml:space="preserve"
   inkscape:version="0.48.0 r9654"
   sodipodi:docname="tavhebrew-x5ea.svg"><title
   id="title3743">Sinai 357</title><metadata
   id="metadata72"><rdf:RDF><cc:Work
       rdf:about=""><dc:format>image/svg+xml</dc:format><dc:type
         rdf:resource="http://purl.org/dc/dcmitype/StillImage" /><dc:title>Sinai 357</dc:title><dc:date>2017</dc:date><dc:creator><cc:Agent><dc:title>Celeste Claire Horner</dc:title></cc:Agent></dc:creator><dc:publisher><cc:Agent><dc:title>beitdina.net</dc:title></cc:Agent></dc:publisher></cc:Work></rdf:RDF></metadata><defs
   id="defs70" /><sodipodi:namedview
   pagecolor="#ffffff"
   bordercolor="#666666"
   borderopacity="1"
   objecttolerance="10"
   gridtolerance="10"
   guidetolerance="10"
   inkscape:pageopacity="0"
   inkscape:pageshadow="2"
   inkscape:window-width="1152"
   inkscape:window-height="814"
   id="namedview68"
   showgrid="false"
   inkscape:zoom="0.36045874"
   inkscape:cx="-186.1505"
   inkscape:cy="712.44696"
   inkscape:window-x="-8"
   inkscape:window-y="-8"
   inkscape:window-maximized="1"
   inkscape:current-layer="Layer_1" />
   
	<g
   id="Grid"
   transform="matrix(1.9524943,0,0,2.0181509,2.4516249,-0.31695871)">
		<rect
   x="0"
   stroke-miterlimit="10"
   width="512"
   height="512"
   id="rect4"
   y="0"
   style="fill:none;stroke:#a9ccdb;stroke-miterlimit:10" />
		<line
   stroke-miterlimit="10"
   x1="0"
   y1="32"
   x2="512"
   y2="32"
   id="line6"
   style="fill:none;stroke:#a9ccdb;stroke-miterlimit:10" />
		<line
   stroke-miterlimit="10"
   x1="0"
   y1="64"
   x2="512"
   y2="64"
   id="line8"
   style="fill:none;stroke:#a9ccdb;stroke-miterlimit:10" />
		<line
   stroke-miterlimit="10"
   x1="0"
   y1="96"
   x2="512"
   y2="96"
   id="line10"
   style="fill:none;stroke:#a9ccdb;stroke-miterlimit:10" />
		<line
   stroke-miterlimit="10"
   x1="0"
   y1="128"
   x2="512"
   y2="128"
   id="line12"
   style="fill:none;stroke:#a9ccdb;stroke-miterlimit:10" />
		<line
   stroke-miterlimit="10"
   x1="0"
   y1="160"
   x2="512"
   y2="160"
   id="line14"
   style="fill:none;stroke:#a9ccdb;stroke-miterlimit:10" />
		<line
   stroke-miterlimit="10"
   x1="0"
   y1="192"
   x2="512"
   y2="192"
   id="line16"
   style="fill:none;stroke:#a9ccdb;stroke-miterlimit:10" />
		<line
   stroke-miterlimit="10"
   x1="0"
   y1="224"
   x2="512"
   y2="224"
   id="line18"
   style="fill:none;stroke:#a9ccdb;stroke-miterlimit:10" />
		<line
   stroke-miterlimit="10"
   x1="0"
   y1="256"
   x2="512"
   y2="256"
   id="line20"
   style="fill:none;stroke:#a9ccdb;stroke-miterlimit:10" />
		<line
   stroke-miterlimit="10"
   x1="0"
   y1="288"
   x2="512"
   y2="288"
   id="line22"
   style="fill:none;stroke:#a9ccdb;stroke-miterlimit:10" />
		<line
   stroke-miterlimit="10"
   x1="0"
   y1="320"
   x2="512"
   y2="320"
   id="line24"
   style="fill:none;stroke:#a9ccdb;stroke-miterlimit:10" />
		<line
   stroke-miterlimit="10"
   x1="0"
   y1="352"
   x2="512"
   y2="352"
   id="line26"
   style="fill:none;stroke:#a9ccdb;stroke-miterlimit:10" />
		<line
   stroke-miterlimit="10"
   x1="0"
   y1="384"
   x2="512"
   y2="384"
   id="line28"
   style="fill:none;stroke:#a9ccdb;stroke-miterlimit:10" />
		<line
   stroke-miterlimit="10"
   x1="0"
   y1="416"
   x2="512"
   y2="416"
   id="line30"
   style="fill:none;stroke:#a9ccdb;stroke-miterlimit:10" />
		<line
   stroke-miterlimit="10"
   x1="0"
   y1="448"
   x2="512"
   y2="448"
   id="line32"
   style="fill:none;stroke:#ff0000;stroke-miterlimit:10" />
		<line
   stroke-miterlimit="10"
   x1="0"
   y1="480"
   x2="512"
   y2="480"
   id="line34"
   style="fill:none;stroke:#a9ccdb;stroke-miterlimit:10" />
		<line
   stroke-miterlimit="10"
   x1="32"
   y1="0"
   x2="32"
   y2="512"
   id="line36"
   style="fill:none;stroke:#a9ccdb;stroke-miterlimit:10" />
		<line
   stroke-miterlimit="10"
   x1="64"
   y1="0"
   x2="64"
   y2="512"
   id="line38"
   style="fill:none;stroke:#a9ccdb;stroke-miterlimit:10" />
		<line
   stroke-miterlimit="10"
   x1="96"
   y1="0"
   x2="96"
   y2="512"
   id="line40"
   style="fill:none;stroke:#a9ccdb;stroke-miterlimit:10" />
		<line
   stroke-miterlimit="10"
   x1="128"
   y1="0"
   x2="128"
   y2="512"
   id="line42"
   style="fill:none;stroke:#a9ccdb;stroke-miterlimit:10" />
		<line
   stroke-miterlimit="10"
   x1="160"
   y1="0"
   x2="160"
   y2="512"
   id="line44"
   style="fill:none;stroke:#a9ccdb;stroke-miterlimit:10" />
		<line
   stroke-miterlimit="10"
   x1="192"
   y1="0"
   x2="192"
   y2="512"
   id="line46"
   style="fill:none;stroke:#a9ccdb;stroke-miterlimit:10" />
		<line
   stroke-miterlimit="10"
   x1="224"
   y1="0"
   x2="224"
   y2="512"
   id="line48"
   style="fill:none;stroke:#a9ccdb;stroke-miterlimit:10" />
		<line
   stroke-miterlimit="10"
   x1="256"
   y1="0"
   x2="256"
   y2="512"
   id="line50"
   style="fill:none;stroke:#a9ccdb;stroke-miterlimit:10" />
		<line
   stroke-miterlimit="10"
   x1="288"
   y1="0"
   x2="288"
   y2="512"
   id="line52"
   style="fill:none;stroke:#a9ccdb;stroke-miterlimit:10" />
		<line
   stroke-miterlimit="10"
   x1="320"
   y1="0"
   x2="320"
   y2="512"
   id="line54"
   style="fill:none;stroke:#a9ccdb;stroke-miterlimit:10" />
		<line
   stroke-miterlimit="10"
   x1="352"
   y1="0"
   x2="352"
   y2="512"
   id="line56"
   style="fill:none;stroke:#a9ccdb;stroke-miterlimit:10" />
		<line
   stroke-miterlimit="10"
   x1="384"
   y1="0"
   x2="384"
   y2="512"
   id="line58"
   style="fill:none;stroke:#a9ccdb;stroke-miterlimit:10" />
		<line
   stroke-miterlimit="10"
   x1="416"
   y1="0"
   x2="416"
   y2="512"
   id="line60"
   style="fill:none;stroke:#a9ccdb;stroke-miterlimit:10" />
		<line
   stroke-miterlimit="10"
   x1="448"
   y1="0"
   x2="448"
   y2="512"
   id="line62"
   style="fill:none;stroke:#a9ccdb;stroke-miterlimit:10" />
		<line
   stroke-miterlimit="10"
   x1="480"
   y1="0"
   x2="480"
   y2="512"
   id="line64"
   style="fill:none;stroke:#a9ccdb;stroke-miterlimit:10" />
	</g>

<path
   style="fill:#574638"
   d="m 143.69848,199.4427 c 42.6044,9.99685 85.15582,-0.50361 127.49847,2.14207 l 0,16.22039 c 3.44599,43.3227 -2.29015,66.97239 -2.29015,106.57239 0.29983,44.24854 -44.54758,96.15519 -47.61875,136.73533 -9.75847,13.60595 -41.20097,32.17123 -45.37447,48.40055 -7.8259,14.60333 -10.7053,23.58097 -7.9029,38.10799 3.6072,18.39859 10.3946,34.87564 8.3731,58.94806 -2.5038,25.74326 -11.1164,49.9158 -19.7006,73.65241 -5.8974,15.41109 -6.3919,16.05082 -9.2389,27.51467 -2.1637,8.71229 -1.6365,13.59404 0.068,19.08471 0.8738,2.81453 2.0571,5.78906 3.3459,9.52155 9.8625,30.72634 3.17361,62.50432 15.69221,88.13491 1.0858,2.26023 1.8632,4.58986 2.1397,7.27546 8.3803,31.54842 73.71941,61.30698 110.05301,66.5351 17.47263,2.28543 42.92544,4.75419 52.05408,-7.41552 17.80256,-26.69049 23.64551,-86.01814 24.72909,-106.79294 4.95553,-11.42628 11.14749,-22.20126 19.5883,-30.3194 8.45408,-8.1309 16.22155,-10.65407 30.20468,-11.43958 7.26272,3.86614 17.8669,4.28624 25.82492,7.20846 76.69964,20.80617 178.55676,36.72987 250.26856,-1.58155 6.4956,-3.47022 12.74388,-7.38542 18.70372,-11.78228 22.28287,-21.05763 29.974,-36.65656 44.90809,-60.6627 14.5848,-21.48256 28.51664,-42.77411 40.11039,-63.94346 8.11281,-14.81342 15.08075,-29.56701 20.3264,-44.28435 1.98388,-6.64634 13.30001,-31.22673 14.88663,-36.87982 24.34737,-86.74912 7.37747,-54.52014 20.3764,-81.43972 22.26862,-46.58083 0.18212,-87.163 0.18212,-125.07788 0.55104,-34.40745 10.24905,-53.18814 10.24905,-87.51916 2.6115,-18.04601 -3.99816,-30.99728 -5.84053,-44.30889 -11.99017,-9.16865 -16.13792,-16.3875 -29.33233,-24.13791 -9.32327,-5.4765 -16.10049,-14.13803 -25.77781,-16.7825 -20.00905,-5.33472 -43.3703,-5.05584 -59.78741,-5.47951 -7.30315,0.46396 -47.63013,5.53373 -52.55896,8.43536 -14.06514,8.28021 -15.40849,33.51259 -9.41683,52.51775 3.29405,10.4485 19.52948,10.25213 19.86489,19.58212 0.22689,6.31123 3.37653,10.94507 3.65746,16.35033 1.72953,4.58004 -2.41916,25.36775 -5.88364,39.94361 -4.14486,11.32524 -4.65132,24.1052 -4.81818,34.79005 -0.2108,14.26336 0.21701,28.578 0.63202,39.0808 0.75643,16.46464 -1.30271,34.2151 -2.65183,47.04013 -2.10893,9.12074 -0.0431,17.95143 1.60742,26.35381 2.8845,14.77083 2.14608,20.75582 -9.40287,27.06949 -15.33345,8.38261 -33.14445,9.23123 -38.96812,30.89794 -0.61391,1.40362 -1.24787,2.86809 -1.88906,4.36098 -1.84867,4.30424 -3.75754,8.84468 -5.41992,12.84385 -1.41215,3.39717 -2.64643,6.40377 -3.51485,8.54324 -1.1776,2.94134 -3.81281,10.97364 -5.0888,14.29585 -14.76655,25.53278 -37.4866,67.72166 -64.85129,83.89733 -19.35398,4.34271 -38.28703,4.32836 -56.54541,2.89 -36.21963,-2.86357 -71.74285,-7.46172 -104.25331,-19.14836 -7.27247,-2.67003 -13.03943,-6.03783 -16.45381,-10.49044 -8.50299,-17.43566 -0.80139,-43.01586 -1.78163,-55.17232 0.66337,-22.16878 2.56813,-42.29043 1.14913,-64.39185 11.2064,-16.76513 17.26489,-36.7583 25.70682,-55.03014 10.25818,-22.20297 24.12759,-44.76086 29.27218,-65.8328 -0.29066,-15.94006 4.28523,-42.00243 5.19483,-58.30909 2.54065,-45.54703 3.1636,-81.69684 -5.23533,-122.37464 -2.78188,-2.52246 -5.59354,-5.03389 -8.43178,-7.5284 -25.66845,-22.96013 -55.00041,-38.0145 -79.46351,-56.793344 -8.93436,-6.84205 -16.92279,-14.12581 -23.5391,-21.85871 -11.88506,-13.50557 -30.51035,-26.9253 -46.62449,-28.13243 -20.28585,-4.907 -45.00587,-7.44589 -63.21129,-8.39067 -21.0922,-0.9136 -44.9628,2.26063 -63.0141,4.43649 -21.6366,2.79797 -42.3347,10.71798 -60.218405,20.73789 -3.9544,2.37854 -7.6305,5.58436 -10.9888,10.08985 -11.9921,16.12249 -12.2264,43.942564 -4.2187,64.320334 17.098,29.71511 47.906305,49.53396 74.639905,58.76911 z"
   id="path3789"
   inkscape:connector-curvature="0"
   sodipodi:nodetypes="cccccccccssccccccsccsccscsccccsccsssccccccscssccccccccscscccccccccccc" /></svg>