<?xml version="1.0" encoding="UTF-8" standalone="no"?>
<svg
   xmlns:dc="http://purl.org/dc/elements/1.1/"
   xmlns:cc="http://creativecommons.org/ns#"
   xmlns:rdf="http://www.w3.org/1999/02/22-rdf-syntax-ns#"
   xmlns:svg="http://www.w3.org/2000/svg"
   xmlns="http://www.w3.org/2000/svg"
   xmlns:sodipodi="http://sodipodi.sourceforge.net/DTD/sodipodi-0.dtd"
   xmlns:inkscape="http://www.inkscape.org/namespaces/inkscape"
   version="1.1"
   id="Layer_1"
   x="0px"
   y="0px"
   width="1000"
   height="1024"
   viewBox="0 0 1000 1024"
   enable-background="new 0 0 512 512"
   xml:space="preserve"
   inkscape:version="0.48.0 r9654"
   sodipodi:docname="tavhebrew-x5ea.svg"><title
   id="title3743">Sinai 357</title><metadata
   id="metadata72"><rdf:RDF><cc:Work
       rdf:about=""><dc:format>image/svg+xml</dc:format><dc:type
         rdf:resource="http://purl.org/dc/dcmitype/StillImage" /><dc:title>Sinai 357</dc:title><dc:date>2017</dc:date><dc:creator><cc:Agent><dc:title>Celeste Claire Horner</dc:title></cc:Agent></dc:creator><dc:publisher><cc:Agent><dc:title>beitdina.net</dc:title></cc:Agent></dc:publisher></cc:Work></rdf:RDF></metadata><defs
   id="defs70" /><sodipodi:namedview
   pagecolor="#ffffff"
   bordercolor="#666666"
   borderopacity="1"
   objecttolerance="10"
   gridtolerance="10"
   guidetolerance="10"
   inkscape:pageopacity="0"
   inkscape:pageshadow="2"
   inkscape:window-width="1152"
   inkscape:window-height="814"
   id="namedview68"
   showgrid="false"
   inkscape:zoom="0.36045874"
   inkscape:cx="-186.1505"
   inkscape:cy="712.44696"
   inkscape:window-x="-8"
   inkscape:window-y="-8"
   inkscape:window-maximized="1"
   inkscape:current-layer="Layer_1" />
   
	<g
   id="Grid"
   transform="matrix(1.9524943,0,0,2.0181509,2.4516249,-0.31695871)">
		<rect
   x="0"
   stroke-miterlimit="10"
   width="512"
   height="512"
   id="rect4"
   y="0"
   style="fill:none;stroke:#a9ccdb;stroke-miterlimit:10" />
		<line
   stroke-miterlimit="10"
   x1="0"
   y1="32"
   x2="512"
   y2="32"
   id="line6"
   style="fill:none;stroke:#a9ccdb;stroke-miterlimit:10" />
		<line
   stroke-miterlimit="10"
   x1="0"
   y1="64"
   x2="512"
   y2="64"
   id="line8"
   style="fill:none;stroke:#a9ccdb;stroke-miterlimit:10" />
		<line
   stroke-miterlimit="10"
   x1="0"
   y1="96"
   x2="512"
   y2="96"
   id="line10"
   style="fill:none;stroke:#a9ccdb;stroke-miterlimit:10" />
		<line
   stroke-miterlimit="10"
   x1="0"
   y1="128"
   x2="512"
   y2="128"
   id="line12"
   style="fill:none;stroke:#a9ccdb;stroke-miterlimit:10" />
		<line
   stroke-miterlimit="10"
   x1="0"
   y1="160"
   x2="512"
   y2="160"
   id="line14"
   style="fill:none;stroke:#a9ccdb;stroke-miterlimit:10" />
		<line
   stroke-miterlimit="10"
   x1="0"
   y1="192"
   x2="512"
   y2="192"
   id="line16"
   style="fill:none;stroke:#a9ccdb;stroke-miterlimit:10" />
		<line
   stroke-miterlimit="10"
   x1="0"
   y1="224"
   x2="512"
   y2="224"
   id="line18"
   style="fill:none;stroke:#a9ccdb;stroke-miterlimit:10" />
		<line
   stroke-miterlimit="10"
   x1="0"
   y1="256"
   x2="512"
   y2="256"
   id="line20"
   style="fill:none;stroke:#a9ccdb;stroke-miterlimit:10" />
		<line
   stroke-miterlimit="10"
   x1="0"
   y1="288"
   x2="512"
   y2="288"
   id="line22"
   style="fill:none;stroke:#a9ccdb;stroke-miterlimit:10" />
		<line
   stroke-miterlimit="10"
   x1="0"
   y1="320"
   x2="512"
   y2="320"
   id="line24"
   style="fill:none;stroke:#a9ccdb;stroke-miterlimit:10" />
		<line
   stroke-miterlimit="10"
   x1="0"
   y1="352"
   x2="512"
   y2="352"
   id="line26"
   style="fill:none;stroke:#a9ccdb;stroke-miterlimit:10" />
		<line
   stroke-miterlimit="10"
   x1="0"
   y1="384"
   x2="512"
   y2="384"
   id="line28"
   style="fill:none;stroke:#a9ccdb;stroke-miterlimit:10" />
		<line
   stroke-miterlimit="10"
   x1="0"
   y1="416"
   x2="512"
   y2="416"
   id="line30"
   style="fill:none;stroke:#a9ccdb;stroke-miterlimit:10" />
		<line
   stroke-miterlimit="10"
   x1="0"
   y1="448"
   x2="512"
   y2="448"
   id="line32"
   style="fill:none;stroke:#ff0000;stroke-miterlimit:10" />
		<line
   stroke-miterlimit="10"
   x1="0"
   y1="480"
   x2="512"
   y2="480"
   id="line34"
   style="fill:none;stroke:#a9ccdb;stroke-miterlimit:10" />
		<line
   stroke-miterlimit="10"
   x1="32"
   y1="0"
   x2="32"
   y2="512"
   id="line36"
   style="fill:none;stroke:#a9ccdb;stroke-miterlimit:10" />
		<line
   stroke-miterlimit="10"
   x1="64"
   y1="0"
   x2="64"
   y2="512"
   id="line38"
   style="fill:none;stroke:#a9ccdb;stroke-miterlimit:10" />
		<line
   stroke-miterlimit="10"
   x1="96"
   y1="0"
   x2="96"
   y2="512"
   id="line40"
   style="fill:none;stroke:#a9ccdb;stroke-miterlimit:10" />
		<line
   stroke-miterlimit="10"
   x1="128"
   y1="0"
   x2="128"
   y2="512"
   id="line42"
   style="fill:none;stroke:#a9ccdb;stroke-miterlimit:10" />
		<line
   stroke-miterlimit="10"
   x1="160"
   y1="0"
   x2="160"
   y2="512"
   id="line44"
   style="fill:none;stroke:#a9ccdb;stroke-miterlimit:10" />
		<line
   stroke-miterlimit="10"
   x1="192"
   y1="0"
   x2="192"
   y2="512"
   id="line46"
   style="fill:none;stroke:#a9ccdb;stroke-miterlimit:10" />
		<line
   stroke-miterlimit="10"
   x1="224"
   y1="0"
   x2="224"
   y2="512"
   id="line48"
   style="fill:none;stroke:#a9ccdb;stroke-miterlimit:10" />
		<line
   stroke-miterlimit="10"
   x1="256"
   y1="0"
   x2="256"
   y2="512"
   id="line50"
   style="fill:none;stroke:#a9ccdb;stroke-miterlimit:10" />
		<line
   stroke-miterlimit="10"
   x1="288"
   y1="0"
   x2="288"
   y2="512"
   id="line52"
   style="fill:none;stroke:#a9ccdb;stroke-miterlimit:10" />
		<line
   stroke-miterlimit="10"
   x1="320"
   y1="0"
   x2="320"
   y2="512"
   id="line54"
   style="fill:none;stroke:#a9ccdb;stroke-miterlimit:10" />
		<line
   stroke-miterlimit="10"
   x1="352"
   y1="0"
   x2="352"
   y2="512"
   id="line56"
   style="fill:none;stroke:#a9ccdb;stroke-miterlimit:10" />
		<line
   stroke-miterlimit="10"
   x1="384"
   y1="0"
   x2="384"
   y2="512"
   id="line58"
   style="fill:none;stroke:#a9ccdb;stroke-miterlimit:10" />
		<line
   stroke-miterlimit="10"
   x1="416"
   y1="0"
   x2="416"
   y2="512"
   id="line60"
   style="fill:none;stroke:#a9ccdb;stroke-miterlimit:10" />
		<line
   stroke-miterlimit="10"
   x1="448"
   y1="0"
   x2="448"
   y2="512"
   id="line62"
   style="fill:none;stroke:#a9ccdb;stroke-miterlimit:10" />
		<line
   stroke-miterlimit="10"
   x1="480"
   y1="0"
   x2="480"
   y2="512"
   id="line64"
   style="fill:none;stroke:#a9ccdb;stroke-miterlimit:10" />
	</g>

<path
   style="fill:#574638"
   d="m 138.93642,226.59092 c 39.88623,9.60945 79.72287,-0.4841 119.36405,2.05906 l 0,15.59182 c 3.22613,41.64387 -2.14404,64.37709 -2.14404,102.44253 0.2807,42.53383 -41.70544,92.429 -44.58067,131.43659 -9.13587,13.0787 -38.57234,30.92454 -42.47957,46.52495 -7.32661,14.03742 -10.0223,22.66716 -7.39869,36.63124 3.37706,17.68561 9.73142,33.52414 7.83889,56.66372 -2.34405,24.74566 -10.40717,47.98147 -18.4437,70.79825 -5.52114,14.81388 -5.98409,15.42882 -8.64945,26.44843 -2.02566,8.37467 -1.53209,13.06724 0.0637,18.34514 0.81805,2.70546 1.92585,5.56472 3.13243,9.15257 9.23327,29.53564 2.97113,60.08217 14.69104,84.71953 1.01653,2.17264 1.74433,4.412 2.00319,6.99352 7.84564,30.32584 69.0161,58.9312 103.03161,63.95673 16.35788,2.19686 40.1868,4.56995 48.73303,-7.12816 16.66675,-25.65618 22.13692,-82.68476 23.15137,-102.6545 4.63936,-10.98349 10.43628,-21.34092 18.33856,-29.14447 7.91471,-7.81581 15.18661,-10.24121 28.27762,-10.99628 6.79936,3.71632 16.72699,4.12014 24.17729,6.92912 71.80619,19.9999 167.16481,35.30653 234.30139,-1.52026 6.08118,-3.33574 11.93082,-7.09922 17.51042,-11.32569 20.86122,-20.24162 28.06165,-35.23606 42.04294,-58.31192 13.65429,-20.65007 26.69728,-41.11654 37.55135,-61.46554 7.59521,-14.23937 14.11859,-28.42124 19.02957,-42.56825 1.85731,-6.38879 12.45147,-30.01664 13.93686,-35.45067 22.794,-83.38744 6.90679,-52.40739 19.07638,-78.28378 20.84788,-44.77575 0.1705,-83.78529 0.1705,-120.2309 0.51589,-33.0741 9.59516,-51.12701 9.59516,-84.12764 2.44489,-17.34669 -3.74307,-29.79608 -5.4679,-42.59184 -11.2252,-8.81335 -15.10832,-15.75246 -27.46092,-23.20253 -8.72845,-5.26427 -15.07328,-13.59015 -24.13319,-16.13215 -18.73247,-5.12799 -40.60326,-4.85991 -55.97296,-5.26716 -6.83721,0.44598 -44.59132,5.31928 -49.20569,8.10847 -13.16778,7.95934 -14.42543,32.21392 -8.81604,50.4826 3.08389,10.0436 18.2835,9.85484 18.59751,18.82327 0.21241,6.06666 3.16111,10.52093 3.42411,15.71673 1.61919,4.40256 -2.26481,24.38471 -5.50826,38.39573 -3.88042,10.88636 -4.35456,23.17108 -4.51078,33.44187 -0.19735,13.71063 0.20317,27.47055 0.5917,37.56635 0.70817,15.82661 -1.2196,32.88921 -2.48264,45.21725 -1.97438,8.76729 -0.0403,17.25578 1.50486,25.33255 2.70047,14.19843 2.00916,19.9515 -8.80296,26.0205 -14.35518,8.05777 -31.02983,8.8735 -36.48195,29.70059 -0.57474,1.34923 -1.16826,2.75695 -1.76854,4.19198 -1.73072,4.13745 -3.51781,8.50194 -5.07413,12.34613 -1.32205,3.26553 -2.47759,6.15562 -3.2906,8.21218 -1.10247,2.82736 -3.56955,10.54839 -4.76413,13.74186 -13.82445,24.54334 -35.09495,65.09733 -60.71377,80.64616 -18.1192,4.17442 -35.84432,4.16063 -52.93781,2.77801 -33.90881,-2.7526 -67.16564,-7.17257 -97.60193,-18.40633 -6.80849,-2.56656 -12.20752,-5.80385 -15.40406,-10.08392 -7.9605,-16.75999 -0.75026,-41.34892 -1.66796,-53.03429 0.62105,-21.3097 2.40428,-40.65161 1.07582,-61.89656 10.49143,-16.11545 16.16338,-35.33385 24.06672,-52.89762 9.6037,-21.34257 22.58824,-43.0263 27.40461,-63.28167 -0.27212,-15.32235 4.01183,-40.37476 4.8634,-56.04951 2.37855,-43.782 2.96176,-78.53094 -4.90132,-117.63241 -2.60439,-2.42471 -5.23667,-4.83882 -7.89383,-7.23666 -24.0308,-22.07038 -51.49138,-36.54137 -74.39373,-54.59253 -8.36434,-6.57691 -15.84311,-13.57841 -22.0373,-21.01164 -11.12679,-12.982214 -28.56378,-25.881904 -43.64984,-27.042254 -18.99161,-4.71685 -42.13449,-7.15735 -59.1784,-8.06552 -19.74652,-0.8782 -42.09417,2.17303 -58.99379,4.26457 -20.25618,2.68954 -39.63374,10.30264 -56.376466,19.93426 -3.702108,2.286374 -7.143673,5.367964 -10.287713,9.698854 -11.227042,15.49772 -11.446394,42.23974 -3.949586,61.82783 16.007145,28.5636 44.849875,47.61444 69.877865,56.49171 z"
   id="path3789"
   inkscape:connector-curvature="0"
   sodipodi:nodetypes="cccccccccssccccccsccsccscsccccsccsssccccccscssccccccccscscccccccccccc" /></svg>