<?xml version="1.0" encoding="UTF-8" standalone="no"?>
<svg
   xmlns:dc="http://purl.org/dc/elements/1.1/"
   xmlns:cc="http://creativecommons.org/ns#"
   xmlns:rdf="http://www.w3.org/1999/02/22-rdf-syntax-ns#"
   xmlns:svg="http://www.w3.org/2000/svg"
   xmlns="http://www.w3.org/2000/svg"
   xmlns:sodipodi="http://sodipodi.sourceforge.net/DTD/sodipodi-0.dtd"
   xmlns:inkscape="http://www.inkscape.org/namespaces/inkscape"
   version="1.1"
   id="Layer_1"
   x="0px"
   y="0px"
   width="800"
   height="1024"
   viewBox="0 0 800 1024"
   enable-background="new 0 0 512 512"
   xml:space="preserve"
   inkscape:version="0.48.0 r9654"
   sodipodi:docname="tsadihebrew-x5e6.svg"><title
   id="title3743">Sinai 357</title><metadata
   id="metadata72"><rdf:RDF><cc:Work
       rdf:about=""><dc:format>image/svg+xml</dc:format><dc:type
         rdf:resource="http://purl.org/dc/dcmitype/StillImage" /><dc:title>Sinai 357</dc:title><dc:date>2017</dc:date><dc:creator><cc:Agent><dc:title>Celeste Claire Horner</dc:title></cc:Agent></dc:creator><dc:publisher><cc:Agent><dc:title>beitdina.net</dc:title></cc:Agent></dc:publisher></cc:Work></rdf:RDF></metadata><defs
   id="defs70" /><sodipodi:namedview
   pagecolor="#ffffff"
   bordercolor="#666666"
   borderopacity="1"
   objecttolerance="10"
   gridtolerance="10"
   guidetolerance="10"
   inkscape:pageopacity="0"
   inkscape:pageshadow="2"
   inkscape:window-width="1152"
   inkscape:window-height="814"
   id="namedview68"
   showgrid="false"
   inkscape:zoom="0.36045873"
   inkscape:cx="1.1499365"
   inkscape:cy="242.04266"
   inkscape:window-x="-8"
   inkscape:window-y="-8"
   inkscape:window-maximized="1"
   inkscape:current-layer="Layer_1" />
   
	<g
   id="Grid"
   transform="matrix(1.561992,0,0,2.0004578,0.50019527,4.813853)">
		<rect
   x="0"
   stroke-miterlimit="10"
   width="512"
   height="512"
   id="rect4"
   y="0"
   style="fill:none;stroke:#a9ccdb;stroke-miterlimit:10" />
		<line
   stroke-miterlimit="10"
   x1="0"
   y1="32"
   x2="512"
   y2="32"
   id="line6"
   style="fill:none;stroke:#a9ccdb;stroke-miterlimit:10" />
		<line
   stroke-miterlimit="10"
   x1="0"
   y1="64"
   x2="512"
   y2="64"
   id="line8"
   style="fill:none;stroke:#a9ccdb;stroke-miterlimit:10" />
		<line
   stroke-miterlimit="10"
   x1="0"
   y1="96"
   x2="512"
   y2="96"
   id="line10"
   style="fill:none;stroke:#a9ccdb;stroke-miterlimit:10" />
		<line
   stroke-miterlimit="10"
   x1="0"
   y1="128"
   x2="512"
   y2="128"
   id="line12"
   style="fill:none;stroke:#a9ccdb;stroke-miterlimit:10" />
		<line
   stroke-miterlimit="10"
   x1="0"
   y1="160"
   x2="512"
   y2="160"
   id="line14"
   style="fill:none;stroke:#a9ccdb;stroke-miterlimit:10" />
		<line
   stroke-miterlimit="10"
   x1="0"
   y1="192"
   x2="512"
   y2="192"
   id="line16"
   style="fill:none;stroke:#a9ccdb;stroke-miterlimit:10" />
		<line
   stroke-miterlimit="10"
   x1="0"
   y1="224"
   x2="512"
   y2="224"
   id="line18"
   style="fill:none;stroke:#a9ccdb;stroke-miterlimit:10" />
		<line
   stroke-miterlimit="10"
   x1="0"
   y1="256"
   x2="512"
   y2="256"
   id="line20"
   style="fill:none;stroke:#a9ccdb;stroke-miterlimit:10" />
		<line
   stroke-miterlimit="10"
   x1="0"
   y1="288"
   x2="512"
   y2="288"
   id="line22"
   style="fill:none;stroke:#a9ccdb;stroke-miterlimit:10" />
		<line
   stroke-miterlimit="10"
   x1="0"
   y1="320"
   x2="512"
   y2="320"
   id="line24"
   style="fill:none;stroke:#a9ccdb;stroke-miterlimit:10" />
		<line
   stroke-miterlimit="10"
   x1="0"
   y1="352"
   x2="512"
   y2="352"
   id="line26"
   style="fill:none;stroke:#a9ccdb;stroke-miterlimit:10" />
		<line
   stroke-miterlimit="10"
   x1="0"
   y1="384"
   x2="512"
   y2="384"
   id="line28"
   style="fill:none;stroke:#a9ccdb;stroke-miterlimit:10" />
		<line
   stroke-miterlimit="10"
   x1="0"
   y1="416"
   x2="512"
   y2="416"
   id="line30"
   style="fill:none;stroke:#a9ccdb;stroke-miterlimit:10" />
		<line
   stroke-miterlimit="10"
   x1="0"
   y1="448"
   x2="512"
   y2="448"
   id="line32"
   style="fill:none;stroke:#ff0000;stroke-miterlimit:10" />
		<line
   stroke-miterlimit="10"
   x1="0"
   y1="480"
   x2="512"
   y2="480"
   id="line34"
   style="fill:none;stroke:#a9ccdb;stroke-miterlimit:10" />
		<line
   stroke-miterlimit="10"
   x1="32"
   y1="0"
   x2="32"
   y2="512"
   id="line36"
   style="fill:none;stroke:#a9ccdb;stroke-miterlimit:10" />
		<line
   stroke-miterlimit="10"
   x1="64"
   y1="0"
   x2="64"
   y2="512"
   id="line38"
   style="fill:none;stroke:#a9ccdb;stroke-miterlimit:10" />
		<line
   stroke-miterlimit="10"
   x1="96"
   y1="0"
   x2="96"
   y2="512"
   id="line40"
   style="fill:none;stroke:#a9ccdb;stroke-miterlimit:10" />
		<line
   stroke-miterlimit="10"
   x1="128"
   y1="0"
   x2="128"
   y2="512"
   id="line42"
   style="fill:none;stroke:#a9ccdb;stroke-miterlimit:10" />
		<line
   stroke-miterlimit="10"
   x1="160"
   y1="0"
   x2="160"
   y2="512"
   id="line44"
   style="fill:none;stroke:#a9ccdb;stroke-miterlimit:10" />
		<line
   stroke-miterlimit="10"
   x1="192"
   y1="0"
   x2="192"
   y2="512"
   id="line46"
   style="fill:none;stroke:#a9ccdb;stroke-miterlimit:10" />
		<line
   stroke-miterlimit="10"
   x1="224"
   y1="0"
   x2="224"
   y2="512"
   id="line48"
   style="fill:none;stroke:#a9ccdb;stroke-miterlimit:10" />
		<line
   stroke-miterlimit="10"
   x1="256"
   y1="0"
   x2="256"
   y2="512"
   id="line50"
   style="fill:none;stroke:#a9ccdb;stroke-miterlimit:10" />
		<line
   stroke-miterlimit="10"
   x1="288"
   y1="0"
   x2="288"
   y2="512"
   id="line52"
   style="fill:none;stroke:#a9ccdb;stroke-miterlimit:10" />
		<line
   stroke-miterlimit="10"
   x1="320"
   y1="0"
   x2="320"
   y2="512"
   id="line54"
   style="fill:none;stroke:#a9ccdb;stroke-miterlimit:10" />
		<line
   stroke-miterlimit="10"
   x1="352"
   y1="0"
   x2="352"
   y2="512"
   id="line56"
   style="fill:none;stroke:#a9ccdb;stroke-miterlimit:10" />
		<line
   stroke-miterlimit="10"
   x1="384"
   y1="0"
   x2="384"
   y2="512"
   id="line58"
   style="fill:none;stroke:#a9ccdb;stroke-miterlimit:10" />
		<line
   stroke-miterlimit="10"
   x1="416"
   y1="0"
   x2="416"
   y2="512"
   id="line60"
   style="fill:none;stroke:#a9ccdb;stroke-miterlimit:10" />
		<line
   stroke-miterlimit="10"
   x1="448"
   y1="0"
   x2="448"
   y2="512"
   id="line62"
   style="fill:none;stroke:#a9ccdb;stroke-miterlimit:10" />
		<line
   stroke-miterlimit="10"
   x1="480"
   y1="0"
   x2="480"
   y2="512"
   id="line64"
   style="fill:none;stroke:#a9ccdb;stroke-miterlimit:10" />
	</g>
	
<path
   style="fill:#584f47"
   d="m 141.78593,137.79604 c -18.71038,1.71465 -27.51794,15.09905 -36.35909,21.71251 -17.820742,22.3796 50.50859,56.11683 64.37413,65.3805 33.10202,11.91521 73.49717,37.26661 105.62252,44.0436 7.12199,1.638 13.97942,1.53648 20.6765,2.22859 11.01654,1.13776 22.13365,3.4145 32.46588,2.76471 3.91896,-0.24298 7.69224,0.18301 12.46528,3.67469 7.62586,5.65302 14.93054,15.19589 17.83546,19.90217 7.48295,10.99417 7.1418,11.77354 6.91646,21.13086 -0.14103,5.85751 -1.06613,12.72151 -2.0557,15.25331 -9.50317,30.60062 -4.3583,65.03675 -18.5293,90.4498 -4.00685,7.03967 -6.09185,13.42608 -5.93286,18.17259 0.2045,6.10647 -1.18779,8.70378 -8.40755,15.68395 -4.759,4.60101 -8.65269,9.07576 -8.65269,9.94386 0,0.86806 -3.12065,4.91112 -6.93478,8.98457 -7.37542,7.8769 -13.68152,18.32562 -13.68152,22.66928 0,1.44726 -3.20209,7.38905 -7.11576,13.20396 -3.91365,5.81492 -7.67863,13.33353 -8.36657,16.70806 -0.68797,3.37453 -2.08299,7.91164 -3.10009,10.08247 -6.73072,14.36586 -14.38616,36.4718 -14.39416,41.56483 -0.0195,12.36591 -8.28917,36.74528 -15.28511,45.06077 -11.95181,31.0046 -50.4464,57.74906 -57.26085,85.4006 7.96698,52.50048 57.07219,76.9135 95.38382,80.99626 14.16047,-1.40241 14.5749,-16.53682 19.19029,-25.01334 13.75164,-30.34044 58.70133,-58.09381 56.01272,-85.62704 -0.74255,-4.44517 -2.86075,-9.68 -4.7071,-11.63298 -3.95454,-4.18288 -4.13945,-10.72421 -0.90282,-31.93872 2.67048,-17.50357 8.85658,-31.50816 16.72956,-37.87366 2.88774,-2.33484 7.10591,-8.87091 9.37371,-14.52466 2.2678,-5.65373 5.91143,-11.19837 8.09695,-12.32143 5.30891,-2.72796 29.60389,-0.65943 37.3339,3.1787 20.46781,2.93037 35.34701,23.84674 49.94495,32.77898 6.3234,4.37167 14.32991,3.6949 20.59346,6.74151 23.95469,14.95216 29.4024,46.36367 34.6772,71.22141 0.68916,3.25624 1.17317,8.00005 1.07561,10.54179 -12.73822,48.07197 1.37461,67.00324 17.94616,94.32445 7.30754,13.90272 15.31356,26.85073 29.50931,34.17446 16.97381,8.60781 37.59301,10.38704 47.6939,9.95727 22.88821,-7.37761 18.71104,-23.93214 19.61801,-38.02179 0.22312,-5.31451 -1.77874,-9.41639 -1.14662,-15.06595 2.50705,-22.40656 4.39882,-46.02106 6.87569,-61.61036 0.46813,-3.54085 2.27186,-9.30379 4.00826,-12.80655 1.7364,-3.50275 4.47629,-13.60207 6.08865,-22.44292 1.61235,-8.84085 3.82012,-17.12827 4.90619,-18.41649 2.36502,-2.80526 8.03678,-21.18639 9.64346,-31.2528 1.83303,-6.08981 5.82347,-13.68182 8.84065,-20.75647 3.07281,-5.84813 3.60357,-11.24554 3.2456,-16.80242 1.24203,-7.76562 -1.54477,-13.61976 -4.80888,-18.88742 -6.64031,-7.79993 -7.00387,-16.56754 -11.19386,-24.55538 -8.18777,-15.41526 -25.98624,-23.17821 -44.5049,-24.47589 -17.35973,-1.21645 -35.35233,3.24848 -46.65413,12.41695 -6.75737,7.66936 -29.41191,9.86184 -48.17916,5.8342 -8.06703,-1.95649 -15.47795,-5.17884 -23.25063,-6.28384 -27.89404,0.13452 -45.41847,-0.11591 -63.12926,-17.76481 -5.55702,-5.5176 -11.69536,-10.78579 -13.07255,-10.78579 -3.80421,0 -5.90817,-11.91304 -6.07692,-34.40856 -0.13874,-18.49356 0.57024,-25.13099 3.17561,-29.72965 13.52853,-36.13971 43.28421,-58.88334 40.09444,-99.70587 -0.92087,-10.28672 -2.66416,-23.35268 -3.87391,-29.0355 -1.64171,-4.92943 -0.64632,-10.2372 -0.89113,-15.04181 -3.76191,-7.14868 0.38822,-16.79308 -0.45196,-20.06041 -3.99184,-13.83349 -9.75249,-24.84349 -19.54689,-33.36431 -13.21227,-11.27729 -46.85252,-27.70994 -60.67175,-29.63704 -5.52126,-0.76996 -12.09342,-2.66281 -14.60479,-4.20636 -2.51138,-1.54355 -6.34065,-2.80645 -8.50948,-2.80645 -2.16887,0 -5.17185,-1.41696 -6.67335,-3.14879 -67.97593,-6.90508 -126.63073,-65.46783 -182.85801,-74.84321 -29.78626,-2.622 -36.83242,-2.86514 -38.63012,-1.33299 z"
   id="path3768"
   inkscape:connector-curvature="0"
   sodipodi:nodetypes="ccccccccsccssssssssscccccssssscccccccccscssscccccsccccssccccccssscccc" />

</svg>