<?xml version="1.0" encoding="UTF-8" standalone="no"?>
<svg
   xmlns:dc="http://purl.org/dc/elements/1.1/"
   xmlns:cc="http://creativecommons.org/ns#"
   xmlns:rdf="http://www.w3.org/1999/02/22-rdf-syntax-ns#"
   xmlns:svg="http://www.w3.org/2000/svg"
   xmlns="http://www.w3.org/2000/svg"
   xmlns:sodipodi="http://sodipodi.sourceforge.net/DTD/sodipodi-0.dtd"
   xmlns:inkscape="http://www.inkscape.org/namespaces/inkscape"
   version="1.1"
   id="Layer_1"
   x="0px"
   y="0px"
   width="800"
   height="1024"
   viewBox="0 0 800 1024"
   enable-background="new 0 0 512 512"
   xml:space="preserve"
   inkscape:version="0.48.0 r9654"
   sodipodi:docname="tsadihebrew-x5e6.svg"><title
   id="title3743">Sinai 357</title><metadata
   id="metadata72"><rdf:RDF><cc:Work
       rdf:about=""><dc:format>image/svg+xml</dc:format><dc:type
         rdf:resource="http://purl.org/dc/dcmitype/StillImage" /><dc:title>Sinai 357</dc:title><dc:date>2017</dc:date><dc:creator><cc:Agent><dc:title>Celeste Claire Horner</dc:title></cc:Agent></dc:creator><dc:publisher><cc:Agent><dc:title>beitdina.net</dc:title></cc:Agent></dc:publisher></cc:Work></rdf:RDF></metadata><defs
   id="defs70" /><sodipodi:namedview
   pagecolor="#ffffff"
   bordercolor="#666666"
   borderopacity="1"
   objecttolerance="10"
   gridtolerance="10"
   guidetolerance="10"
   inkscape:pageopacity="0"
   inkscape:pageshadow="2"
   inkscape:window-width="1152"
   inkscape:window-height="814"
   id="namedview68"
   showgrid="false"
   inkscape:zoom="0.36045873"
   inkscape:cx="1.1499365"
   inkscape:cy="581.82381"
   inkscape:window-x="-8"
   inkscape:window-y="-8"
   inkscape:window-maximized="1"
   inkscape:current-layer="Layer_1" />
   
	<g
   id="Grid"
   transform="matrix(1.561992,0,0,2.0004578,0.50019527,4.8138064)">
		<rect
   x="0"
   stroke-miterlimit="10"
   width="512"
   height="512"
   id="rect4"
   y="0"
   style="fill:none;stroke:#a9ccdb;stroke-miterlimit:10" />
		<line
   stroke-miterlimit="10"
   x1="0"
   y1="32"
   x2="512"
   y2="32"
   id="line6"
   style="fill:none;stroke:#a9ccdb;stroke-miterlimit:10" />
		<line
   stroke-miterlimit="10"
   x1="0"
   y1="64"
   x2="512"
   y2="64"
   id="line8"
   style="fill:none;stroke:#a9ccdb;stroke-miterlimit:10" />
		<line
   stroke-miterlimit="10"
   x1="0"
   y1="96"
   x2="512"
   y2="96"
   id="line10"
   style="fill:none;stroke:#a9ccdb;stroke-miterlimit:10" />
		<line
   stroke-miterlimit="10"
   x1="0"
   y1="128"
   x2="512"
   y2="128"
   id="line12"
   style="fill:none;stroke:#a9ccdb;stroke-miterlimit:10" />
		<line
   stroke-miterlimit="10"
   x1="0"
   y1="160"
   x2="512"
   y2="160"
   id="line14"
   style="fill:none;stroke:#a9ccdb;stroke-miterlimit:10" />
		<line
   stroke-miterlimit="10"
   x1="0"
   y1="192"
   x2="512"
   y2="192"
   id="line16"
   style="fill:none;stroke:#a9ccdb;stroke-miterlimit:10" />
		<line
   stroke-miterlimit="10"
   x1="0"
   y1="224"
   x2="512"
   y2="224"
   id="line18"
   style="fill:none;stroke:#a9ccdb;stroke-miterlimit:10" />
		<line
   stroke-miterlimit="10"
   x1="0"
   y1="256"
   x2="512"
   y2="256"
   id="line20"
   style="fill:none;stroke:#a9ccdb;stroke-miterlimit:10" />
		<line
   stroke-miterlimit="10"
   x1="0"
   y1="288"
   x2="512"
   y2="288"
   id="line22"
   style="fill:none;stroke:#a9ccdb;stroke-miterlimit:10" />
		<line
   stroke-miterlimit="10"
   x1="0"
   y1="320"
   x2="512"
   y2="320"
   id="line24"
   style="fill:none;stroke:#a9ccdb;stroke-miterlimit:10" />
		<line
   stroke-miterlimit="10"
   x1="0"
   y1="352"
   x2="512"
   y2="352"
   id="line26"
   style="fill:none;stroke:#a9ccdb;stroke-miterlimit:10" />
		<line
   stroke-miterlimit="10"
   x1="0"
   y1="384"
   x2="512"
   y2="384"
   id="line28"
   style="fill:none;stroke:#a9ccdb;stroke-miterlimit:10" />
		<line
   stroke-miterlimit="10"
   x1="0"
   y1="416"
   x2="512"
   y2="416"
   id="line30"
   style="fill:none;stroke:#a9ccdb;stroke-miterlimit:10" />
		<line
   stroke-miterlimit="10"
   x1="0"
   y1="448"
   x2="512"
   y2="448"
   id="line32"
   style="fill:none;stroke:#ff0000;stroke-miterlimit:10" />
		<line
   stroke-miterlimit="10"
   x1="0"
   y1="480"
   x2="512"
   y2="480"
   id="line34"
   style="fill:none;stroke:#a9ccdb;stroke-miterlimit:10" />
		<line
   stroke-miterlimit="10"
   x1="32"
   y1="0"
   x2="32"
   y2="512"
   id="line36"
   style="fill:none;stroke:#a9ccdb;stroke-miterlimit:10" />
		<line
   stroke-miterlimit="10"
   x1="64"
   y1="0"
   x2="64"
   y2="512"
   id="line38"
   style="fill:none;stroke:#a9ccdb;stroke-miterlimit:10" />
		<line
   stroke-miterlimit="10"
   x1="96"
   y1="0"
   x2="96"
   y2="512"
   id="line40"
   style="fill:none;stroke:#a9ccdb;stroke-miterlimit:10" />
		<line
   stroke-miterlimit="10"
   x1="128"
   y1="0"
   x2="128"
   y2="512"
   id="line42"
   style="fill:none;stroke:#a9ccdb;stroke-miterlimit:10" />
		<line
   stroke-miterlimit="10"
   x1="160"
   y1="0"
   x2="160"
   y2="512"
   id="line44"
   style="fill:none;stroke:#a9ccdb;stroke-miterlimit:10" />
		<line
   stroke-miterlimit="10"
   x1="192"
   y1="0"
   x2="192"
   y2="512"
   id="line46"
   style="fill:none;stroke:#a9ccdb;stroke-miterlimit:10" />
		<line
   stroke-miterlimit="10"
   x1="224"
   y1="0"
   x2="224"
   y2="512"
   id="line48"
   style="fill:none;stroke:#a9ccdb;stroke-miterlimit:10" />
		<line
   stroke-miterlimit="10"
   x1="256"
   y1="0"
   x2="256"
   y2="512"
   id="line50"
   style="fill:none;stroke:#a9ccdb;stroke-miterlimit:10" />
		<line
   stroke-miterlimit="10"
   x1="288"
   y1="0"
   x2="288"
   y2="512"
   id="line52"
   style="fill:none;stroke:#a9ccdb;stroke-miterlimit:10" />
		<line
   stroke-miterlimit="10"
   x1="320"
   y1="0"
   x2="320"
   y2="512"
   id="line54"
   style="fill:none;stroke:#a9ccdb;stroke-miterlimit:10" />
		<line
   stroke-miterlimit="10"
   x1="352"
   y1="0"
   x2="352"
   y2="512"
   id="line56"
   style="fill:none;stroke:#a9ccdb;stroke-miterlimit:10" />
		<line
   stroke-miterlimit="10"
   x1="384"
   y1="0"
   x2="384"
   y2="512"
   id="line58"
   style="fill:none;stroke:#a9ccdb;stroke-miterlimit:10" />
		<line
   stroke-miterlimit="10"
   x1="416"
   y1="0"
   x2="416"
   y2="512"
   id="line60"
   style="fill:none;stroke:#a9ccdb;stroke-miterlimit:10" />
		<line
   stroke-miterlimit="10"
   x1="448"
   y1="0"
   x2="448"
   y2="512"
   id="line62"
   style="fill:none;stroke:#a9ccdb;stroke-miterlimit:10" />
		<line
   stroke-miterlimit="10"
   x1="480"
   y1="0"
   x2="480"
   y2="512"
   id="line64"
   style="fill:none;stroke:#a9ccdb;stroke-miterlimit:10" />
	</g>
	
<path
   style="fill:#584f47"
   d="m 90.340046,126.79664 c -20.633134,1.89135 -30.345798,16.65491 -40.0955,23.94983 -19.652077,24.68565 55.699064,61.89926 70.989474,72.11747 36.50373,13.14299 81.05004,41.10667 116.47673,48.58198 7.85387,1.80678 15.416,1.69479 22.8013,2.45821 12.14866,1.255 24.40819,3.76634 35.80221,3.0496 4.32169,-0.26802 8.48272,0.20187 13.74627,4.05334 8.40952,6.23553 16.46484,16.76172 19.6683,21.95294 8.25192,12.12703 7.87572,12.98671 7.62722,23.30823 -0.15551,6.46108 -1.17569,14.03237 -2.26695,16.82505 -10.47975,33.75379 -4.80617,71.7383 -20.43345,99.76998 -4.41861,7.76505 -6.71787,14.80953 -6.54254,20.04513 0.22551,6.7357 -1.30985,9.60064 -9.27155,17.30006 -5.24806,5.07511 -9.54187,10.01095 -9.54187,10.9685 0,0.95751 -3.44135,5.41718 -7.64743,9.91037 -8.13335,8.68855 -15.0875,20.21393 -15.0875,25.00517 0,1.59639 -3.53114,8.15044 -7.847,14.56453 -4.31584,6.41412 -8.46771,14.70746 -9.22636,18.4297 -0.75866,3.72225 -2.29703,8.72689 -3.41865,11.12141 -7.4224,15.84614 -15.86454,40.22993 -15.87337,45.84776 -0.0215,13.64013 -9.141,40.5316 -16.85588,49.70394 -13.18002,34.19939 -55.63047,63.69968 -63.1452,94.20049 8.7857,57.91026 62.93716,84.83887 105.18585,89.34232 15.61566,-1.54692 16.07268,-18.24081 21.16237,-27.59078 15.16481,-33.46678 64.73371,-64.07994 61.76881,-94.45026 -0.81885,-4.90321 -3.15474,-10.67745 -5.19082,-12.83168 -4.36092,-4.61389 -4.56483,-11.82924 -0.9956,-35.22975 2.94493,-19.30719 9.76673,-34.75485 18.44877,-41.77626 3.18449,-2.57543 7.83614,-9.78499 10.33699,-16.02132 2.50086,-6.2363 6.51891,-12.35228 8.92903,-13.59106 5.85447,-3.00906 32.64611,-0.72738 41.17047,3.50624 22.57118,3.23233 38.97942,26.30397 55.07751,36.15661 6.97322,4.82215 15.80251,4.07563 22.70972,7.43617 26.41638,16.49288 32.42392,51.1411 38.24078,78.56024 0.75998,3.59177 1.29373,8.8244 1.18615,11.62804 -14.04726,53.02543 1.51586,73.90743 19.79038,104.04388 8.05849,15.3353 16.88724,29.61749 32.5418,37.69588 18.71811,9.49478 41.45623,11.45735 52.59513,10.98329 25.24029,-8.13782 20.63387,-26.39817 21.63404,-41.93964 0.24605,-5.86214 -1.96154,-10.38669 -1.26446,-16.61839 2.76469,-24.71538 4.85086,-50.76318 7.58226,-67.95885 0.51624,-3.9057 2.50533,-10.26247 4.42017,-14.12616 1.91484,-3.86369 4.93629,-15.00366 6.71435,-24.7555 1.77804,-9.75183 4.21268,-18.89321 5.41037,-20.31417 2.60806,-3.09431 8.86266,-23.36948 10.63446,-34.47316 2.0214,-6.71732 6.42192,-15.09162 9.74915,-22.89527 3.38859,-6.45074 3.97389,-12.40431 3.57914,-18.53379 1.36967,-8.5658 -1.70352,-15.02317 -5.30307,-20.83362 -7.32269,-8.60366 -7.7236,-18.2747 -12.34419,-27.08563 -9.02918,-17.00369 -28.65669,-25.56655 -49.0784,-26.99794 -19.14369,-1.34179 -38.98528,3.5832 -51.4485,13.69642 -7.45178,8.45963 -32.4344,10.87802 -53.13026,6.43538 -8.89603,-2.1581 -17.06852,-5.71249 -25.63994,-6.93136 -30.76056,0.1484 -50.08588,-0.12784 -69.6167,-19.59534 -6.12808,-6.08614 -12.89722,-11.89718 -14.41594,-11.89718 -4.19514,0 -6.51532,-13.14058 -6.70141,-37.9541 -0.15298,-20.39918 0.62884,-27.72055 3.50195,-32.79307 14.91878,-39.86364 47.73227,-64.95083 44.21472,-109.97981 -1.01551,-11.34669 -2.93796,-25.759 -4.27201,-32.02739 -1.81043,-5.43737 -0.71275,-11.29206 -0.98271,-16.59176 -4.1485,-7.88529 0.4281,-18.52348 -0.49842,-22.12748 -4.40204,-15.25893 -10.75468,-27.40341 -21.55561,-36.80225 -14.57001,-12.43932 -51.66726,-30.56524 -66.90661,-32.69092 -6.08866,-0.84929 -13.3362,-2.93719 -16.10565,-4.63978 -2.76945,-1.7026 -6.99224,-3.09563 -9.38394,-3.09563 -2.39175,0 -5.70333,-1.56298 -7.35914,-3.47325 -74.96142,-7.61661 -139.64383,-72.21381 -201.64924,-82.55524 -32.84723,-2.8922 -40.617484,-3.16038 -42.599914,-1.47037 z"
   id="path3768"
   inkscape:connector-curvature="0"
   sodipodi:nodetypes="ccccccccsccssssssssscccccssssscccccccccscssscccccsccccssccccccssscccc" />

</svg>