<?xml version="1.0" encoding="UTF-8" standalone="no"?>
<svg
   xmlns:dc="http://purl.org/dc/elements/1.1/"
   xmlns:cc="http://creativecommons.org/ns#"
   xmlns:rdf="http://www.w3.org/1999/02/22-rdf-syntax-ns#"
   xmlns:svg="http://www.w3.org/2000/svg"
   xmlns="http://www.w3.org/2000/svg"
   xmlns:sodipodi="http://sodipodi.sourceforge.net/DTD/sodipodi-0.dtd"
   xmlns:inkscape="http://www.inkscape.org/namespaces/inkscape"
   version="1.1"
   id="Layer_1"
   x="0px"
   y="0px"
   width="1024"
   height="1024"
   viewBox="0 0 1024 1024"
   enable-background="new 0 0 512 512"
   xml:space="preserve"
   inkscape:version="0.48.0 r9654"
   sodipodi:docname="tsadihebrew-x5e6.svg"><title
   id="title3743">Sinai 357</title><metadata
   id="metadata72"><rdf:RDF><cc:Work
       rdf:about=""><dc:format>image/svg+xml</dc:format><dc:type
         rdf:resource="http://purl.org/dc/dcmitype/StillImage" /><dc:title>Sinai 357</dc:title><dc:date>2017</dc:date><dc:creator><cc:Agent><dc:title>Celeste Claire Horner</dc:title></cc:Agent></dc:creator><dc:publisher><cc:Agent><dc:title>beitdina.net</dc:title></cc:Agent></dc:publisher></cc:Work></rdf:RDF></metadata><defs
   id="defs70" /><sodipodi:namedview
   pagecolor="#ffffff"
   bordercolor="#666666"
   borderopacity="1"
   objecttolerance="10"
   gridtolerance="10"
   guidetolerance="10"
   inkscape:pageopacity="0"
   inkscape:pageshadow="2"
   inkscape:window-width="1152"
   inkscape:window-height="814"
   id="namedview68"
   showgrid="false"
   inkscape:zoom="0.36045873"
   inkscape:cx="1.1499365"
   inkscape:cy="242.04266"
   inkscape:window-x="-8"
   inkscape:window-y="-8"
   inkscape:window-maximized="1"
   inkscape:current-layer="Layer_1" />
   
	<g
   id="Grid"
   transform="matrix(2.0004581,0,0,2.0004578,0.50019527,4.813853)">
		<rect
   x="0"
   stroke-miterlimit="10"
   width="512"
   height="512"
   id="rect4"
   y="0"
   style="fill:none;stroke:#a9ccdb;stroke-miterlimit:10" />
		<line
   stroke-miterlimit="10"
   x1="0"
   y1="32"
   x2="512"
   y2="32"
   id="line6"
   style="fill:none;stroke:#a9ccdb;stroke-miterlimit:10" />
		<line
   stroke-miterlimit="10"
   x1="0"
   y1="64"
   x2="512"
   y2="64"
   id="line8"
   style="fill:none;stroke:#a9ccdb;stroke-miterlimit:10" />
		<line
   stroke-miterlimit="10"
   x1="0"
   y1="96"
   x2="512"
   y2="96"
   id="line10"
   style="fill:none;stroke:#a9ccdb;stroke-miterlimit:10" />
		<line
   stroke-miterlimit="10"
   x1="0"
   y1="128"
   x2="512"
   y2="128"
   id="line12"
   style="fill:none;stroke:#a9ccdb;stroke-miterlimit:10" />
		<line
   stroke-miterlimit="10"
   x1="0"
   y1="160"
   x2="512"
   y2="160"
   id="line14"
   style="fill:none;stroke:#a9ccdb;stroke-miterlimit:10" />
		<line
   stroke-miterlimit="10"
   x1="0"
   y1="192"
   x2="512"
   y2="192"
   id="line16"
   style="fill:none;stroke:#a9ccdb;stroke-miterlimit:10" />
		<line
   stroke-miterlimit="10"
   x1="0"
   y1="224"
   x2="512"
   y2="224"
   id="line18"
   style="fill:none;stroke:#a9ccdb;stroke-miterlimit:10" />
		<line
   stroke-miterlimit="10"
   x1="0"
   y1="256"
   x2="512"
   y2="256"
   id="line20"
   style="fill:none;stroke:#a9ccdb;stroke-miterlimit:10" />
		<line
   stroke-miterlimit="10"
   x1="0"
   y1="288"
   x2="512"
   y2="288"
   id="line22"
   style="fill:none;stroke:#a9ccdb;stroke-miterlimit:10" />
		<line
   stroke-miterlimit="10"
   x1="0"
   y1="320"
   x2="512"
   y2="320"
   id="line24"
   style="fill:none;stroke:#a9ccdb;stroke-miterlimit:10" />
		<line
   stroke-miterlimit="10"
   x1="0"
   y1="352"
   x2="512"
   y2="352"
   id="line26"
   style="fill:none;stroke:#a9ccdb;stroke-miterlimit:10" />
		<line
   stroke-miterlimit="10"
   x1="0"
   y1="384"
   x2="512"
   y2="384"
   id="line28"
   style="fill:none;stroke:#a9ccdb;stroke-miterlimit:10" />
		<line
   stroke-miterlimit="10"
   x1="0"
   y1="416"
   x2="512"
   y2="416"
   id="line30"
   style="fill:none;stroke:#a9ccdb;stroke-miterlimit:10" />
		<line
   stroke-miterlimit="10"
   x1="0"
   y1="448"
   x2="512"
   y2="448"
   id="line32"
   style="fill:none;stroke:#ff0000;stroke-miterlimit:10" />
		<line
   stroke-miterlimit="10"
   x1="0"
   y1="480"
   x2="512"
   y2="480"
   id="line34"
   style="fill:none;stroke:#a9ccdb;stroke-miterlimit:10" />
		<line
   stroke-miterlimit="10"
   x1="32"
   y1="0"
   x2="32"
   y2="512"
   id="line36"
   style="fill:none;stroke:#a9ccdb;stroke-miterlimit:10" />
		<line
   stroke-miterlimit="10"
   x1="64"
   y1="0"
   x2="64"
   y2="512"
   id="line38"
   style="fill:none;stroke:#a9ccdb;stroke-miterlimit:10" />
		<line
   stroke-miterlimit="10"
   x1="96"
   y1="0"
   x2="96"
   y2="512"
   id="line40"
   style="fill:none;stroke:#a9ccdb;stroke-miterlimit:10" />
		<line
   stroke-miterlimit="10"
   x1="128"
   y1="0"
   x2="128"
   y2="512"
   id="line42"
   style="fill:none;stroke:#a9ccdb;stroke-miterlimit:10" />
		<line
   stroke-miterlimit="10"
   x1="160"
   y1="0"
   x2="160"
   y2="512"
   id="line44"
   style="fill:none;stroke:#a9ccdb;stroke-miterlimit:10" />
		<line
   stroke-miterlimit="10"
   x1="192"
   y1="0"
   x2="192"
   y2="512"
   id="line46"
   style="fill:none;stroke:#a9ccdb;stroke-miterlimit:10" />
		<line
   stroke-miterlimit="10"
   x1="224"
   y1="0"
   x2="224"
   y2="512"
   id="line48"
   style="fill:none;stroke:#a9ccdb;stroke-miterlimit:10" />
		<line
   stroke-miterlimit="10"
   x1="256"
   y1="0"
   x2="256"
   y2="512"
   id="line50"
   style="fill:none;stroke:#a9ccdb;stroke-miterlimit:10" />
		<line
   stroke-miterlimit="10"
   x1="288"
   y1="0"
   x2="288"
   y2="512"
   id="line52"
   style="fill:none;stroke:#a9ccdb;stroke-miterlimit:10" />
		<line
   stroke-miterlimit="10"
   x1="320"
   y1="0"
   x2="320"
   y2="512"
   id="line54"
   style="fill:none;stroke:#a9ccdb;stroke-miterlimit:10" />
		<line
   stroke-miterlimit="10"
   x1="352"
   y1="0"
   x2="352"
   y2="512"
   id="line56"
   style="fill:none;stroke:#a9ccdb;stroke-miterlimit:10" />
		<line
   stroke-miterlimit="10"
   x1="384"
   y1="0"
   x2="384"
   y2="512"
   id="line58"
   style="fill:none;stroke:#a9ccdb;stroke-miterlimit:10" />
		<line
   stroke-miterlimit="10"
   x1="416"
   y1="0"
   x2="416"
   y2="512"
   id="line60"
   style="fill:none;stroke:#a9ccdb;stroke-miterlimit:10" />
		<line
   stroke-miterlimit="10"
   x1="448"
   y1="0"
   x2="448"
   y2="512"
   id="line62"
   style="fill:none;stroke:#a9ccdb;stroke-miterlimit:10" />
		<line
   stroke-miterlimit="10"
   x1="480"
   y1="0"
   x2="480"
   y2="512"
   id="line64"
   style="fill:none;stroke:#a9ccdb;stroke-miterlimit:10" />
	</g>
	
<path
   style="fill:#584f47"
   d="m 147.21203,226.44408 c -14.69007,1.4836 -21.60515,13.06448 -28.5466,18.7868 -13.99159,19.36399 39.65579,48.55519 50.54203,56.57061 25.98938,10.30965 57.7048,32.24502 82.92736,38.10882 5.59168,1.41729 10.97566,1.32944 16.23373,1.92829 8.64941,0.98445 17.37778,2.9544 25.48992,2.39217 3.0769,-0.21024 6.0394,0.15835 9.78687,3.17954 5.98728,4.89128 11.72241,13.14827 14.00314,17.22039 5.87508,9.51273 5.60724,10.18708 5.43031,18.28353 -0.11072,5.06822 -0.83705,11.00731 -1.61398,13.19795 -7.46122,26.47725 -3.42183,56.27319 -14.5479,78.26189 -3.1459,6.09109 -4.7829,11.61694 -4.65807,15.72386 0.16057,5.28364 -0.93257,7.53097 -6.60102,13.57058 -3.73642,3.98104 -6.79348,7.85282 -6.79348,8.60394 0,0.7511 -2.45011,4.24936 -5.44469,7.77392 -5.79067,6.81551 -10.74177,15.85629 -10.74177,19.61465 0,1.25225 -2.51406,6.39339 -5.58679,11.42475 -3.07273,5.03137 -6.02872,11.53686 -6.56885,14.45669 -0.54014,2.91981 -1.63542,6.84556 -2.43396,8.72387 -5.2845,12.43009 -11.29501,31.55731 -11.30129,35.96406 -0.0152,10.69964 -6.50807,31.79394 -12.00079,38.98893 -9.38372,26.82679 -39.60696,49.96751 -44.95718,73.89306 6.25511,45.42614 44.80906,66.54956 74.88865,70.08219 11.11781,-1.21345 11.44318,-14.30853 15.06686,-21.64285 10.79683,-26.25213 46.08815,-50.2658 43.97725,-74.08898 -0.58301,-3.8462 -2.24607,-8.37564 -3.6957,-10.06546 -3.10482,-3.61925 -3.24999,-9.27915 -0.70882,-27.63505 2.09667,-15.145 6.95356,-27.2625 13.13487,-32.77027 2.26725,-2.02022 5.57906,-7.67557 7.35958,-12.56749 1.78051,-4.89191 4.64124,-9.68942 6.35716,-10.66114 4.16817,-2.36038 23.24288,-0.57058 29.31194,2.75037 16.06988,2.53551 27.75198,20.63344 39.21326,28.36208 4.96468,3.7826 11.25084,3.19703 16.16853,5.83311 18.80753,12.93739 23.08469,40.11627 27.22609,61.62448 0.54108,2.81747 0.92109,6.92206 0.8445,9.12131 -10.00116,41.59437 1.07924,57.97469 14.09006,81.61443 5.73736,12.02936 12.02313,23.23265 23.16863,29.56953 13.32664,7.44792 29.51537,8.9874 37.44589,8.61554 17.97021,-6.38349 14.69059,-20.70733 15.40267,-32.89843 0.17518,-4.59839 -1.39654,-8.14755 -0.90024,-13.03585 1.96836,-19.38732 3.45364,-39.81982 5.39831,-53.30849 0.36754,-3.06373 1.7837,-8.05013 3.147,-11.0809 1.3633,-3.03076 3.51447,-11.76922 4.78038,-19.41878 1.2659,-7.64957 2.99929,-14.82028 3.85199,-15.93491 1.85686,-2.42725 6.30991,-18.33158 7.57137,-27.04156 1.43917,-5.26922 4.57218,-11.83822 6.94106,-17.95957 2.41255,-5.06011 2.82926,-9.73024 2.54822,-14.53833 0.97515,-6.71922 -1.21285,-11.78453 -3.7756,-16.34238 -5.21351,-6.74891 -5.49895,-14.3351 -8.78863,-21.2466 -6.42846,-13.33809 -20.40257,-20.055 -34.94212,-21.17781 -13.62963,-1.05254 -27.75615,2.81075 -36.62953,10.74379 -5.30541,6.63592 -23.09216,8.53298 -37.82688,5.04805 -6.33366,-1.69286 -12.1522,-4.481 -18.25476,-5.43711 -21.90043,0.1164 -35.65938,-0.10028 -49.56465,-15.37103 -4.36297,-4.77413 -9.18237,-9.33244 -10.26364,-9.33244 -2.98679,0 -4.63868,-10.30778 -4.77117,-29.77207 -0.10893,-16.0016 0.44772,-21.74465 2.49327,-25.72365 10.62165,-31.26996 33.98371,-50.94894 31.47933,-86.27071 -0.72301,-8.90061 -2.09171,-20.20596 -3.04153,-25.12303 -1.28895,-4.26521 -0.50744,-8.85777 -0.69965,-13.01496 -2.95358,-6.18541 0.30481,-14.53025 -0.35485,-17.35732 -3.13411,-11.96946 -7.65696,-21.49588 -15.34683,-28.86853 -10.37335,-9.75771 -36.78531,-23.97609 -47.63518,-25.64352 -4.33491,-0.66621 -9.49491,-2.304 -11.46666,-3.63957 -1.97176,-1.33555 -4.97823,-2.42827 -6.68105,-2.42827 -1.70283,0 -4.06057,-1.22603 -5.23944,-2.7245 -53.36991,-5.97464 -99.42153,-56.64618 -143.56722,-64.75825 -23.38608,-2.2687 -28.91822,-2.47907 -30.32966,-1.15337 z"
   id="path3768"
   inkscape:connector-curvature="0"
   sodipodi:nodetypes="ccccccccsccssssssssscccccssssscccccccccscssscccccsccccssccccccssscccc" />

</svg>