<?xml version="1.0" encoding="UTF-8" standalone="no"?>
<svg
   xmlns:dc="http://purl.org/dc/elements/1.1/"
   xmlns:cc="http://creativecommons.org/ns#"
   xmlns:rdf="http://www.w3.org/1999/02/22-rdf-syntax-ns#"
   xmlns:svg="http://www.w3.org/2000/svg"
   xmlns="http://www.w3.org/2000/svg"
   xmlns:sodipodi="http://sodipodi.sourceforge.net/DTD/sodipodi-0.dtd"
   xmlns:inkscape="http://www.inkscape.org/namespaces/inkscape"
   version="1.1"
   id="Layer_1"
   x="0px"
   y="0px"
   width="1024"
   height="1024"
   viewBox="0 0 1024 1024"
   enable-background="new 0 0 512 512"
   xml:space="preserve"
   inkscape:version="0.48.0 r9654"
   sodipodi:docname="tsadihebrew-x5e6.svg"><title
   id="title3743">Sinai 357</title><metadata
   id="metadata72"><rdf:RDF><cc:Work
       rdf:about=""><dc:format>image/svg+xml</dc:format><dc:type
         rdf:resource="http://purl.org/dc/dcmitype/StillImage" /><dc:title>Sinai 357</dc:title><dc:date>2017</dc:date><dc:creator><cc:Agent><dc:title>Celeste Claire Horner</dc:title></cc:Agent></dc:creator><dc:publisher><cc:Agent><dc:title>beitdina.net</dc:title></cc:Agent></dc:publisher></cc:Work></rdf:RDF></metadata><defs
   id="defs70" /><sodipodi:namedview
   pagecolor="#ffffff"
   bordercolor="#666666"
   borderopacity="1"
   objecttolerance="10"
   gridtolerance="10"
   guidetolerance="10"
   inkscape:pageopacity="0"
   inkscape:pageshadow="2"
   inkscape:window-width="1152"
   inkscape:window-height="814"
   id="namedview68"
   showgrid="false"
   inkscape:zoom="0.36045873"
   inkscape:cx="1.1499365"
   inkscape:cy="242.04266"
   inkscape:window-x="-8"
   inkscape:window-y="-8"
   inkscape:window-maximized="1"
   inkscape:current-layer="Layer_1" />
   
	<g
   id="Grid"
   transform="matrix(2.0004581,0,0,2.0004578,0.50019527,4.813853)">
		<rect
   x="0"
   stroke-miterlimit="10"
   width="512"
   height="512"
   id="rect4"
   y="0"
   style="fill:none;stroke:#a9ccdb;stroke-miterlimit:10" />
		<line
   stroke-miterlimit="10"
   x1="0"
   y1="32"
   x2="512"
   y2="32"
   id="line6"
   style="fill:none;stroke:#a9ccdb;stroke-miterlimit:10" />
		<line
   stroke-miterlimit="10"
   x1="0"
   y1="64"
   x2="512"
   y2="64"
   id="line8"
   style="fill:none;stroke:#a9ccdb;stroke-miterlimit:10" />
		<line
   stroke-miterlimit="10"
   x1="0"
   y1="96"
   x2="512"
   y2="96"
   id="line10"
   style="fill:none;stroke:#a9ccdb;stroke-miterlimit:10" />
		<line
   stroke-miterlimit="10"
   x1="0"
   y1="128"
   x2="512"
   y2="128"
   id="line12"
   style="fill:none;stroke:#a9ccdb;stroke-miterlimit:10" />
		<line
   stroke-miterlimit="10"
   x1="0"
   y1="160"
   x2="512"
   y2="160"
   id="line14"
   style="fill:none;stroke:#a9ccdb;stroke-miterlimit:10" />
		<line
   stroke-miterlimit="10"
   x1="0"
   y1="192"
   x2="512"
   y2="192"
   id="line16"
   style="fill:none;stroke:#a9ccdb;stroke-miterlimit:10" />
		<line
   stroke-miterlimit="10"
   x1="0"
   y1="224"
   x2="512"
   y2="224"
   id="line18"
   style="fill:none;stroke:#a9ccdb;stroke-miterlimit:10" />
		<line
   stroke-miterlimit="10"
   x1="0"
   y1="256"
   x2="512"
   y2="256"
   id="line20"
   style="fill:none;stroke:#a9ccdb;stroke-miterlimit:10" />
		<line
   stroke-miterlimit="10"
   x1="0"
   y1="288"
   x2="512"
   y2="288"
   id="line22"
   style="fill:none;stroke:#a9ccdb;stroke-miterlimit:10" />
		<line
   stroke-miterlimit="10"
   x1="0"
   y1="320"
   x2="512"
   y2="320"
   id="line24"
   style="fill:none;stroke:#a9ccdb;stroke-miterlimit:10" />
		<line
   stroke-miterlimit="10"
   x1="0"
   y1="352"
   x2="512"
   y2="352"
   id="line26"
   style="fill:none;stroke:#a9ccdb;stroke-miterlimit:10" />
		<line
   stroke-miterlimit="10"
   x1="0"
   y1="384"
   x2="512"
   y2="384"
   id="line28"
   style="fill:none;stroke:#a9ccdb;stroke-miterlimit:10" />
		<line
   stroke-miterlimit="10"
   x1="0"
   y1="416"
   x2="512"
   y2="416"
   id="line30"
   style="fill:none;stroke:#a9ccdb;stroke-miterlimit:10" />
		<line
   stroke-miterlimit="10"
   x1="0"
   y1="448"
   x2="512"
   y2="448"
   id="line32"
   style="fill:none;stroke:#ff0000;stroke-miterlimit:10" />
		<line
   stroke-miterlimit="10"
   x1="0"
   y1="480"
   x2="512"
   y2="480"
   id="line34"
   style="fill:none;stroke:#a9ccdb;stroke-miterlimit:10" />
		<line
   stroke-miterlimit="10"
   x1="32"
   y1="0"
   x2="32"
   y2="512"
   id="line36"
   style="fill:none;stroke:#a9ccdb;stroke-miterlimit:10" />
		<line
   stroke-miterlimit="10"
   x1="64"
   y1="0"
   x2="64"
   y2="512"
   id="line38"
   style="fill:none;stroke:#a9ccdb;stroke-miterlimit:10" />
		<line
   stroke-miterlimit="10"
   x1="96"
   y1="0"
   x2="96"
   y2="512"
   id="line40"
   style="fill:none;stroke:#a9ccdb;stroke-miterlimit:10" />
		<line
   stroke-miterlimit="10"
   x1="128"
   y1="0"
   x2="128"
   y2="512"
   id="line42"
   style="fill:none;stroke:#a9ccdb;stroke-miterlimit:10" />
		<line
   stroke-miterlimit="10"
   x1="160"
   y1="0"
   x2="160"
   y2="512"
   id="line44"
   style="fill:none;stroke:#a9ccdb;stroke-miterlimit:10" />
		<line
   stroke-miterlimit="10"
   x1="192"
   y1="0"
   x2="192"
   y2="512"
   id="line46"
   style="fill:none;stroke:#a9ccdb;stroke-miterlimit:10" />
		<line
   stroke-miterlimit="10"
   x1="224"
   y1="0"
   x2="224"
   y2="512"
   id="line48"
   style="fill:none;stroke:#a9ccdb;stroke-miterlimit:10" />
		<line
   stroke-miterlimit="10"
   x1="256"
   y1="0"
   x2="256"
   y2="512"
   id="line50"
   style="fill:none;stroke:#a9ccdb;stroke-miterlimit:10" />
		<line
   stroke-miterlimit="10"
   x1="288"
   y1="0"
   x2="288"
   y2="512"
   id="line52"
   style="fill:none;stroke:#a9ccdb;stroke-miterlimit:10" />
		<line
   stroke-miterlimit="10"
   x1="320"
   y1="0"
   x2="320"
   y2="512"
   id="line54"
   style="fill:none;stroke:#a9ccdb;stroke-miterlimit:10" />
		<line
   stroke-miterlimit="10"
   x1="352"
   y1="0"
   x2="352"
   y2="512"
   id="line56"
   style="fill:none;stroke:#a9ccdb;stroke-miterlimit:10" />
		<line
   stroke-miterlimit="10"
   x1="384"
   y1="0"
   x2="384"
   y2="512"
   id="line58"
   style="fill:none;stroke:#a9ccdb;stroke-miterlimit:10" />
		<line
   stroke-miterlimit="10"
   x1="416"
   y1="0"
   x2="416"
   y2="512"
   id="line60"
   style="fill:none;stroke:#a9ccdb;stroke-miterlimit:10" />
		<line
   stroke-miterlimit="10"
   x1="448"
   y1="0"
   x2="448"
   y2="512"
   id="line62"
   style="fill:none;stroke:#a9ccdb;stroke-miterlimit:10" />
		<line
   stroke-miterlimit="10"
   x1="480"
   y1="0"
   x2="480"
   y2="512"
   id="line64"
   style="fill:none;stroke:#a9ccdb;stroke-miterlimit:10" />
	</g>
	
<path
   style="fill:#584f47"
   d="m 150.14946,162.7229 c -16.08844,1.6399 -23.66177,14.44081 -31.26399,20.76596 -15.32347,21.40396 43.43068,53.67041 55.3532,62.53024 28.46334,11.39576 63.1978,35.64198 90.82133,42.12352 6.12396,1.5666 12.02044,1.4695 17.77904,2.13144 9.47276,1.08816 19.03199,3.26564 27.91634,2.64418 3.36979,-0.23239 6.6143,0.17503 10.71849,3.5145 6.55722,5.40657 12.83828,14.53342 15.33612,19.03453 6.43434,10.51488 6.141,11.26027 5.94723,20.20967 -0.12126,5.60215 -0.91673,12.16691 -1.76762,14.58833 -8.17146,29.26659 -3.74756,62.20149 -15.93273,86.50666 -3.44536,6.73278 -5.23819,12.84077 -5.10148,17.38035 0.17585,5.84026 -1.02134,8.32434 -7.22938,15.00022 -4.0921,4.40043 -7.44016,8.6801 -7.44016,9.51035 0,0.83022 -2.68334,4.69702 -5.96298,8.59289 -6.34189,7.53351 -11.76429,17.52672 -11.76429,21.68102 0,1.38417 -2.75338,7.06692 -6.11861,12.62833 -3.36522,5.56142 -6.6026,12.75225 -7.19414,15.97968 -0.59156,3.22741 -1.7911,7.56673 -2.66566,9.64292 -5.78753,13.73958 -12.37019,34.88182 -12.37707,39.75281 -0.0167,11.82683 -7.12758,35.14338 -13.14316,43.09636 -10.27697,29.65295 -43.3772,55.2315 -49.23672,81.67757 6.85054,50.21172 49.0745,73.56046 82.0174,77.46524 12.17613,-1.34128 12.53248,-15.81591 16.5011,-23.92289 11.82459,-29.01775 50.47534,-55.56122 48.1635,-81.89414 -0.6385,-4.25139 -2.45987,-9.258 -4.04749,-11.12584 -3.40038,-4.00053 -3.55937,-10.25669 -0.7763,-30.54636 2.29626,-16.7405 7.61548,-30.13456 14.3852,-36.22256 2.48307,-2.23305 6.11014,-8.48418 8.06015,-13.89146 1.95,-5.40726 5.08304,-10.71018 6.9623,-11.78427 4.56495,-2.60904 25.4554,-0.63069 32.10219,3.04012 17.59959,2.80262 30.39373,22.80714 42.94602,31.34998 5.43728,4.18109 12.32182,3.53383 17.70764,6.44762 20.59784,14.30032 25.28215,44.34245 29.81777,68.11652 0.59259,3.11428 1.00877,7.65129 0.92489,10.08222 -10.95318,45.97628 1.18198,64.08224 15.43131,90.21239 6.28351,13.29663 13.16763,25.68017 25.37409,32.68463 14.59522,8.23255 32.32498,9.93421 41.01041,9.52317 19.68082,-7.05598 16.08901,-22.88881 16.86888,-36.36422 0.19185,-5.08283 -1.52948,-9.00589 -0.98594,-14.40916 2.15573,-21.42974 3.7824,-44.01478 5.91218,-58.92446 0.40253,-3.38649 1.9535,-8.8982 3.44657,-12.24825 1.49307,-3.35005 3.84902,-13.00909 5.23543,-21.46452 1.3864,-8.45544 3.2848,-16.38157 4.21867,-17.61363 2.03361,-2.68296 6.91056,-20.26278 8.2921,-29.89034 1.57616,-5.82433 5.00741,-13.08536 7.60178,-19.85159 2.64221,-5.59318 3.09859,-10.7553 2.79079,-16.06992 1.06798,-7.42708 -1.3283,-13.02601 -4.135,-18.06402 -5.70979,-7.4599 -6.0224,-15.84528 -9.62523,-23.4849 -7.0404,-14.74323 -22.34472,-22.16776 -38.26831,-23.40886 -14.92705,-1.16342 -30.3983,3.10686 -40.11635,11.87563 -5.81044,7.33501 -25.29033,9.43192 -41.42767,5.57986 -6.93657,-1.8712 -13.30898,-4.95307 -19.99245,-6.0099 -23.98517,0.12866 -39.05385,-0.11085 -54.28278,-16.99035 -4.77829,-5.27707 -10.05645,-10.31559 -11.24065,-10.31559 -3.27111,0 -5.08024,-11.39369 -5.22534,-32.90852 -0.1193,-17.68734 0.49033,-24.03541 2.7306,-28.43359 11.63274,-34.5642 37.21867,-56.31633 34.47589,-95.3592 -0.79183,-9.83827 -2.29082,-22.33462 -3.33105,-27.7697 -1.41165,-4.71454 -0.55575,-9.79092 -0.76625,-14.38606 -3.23474,-6.83704 0.33382,-16.06099 -0.38863,-19.18589 -3.43245,-13.23042 -8.38584,-23.76044 -16.80772,-31.90979 -11.3608,-10.78566 -40.28695,-26.50193 -52.16964,-28.34502 -4.74755,-0.73639 -10.39874,-2.54672 -12.55818,-4.02299 -2.15946,-1.47625 -5.45212,-2.68409 -7.31703,-2.68409 -1.86493,0 -4.4471,-1.35519 -5.73819,-3.01152 -58.45027,-6.60406 -108.8856,-62.61377 -157.23358,-71.58043 -25.61223,-2.5077 -31.67099,-2.74024 -33.21678,-1.27488 z"
   id="path3768"
   inkscape:connector-curvature="0"
   sodipodi:nodetypes="ccccccccsccssssssssscccccssssscccccccccscssscccccsccccssccccccssscccc" />

</svg>