<?xml version="1.0" encoding="UTF-8" standalone="no"?>
<svg
   xmlns:dc="http://purl.org/dc/elements/1.1/"
   xmlns:cc="http://creativecommons.org/ns#"
   xmlns:rdf="http://www.w3.org/1999/02/22-rdf-syntax-ns#"
   xmlns:svg="http://www.w3.org/2000/svg"
   xmlns="http://www.w3.org/2000/svg"
   xmlns:sodipodi="http://sodipodi.sourceforge.net/DTD/sodipodi-0.dtd"
   xmlns:inkscape="http://www.inkscape.org/namespaces/inkscape"
   version="1.1"
   id="Layer_1"
   x="0px"
   y="0px"
   width="700"
   height="1024"
   viewBox="0 0 700 1024"
   enable-background="new 0 0 512 512"
   xml:space="preserve"
   inkscape:version="0.48.0 r9654"
   sodipodi:docname="tzadihebrew-x5e6.svg"><title
   id="title3743">Sinai 357</title><metadata
   id="metadata72"><rdf:RDF><cc:Work
       rdf:about=""><dc:format>image/svg+xml</dc:format><dc:type
         rdf:resource="http://purl.org/dc/dcmitype/StillImage" /><dc:title>Sinai 357</dc:title><dc:date>2017</dc:date><dc:creator><cc:Agent><dc:title>Celeste Claire Horner</dc:title></cc:Agent></dc:creator><dc:publisher><cc:Agent><dc:title>beitdina.net</dc:title></cc:Agent></dc:publisher></cc:Work></rdf:RDF></metadata><defs
   id="defs70" /><sodipodi:namedview
   pagecolor="#ffffff"
   bordercolor="#666666"
   borderopacity="1"
   objecttolerance="10"
   gridtolerance="10"
   guidetolerance="10"
   inkscape:pageopacity="0"
   inkscape:pageshadow="2"
   inkscape:window-width="1031"
   inkscape:window-height="646"
   id="namedview68"
   showgrid="false"
   inkscape:zoom="0.17772102"
   inkscape:cx="-598.49049"
   inkscape:cy="835.9598"
   inkscape:window-x="25"
   inkscape:window-y="38"
   inkscape:window-maximized="0"
   inkscape:current-layer="Layer_1" />
   
	<g
   id="Grid"
   transform="matrix(2.0004581,0,0,2.0004578,0.50019527,4.813853)">
		<rect
   x="0"
   stroke-miterlimit="10"
   width="512"
   height="512"
   id="rect4"
   y="0"
   style="fill:none;stroke:#a9ccdb;stroke-miterlimit:10" />
		<line
   stroke-miterlimit="10"
   x1="0"
   y1="32"
   x2="512"
   y2="32"
   id="line6"
   style="fill:none;stroke:#a9ccdb;stroke-miterlimit:10" />
		<line
   stroke-miterlimit="10"
   x1="0"
   y1="64"
   x2="512"
   y2="64"
   id="line8"
   style="fill:none;stroke:#a9ccdb;stroke-miterlimit:10" />
		<line
   stroke-miterlimit="10"
   x1="0"
   y1="96"
   x2="512"
   y2="96"
   id="line10"
   style="fill:none;stroke:#a9ccdb;stroke-miterlimit:10" />
		<line
   stroke-miterlimit="10"
   x1="0"
   y1="128"
   x2="512"
   y2="128"
   id="line12"
   style="fill:none;stroke:#a9ccdb;stroke-miterlimit:10" />
		<line
   stroke-miterlimit="10"
   x1="0"
   y1="160"
   x2="512"
   y2="160"
   id="line14"
   style="fill:none;stroke:#a9ccdb;stroke-miterlimit:10" />
		<line
   stroke-miterlimit="10"
   x1="0"
   y1="192"
   x2="512"
   y2="192"
   id="line16"
   style="fill:none;stroke:#a9ccdb;stroke-miterlimit:10" />
		<line
   stroke-miterlimit="10"
   x1="0"
   y1="224"
   x2="512"
   y2="224"
   id="line18"
   style="fill:none;stroke:#a9ccdb;stroke-miterlimit:10" />
		<line
   stroke-miterlimit="10"
   x1="0"
   y1="256"
   x2="512"
   y2="256"
   id="line20"
   style="fill:none;stroke:#a9ccdb;stroke-miterlimit:10" />
		<line
   stroke-miterlimit="10"
   x1="0"
   y1="288"
   x2="512"
   y2="288"
   id="line22"
   style="fill:none;stroke:#a9ccdb;stroke-miterlimit:10" />
		<line
   stroke-miterlimit="10"
   x1="0"
   y1="320"
   x2="512"
   y2="320"
   id="line24"
   style="fill:none;stroke:#a9ccdb;stroke-miterlimit:10" />
		<line
   stroke-miterlimit="10"
   x1="0"
   y1="352"
   x2="512"
   y2="352"
   id="line26"
   style="fill:none;stroke:#a9ccdb;stroke-miterlimit:10" />
		<line
   stroke-miterlimit="10"
   x1="0"
   y1="384"
   x2="512"
   y2="384"
   id="line28"
   style="fill:none;stroke:#a9ccdb;stroke-miterlimit:10" />
		<line
   stroke-miterlimit="10"
   x1="0"
   y1="416"
   x2="512"
   y2="416"
   id="line30"
   style="fill:none;stroke:#a9ccdb;stroke-miterlimit:10" />
		<line
   stroke-miterlimit="10"
   x1="0"
   y1="448"
   x2="512"
   y2="448"
   id="line32"
   style="fill:none;stroke:#ff0000;stroke-miterlimit:10" />
		<line
   stroke-miterlimit="10"
   x1="0"
   y1="480"
   x2="512"
   y2="480"
   id="line34"
   style="fill:none;stroke:#a9ccdb;stroke-miterlimit:10" />
		<line
   stroke-miterlimit="10"
   x1="32"
   y1="0"
   x2="32"
   y2="512"
   id="line36"
   style="fill:none;stroke:#a9ccdb;stroke-miterlimit:10" />
		<line
   stroke-miterlimit="10"
   x1="64"
   y1="0"
   x2="64"
   y2="512"
   id="line38"
   style="fill:none;stroke:#a9ccdb;stroke-miterlimit:10" />
		<line
   stroke-miterlimit="10"
   x1="96"
   y1="0"
   x2="96"
   y2="512"
   id="line40"
   style="fill:none;stroke:#a9ccdb;stroke-miterlimit:10" />
		<line
   stroke-miterlimit="10"
   x1="128"
   y1="0"
   x2="128"
   y2="512"
   id="line42"
   style="fill:none;stroke:#a9ccdb;stroke-miterlimit:10" />
		<line
   stroke-miterlimit="10"
   x1="160"
   y1="0"
   x2="160"
   y2="512"
   id="line44"
   style="fill:none;stroke:#a9ccdb;stroke-miterlimit:10" />
		<line
   stroke-miterlimit="10"
   x1="192"
   y1="0"
   x2="192"
   y2="512"
   id="line46"
   style="fill:none;stroke:#a9ccdb;stroke-miterlimit:10" />
		<line
   stroke-miterlimit="10"
   x1="224"
   y1="0"
   x2="224"
   y2="512"
   id="line48"
   style="fill:none;stroke:#a9ccdb;stroke-miterlimit:10" />
		<line
   stroke-miterlimit="10"
   x1="256"
   y1="0"
   x2="256"
   y2="512"
   id="line50"
   style="fill:none;stroke:#a9ccdb;stroke-miterlimit:10" />
		<line
   stroke-miterlimit="10"
   x1="288"
   y1="0"
   x2="288"
   y2="512"
   id="line52"
   style="fill:none;stroke:#a9ccdb;stroke-miterlimit:10" />
		<line
   stroke-miterlimit="10"
   x1="320"
   y1="0"
   x2="320"
   y2="512"
   id="line54"
   style="fill:none;stroke:#a9ccdb;stroke-miterlimit:10" />
		<line
   stroke-miterlimit="10"
   x1="352"
   y1="0"
   x2="352"
   y2="512"
   id="line56"
   style="fill:none;stroke:#a9ccdb;stroke-miterlimit:10" />
		<line
   stroke-miterlimit="10"
   x1="384"
   y1="0"
   x2="384"
   y2="512"
   id="line58"
   style="fill:none;stroke:#a9ccdb;stroke-miterlimit:10" />
		<line
   stroke-miterlimit="10"
   x1="416"
   y1="0"
   x2="416"
   y2="512"
   id="line60"
   style="fill:none;stroke:#a9ccdb;stroke-miterlimit:10" />
		<line
   stroke-miterlimit="10"
   x1="448"
   y1="0"
   x2="448"
   y2="512"
   id="line62"
   style="fill:none;stroke:#a9ccdb;stroke-miterlimit:10" />
		<line
   stroke-miterlimit="10"
   x1="480"
   y1="0"
   x2="480"
   y2="512"
   id="line64"
   style="fill:none;stroke:#a9ccdb;stroke-miterlimit:10" />
	</g>

<path
   style="fill:#58a947;fill-opacity:1"
   d="m 155.22862,211.63752 c -15.14435,1.66824 -15.02227,5.99067 -22.17839,12.42516 -14.42427,21.77393 -4.07409,37.19865 7.1488,46.21162 12.70888,4.46201 18.43378,12.33051 27.42598,21.44941 6.48849,6.57991 15.48481,14.95308 25.66497,23.60062 4.55479,3.86908 9.34657,7.79307 14.25673,11.63595 17.08658,13.37258 35.60684,25.7629 50.56372,31.43841 7.95474,1.59168 11.84331,10.17596 18.66184,13.25899 3.55929,1.54945 7.88814,0.87033 8.0908,1.98185 5.14982,7.55299 9.79745,17.61543 12.65009,26.21704 2.91974,8.90973 1.90364,19.18151 -0.7954,29.25018 -11.01668,20.82107 -5.97843,23.87024 -17.45677,37.31334 -3.85197,4.4765 -7.00357,8.83014 -7.00357,9.67474 0,0.84458 -2.52588,4.77821 -5.61306,8.74142 -8.85562,10.63943 -15.08592,15.42799 -20.93529,25.95456 -15.55894,14.91437 -18.14153,37.98973 -27.31624,55.46915 -14.15054,20.76234 -21.20471,42.46289 -26.55919,64.56727 -5.71302,29.97871 -14.47351,58.17297 -20.16982,86.19382 -3.2942,16.47751 -4.65102,32.34615 -0.57936,46.98278 7.68978,28.5486 31.47567,44.28522 42.37481,51.03313 4.29846,1.73679 8.41496,2.78881 12.3486,3.23829 7.67185,0.87663 13.91994,-0.46648 18.99175,-3.44461 24.00098,-14.09319 21.66027,-64.80129 19.20333,-90.16261 -3.71057,-8.97006 -4.63042,-16.28785 -2.92613,-22.94531 1.74589,-6.81991 1.82331,-12.94686 2.73599,-19.4472 0.88675,-6.98634 2.25239,-13.39974 3.99474,-18.96212 0.0294,-8.4928 3.32721,-17.26601 6.19173,-25.43329 6.38438,-13.97721 3.11807,-26.06786 6.89977,-42.33391 7.29286,-8.96113 13.29589,-15.29283 19.85854,-22.1029 3.34962,-3.47592 6.84505,-7.07647 10.73218,-11.2149 4.02484,-4.39481 4.55389,-9.06146 5.6004,-12.26398 0.74559,-2.69291 1.40973,-5.35909 2.03904,-7.85839 2.57475,-10.3416 10.46154,-29.39913 15.98092,-24.10647 1.7639,1.37631 3.38968,2.85093 5.00908,4.25995 2.12281,1.84703 7.13508,1.20867 9.53276,2.46101 2.96708,1.52622 3.2737,0.40466 6.58959,0.27314 2.66723,-0.10581 5.4049,-2.17618 8.14484,-2.8008 9.35277,-2.13215 12.93102,18.66852 19.62388,23.1856 6.05078,5.07752 10.23374,11.05165 14.446,16.79252 4.05139,5.52162 6.67966,11.61832 12.47314,15.70305 3.0454,2.20471 5.44263,5.31451 5.75808,13.37918 0.20602,5.63803 0.68481,19.12481 0.52005,24.91117 -0.20004,7.02473 0.28003,13.83284 -0.18697,22.79696 0.95787,13.10307 -0.53216,26.53922 -1.2637,38.75365 -0.48895,8.16415 -0.63906,15.78248 0.50719,22.39071 1.53573,8.35363 2.21715,15.76909 6.20709,20.0255 17.84443,23.27791 62.00717,21.37491 80.01357,2.50868 3.0993,-3.24727 5.42368,-6.99709 6.70558,-11.20757 0.81607,-5.11807 0.95313,-10.45207 0.91799,-15.77766 -0.068,-10.31614 -0.78231,-20.60067 1.54102,-29.22284 -0.9103,-8.62099 -0.42053,-17.20335 -0.3638,-25.58832 0.0514,-7.60056 -0.25295,-15.03894 -2.27841,-22.19688 -7.03328,-12.81783 -5.07591,-27.69601 -10.83656,-39.80682 -7.01313,-13.41824 -21.91644,-14.52753 -28.51919,-25.43893 -20.71561,-53.85275 -25.19675,-69.11712 -52.38876,-108.58233 -7.10908,-10.31778 -14.69304,-13.57001 -19.22578,-26.27241 -0.0814,-1.0943 -1.18378,-6.13915 0.0945,-11.50917 1.05978,-4.83683 1.56159,-12.22019 -0.2227,-17.1436 -24.07266,-26.78782 -47.55208,-58.60846 -71.65703,-84.36242 -11.80787,-12.61564 -26.84219,-22.65709 -39.09352,-31.0566 -2.03273,-1.50176 -2.05584,-3.84896 -3.81131,-3.84896 -1.75549,0 -4.18615,-1.37862 -5.40147,-3.06358 -4.70131,-6.4032 -13.32424,-9.3935 -19.52327,-14.59666 -22.93214,-17.30145 -38.65933,-35.77753 -64.00409,-40.11235 -7.08414,-0.98193 -9.22615,-1.78174 -11.51082,-2.15532 -24.10927,-2.55105 -29.81249,-2.7876 -31.26758,-1.29691 z"
   id="path3768"
   inkscape:connector-curvature="0"
   sodipodi:nodetypes="cccsssccccccscccccccsscsccccsccccscsscsccscsccscscscccscccscscccccc" /></svg>