<?xml version="1.0" encoding="UTF-8" standalone="no"?>
<svg
   xmlns:dc="http://purl.org/dc/elements/1.1/"
   xmlns:cc="http://creativecommons.org/ns#"
   xmlns:rdf="http://www.w3.org/1999/02/22-rdf-syntax-ns#"
   xmlns:svg="http://www.w3.org/2000/svg"
   xmlns="http://www.w3.org/2000/svg"
   xmlns:sodipodi="http://sodipodi.sourceforge.net/DTD/sodipodi-0.dtd"
   xmlns:inkscape="http://www.inkscape.org/namespaces/inkscape"
   version="1.1"
   id="Layer_1"
   x="0px"
   y="0px"
   width="1000"
   height="1000"
   viewBox="0 0 1000 1000"
   enable-background="new 0 0 512 512"
   xml:space="preserve"
   inkscape:version="0.48.0 r9654"
   sodipodi:docname="vavhebrew-x5d5.svg"><title
   id="title3743">Sinai 357</title><metadata
   id="metadata72"><rdf:RDF><cc:Work
       rdf:about=""><dc:format>image/svg+xml</dc:format><dc:type
         rdf:resource="http://purl.org/dc/dcmitype/StillImage" /><dc:title>Sinai 357</dc:title><dc:date>2017</dc:date><dc:creator><cc:Agent><dc:title>Celeste Claire Horner</dc:title></cc:Agent></dc:creator><dc:publisher><cc:Agent><dc:title>beitdina.net</dc:title></cc:Agent></dc:publisher></cc:Work></rdf:RDF></metadata><defs
   id="defs70" /><sodipodi:namedview
   pagecolor="#ffffff"
   bordercolor="#666666"
   borderopacity="1"
   objecttolerance="10"
   gridtolerance="10"
   guidetolerance="10"
   inkscape:pageopacity="0"
   inkscape:pageshadow="2"
   inkscape:window-width="1009"
   inkscape:window-height="796"
   id="namedview68"
   showgrid="false"
   inkscape:zoom="0.18022937"
   inkscape:cx="-38.636824"
   inkscape:cy="359.30252"
   inkscape:window-x="166"
   inkscape:window-y="5"
   inkscape:window-maximized="0"
   inkscape:current-layer="Layer_1" />
   
	<g
   id="Grid"
   transform="matrix(1.9355902,0,0,1.951787,6.040629,8.2651931)">
		<rect
   x="0"
   stroke-miterlimit="10"
   width="512"
   height="512"
   id="rect4"
   y="0"
   style="fill:none;stroke:#a9ccdb;stroke-miterlimit:10" />
		<line
   stroke-miterlimit="10"
   x1="0"
   y1="32"
   x2="512"
   y2="32"
   id="line6"
   style="fill:none;stroke:#a9ccdb;stroke-miterlimit:10" />
		<line
   stroke-miterlimit="10"
   x1="0"
   y1="64"
   x2="512"
   y2="64"
   id="line8"
   style="fill:none;stroke:#a9ccdb;stroke-miterlimit:10" />
		<line
   stroke-miterlimit="10"
   x1="0"
   y1="96"
   x2="512"
   y2="96"
   id="line10"
   style="fill:none;stroke:#a9ccdb;stroke-miterlimit:10" />
		<line
   stroke-miterlimit="10"
   x1="0"
   y1="128"
   x2="512"
   y2="128"
   id="line12"
   style="fill:none;stroke:#a9ccdb;stroke-miterlimit:10" />
		<line
   stroke-miterlimit="10"
   x1="0"
   y1="160"
   x2="512"
   y2="160"
   id="line14"
   style="fill:none;stroke:#a9ccdb;stroke-miterlimit:10" />
		<line
   stroke-miterlimit="10"
   x1="0"
   y1="192"
   x2="512"
   y2="192"
   id="line16"
   style="fill:none;stroke:#a9ccdb;stroke-miterlimit:10" />
		<line
   stroke-miterlimit="10"
   x1="0"
   y1="224"
   x2="512"
   y2="224"
   id="line18"
   style="fill:none;stroke:#a9ccdb;stroke-miterlimit:10" />
		<line
   stroke-miterlimit="10"
   x1="0"
   y1="256"
   x2="512"
   y2="256"
   id="line20"
   style="fill:none;stroke:#a9ccdb;stroke-miterlimit:10" />
		<line
   stroke-miterlimit="10"
   x1="0"
   y1="288"
   x2="512"
   y2="288"
   id="line22"
   style="fill:none;stroke:#a9ccdb;stroke-miterlimit:10" />
		<line
   stroke-miterlimit="10"
   x1="0"
   y1="320"
   x2="512"
   y2="320"
   id="line24"
   style="fill:none;stroke:#a9ccdb;stroke-miterlimit:10" />
		<line
   stroke-miterlimit="10"
   x1="0"
   y1="352"
   x2="512"
   y2="352"
   id="line26"
   style="fill:none;stroke:#a9ccdb;stroke-miterlimit:10" />
		<line
   stroke-miterlimit="10"
   x1="0"
   y1="384"
   x2="512"
   y2="384"
   id="line28"
   style="fill:none;stroke:#a9ccdb;stroke-miterlimit:10" />
		<line
   stroke-miterlimit="10"
   x1="0"
   y1="416"
   x2="512"
   y2="416"
   id="line30"
   style="fill:none;stroke:#a9ccdb;stroke-miterlimit:10" />
		<line
   stroke-miterlimit="10"
   x1="0"
   y1="448"
   x2="512"
   y2="448"
   id="line32"
   style="fill:none;stroke:#ff0000;stroke-miterlimit:10" />
		<line
   stroke-miterlimit="10"
   x1="0"
   y1="480"
   x2="512"
   y2="480"
   id="line34"
   style="fill:none;stroke:#a9ccdb;stroke-miterlimit:10" />
		<line
   stroke-miterlimit="10"
   x1="32"
   y1="0"
   x2="32"
   y2="512"
   id="line36"
   style="fill:none;stroke:#a9ccdb;stroke-miterlimit:10" />
		<line
   stroke-miterlimit="10"
   x1="64"
   y1="0"
   x2="64"
   y2="512"
   id="line38"
   style="fill:none;stroke:#a9ccdb;stroke-miterlimit:10" />
		<line
   stroke-miterlimit="10"
   x1="96"
   y1="0"
   x2="96"
   y2="512"
   id="line40"
   style="fill:none;stroke:#a9ccdb;stroke-miterlimit:10" />
		<line
   stroke-miterlimit="10"
   x1="128"
   y1="0"
   x2="128"
   y2="512"
   id="line42"
   style="fill:none;stroke:#a9ccdb;stroke-miterlimit:10" />
		<line
   stroke-miterlimit="10"
   x1="160"
   y1="0"
   x2="160"
   y2="512"
   id="line44"
   style="fill:none;stroke:#a9ccdb;stroke-miterlimit:10" />
		<line
   stroke-miterlimit="10"
   x1="192"
   y1="0"
   x2="192"
   y2="512"
   id="line46"
   style="fill:none;stroke:#a9ccdb;stroke-miterlimit:10" />
		<line
   stroke-miterlimit="10"
   x1="224"
   y1="0"
   x2="224"
   y2="512"
   id="line48"
   style="fill:none;stroke:#a9ccdb;stroke-miterlimit:10" />
		<line
   stroke-miterlimit="10"
   x1="256"
   y1="0"
   x2="256"
   y2="512"
   id="line50"
   style="fill:none;stroke:#a9ccdb;stroke-miterlimit:10" />
		<line
   stroke-miterlimit="10"
   x1="288"
   y1="0"
   x2="288"
   y2="512"
   id="line52"
   style="fill:none;stroke:#a9ccdb;stroke-miterlimit:10" />
		<line
   stroke-miterlimit="10"
   x1="320"
   y1="0"
   x2="320"
   y2="512"
   id="line54"
   style="fill:none;stroke:#a9ccdb;stroke-miterlimit:10" />
		<line
   stroke-miterlimit="10"
   x1="352"
   y1="0"
   x2="352"
   y2="512"
   id="line56"
   style="fill:none;stroke:#a9ccdb;stroke-miterlimit:10" />
		<line
   stroke-miterlimit="10"
   x1="384"
   y1="0"
   x2="384"
   y2="512"
   id="line58"
   style="fill:none;stroke:#a9ccdb;stroke-miterlimit:10" />
		<line
   stroke-miterlimit="10"
   x1="416"
   y1="0"
   x2="416"
   y2="512"
   id="line60"
   style="fill:none;stroke:#a9ccdb;stroke-miterlimit:10" />
		<line
   stroke-miterlimit="10"
   x1="448"
   y1="0"
   x2="448"
   y2="512"
   id="line62"
   style="fill:none;stroke:#a9ccdb;stroke-miterlimit:10" />
		<line
   stroke-miterlimit="10"
   x1="480"
   y1="0"
   x2="480"
   y2="512"
   id="line64"
   style="fill:none;stroke:#a9ccdb;stroke-miterlimit:10" />
	</g>
	

<path
   style="fill:#a60208;fill-opacity:0.68695655"
   d="m 365.30439,872.56343 c 21.34476,-3.78618 16.20374,-34.97631 20.80184,-56.88205 1.31911,-7.474 4.43706,-16.62732 8.55824,-21.26867 6.59992,-7.4328 5.42748,-3.42202 9.78001,-13.06014 4.34403,-9.32856 0.0725,-20.63817 3.2728,-29.90311 4.44494,-11.16829 3.03969,-24.93645 -2.81481,-32.89728 -9.39063,-15.36555 9.9155,-13.76987 3.00426,-29.36396 -7.12708,-15.93401 3.6766,-14.96219 -2.77083,-29.91864 -4.21163,-9.76963 0.64436,-25.79864 3.64764,-32.45796 2.8912,-5.32509 -6.63863,-17.88345 -2.47586,-24.96901 3.43569,-11.66062 2.22185,-26.02722 9.18682,-35.81035 6.28879,-8.47602 4.09653,-2.98779 10.46859,-12.0396 4.18693,-5.42682 8.29714,-12.27623 11.76977,-19.62651 5.07831,-10.74894 8.79312,-22.569 9.39034,-32.57754 0.6412,-24.90318 -1.78254,-39.00683 -0.22552,-63.08145 -0.0548,-8.59657 -0.23287,-22.00102 0.14641,-30.34758 0.46516,-10.23637 1.03103,-20.24161 1.14395,-29.90999 0.0991,-11.20647 -1.12182,-22.05112 -0.35943,-33.31457 0.73176,-10.81087 -0.0133,-23.4493 -0.21978,-33.21763 -0.41112,-9.83263 0.80252,-20.03764 0.9043,-28.44228 0.12438,-10.27133 -1.35344,-20.68639 -0.74916,-30.41026 0.29511,-4.74867 4.91732,-14.51824 5.64992,-19.82472 1.76937,-15.80547 -9.29857,-25.85216 -7.1897,-34.09255 5.63799,-22.03043 6.46141,-28.80361 -14.01975,-40.71888 -7.03118,-4.13901 -14.28344,-9.26435 -19.43317,-14.10229 -6.69931,-6.29331 -17.14733,-13.00758 -23.2179,-14.92038 -17.55936,0.94202 -51.24298,13.94823 -54.17329,34.42597 -1.15177,8.44762 -16.15723,40.66589 -16.81504,51.6553 1.31845,37.83649 -9.82219,13.43334 -14.92997,47.62607 -1.27845,3.81114 0.0395,9.02916 -0.38617,13.96613 -1.42594,16.53772 0.43948,37.70429 -0.14012,52.19355 -0.0662,3.53382 0.39736,7.62529 -0.46796,10.95253 -2.18591,10.24597 3.07109,24.16093 0.24216,32.13839 -3.7617,9.15546 2.74833,6.32192 0.0505,15.62665 -0.86601,2.9868 2.04463,11.51794 0,14.2319 -4.03642,4.15437 -0.65018,8.29756 -0.28031,12.37707 0.47932,5.28234 0.3558,8.79787 0.058,13.74868 2.56547,5.1807 0.8365,9.0479 -0.3216,13.33268 -1.97342,4.26645 -2.69552,27.999 -9.14075,36.97055 -9.16474,12.75683 -30.29358,21.72697 -36.56143,22.15454 -7.47182,0.71429 -12.75196,0.74465 -15.50139,0.2435 -5.63215,0.0111 -13.15484,-1.4154 -18.7199,1.0322 -4.31553,1.89804 -6.41584,6.22535 -10.28492,8.225 -4.6986,2.46023 -6.86318,4.98469 -12.1938,6.31439 -1.91225,0.47691 -15.83631,0.41168 -17.79246,0.68155 -6.89792,-1.95081 -4.34862,5.42056 -8.54538,6.13229 -8.47722,2.59951 -5.33171,9.91952 -8.3492,19.38938 -3.17455,9.96236 -3.59991,21.51781 -5.06779,31.21048 -0.90862,5.99947 -3.61849,11.49597 -3.40548,14.82483 0.33447,5.0442 1.20485,7.90606 0.62809,11.46402 -2.77149,6.32187 0.0328,11.73118 -0.87496,17.45415 -0.82559,5.09801 -0.0699,10.39077 0.94444,12.58202 2.94625,7.80326 0.87824,14.55231 3.48237,22.11145 13.25555,38.47698 23.34855,74.43055 43.19178,114.36492 14.71338,23.40181 6.19539,27.60425 16.90076,48.90789 8.73128,31.18826 17.76407,51.25499 34.11923,60.62745 8.70604,3.04322 29.74259,-7.21105 36.88581,1.21636 11.41233,6.23876 11.74287,1.87905 22.2125,-0.47522 15.11608,-6.02135 22.1476,-0.85769 33.27232,1.06902 5.18995,0.68092 13.95346,0.51061 17.71498,-5.61829 z"
   id="path3772"
   inkscape:connector-curvature="0"
   sodipodi:nodetypes="ccsccccsccccsccscscsscscsccccscccscsccsccscsccssccccsccccccc" /></svg>