<?xml version="1.0" encoding="UTF-8" standalone="no"?>
<svg
   xmlns:dc="http://purl.org/dc/elements/1.1/"
   xmlns:cc="http://creativecommons.org/ns#"
   xmlns:rdf="http://www.w3.org/1999/02/22-rdf-syntax-ns#"
   xmlns:svg="http://www.w3.org/2000/svg"
   xmlns="http://www.w3.org/2000/svg"
   xmlns:sodipodi="http://sodipodi.sourceforge.net/DTD/sodipodi-0.dtd"
   xmlns:inkscape="http://www.inkscape.org/namespaces/inkscape"
   version="1.1"
   id="Layer_1"
   x="0px"
   y="0px"
   width="1159"
   height="1159"
   viewBox="0 0 1159 1159"
   enable-background="new 0 0 512 512"
   xml:space="preserve"
   inkscape:version="0.48.0 r9654"
   sodipodi:docname="yodhebrew-x5d9.svg"
   inkscape:export-filename="C:\Fonts\Proto-Sianitic\S2450776_Sianitic.png"
   inkscape:export-xdpi="90"
   inkscape:export-ydpi="90"><title
   id="title3743">Sinai 245/776</title><metadata
   id="metadata72"><rdf:RDF><cc:Work
       rdf:about=""><dc:format>image/svg+xml</dc:format><dc:type
         rdf:resource="http://purl.org/dc/dcmitype/StillImage" /><dc:title>Sinai 245/776</dc:title><dc:date>2021</dc:date><dc:creator><cc:Agent><dc:title>InkScape</dc:title></cc:Agent></dc:creator><dc:publisher><cc:Agent><dc:title>beitdina.net</dc:title></cc:Agent></dc:publisher><cc:license
         rdf:resource="http://scripts.sil.org/OFL" /></cc:Work><cc:License
       rdf:about="http://scripts.sil.org/OFL"><cc:permits
         rdf:resource="http://scripts.sil.org/pub/OFL/Reproduction" /><cc:permits
         rdf:resource="http://scripts.sil.org/pub/OFL/Distribution" /><cc:permits
         rdf:resource="http://scripts.sil.org/pub/OFL/Embedding" /><cc:permits
         rdf:resource="http://scripts.sil.org/pub/OFL/DerivativeWorks" /><cc:requires
         rdf:resource="http://scripts.sil.org/pub/OFL/Notice" /><cc:requires
         rdf:resource="http://scripts.sil.org/pub/OFL/Attribution" /><cc:requires
         rdf:resource="http://scripts.sil.org/pub/OFL/ShareAlike" /><cc:requires
         rdf:resource="http://scripts.sil.org/pub/OFL/DerivativeRenaming" /><cc:requires
         rdf:resource="http://scripts.sil.org/pub/OFL/BundlingWhenSelling" /></cc:License></rdf:RDF></metadata><defs
   id="defs70"><linearGradient
     id="linearGradient4617"><stop
       style="stop-color:#030303;stop-opacity:1;"
       offset="0"
       id="stop4619" /><stop
       style="stop-color:#030303;stop-opacity:0;"
       offset="1"
       id="stop4621" /></linearGradient><linearGradient
     id="linearGradient4587"><stop
       style="stop-color:#ee9751;stop-opacity:1;"
       offset="0"
       id="stop4589" /><stop
       style="stop-color:#ee9751;stop-opacity:0;"
       offset="1"
       id="stop4591" /></linearGradient></defs><sodipodi:namedview
   pagecolor="#ffffff"
   bordercolor="#666666"
   borderopacity="1"
   objecttolerance="10"
   gridtolerance="10"
   guidetolerance="10"
   inkscape:pageopacity="0"
   inkscape:pageshadow="2"
   inkscape:window-width="1152"
   inkscape:window-height="814"
   id="namedview68"
   showgrid="false"
   inkscape:zoom="0.38066127"
   inkscape:cx="-78.343808"
   inkscape:cy="829.37316"
   inkscape:window-x="-8"
   inkscape:window-y="-8"
   inkscape:window-maximized="1"
   inkscape:current-layer="Layer_1" />
   
	<g
   id="Grid"
   transform="matrix(2.2469488,0,0,2.2533508,-1.4161501,12.931703)">
		<rect
   x="0"
   stroke-miterlimit="10"
   width="512"
   height="512"
   id="rect4"
   y="0"
   style="fill:none;stroke:#a9ccdb;stroke-miterlimit:10" />
		<line
   stroke-miterlimit="10"
   x1="0"
   y1="32"
   x2="512"
   y2="32"
   id="line6"
   style="fill:none;stroke:#a9ccdb;stroke-miterlimit:10" />
		<line
   stroke-miterlimit="10"
   x1="0"
   y1="64"
   x2="512"
   y2="64"
   id="line8"
   style="fill:none;stroke:#a9ccdb;stroke-miterlimit:10" />
		<line
   stroke-miterlimit="10"
   x1="0"
   y1="96"
   x2="512"
   y2="96"
   id="line10"
   style="fill:none;stroke:#a9ccdb;stroke-miterlimit:10" />
		<line
   stroke-miterlimit="10"
   x1="0"
   y1="128"
   x2="512"
   y2="128"
   id="line12"
   style="fill:none;stroke:#a9ccdb;stroke-miterlimit:10" />
		<line
   stroke-miterlimit="10"
   x1="0"
   y1="160"
   x2="512"
   y2="160"
   id="line14"
   style="fill:none;stroke:#a9ccdb;stroke-miterlimit:10" />
		<line
   stroke-miterlimit="10"
   x1="0"
   y1="192"
   x2="512"
   y2="192"
   id="line16"
   style="fill:none;stroke:#a9ccdb;stroke-miterlimit:10" />
		<line
   stroke-miterlimit="10"
   x1="0"
   y1="224"
   x2="512"
   y2="224"
   id="line18"
   style="fill:none;stroke:#a9ccdb;stroke-miterlimit:10" />
		<line
   stroke-miterlimit="10"
   x1="0"
   y1="256"
   x2="512"
   y2="256"
   id="line20"
   style="fill:none;stroke:#a9ccdb;stroke-miterlimit:10" />
		<line
   stroke-miterlimit="10"
   x1="0"
   y1="288"
   x2="512"
   y2="288"
   id="line22"
   style="fill:none;stroke:#a9ccdb;stroke-miterlimit:10" />
		<line
   stroke-miterlimit="10"
   x1="0"
   y1="320"
   x2="512"
   y2="320"
   id="line24"
   style="fill:none;stroke:#a9ccdb;stroke-miterlimit:10" />
		<line
   stroke-miterlimit="10"
   x1="0"
   y1="352"
   x2="512"
   y2="352"
   id="line26"
   style="fill:none;stroke:#a9ccdb;stroke-miterlimit:10" />
		<line
   stroke-miterlimit="10"
   x1="0"
   y1="384"
   x2="512"
   y2="384"
   id="line28"
   style="fill:none;stroke:#a9ccdb;stroke-miterlimit:10" />
		<line
   stroke-miterlimit="10"
   x1="0"
   y1="416"
   x2="512"
   y2="416"
   id="line30"
   style="fill:none;stroke:#a9ccdb;stroke-miterlimit:10" />
		<line
   stroke-miterlimit="10"
   x1="0"
   y1="448"
   x2="512"
   y2="448"
   id="line32"
   style="fill:none;stroke:#ff0000;stroke-miterlimit:10" />
		<line
   stroke-miterlimit="10"
   x1="0"
   y1="480"
   x2="512"
   y2="480"
   id="line34"
   style="fill:none;stroke:#a9ccdb;stroke-miterlimit:10" />
		<line
   stroke-miterlimit="10"
   x1="32"
   y1="0"
   x2="32"
   y2="512"
   id="line36"
   style="fill:none;stroke:#a9ccdb;stroke-miterlimit:10" />
		<line
   stroke-miterlimit="10"
   x1="64"
   y1="0"
   x2="64"
   y2="512"
   id="line38"
   style="fill:none;stroke:#a9ccdb;stroke-miterlimit:10" />
		<line
   stroke-miterlimit="10"
   x1="96"
   y1="0"
   x2="96"
   y2="512"
   id="line40"
   style="fill:none;stroke:#a9ccdb;stroke-miterlimit:10" />
		<line
   stroke-miterlimit="10"
   x1="128"
   y1="0"
   x2="128"
   y2="512"
   id="line42"
   style="fill:none;stroke:#a9ccdb;stroke-miterlimit:10" />
		<line
   stroke-miterlimit="10"
   x1="160"
   y1="0"
   x2="160"
   y2="512"
   id="line44"
   style="fill:none;stroke:#a9ccdb;stroke-miterlimit:10" />
		<line
   stroke-miterlimit="10"
   x1="192"
   y1="0"
   x2="192"
   y2="512"
   id="line46"
   style="fill:none;stroke:#a9ccdb;stroke-miterlimit:10" />
		<line
   stroke-miterlimit="10"
   x1="224"
   y1="0"
   x2="224"
   y2="512"
   id="line48"
   style="fill:none;stroke:#a9ccdb;stroke-miterlimit:10" />
		<line
   stroke-miterlimit="10"
   x1="256"
   y1="0"
   x2="256"
   y2="512"
   id="line50"
   style="fill:none;stroke:#a9ccdb;stroke-miterlimit:10" />
		<line
   stroke-miterlimit="10"
   x1="288"
   y1="0"
   x2="288"
   y2="512"
   id="line52"
   style="fill:none;stroke:#a9ccdb;stroke-miterlimit:10" />
		<line
   stroke-miterlimit="10"
   x1="320"
   y1="0"
   x2="320"
   y2="512"
   id="line54"
   style="fill:none;stroke:#a9ccdb;stroke-miterlimit:10" />
		<line
   stroke-miterlimit="10"
   x1="352"
   y1="0"
   x2="352"
   y2="512"
   id="line56"
   style="fill:none;stroke:#a9ccdb;stroke-miterlimit:10" />
		<line
   stroke-miterlimit="10"
   x1="384"
   y1="0"
   x2="384"
   y2="512"
   id="line58"
   style="fill:none;stroke:#a9ccdb;stroke-miterlimit:10" />
		<line
   stroke-miterlimit="10"
   x1="416"
   y1="0"
   x2="416"
   y2="512"
   id="line60"
   style="fill:none;stroke:#a9ccdb;stroke-miterlimit:10" />
		<line
   stroke-miterlimit="10"
   x1="448"
   y1="0"
   x2="448"
   y2="512"
   id="line62"
   style="fill:none;stroke:#a9ccdb;stroke-miterlimit:10" />
		<line
   stroke-miterlimit="10"
   x1="480"
   y1="0"
   x2="480"
   y2="512"
   id="line64"
   style="fill:none;stroke:#a9ccdb;stroke-miterlimit:10" />
	</g>

<g
   id="g3826"
   transform="matrix(2.0227923,0,0,-1.5722884,129.21983,-94.202079)"><path
     sodipodi:nodetypes="cccccsccccccccccccccccsssscsccccsccccc"
     inkscape:connector-curvature="0"
     id="path3782-1"
     d="m 69.558842,-166.54566 c -5.560477,-23.87358 6.747695,-28.0083 7.457829,-45.16317 -0.01282,-11.57658 -0.210369,-34.08036 -0.04798,-44.90433 0.0761,-5.64478 -0.5539,-10.19654 0.104135,-14.32269 1.132662,-10.34608 0.479838,-21.65776 -3.442214,-29.48656 -4.1581,-8.20677 -10.81604,-9.73139 -14.46403,-9.1438 -6.51924,1.05005 -27.69122,0.51371 -31.76115,-2.63279 -7.475039,-1.39049 -11.388975,-12.67885 -14.859952,-17.55592 -2.186494,-2.27026 -2.061881,-3.16995 -2.257993,-3.98357 -0.259861,-2.70021 -0.8592968,-4.4198 -0.5776502,-7.06826 0.2718034,-2.60022 1.1586912,-5.51548 0.7834022,-7.76092 -0.142056,-10.73668 7.728336,-36.71567 11.390512,-46.0865 6.282788,-16.04317 12.691076,-26.229 21.41778,-44.03482 3.603151,-7.30487 8.787081,-12.61956 13.432161,-19.25715 4.959665,-7.03093 10.239494,-11.91779 17.25181,-16.89189 5.843224,-4.06198 12.34184,-6.27914 22.189168,-7.17307 7.09633,-1.10064 12.4509,-0.35251 18.393,3.21727 4.46469,2.90204 10.60887,6.01793 8.43572,13.06213 -0.61384,1.8894 -2.45808,3.77815 -1.87254,5.248 1.04489,7.4197 5.41762,16.17302 8.37911,22.57332 1.27355,2.783 2.40343,8.62512 3.71356,11.63642 3.20438,6.9982 3.36468,14.21271 0.30566,20.26631 -2.61199,5.1034 -2.21496,5.20365 -5.476,11.88815 -3.1667,6.4911 -1.86492,7.66984 -3.22412,14.79744 -2.08997,10.9597 -4.81115,12.03017 -4.24957,22.92587 0.52493,10.1847 -2.77696,8.81053 -0.15708,16.97953 0.81868,2.55272 0.37114,11.17378 3.16774,14.77508 3.91115,7.3608 1.36708,14.57851 0.56372,21.97327 -0.34266,3.1542 -0.36863,6.34062 0.55817,9.58409 0.85416,2.90607 -1.9497,8.08509 -1.29122,8.87764 1.44812,2.36583 1.78708,8.22685 1.13034,10.0076 -0.79906,3.40204 -0.42838,4.94906 -0.0971,8.47616 0.0145,2.88278 0.0707,5.93376 0.14312,9.08931 0.32497,14.15384 1.43606,33.36506 0.11633,45.98351 0.62956,6.84446 -0.28005,6.31763 -1.65453,9.21668 -5.80259,8.74185 -9.04835,24.32496 -14.89189,32.32998 -4.30895,5.64367 -8.8302,6.34369 -14.070993,6.03926 -5.735063,-1.60382 -22.670304,0.66025 -24.537255,-3.48158 z"
     style="fill:#5b52d5;fill-opacity:0.81304345" /></g></svg>