<?xml version="1.0" encoding="UTF-8" standalone="no"?>
<svg
   xmlns:dc="http://purl.org/dc/elements/1.1/"
   xmlns:cc="http://creativecommons.org/ns#"
   xmlns:rdf="http://www.w3.org/1999/02/22-rdf-syntax-ns#"
   xmlns:svg="http://www.w3.org/2000/svg"
   xmlns="http://www.w3.org/2000/svg"
   xmlns:sodipodi="http://sodipodi.sourceforge.net/DTD/sodipodi-0.dtd"
   xmlns:inkscape="http://www.inkscape.org/namespaces/inkscape"
   version="1.1"
   id="Layer_1"
   x="0px"
   y="0px"
   width="512"
   height="1024"
   viewBox="0 0 512 1024"
   enable-background="new 0 0 512 512"
   xml:space="preserve"
   inkscape:version="0.48.0 r9654"
   sodipodi:docname="yodhebrew-x5d9.svg"
   inkscape:export-filename="C:\Fonts\Proto-Sianitic\S2450776_Sianitic.png"
   inkscape:export-xdpi="90"
   inkscape:export-ydpi="90"><title
   id="title3743">Sinai 245/776</title><metadata
   id="metadata72"><rdf:RDF><cc:Work
       rdf:about=""><dc:format>image/svg+xml</dc:format><dc:type
         rdf:resource="http://purl.org/dc/dcmitype/StillImage" /><dc:title>Sinai 245/776</dc:title><dc:date>2021</dc:date><dc:creator><cc:Agent><dc:title>InkScape</dc:title></cc:Agent></dc:creator><dc:publisher><cc:Agent><dc:title>beitdina.net</dc:title></cc:Agent></dc:publisher><cc:license
         rdf:resource="http://scripts.sil.org/OFL" /></cc:Work><cc:License
       rdf:about="http://scripts.sil.org/OFL"><cc:permits
         rdf:resource="http://scripts.sil.org/pub/OFL/Reproduction" /><cc:permits
         rdf:resource="http://scripts.sil.org/pub/OFL/Distribution" /><cc:permits
         rdf:resource="http://scripts.sil.org/pub/OFL/Embedding" /><cc:permits
         rdf:resource="http://scripts.sil.org/pub/OFL/DerivativeWorks" /><cc:requires
         rdf:resource="http://scripts.sil.org/pub/OFL/Notice" /><cc:requires
         rdf:resource="http://scripts.sil.org/pub/OFL/Attribution" /><cc:requires
         rdf:resource="http://scripts.sil.org/pub/OFL/ShareAlike" /><cc:requires
         rdf:resource="http://scripts.sil.org/pub/OFL/DerivativeRenaming" /><cc:requires
         rdf:resource="http://scripts.sil.org/pub/OFL/BundlingWhenSelling" /></cc:License></rdf:RDF></metadata><defs
   id="defs70"><linearGradient
     id="linearGradient4617"><stop
       style="stop-color:#030303;stop-opacity:1;"
       offset="0"
       id="stop4619" /><stop
       style="stop-color:#030303;stop-opacity:0;"
       offset="1"
       id="stop4621" /></linearGradient><linearGradient
     id="linearGradient4587"><stop
       style="stop-color:#ee9751;stop-opacity:1;"
       offset="0"
       id="stop4589" /><stop
       style="stop-color:#ee9751;stop-opacity:0;"
       offset="1"
       id="stop4591" /></linearGradient></defs><sodipodi:namedview
   pagecolor="#ffffff"
   bordercolor="#666666"
   borderopacity="1"
   objecttolerance="10"
   gridtolerance="10"
   guidetolerance="10"
   inkscape:pageopacity="0"
   inkscape:pageshadow="2"
   inkscape:window-width="1152"
   inkscape:window-height="814"
   id="namedview68"
   showgrid="false"
   inkscape:zoom="0.38066126"
   inkscape:cx="-101.41097"
   inkscape:cy="540.41684"
   inkscape:window-x="-8"
   inkscape:window-y="-8"
   inkscape:window-maximized="1"
   inkscape:current-layer="Layer_1" />
   
	<g
   id="Grid"
   transform="matrix(1.0092481,0,0,1.9868061,-1.4161501,3.2679768)">
		<rect
   x="0"
   stroke-miterlimit="10"
   width="512"
   height="512"
   id="rect4"
   y="0"
   style="fill:none;stroke:#a9ccdb;stroke-miterlimit:10" />
		<line
   stroke-miterlimit="10"
   x1="0"
   y1="32"
   x2="512"
   y2="32"
   id="line6"
   style="fill:none;stroke:#a9ccdb;stroke-miterlimit:10" />
		<line
   stroke-miterlimit="10"
   x1="0"
   y1="64"
   x2="512"
   y2="64"
   id="line8"
   style="fill:none;stroke:#a9ccdb;stroke-miterlimit:10" />
		<line
   stroke-miterlimit="10"
   x1="0"
   y1="96"
   x2="512"
   y2="96"
   id="line10"
   style="fill:none;stroke:#a9ccdb;stroke-miterlimit:10" />
		<line
   stroke-miterlimit="10"
   x1="0"
   y1="128"
   x2="512"
   y2="128"
   id="line12"
   style="fill:none;stroke:#a9ccdb;stroke-miterlimit:10" />
		<line
   stroke-miterlimit="10"
   x1="0"
   y1="160"
   x2="512"
   y2="160"
   id="line14"
   style="fill:none;stroke:#a9ccdb;stroke-miterlimit:10" />
		<line
   stroke-miterlimit="10"
   x1="0"
   y1="192"
   x2="512"
   y2="192"
   id="line16"
   style="fill:none;stroke:#a9ccdb;stroke-miterlimit:10" />
		<line
   stroke-miterlimit="10"
   x1="0"
   y1="224"
   x2="512"
   y2="224"
   id="line18"
   style="fill:none;stroke:#a9ccdb;stroke-miterlimit:10" />
		<line
   stroke-miterlimit="10"
   x1="0"
   y1="256"
   x2="512"
   y2="256"
   id="line20"
   style="fill:none;stroke:#a9ccdb;stroke-miterlimit:10" />
		<line
   stroke-miterlimit="10"
   x1="0"
   y1="288"
   x2="512"
   y2="288"
   id="line22"
   style="fill:none;stroke:#a9ccdb;stroke-miterlimit:10" />
		<line
   stroke-miterlimit="10"
   x1="0"
   y1="320"
   x2="512"
   y2="320"
   id="line24"
   style="fill:none;stroke:#a9ccdb;stroke-miterlimit:10" />
		<line
   stroke-miterlimit="10"
   x1="0"
   y1="352"
   x2="512"
   y2="352"
   id="line26"
   style="fill:none;stroke:#a9ccdb;stroke-miterlimit:10" />
		<line
   stroke-miterlimit="10"
   x1="0"
   y1="384"
   x2="512"
   y2="384"
   id="line28"
   style="fill:none;stroke:#a9ccdb;stroke-miterlimit:10" />
		<line
   stroke-miterlimit="10"
   x1="0"
   y1="416"
   x2="512"
   y2="416"
   id="line30"
   style="fill:none;stroke:#a9ccdb;stroke-miterlimit:10" />
		<line
   stroke-miterlimit="10"
   x1="0"
   y1="448"
   x2="512"
   y2="448"
   id="line32"
   style="fill:none;stroke:#ff0000;stroke-miterlimit:10" />
		<line
   stroke-miterlimit="10"
   x1="0"
   y1="480"
   x2="512"
   y2="480"
   id="line34"
   style="fill:none;stroke:#a9ccdb;stroke-miterlimit:10" />
		<line
   stroke-miterlimit="10"
   x1="32"
   y1="0"
   x2="32"
   y2="512"
   id="line36"
   style="fill:none;stroke:#a9ccdb;stroke-miterlimit:10" />
		<line
   stroke-miterlimit="10"
   x1="64"
   y1="0"
   x2="64"
   y2="512"
   id="line38"
   style="fill:none;stroke:#a9ccdb;stroke-miterlimit:10" />
		<line
   stroke-miterlimit="10"
   x1="96"
   y1="0"
   x2="96"
   y2="512"
   id="line40"
   style="fill:none;stroke:#a9ccdb;stroke-miterlimit:10" />
		<line
   stroke-miterlimit="10"
   x1="128"
   y1="0"
   x2="128"
   y2="512"
   id="line42"
   style="fill:none;stroke:#a9ccdb;stroke-miterlimit:10" />
		<line
   stroke-miterlimit="10"
   x1="160"
   y1="0"
   x2="160"
   y2="512"
   id="line44"
   style="fill:none;stroke:#a9ccdb;stroke-miterlimit:10" />
		<line
   stroke-miterlimit="10"
   x1="192"
   y1="0"
   x2="192"
   y2="512"
   id="line46"
   style="fill:none;stroke:#a9ccdb;stroke-miterlimit:10" />
		<line
   stroke-miterlimit="10"
   x1="224"
   y1="0"
   x2="224"
   y2="512"
   id="line48"
   style="fill:none;stroke:#a9ccdb;stroke-miterlimit:10" />
		<line
   stroke-miterlimit="10"
   x1="256"
   y1="0"
   x2="256"
   y2="512"
   id="line50"
   style="fill:none;stroke:#a9ccdb;stroke-miterlimit:10" />
		<line
   stroke-miterlimit="10"
   x1="288"
   y1="0"
   x2="288"
   y2="512"
   id="line52"
   style="fill:none;stroke:#a9ccdb;stroke-miterlimit:10" />
		<line
   stroke-miterlimit="10"
   x1="320"
   y1="0"
   x2="320"
   y2="512"
   id="line54"
   style="fill:none;stroke:#a9ccdb;stroke-miterlimit:10" />
		<line
   stroke-miterlimit="10"
   x1="352"
   y1="0"
   x2="352"
   y2="512"
   id="line56"
   style="fill:none;stroke:#a9ccdb;stroke-miterlimit:10" />
		<line
   stroke-miterlimit="10"
   x1="384"
   y1="0"
   x2="384"
   y2="512"
   id="line58"
   style="fill:none;stroke:#a9ccdb;stroke-miterlimit:10" />
		<line
   stroke-miterlimit="10"
   x1="416"
   y1="0"
   x2="416"
   y2="512"
   id="line60"
   style="fill:none;stroke:#a9ccdb;stroke-miterlimit:10" />
		<line
   stroke-miterlimit="10"
   x1="448"
   y1="0"
   x2="448"
   y2="512"
   id="line62"
   style="fill:none;stroke:#a9ccdb;stroke-miterlimit:10" />
		<line
   stroke-miterlimit="10"
   x1="480"
   y1="0"
   x2="480"
   y2="512"
   id="line64"
   style="fill:none;stroke:#a9ccdb;stroke-miterlimit:10" />
	</g>
<path
   sodipodi:nodetypes="cccccsccccccccccccccccsssscsccccscccccc"
   inkscape:connector-curvature="0"
   id="path3782-1"
   d="m 139.89463,355.05598 c -8.45666,43.701 10.26225,51.26967 11.34225,82.67198 -0.0194,21.19114 -0.31994,62.38473 -0.073,82.1982 0.11574,10.33288 -3.46941,31.79999 -2.46864,39.35299 1.72262,18.93868 0.72977,39.64493 -5.23509,53.97568 -6.32385,15.02264 -16.44959,17.81349 -21.99763,16.7379 -9.9148,-1.92214 -42.114215,-0.94037 -48.303968,4.81937 -11.36842,2.54532 -17.32092,23.20887 -22.59976,32.13643 -3.32535,4.15575 -3.13581,5.80265 -3.43407,7.29199 -0.39522,4.94279 -1.30686,8.09054 -0.87852,12.93858 0.41338,4.75975 1.7622,10.09619 1.19143,14.20651 -0.21605,19.65369 14.38066,54.07368 19.95027,71.22715 9.555203,29.36731 19.301243,48.01266 32.573253,80.60655 5.479845,13.3717 13.363835,23.10032 20.428305,35.25056 7.54291,12.87025 15.57273,21.81573 26.23743,30.92092 8.88666,7.43551 18.7701,11.49406 33.74642,13.13042 10.79245,2.01475 18.93597,0.64528 27.97301,-5.88927 6.79012,-5.31223 16.13451,-11.01592 12.82947,-23.91046 -0.93355,-3.45859 -3.73837,-6.91598 -2.84786,-9.60656 1.58913,-13.58189 8.2394,-29.60501 12.74339,-41.32088 1.93688,-5.09432 3.65526,-15.78844 5.64776,-21.30068 4.87339,-12.81033 5.11718,-26.01663 0.46486,-37.09786 -3.97244,-9.34185 -3.36861,-9.52537 -8.32818,-21.76146 -4.81607,-11.88208 -2.83626,-14.03978 -4.90339,-27.087 -3.17854,-20.06192 -9.94406,-8.88641 -9.08998,-28.83118 0.79834,-18.64327 -4.22335,-16.12784 -0.23889,-31.08134 1.24509,-4.6728 0.56445,-20.4538 4.81765,-27.04605 5.94828,-13.47409 2.07913,-26.68623 0.85734,-40.22247 -0.52112,-5.77383 -0.56063,-11.60663 0.8489,-17.54386 1.29904,-5.31961 -2.9652,-14.79991 -1.96376,-16.25068 2.20237,-4.3307 2.71788,-15.05941 1.71908,-18.3191 -1.21525,-6.22749 1.97551,-22.19438 2.47933,-28.6508 0.0221,-5.27699 0.10753,-10.86186 0.21766,-16.63815 0.49424,-25.90886 2.18404,-61.07536 0.17693,-84.17366 0.95746,-12.52891 -0.42592,-11.56453 -2.51629,-16.87131 -8.82488,-16.00212 -13.7612,-44.52726 -22.64835,-59.18066 -6.55327,-10.3308 -13.42942,-11.6122 -21.39988,-11.0549 -8.72218,2.9358 -34.47815,-1.2086 -37.31752,6.3731 z"
   style="fill:#5b52d5;fill-opacity:0.81304345" /></svg>